<?xml version="1.0" standalone="no"?>
<svg viewBox="-1300 -200 3350 3350" style="width: 487.5px; height: 487.5px; justify-content: center; align-self: center; transform: scale(1, 1);" xmlns="http://www.w3.org/2000/svg"><g transform="rotate(0 491.2431640625 1498.216727571562)"><g transform="translate(-276 479)"><path id="_Skin" data-name="âœ‹ Skin" d="M130.55,2571.836h-.082c-37.467,0-72.05-6.769-105.727-20.695-9.663-3.4-21.689-7.629-23.366-14.479-2.756-18.739-.848-37.154,1.171-56.651v-.006c.818-8.568,1.408-16.684,1.979-24.532v-.01c1.65-22.7,3.208-44.132,9.921-70.918q.459-1.589.913-3.158l.042-.144c2.314-7.993,4.5-15.543,6.35-22.948a187.727,187.727,0,0,0,4.286-21.9,114.249,114.249,0,0,0-3.124-46.016c-.6-8.2,4.341-16.443,9.121-24.417,1.238-2.064,2.406-4.013,3.493-5.981,4.79-8.941,8.139-18.282,11.378-27.316,1.858-5.183,3.778-10.538,5.954-15.782a290.929,290.929,0,0,1-35.233-8.361l-1.893,6.819c-.416,1.5-1.562,2.259-3.408,2.259-1.1,0-4.058-.537-4.486-2.989,1.773-26.382,4.336-52.562,7.027-79.293,3.508-32.332,7.272-64.165,11.188-94.614,3.983-30.965,8.257-61.546,12.7-90.894,4.51-29.763,9.352-59.268,14.389-87.7,5.094-28.744,10.559-57.351,16.243-85.025a2741.359,2741.359,0,0,1,86.882-323.853c4.375-12.714,8.631-25.156,12.6-37.6,4.521-14.175,8.145-26.732,11.08-38.388a388.46,388.46,0,0,0,7.9-39.192,280.083,280.083,0,0,0,3.064-40.019,103.339,103.339,0,0,0-21.457-2.493,65.787,65.787,0,0,0-8.961.585,50.5,50.5,0,0,1-11.672-4.258,51.619,51.619,0,0,1-10.01-6.763,61.5,61.5,0,0,1-8.468-8.971,80.41,80.41,0,0,1-7.045-10.882,126.69,126.69,0,0,1-10.3-26.31,225.593,225.593,0,0,1-6.043-30.393c-1.317-9.847-2.24-20.647-2.743-32.1-.43-9.8-.565-20.375-.4-31.432.3-20.2,1.518-38.208,2.405-51.355v-.006c.176-2.611.359-5.31.506-7.657-6.233-1.872-11.167-4.038-14.664-6.437l-1.668.816c-4.077-10.118-7.925-20.907-11.437-32.068-3.415-10.85-6.609-22.358-9.493-34.2a731.414,731.414,0,0,1-13.71-73.774c-3.35-24.581-5.91-51.227-7.607-79.2-1.566-25.808-2.447-53.58-2.619-82.543-.3-49.6,1.425-104.16,5.259-166.806,3.342-54.608,7.844-108.07,11.815-155.238.84-9.98,1.709-20.3,2.543-30.357,2.7-17.867,3.732-39.409,4.821-62.216v-.012c.785-16.458,1.6-33.477,3.091-50.211,1.691-18.952,4.037-34.759,7.173-48.326a184.715,184.715,0,0,1,6.336-21.686,119.971,119.971,0,0,1,8.82-19.094,82.277,82.277,0,0,1,11.792-15.8,65.733,65.733,0,0,1,15.25-11.792c10.373-3.673,20.947-7.094,32.324-10.457,10.167-3.006,20.774-5.9,32.426-8.859,21.686-5.5,43.117-10.226,65.806-15.229l.053-.012c6.7-1.478,13.63-3.005,20.507-4.542,7.67-4.4,16.779-7.3,25.588-10.1l.067-.021c2.17-.691,4.414-1.4,6.565-2.121l-5.544-7.794c-3.485-4.909-5.238-12.346-4.69-19.894a31.55,31.55,0,0,1,2.36-10.124,17.743,17.743,0,0,1,5.536-7.382c4.223.234,9.68,3.362,14.494,6.122,1.85,1.061,3.6,2.062,5.15,2.829,4.633-9.58,8.262-17.753,11.417-25.722a254.762,254.762,0,0,0,9.394-28.233l1.919.688a56.855,56.855,0,0,1,8.619-25.446,58.213,58.213,0,0,1,17.833-17.466,81.22,81.22,0,0,1,23.85-10.059A108.527,108.527,0,0,1,422.785,0c15.487,0,30.809,3.1,43.145,8.743a58.461,58.461,0,0,1,9.175,6.193,50.508,50.508,0,0,1,7.078,7.161,54.7,54.7,0,0,1,9.066,16.724,98.261,98.261,0,0,1,4.283,19.094c.9,6.649,1.409,13.672,1.9,20.463,1.281,17.575,2.606,35.747,10.577,51.464l7.427-9.9.243,0a31.858,31.858,0,0,1,10.519,2.41,99.608,99.608,0,0,1,12.3,5.722c8.556,4.631,15.783,9.711,18.5,12.335,2.827,1.317,2.361,7.731,1.95,13.391a43.381,43.381,0,0,0-.184,6.954c9.478,2.146,19.324,4.014,29.748,5.991,13.737,2.606,27.941,5.3,41.7,8.755,15.539,3.9,28.37,8.274,39.226,13.363a123.285,123.285,0,0,1,17.18,9.709,93.024,93.024,0,0,1,14.754,12.422A81.071,81.071,0,0,1,713.1,226.647a86.168,86.168,0,0,1,8.093,19.406c3.627,14.475,6.872,29.292,9.922,45.3,2.716,14.253,5.214,29.136,7.637,45.5,4.5,30.383,8.039,61.363,11.463,91.323,3.829,33.506,7.788,68.149,13.1,102.1,2.861,18.273,5.875,34.891,9.214,50.8,3.749,17.863,7.808,34.387,12.41,50.516,6.533,17.732,13.466,35.813,20.806,54.955,17.51,45.665,35.615,92.884,49.581,138.949a666.909,666.909,0,0,1,17.079,67.442c2.142,11.137,3.794,21.882,4.91,31.938a289.361,289.361,0,0,1,1.842,30.263c.473,7.722,1.268,33.051.55,58.018-.4,13.914-1.2,25.474-2.389,34.359-1.431,10.729-3.419,17.513-5.911,20.164a3.557,3.557,0,0,1-2.583,1.29,3.185,3.185,0,0,1-.844-.118l-9.664,9.642a37.876,37.876,0,0,1,3.413,6.982,45.279,45.279,0,0,1,2.04,7.559,68.22,68.22,0,0,1,.777,16.372c-.676,11.313-3.342,23.048-5.921,34.4l0,.019c-.952,4.19-1.851,8.148-2.635,12.016a312.149,312.149,0,0,1-9.422,32.661,160.127,160.127,0,0,1-13.341,29.079,88.232,88.232,0,0,1-8.4,11.745,58.279,58.279,0,0,1-9.7,9.109,42.206,42.206,0,0,1-11.1,5.891,38.543,38.543,0,0,1-12.61,2.094,46.51,46.51,0,0,1-11.435-1.5,65.976,65.976,0,0,1-12.559-4.7c-4.1,22.664-8.737,45.8-14.161,70.729-4.837,22.237-10.2,45.407-16.393,70.835-11.513,47.276-24.243,95.449-36.554,142.036l0,.009c-13.994,52.955-28.464,107.714-41.32,161.774-6.923,29.109-12.832,55.671-18.065,81.2-5.876,28.673-10.753,55.312-14.911,81.436-4.466,28.067-8.062,55.55-10.689,81.684-2.811,27.973-4.628,55.544-5.4,81.949-.817,27.937-.495,55.6.956,82.231.753,13.825,1.829,27.7,3.2,41.226,1.4,13.839,3.142,27.735,5.185,41.3a2.922,2.922,0,0,1-.334,2.552,1.688,1.688,0,0,1-1.38.715,2.291,2.291,0,0,1-.864-.184l-2.355-1.085a92.593,92.593,0,0,1-12.073,2.492l-.019,0c-2.718.441-5.529.9-8.063,1.465,5.674,21.264,8.6,42.615,11.111,62.662,2.543,1.517,2.3,4.888,2.085,7.863v.006a23.386,23.386,0,0,0-.1,2.774c1.125-.054,2.253-.081,3.352-.081A67.455,67.455,0,0,1,623,2256.958a69.751,69.751,0,0,1,11.537,3.227,89.924,89.924,0,0,1,21,11.493c13.237,9.5,25.294,22.285,36.955,34.651l.006.007c9.75,10.338,19.831,21.029,30.378,29.5a609.848,609.848,0,0,0,81.352,60.674,185.969,185.969,0,0,1,17.513,11.06,81.634,81.634,0,0,1,14.115,12.615c8.625,10.009,11.977,20.819,10.246,33.049.139-.017,1.425-.214,2.787-.422,2.7-.413,5.358-.818,5.58-.837a42.2,42.2,0,0,1,1.977,15.742,25.713,25.713,0,0,1-4.07,11.958c-4.553,6.944-12.808,12.2-25.237,16.082-11.713,3.654-25.728,5.622-37.893,7.064-15.058,1.514-30.191,2.281-44.979,2.281-9.491,0-19.151-.315-28.712-.937-9.38-.611-18.985-1.539-28.547-2.759a553.342,553.342,0,0,1-57.783-10.653c-18.807-4.448-38.653-9.994-60.67-16.956-19.378-6.128-40.941-13.522-65.921-22.606a12.934,12.934,0,0,1-1.521.09,15.14,15.14,0,0,1-8.944-3.187,30.993,30.993,0,0,1-7.354-7.995,52.27,52.27,0,0,1-5.283-10.451,48.949,48.949,0,0,1-2.733-10.558c-.767-3.937-.273-7.818.25-11.926.67-5.27,1.363-10.717-.831-16.3-3.279-6.967-6.206-16.827-8.467-28.513a255.727,255.727,0,0,1-4.272-37.725c-.268-6.749-.267-13.394,0-19.748a186.538,186.538,0,0,1,1.728-18.969c1.895-12.959,5.1-23.554,9.538-31.491.9-1.045,1.853-2.09,2.772-3.1,5.94-6.539,12.082-13.3,11.139-24.62-.087-3.744-.253-7.54-.412-11.21-.4-9.205-.814-18.722-.018-27.95a265.654,265.654,0,0,1-33.29-5.312,208.525,208.525,0,0,1-31.135-9.58,6.629,6.629,0,0,1-2.388.453,5.1,5.1,0,0,1-5.28-5.116c-.388-6.183-.781-12.384-1.218-19.268-3.522-55.514-7.163-112.918-8.035-167.886-.46-13.594-.566-27.666-.317-41.823.238-13.487.808-27.493,1.693-41.628,1.634-26.079,4.335-53.143,8.26-82.737,7.286-54.948,17.771-110.317,27.911-163.863l.011-.06c3.976-20.994,8.087-42.7,11.933-64.017.867-22.236,3.509-44.448,6.064-65.928l0-.014c2.231-18.758,4.537-38.154,5.666-57.553,1.417-21.474,2.212-43.042,2.981-63.9l0-.068c.647-17.527,1.315-35.65,2.349-53.639l-13.514-2.934c-27.906,71.943-54.672,144.912-79.552,216.879-24.862,71.912-48.493,144.707-70.236,216.362-21.748,71.67-42.181,144.088-60.73,215.239-9.278,35.589-18.275,71.592-26.741,107.009-8.473,35.447-16.646,71.279-24.293,106.5A12.068,12.068,0,0,0,200,2205.7c1.64.96,3.679,2.152,3.558,3.892l-.005.137c-.04,1.171-.043,1.241-.892,1.365-13.853,2.785-28.339,5.036-44.284,6.881a100.042,100.042,0,0,1-.043,20.961c-.667,7.124-1.843,14.487-2.98,21.607l0,.012c-1.819,11.382-3.7,23.152-3.586,34.4a74.056,74.056,0,0,0,1.893,16.566,55.881,55.881,0,0,0,6.323,15.758c2.527,3.874,3.956,6.376,4.268,8.5s-.439,3.9-2.028,6.632a724.634,724.634,0,0,1,35.264,74.548,512.7,512.7,0,0,1,22.451,70.321l7.389-6.249c10.712,7.78,10.934,22.464,11.168,38.01a48.741,48.741,0,0,0,.319,8.7,42.913,42.913,0,0,1,.239,9.1,15.942,15.942,0,0,1-1.1,4.3,14.377,14.377,0,0,1-2.567,4.045c-3.838,4.485-10.159,8.583-18.788,12.181a158.508,158.508,0,0,1-27.83,8.24,291.244,291.244,0,0,1-30.729,4.69C148.406,2571.279,138.9,2571.808,130.55,2571.836ZM209.733,525.019c-3.82,15.2-7.192,30.976-10.024,46.881-2.7,15.16-5,30.95-6.831,46.931-3.383,29.489-5.315,60.234-5.907,93.991-.493,28.129-.038,58.918,1.392,94.129,1.276,31.408,3.192,63.343,5.044,94.227,1.705,28.428,3.468,57.824,4.73,86.767,1.415,32.44,2.033,60.827,1.89,86.784l1.334,1.2-2.169,1.136a131.2,131.2,0,0,1-3.808,14.142c6.28,6.044,14.875,13.923,21.782,20.255l.011.01.768.7,2.5,2.292a116.024,116.024,0,0,1-1.205-25.947,156.239,156.239,0,0,1,3.791-25.36c3.823-16.754,9.968-33.525,15.912-49.744,3.474-9.48,7.066-19.283,10.156-28.978-2.027-2.6-5.953-5.171-10.11-7.893-6.277-4.111-12.767-8.362-12.417-12.809,1.473-28.863,3.618-59.625,6.377-91.431,2.671-28.409,5.037-54.061,6.951-80.316,2.2-30.212,3.445-56.772,3.8-81.2.423-29.227-.391-55.807-2.487-81.259-1.136-13.792-2.677-27.383-4.58-40.4-2-13.665-4.463-27.157-7.327-40.1-.8-5.729-1.805-11.7-4.568-16.242C221.63,527.68,216.722,525.14,209.733,525.019Z" transform="translate(327 -62)" fill="#d08b5b"></path><path id="_Shoes" data-name="ðŸ‘Ÿ Shoes" d="M139.645,328.639c-9.348,0-19.246-.453-29.419-1.348-9.1-.8-18.714-1.98-28.571-3.506a265.477,265.477,0,0,1-61.191-19.053,58.385,58.385,0,0,1-9.646-4.061,21.3,21.3,0,0,1-6.642-5.445,16.611,16.611,0,0,1-3.045-6.54A29.852,29.852,0,0,1,.587,279.8C-.6,268.5.2,257.88,1.28,246.156L1.757,241c.859-9.385,1.592-18.59,1.129-28.016a266.513,266.513,0,0,1,5.259-41.33c2.72-13.731,6.206-27.588,9.576-40.989,2.122-8.437,4.317-17.161,6.279-25.7l8.765-14.012c.13-.1,13.18-9.939,28.332-19.688A249.931,249.931,0,0,1,84.4,57.73c8.225-4.082,14.494-6.152,18.63-6.152h.04l1.751,0h.124c4.059,0,9.683,1.19,16.718,3.537a208.1,208.1,0,0,1,19.43,7.783c12.3,5.563,22.7,11.264,22.8,11.32.295,1.214.143,4.9,0,8.471-.145,3.53-.294,7.177,0,8.267a52.668,52.668,0,0,0,6.947,14.434,133.6,133.6,0,0,0,9.395,11.932c5.768,6.776,11.733,13.783,15.486,23.248l3.735,9.421c10.2,25.8,19.858,51.183,25.855,78.025l1.005,4.5a117.124,117.124,0,0,1,9.8,10.947,71.2,71.2,0,0,1,6.852,10.249c2.1,3.943,3.231,7.436,3.354,10.38.021.338.512,8.387.251,17.022a87.473,87.473,0,0,1-1.15,12.7c-.761,4.144-1.872,6.794-3.3,7.876a136.851,136.851,0,0,1-23.412,12.74,162.44,162.44,0,0,1-25.312,8.316,203.833,203.833,0,0,1-26.569,4.525A261.029,261.029,0,0,1,139.645,328.639ZM750.04,261.867a479.718,479.718,0,0,1-61.086-4.051,595.476,595.476,0,0,1-60.483-11.143c-19.061-4.505-39.027-10.13-59.345-16.717-18.4-5.964-37.8-12.953-57.672-20.771L508,207.82c-.241.043-.491.081-.74.114a16.654,16.654,0,0,1-2.168.143,17.561,17.561,0,0,1-8.7-2.409,28.881,28.881,0,0,1-7.3-6.122,50.536,50.536,0,0,1-8.206-13.248,52.4,52.4,0,0,1-3.947-13.945c-.343-1.55-.143-5.986.068-10.683.285-6.338.608-13.521-.23-16.129a139.458,139.458,0,0,1-7.387-21.536,168.237,168.237,0,0,1-4.042-22.171,258.393,258.393,0,0,1-.81-45.088c-.208-15.839,1.19-28.108,4.274-37.508A49.275,49.275,0,0,1,478.464,2.08L480.2,0h15.893a144.551,144.551,0,0,0,8.6,22.565,73.1,73.1,0,0,0,10.479,16.118,40,40,0,0,0,12.353,9.671,32.315,32.315,0,0,0,14.227,3.224,29.756,29.756,0,0,0,10.785-1.925,32.224,32.224,0,0,0,8.653-5.027c5.2-4.137,9.416-9.6,13.491-14.884,7.215-9.354,14.029-18.19,25.194-18.19.193-.01,19.563-1,39.935-2.59,9.314,3.331,18.611,8.854,28.422,16.884,8.306,6.8,16.085,14.584,25.209,24.182l8.729,9.223c8.662,9.136,17.916,18.7,27.434,26.344,12.233,10.915,25.409,21.629,39.162,31.844,13.113,9.74,27.14,19.315,41.69,28.46l2.249,1.33c5.126,3.045,11.13,6.72,16.8,10.89a82.224,82.224,0,0,1,14.756,13.507,45.885,45.885,0,0,1,7.332,11.983,36.68,36.68,0,0,1,2.694,14.218l-.036,3.535.007.007c.255.246,2.56,2.474,4.819,5.074a40.43,40.43,0,0,1,3.337,4.313,8.015,8.015,0,0,1,1.558,3.684l.031,1.311a77.762,77.762,0,0,1-3.615,12.752c-2.105,5.755-5.535,13.224-9.919,16.131-11.356,7.53-51.993,14.192-56.589,14.926l-.046.007A412.618,412.618,0,0,1,750.04,261.867Z" transform="translate(322.001 2183.758)" fill="#fff"></path><path id="_Pants" data-name="ðŸ‘– Pants" d="M229.544,0l6.786,4.787c6.33,4.474,12.742,9.041,19.906,14.177l7.44,5.342,41.17,29.712c63.258,45.574,97.461,68.935,137.587,92.894l3.327,1.98.431.029c6.97.384,13.065-2.562,22.8-9.864l1-.758,3.862-2.947.92-.692,3.5-2.594,29.86-22.055c15.919-11.767,26.842-19.913,36.983-27.629l5.918-4.521,7.578-5.842,1.56.576a7.021,7.021,0,0,0,5.923-.4l.219-.139,2.12-1.42,2.706,2.9,1.713,1.82c3.7,3.922,7.438,7.774,12.453,12.86l1.181,1.2L601,104.037l4.338,4.392c5.583,5.671,9.7,9.944,13.762,14.287l1.106,1.187,2.2,2.385.411.384.518.5c1.8,1.743,3.514,3.615,5.913,6.415l.7.826,2.354,2.787,1.216,1.425c7.537,8.762,12.052,12.544,18.322,14.38l.332.095.561.15.219.038c4.492.737,7.626-.629,11.571-4.727l.283-.3.28-.3,2.568-2.708c10.339-10.859,19.945-20.438,35.8-35.777l5.448-5.26,22.029-21.2,4.47-4.325c1.6-1.548,3.09-3,4.548-4.427l2.109-2.064,6.107-6.011,2.08,2.589a4.808,4.808,0,0,0,5.71,1.192l.18-.108,4.7-3.017-.076,5.582q-.056,4.07-.226,8.28l-.131,3c-.542,11.5-1.52,21.961-3.585,39.532l-.218,1.843-2.659,22.078-.48,4.324c-6.666,59.148-17.559,120.622-33.006,189.493l-.933,4.147c-10.208,45.214-19.718,83.313-37.749,151.953l-4.22,16.035-14.118,53.423c-16,60.7-25.538,98.131-34.969,138.143l-.577,2.453-1.218,5.2-1.22,5.255c-11.5,49.761-20.574,94.951-27.551,138.4l-.365,2.285-.707,4.486c-17.649,112.974-20.878,214.521-7.506,313.159l.41,2.988.4,2.881-2.867.49c-57.254,9.774-111.667,13.4-163.922,10.257l-2.315-.144-2.071-.612q-5.236-1.576-10.237-3.374l-1.659-.605-2.086-.772.2-3.37.123-2.149c1.9-33.93,1.336-63.27-1.625-122.884l-.288-5.739-1.372-26.766c-.664-13.163-1.1-22.537-1.462-31.625l-.236-6.192-.239-6.854-.105-3.313c-1.536-50.02-.287-89.653,4.907-127.191l.348-2.472.345-2.375.495-4.8c3.83-36.521,8.729-67.86,19.359-127.058l1.785-9.9,4.622-25.5c12.009-66.583,17.432-101.271,21.239-140.848l.243-2.561.372-4.033,1.43-19.557c2.377-33.087,3.361-53.819,3.207-75.432l-.021-2.318c-.31-27.348-2.725-51.614-7.783-74.266l-.389-1.717v-.024l-.636-2.666-.022-.057-1.025-2.483,1.53-1.419a230.529,230.529,0,0,0,26.078-28.4c4.344-5.739-5.722-14.193-10.773-9.41l-.151.149-10.02,10.233,5.07-13.394q4.177-11.033,8.331-22.267l1.662-4.5.564-1.538L468.8,286.5c-57.644,123.89-109.539,260.8-158.133,413.832l-1.472,4.642-1.709,5.41c-46.187,146.556-87.506,300.523-135.274,497.747l-1.886,7.8-1.813.413-2.6.583c-42.056,9.287-84.743,11.706-147.227,10.413l-2.244-.048-2.027-.469q-4.138-.971-8.156-2.04l-2-.54L0,1223.055l.419-6.8C14.892,986.977,58.982,750.185,131.143,492.946l2.2-7.8,1.261-4.591L141.737,455l1.391-5.015c10.76-38.938,15.6-60.1,18.737-84.889l.1-.784.031-.2a304.173,304.173,0,0,0,5.577-47.229l.05-1.575.089-3.086,3.082.177c16.549.949,36.681-8.3,44.923-20.932l.246-.384,1.765-2.8,2.614,2.032c5.709,4.437,14.352.1,19.364-8.263l.145-.247.246-.487c4.226-8.538,5.781-18.369,5.08-29.7l-.05-.758-.057-.762c-.747-9.518-2.833-19.141-6.616-32.3l-1.568-5.414,4.661.733c9.7,1.526,21-2.173,28.1-9.055,7.167-6.947,8.786-15.624,3.543-24.39l-.216-.355-.23-.364-1.55-1.349-1.573-1.354c-5.648-4.835-11.5-9.539-20.292-16.375l-2.531-1.965-10.727-8.29c-15.292-11.856-24.039-19.026-32.944-27.309l-.424-.4-2.065-1.942-.058-1.208c-.823-17.015,1.385-34.288,6.36-53.335l.438-1.656.571-2.107c3.3-12.018,6.923-22.587,14.117-41.8Z" transform="translate(347.05 927.311)" fill="#ffcf77"></path><path id="_Ink" data-name="ðŸ– Ink" d="M141.279,2532.427h0a298.965,298.965,0,0,1-51.193-4.605,351.415,351.415,0,0,1-48.778-12.23c-3.336-1.431-6.871-2.759-10.289-4.044l-.009,0c-9.053-3.4-18.413-6.922-25.881-12.895C1.061,2494.524.769,2488.1.512,2482.425c-.037-.825-.076-1.676-.127-2.5-.348-9.1-.6-18.838-.106-28.359a129.728,129.728,0,0,1,4.3-28.181,234.916,234.916,0,0,1,1.375-38.112c1.247-11.264,3.181-23.243,6.085-37.7,1.375-8.63,3.9-17.207,6.351-25.5,3.222-10.928,6.555-22.229,7.257-33.718a36.326,36.326,0,0,0,1.922-14.689,103.94,103.94,0,0,0-2.228-14.446c-1.571-7.753-3.195-15.766-1.773-23.895,1.61-6.874,5.419-13.25,9.1-19.417a111.832,111.832,0,0,0,6.567-12.083c2.807-6.177,5.129-12.62,7.374-18.851,1.146-3.181,2.329-6.465,3.567-9.687-7.091-1.353-14.093-3.026-20.81-4.971a9.722,9.722,0,0,1-3.921,5.6,10.984,10.984,0,0,1-6.164,1.78,12.435,12.435,0,0,1-8.881-3.632,9.7,9.7,0,0,1-2.684-7.325c3.89-48.766,8.792-97.88,14.569-145.978,5.837-48.6,12.726-97.474,20.476-145.279,7.832-48.315,16.758-96.86,26.53-144.287,9.878-47.94,20.89-96.053,32.733-143,2.253-11.326,4.9-22.812,8.1-35.117,2.85-10.958,6.073-22.321,9.856-34.737,7.026-23.063,14.956-46.323,22.625-68.817,10.582-31.038,21.522-63.129,30.217-95.085,4.68-17.2,8.357-33,11.241-48.295a445.416,445.416,0,0,0,6.608-49.221,76.856,76.856,0,0,0-13.938-1.267,65.792,65.792,0,0,0-8.443.517l-.963.122a42.127,42.127,0,0,1-5.331.457,15.482,15.482,0,0,1-6.838-1.468,78.673,78.673,0,0,1-19.391-17.113,105.745,105.745,0,0,1-14.021-22.745,160.738,160.738,0,0,1-9.439-26.89,245.714,245.714,0,0,1-5.647-29.546c-1.259-9.533-2.148-19.867-2.642-30.714-.433-9.506-.577-19.731-.427-30.393.273-19.405,1.43-37.359,2.639-53.871a39.382,39.382,0,0,1-7.6-3.4,5.271,5.271,0,0,1-3.059,1.065,3.5,3.5,0,0,1-3.361-2.275c-1.232-2.9-2.627-5.807-3.975-8.621-2-4.173-4.065-8.488-5.647-12.838-6.645-22.854-12.467-46.682-17.306-70.82-4.609-23-8.476-47.034-11.495-71.449-2.852-23.068-5.045-47.278-6.517-71.956-1.375-23.052-2.173-47.391-2.371-72.341-.185-23.226.123-46.975.941-72.6.728-22.821,1.847-46.617,3.421-72.746,2.923-48.533,7-97.792,10.95-145.429,4.143-50.014,8.427-101.732,11.325-152.187.634-5.818,1.183-11.767,1.766-18.065v-.012c1.089-11.783,2.216-23.968,3.987-36.134a221.947,221.947,0,0,1,7.818-35.631,131.339,131.339,0,0,1,6.45-16.454,98.633,98.633,0,0,1,8.732-14.924,81.653,81.653,0,0,1,11.457-12.926,78.289,78.289,0,0,1,14.623-10.461c12.931-6.127,27.284-9.555,41.165-12.87,3.877-.926,7.883-1.883,11.766-2.878,16.1-4.8,32.736-8.609,48.827-12.291l.009,0c12.2-2.792,24.815-5.679,37.07-8.972a336.993,336.993,0,0,0,36.2-11.707c-4.275-5.941-6.334-13.532-5.953-21.952a47.951,47.951,0,0,1,6.6-22.007,10,10,0,0,1,3.751-3.5,9.711,9.711,0,0,1,4.484-1.016,21.079,21.079,0,0,1,7.984,1.912,77.761,77.761,0,0,1,7.468,3.756l.107.059q.5.278.986.541a243.91,243.91,0,0,0,10.747-26.033c3.223-9.118,6.032-18.253,8.633-26.827,1.825,1.478,2.879,5.146,3.135,10.9A106.664,106.664,0,0,1,348.2,29.434a161.28,161.28,0,0,1-3.8,19.09c-1.583,5.9-3.279,10.362-4.776,12.577,51.405,33.111,93.873,59.062,133.65,81.67h-.02A14.894,14.894,0,0,0,478.725,144a5.938,5.938,0,0,0,1.1-.092c.225-.073.458-.151.682-.226l.01,0a7.118,7.118,0,0,1,.879-.269c.006,0,.014,0,.016,0s0,.013-.017.023c.717-.384,1.374-.77,2.01-1.182l-.005.007.011-.01,0,0c9.291-8.565,16.227-20.37,22.935-31.787,2.753-4.686,5.6-9.532,8.534-14C501.91,85.013,504.082,65.139,506,47.606c.546-4.993,1.061-9.708,1.21-14.025h.037c1,0,1.808,1.017,2.462,3.108a44.942,44.942,0,0,1,1.232,6.085v.006a30.628,30.628,0,0,0,.687,3.611l.026.141c1.335,7.315,2.714,14.877,5.525,21.71,1.161-1.471,3.153-2.216,5.922-2.216,7.538,0,18.878,5.41,24.966,8.634,4.2,2.225,8.368,4.7,12.049,7.15a52.792,52.792,0,0,1,7.552,5.8,11.192,11.192,0,0,1,3.444,3.331,11.592,11.592,0,0,1,1.618,4.015,34.3,34.3,0,0,1,.2,9.117v.007c-.089,1.366-.181,2.777-.2,4.13,5.238,1.02,10.465,1.994,16,3.025l.013,0c16.548,3.084,33.659,6.274,50.21,10.588,8.95,2.333,16.879,4.766,24.242,7.439a171.849,171.849,0,0,1,22.453,9.872A120,120,0,0,1,705.4,152.2a93.842,93.842,0,0,1,16.156,17A90.407,90.407,0,0,1,733.2,190.883a111.3,111.3,0,0,1,6.232,27.137c10.9,46.441,16.717,93.447,22.191,141.531.85,7.28,1.7,14.7,2.524,21.867l.018.158c4.353,37.933,8.855,77.158,15.327,115.4,3.485,20.594,7.241,39.228,11.483,56.968,4.764,19.924,10.013,38.211,16.047,55.907q1.664,3.973,3.332,7.947l.638,1.52.008.018c11.9,28.364,24.2,57.693,35.22,86.963,5.935,15.763,11.029,30.234,15.572,44.242,5.1,15.724,9.379,30.461,13.082,45.051,2.346,5.088,5.52,19.39,8.709,39.237,3.4,21.163,6.342,45.653,8.284,68.96,1.088,13.063,1.848,25.571,2.258,37.175.448,12.681.477,24.277.083,34.465-.9,23.321-3.967,39.228-9.117,47.278a15.148,15.148,0,0,1-4.227,4.538,9.194,9.194,0,0,1-5.163,1.584H875.7a12.382,12.382,0,0,1-4.561-.958,47.406,47.406,0,0,1,3.884,7.931,52.593,52.593,0,0,1,2.377,8.345,71.813,71.813,0,0,1,1.125,17.554c-.564,11.957-3.328,24.118-6,35.879v.006l0,.021c-1.019,4.486-1.982,8.724-2.81,12.884-2.1,8.361-5.009,19.419-8.883,30.815a179.678,179.678,0,0,1-13.583,31.208,100.029,100.029,0,0,1-9.058,13.429,65.805,65.805,0,0,1-10.837,10.742,47.461,47.461,0,0,1-12.819,7.126,44.056,44.056,0,0,1-15,2.582,59.29,59.29,0,0,1-19.845-3.722c-4.179,22.341-8.825,45.06-14.2,69.453-4.8,21.751-10.066,44.344-16.114,69.069-11.242,45.962-23.529,92.494-35.412,137.494-8.952,33.9-18.208,68.954-26.961,103.551-9.807,38.766-17.91,72.774-24.773,103.967-8.236,37.433-14.909,71.717-20.4,104.811-2.976,17.936-5.627,35.719-7.878,52.856-2.362,17.983-4.37,35.891-5.966,53.229-1.806,19.637-3.113,39.122-3.886,57.915-.808,19.663-1.056,39.192-.736,58.044.333,19.633,1.291,39.132,2.849,57.954,1.617,19.538,3.929,38.933,6.87,57.647a9.433,9.433,0,0,1-1.814,8,8.746,8.746,0,0,1-6.828,3.348,9.2,9.2,0,0,1-3.787-.839,56.315,56.315,0,0,1-7.1,1.382c-1.284.193-2.607.392-3.9.638,4.273,17.194,6.776,35.308,9.17,53.9l.01.009a10.076,10.076,0,0,1,2.53,7.181,64.391,64.391,0,0,1,18.989,3,82.481,82.481,0,0,1,17.355,7.87c9.613,5.7,19.34,13.681,29.736,24.389,17.143,17.945,32.634,33.088,47.356,46.3a508.067,508.067,0,0,0,51.854,41.143c7.249,5.894,15.837,11.005,24.928,16.417l.008.005c11.536,6.866,23.465,13.967,32.555,22.865a55.6,55.6,0,0,1,11.184,14.943,45.123,45.123,0,0,1,3.326,8.9,47.694,47.694,0,0,1,1.438,10.068,8.571,8.571,0,0,1,1.416-.124,6.3,6.3,0,0,1,5.267,2.759c2.888,3.908,3.34,11.084,3.211,16.415a65.956,65.956,0,0,1-2.113,15.552,22.755,22.755,0,0,1-7.414,10.516,56.341,56.341,0,0,1-11.126,6.928c-8.03,2.692-16.338,5.065-24.691,7.052-8.136,1.936-16.545,3.562-24.993,4.831a341.787,341.787,0,0,1-50.612,3.666c-9.918,0-20.193-.4-30.539-1.186-9.919-.755-20.2-1.888-30.564-3.37-9.888-1.413-20.141-3.185-30.474-5.266-9.8-1.974-19.989-4.287-30.269-6.875-18.845-4.744-38.3-10.445-59.463-17.429-17.449-5.757-36.18-12.437-57.264-20.42a19.606,19.606,0,0,1-2.568.17,21.084,21.084,0,0,1-11.834-3.828,37.048,37.048,0,0,1-9.455-9.58A58.51,58.51,0,0,1,480,2385.527a53.463,53.463,0,0,1-3.247-12.486c-.957-4.233-.384-8.467.17-12.56.608-4.5,1.237-9.142-.211-13.7l-.149-.391c-3.64-9.541-7.078-18.554-9.114-28.51-1.334-9.14-2.358-18.374-3.044-27.446a311.207,311.207,0,0,1-.882-31.559,175.257,175.257,0,0,1,3.259-30.736c2.125-10.174,5.28-18.578,9.379-24.979,6.425-5.509,10.133-11.255,11.67-18.084,1.383-6.146.87-12.586.326-19.4a109.2,109.2,0,0,1-.365-18.83,234.573,234.573,0,0,1-57.64-13.811,11.116,11.116,0,0,1-10.49-3.31,12.93,12.93,0,0,1-3.62-8.361c-.4-6.308-.8-12.729-1.2-18.938l-.044-.691v-.017c-3.488-54.928-7.1-111.726-8.015-167.673-.469-13.755-.578-27.99-.325-42.31.242-13.644.821-27.82,1.722-42.136,1.662-26.412,4.413-53.832,8.409-83.827,3.329-24.99,7.605-52.255,13.073-83.355,4.875-27.729,10.22-55.844,15.389-83.033l.013-.071c3.725-19.6,7.578-39.861,11.215-59.778,1.1-23.518,3.823-47.288,6.461-70.276,3-26.152,6.1-53.195,6.822-80.014,1.014-30.467,2.288-61.067,3.789-90.95-27.11,69.879-53.107,140.594-77.269,210.18-24.588,70.814-47.964,142.443-69.478,212.9-10.894,35.677-21.544,71.813-31.652,107.405-10.2,35.9-20.122,72.241-29.505,108.011-9.468,36.093-18.651,72.628-27.293,108.59-8.718,36.278-17.134,73-25.014,109.146a10.506,10.506,0,0,1,4.184,10.4,7.68,7.68,0,0,1-2,3.87,8.271,8.271,0,0,1-4.407,2.269c-12.874,2.566-25.81,4.65-38.45,6.191a107.109,107.109,0,0,1-.58,17.945c-.647,6.234-1.657,12.8-2.633,19.15l0,.011c-1.737,11.3-3.533,22.978-3.494,33.794a68.854,68.854,0,0,0,1.649,15.564,42.821,42.821,0,0,0,5.749,13.8,37.649,37.649,0,0,1,4.56,8.568,11.1,11.1,0,0,1-.739,9.311c12.229,22.96,22.318,44.1,30.844,64.619,4.7,11.3,8.965,22.567,12.689,33.481,3.937,11.539,7.4,23.093,10.306,34.341a9.35,9.35,0,0,1,3.555-.741c2.593,0,5.084,1.225,7.4,3.641a27.228,27.228,0,0,1,4.466,6.574,51.541,51.541,0,0,1,3.218,8.126c1.634,5.327,2.558,10.929,2.409,14.619a89.9,89.9,0,0,0,.616,13.33v.006c.544,5.9,1.107,12.009.538,17.5-.647,6.245-2.7,10.663-6.286,13.5a160.662,160.662,0,0,1-24.34,12.842,179.991,179.991,0,0,1-26.021,8.693A225.343,225.343,0,0,1,141.279,2532.427ZM8.6,2450.141h0c.188,2.855.184,6.476.181,10.31v.012c-.012,11.309-.026,25.384,4.739,31.857a263.366,263.366,0,0,0,60.126,22.367,273.908,273.908,0,0,0,63.791,7.538,270.663,270.663,0,0,0,30.682-1.745c6.293-.732,12.387-1.694,18.113-2.862a171.018,171.018,0,0,0,17.809-4.6,137.236,137.236,0,0,0,17.071-6.7,114.045,114.045,0,0,0,15.9-9.145c4.955-2.2,4.535-6.9,4.129-11.438a37.25,37.25,0,0,1-.218-4.1,104.32,104.32,0,0,1-.445-12.987v-.006c.063-10.829.128-22.026-7.156-29.957,2.081,9.607,4.026,19.806,3,29.6a8.768,8.768,0,0,1,2.591,3.046,9.591,9.591,0,0,1,1.069,3.864c-.021,2.113-1.351,4.124-3.954,5.976a39.4,39.4,0,0,1-10.475,4.782c-7.892,2.545-18.983,4.723-32.966,6.472a579.328,579.328,0,0,1-61.166,4l-.779,0a294.916,294.916,0,0,1-31.06-2.3,295.623,295.623,0,0,1-39.533-7.455c-14.536-3.895-26.227-8.655-34.747-14.149a45.409,45.409,0,0,1-11.435-10.066A24.919,24.919,0,0,1,8.6,2450.141Zm102.82-188.824a81.42,81.42,0,0,0-18.324,2.274,131.545,131.545,0,0,0-18.336,5.84,260.092,260.092,0,0,0-33.219,16.51c-.551,6.594-3.093,11.26-5.552,15.772a59.489,59.489,0,0,0-3.751,7.776,29.642,29.642,0,0,0-1.87,9.672c-1.2,8.153-2.655,16.321-4.2,24.968l0,.022,0,.008c-3.313,18.583-6.739,37.8-7.392,56.648a147.952,147.952,0,0,0,1.454,27.926,111.608,111.608,0,0,0,2.955,13.573,99.3,99.3,0,0,0,4.8,13.2,190.372,190.372,0,0,0,25.237,11.207,208.733,208.733,0,0,0,26.28,7.523,238.436,238.436,0,0,0,27.016,4.229c8.837.878,18.072,1.323,27.446,1.323a342.281,342.281,0,0,0,40.064-2.462c12.651-1.5,25.9-3.716,39.387-6.589,1.561-2.031,3.509-2.682,6.53-3.511,1.507-10.662-.76-21.425-2.952-31.833l-.021-.1c-.448-2.126-.911-4.325-1.327-6.468-4.118-17.68-9.131-35.438-13.979-52.611l0-.014-.015-.053c-2.365-8.377-4.81-17.039-7.121-25.584-4.289-2.77-8.038-6.837-11.461-12.435a132.154,132.154,0,0,1-7.813-15.869l-.009-.02c-1.534-3.5-2.984-6.807-4.578-9.935-2.1-4.254-3.857-7.7-5.54-10.859-3.718-1.218-6.774-3.719-9.342-7.643a63.351,63.351,0,0,1-5.424-11.51c-.747-1.9-1.452-3.7-2.224-5.418a49.449,49.449,0,0,0-8.215-7.2,45.343,45.343,0,0,0-8.959-4.82A52.337,52.337,0,0,0,111.416,2261.316ZM486.1,2363.461a40.7,40.7,0,0,0,.352,11.005,34.678,34.678,0,0,0,3.07,9.385,37.673,37.673,0,0,0,5.319,7.929,48.969,48.969,0,0,0,7.1,6.637c10.794,8.327,25.383,13.413,36.887,16.914,26.134,9.293,54.2,17.618,85.811,25.449A560.585,560.585,0,0,0,686,2453.1c10.463,1.473,20.92,2.6,31.08,3.348,10.511.774,21.008,1.167,31.2,1.167h.013c9.811,0,19.613-.364,29.134-1.081,9.793-.737,19.576-1.87,29.075-3.368,1.618-.293,3.361-.587,5.207-.9,17.957-3.029,45.094-7.607,48.782-26.392.113-1.075.349-5.056.379-9.381.025-3.628-.093-8.333-.8-10.14a3.185,3.185,0,0,1-1.34-.318,31.877,31.877,0,0,1-6.108,10.978,43.4,43.4,0,0,1-9.822,8.5,59.389,59.389,0,0,1-12.215,5.93,68.666,68.666,0,0,1-13.286,3.271,18.926,18.926,0,0,1-9.256,4.908,47.69,47.69,0,0,1-11.257,1.076c-2.082,0-4.183-.063-6.038-.119l-.094,0h-.02c-1.982-.059-3.853-.116-5.68-.116-1.026,0-1.937.018-2.785.055-8.52-.085-17.322-.472-26.161-1.153-8.422-.649-17.149-1.584-25.939-2.781-16.22-2.207-32.995-5.313-51.285-9.5-33.945-7.763-67.877-18.1-100.693-28.1l-.018-.006-1-.306c-3.367-1.026-6.848-2.086-10.261-3.123-6.06-2.106-13.815-4.067-22.025-6.142-10.894-2.753-23.24-5.873-33.874-9.951C498.727,2374.787,490.608,2369.554,486.1,2363.461Zm4.2-163.334c-9.176,0-12.263,22.7-13.921,34.9-.321,2.359-.6,4.4-.852,5.757-1.829,16.421-3.282,40.992.186,64.8,3.771,25.889,12.47,44.963,25.856,56.691a301.943,301.943,0,0,0,29.923,10.8c10.125,3.125,20.542,5.945,30.617,8.673l.03.008.026.007c12.214,3.306,24.844,6.725,37.054,10.716,14.356,4.229,29.731,8.707,44.9,12.8,16.722,4.517,31.6,8.146,45.477,11.091,16.366,3.474,31.42,6.027,46.022,7.807a381.444,381.444,0,0,0,46.535,2.952h.023c4.545,0,9.112-.093,13.573-.277,2.1-4.193,9.082-5.081,17.171-6.11,5.286-.672,11.276-1.434,16.671-3.246,6.191-2.079,10.649-5.223,13.629-9.612a27.139,27.139,0,0,0,3.277-8.655,21,21,0,0,0-.094-7.985,24.793,24.793,0,0,0-2.869-7.346,38.25,38.25,0,0,0-5.049-6.737c-7.921-8.59-20.208-15.714-30.082-21.438l-.028-.016c-2.917-1.692-5.672-3.289-8.076-4.783a609.161,609.161,0,0,1-100.53-80.64c-3.956-3.936-7.889-8.1-11.693-12.136l-.016-.017c-10.03-10.631-20.4-21.624-32.592-29.926a77.55,77.55,0,0,0-17.135-8.877,55.419,55.419,0,0,0-18.855-3.527,42.361,42.361,0,0,0-14.781,2.593,34.6,34.6,0,0,0-12.127,7.961,106.944,106.944,0,0,0-9.535,11.179c-4.373,5.629-8.9,11.449-14.737,15.561a36.7,36.7,0,0,1-20.151,6.286,38.91,38.91,0,0,1-17.193-4.226,59.343,59.343,0,0,1-15.186-10.989,83.768,83.768,0,0,1-20.212-32.141.822.822,0,0,1,.054-.8,1.141,1.141,0,0,1,.937-.448,1.19,1.19,0,0,1,.37.057c-.045-.179-.082-.364-.122-.568q-.028-.143-.057-.283a5.108,5.108,0,0,1-3.591-3.762,19.582,19.582,0,0,1-.689-5.7A6.5,6.5,0,0,0,490.3,2200.128ZM53.816,2175.95h0a55.966,55.966,0,0,1,.652,14.325,73.754,73.754,0,0,1-2.5,13.8c-2.481,9.057-6.388,17.935-10.166,26.521l-.033.075c-1.247,2.834-2.536,5.765-3.743,8.635A33.1,33.1,0,0,0,38,2249.378c.45,3.336,1.257,6.717,2.037,9.985,1.525,6.388,3.1,12.993,2.146,19.7a161.289,161.289,0,0,1,33.669-20.51c13.481-5.964,26.37-8.988,38.308-8.988a63.778,63.778,0,0,1,15.917,1.96,58.332,58.332,0,0,1,15.247,6.348c.163-17.342,5.592-34.3,10.842-50.7.607-1.9,1.153-3.6,1.688-5.291q.575-1.772,1.147-3.543l.01-.031c2.162-6.689,4.4-13.605,6.884-20.3a491.569,491.569,0,0,1-51.444,2.833c-10.37,0-20.593-.39-30.385-1.159-10.314-.81-20.492-2.066-30.251-3.734ZM501,2148.021q.884,13.451,1.772,26.9c.642,9.732,1.306,19.8,1.957,29.708a5.067,5.067,0,0,1-2.28,4.849,54.434,54.434,0,0,0,5.473,13.253,56.8,56.8,0,0,0,8.739,11.523,52.738,52.738,0,0,0,11.373,8.82,46.024,46.024,0,0,0,13.376,5.146,30.577,30.577,0,0,0,3.893.258,24.4,24.4,0,0,0,9.363-1.787,28.475,28.475,0,0,0,7.65-4.729c4.661-3.922,8.662-9.287,12.532-14.476a108.463,108.463,0,0,1,10.668-12.876,38.775,38.775,0,0,1,6.312-5.074,28.507,28.507,0,0,1,7.45-3.387c-3.231-7.258-2.684-16.084-2.154-24.62a116.014,116.014,0,0,0,.344-11.649,253.881,253.881,0,0,1,1.91-27.13c-13.689,1.889-26.214,3.276-38.288,4.243-13.536,1.084-26.109,1.611-38.438,1.611C515.3,2148.6,508.019,2148.408,501,2148.021Zm-8.97,45.959a27.525,27.525,0,0,1-2.18,3.681,5.789,5.789,0,0,1,2.47.81C492.224,2196.946,492.119,2195.37,492.026,2193.98ZM194.077,1257.4a260.328,260.328,0,0,1-.7,38.072,363.567,363.567,0,0,1-5.425,37.6c-4.836,24.922-11.838,49.873-18.61,74l-.024.084c-1.95,6.948-3.967,14.133-5.89,21.175-8.609,30.5-16.9,60.994-24.64,90.639-8,30.632-15.657,61.3-22.762,91.146-7.322,30.76-14.282,61.589-20.684,91.63-6.581,30.88-12.773,61.863-18.4,92.091-5.777,31.008-11.134,62.139-15.923,92.529-4.905,31.126-9.36,62.4-13.241,92.944-3.968,31.239-7.453,62.642-10.357,93.336-2.966,31.35-5.413,62.876-7.272,93.7,13.142.353,28.751.716,44.879.716,22.581,0,42.316-.74,60.331-2.26a429.42,429.42,0,0,0,59.689-9c23.368-96.646,43.627-176.65,63.754-251.776,11.729-43.779,23.548-86.315,35.128-126.426,12.511-43.336,25.261-85.638,37.9-125.731,13.469-42.739,27.3-84.541,41.117-124.246,14.588-41.93,29.657-82.967,44.788-121.97,15.873-40.914,32.329-80.918,48.911-118.9,17.306-39.642,35.3-78.349,53.485-115.047-10.15,29.037-19.94,55.98-29.93,82.37a8,8,0,0,1,5.831-2.457,12.318,12.318,0,0,1,10.379,6.71,8.138,8.138,0,0,1-.749,8.917,233.924,233.924,0,0,1-26.43,28.79l.025.061c.119.288.226.547.325.808,13.287,54.982,9.008,113.178,4.87,169.458q-.282,3.827-.56,7.632c-2.217,24.475-5.634,51.1-10.447,81.411-4.29,27.017-9.268,54.4-14.082,80.883l0,.014c-4.527,24.9-9.208,50.651-13.31,76.055-4.6,28.489-7.964,53.511-10.288,76.5-2.289,15.438-3.9,31.326-4.916,48.571-.907,15.346-1.322,31.412-1.27,49.118.1,32.86,1.833,66.317,3.511,98.672,1.259,24.274,2.562,49.373,3.131,73.7.307,13.088.383,24.937.235,36.223-.166,12.664-.608,24.32-1.353,35.633,17.083,1.489,34.769,2.244,52.566,2.244,20.509,0,41.826-1,63.359-2.984,20.356-1.872,41.534-4.675,62.945-8.33-3.714-26.708-6.259-54.274-7.565-81.931-1.246-26.368-1.408-53.7-.48-81.237.877-26.036,2.758-53.169,5.593-80.645,2.65-25.682,6.235-52.65,10.656-80.154,4.117-25.614,8.928-51.706,14.707-79.765,5.147-24.995,10.952-50.992,17.746-79.477,12.617-52.907,26.822-106.58,40.559-158.486l0-.014c16.854-63.683,34.282-129.534,48.943-194.583,7.891-35.01,14.372-67,19.816-97.8,2.949-16.686,5.616-33.209,7.927-49.109,2.426-16.688,4.544-33.268,6.3-49.28.463-3.933.951-7.941,1.423-11.816l.024-.2c2.491-20.451,5.068-41.6,5.353-62.437a6.945,6.945,0,0,1-3.765,1.075,7.93,7.93,0,0,1-6.084-2.8c-9.2,9.069-18.664,18.163-27.82,26.958l0,0c-17.589,16.9-35.777,34.367-52.815,52.4a23.908,23.908,0,0,1-5.545,4.679,12.938,12.938,0,0,1-6.6,1.769,16.858,16.858,0,0,1-3.023-.288,26.857,26.857,0,0,1-6.807-2.778,36.233,36.233,0,0,1-5.879-4.257,99.949,99.949,0,0,1-10.17-10.927,108.7,108.7,0,0,0-8.963-9.807c-8.961-9.749-18.4-19.237-27.527-28.413-8.193-8.236-16.664-16.751-24.783-25.448a9.3,9.3,0,0,1-5.2,1.513,10.5,10.5,0,0,1-3.646-.652c-19.924,15.411-40.54,30.619-60.477,45.327l-.009.007c-6.954,5.13-14.145,10.435-21.234,15.7-1.305.961-2.6,1.948-3.961,2.993l-.025.019a98.69,98.69,0,0,1-12.343,8.5,28.886,28.886,0,0,1-13.934,3.992h-.009a23.065,23.065,0,0,1-2.319-.118c-13.067-7.741-26.254-15.933-40.315-25.043-12.528-8.116-25.466-16.78-39.555-26.487-26.17-18.03-52.4-36.989-77.766-55.324-18.384-13.288-37.394-27.029-56.192-40.278-1.006,2.681-2.037,5.408-3.033,8.045l-.128.34c-6.4,16.922-13.015,34.421-17.675,51.922a207.556,207.556,0,0,0-5.372,26.5,150.266,150.266,0,0,0-1.211,27.136c12.511,11.8,26.367,22.488,39.767,32.827l.013.01c10.6,8.175,21.551,16.628,31.679,25.513a23.834,23.834,0,0,1,4.213,12,20.334,20.334,0,0,1-2.516,10.734,26.991,26.991,0,0,1-5.315,6.816,35,35,0,0,1-7.4,5.294,38.61,38.61,0,0,1-17.985,4.648,31.938,31.938,0,0,1-4.945-.379c2.937,10.134,6.062,22.073,6.98,33.778a74.8,74.8,0,0,1-.462,17.149,52.773,52.773,0,0,1-5.118,16.242c-3.341,5.743-10.073,11.924-16.958,11.925a11.245,11.245,0,0,1-7.022-2.494,39.541,39.541,0,0,1-8.307,9.243,56.855,56.855,0,0,1-11.26,7.2,60.13,60.13,0,0,1-25.815,6.339,40.685,40.685,0,0,1-6.238-.464Zm-16.6-22.839h0c2.33,0,4.62.111,6.806.329,3.708.37,7.444.953,11.056,1.516h.008l1.066.166.3.047a38.082,38.082,0,0,0,4.812.283,27.456,27.456,0,0,0,2.918-.134,3.034,3.034,0,0,1-.31.011c5.74-.361,11.314-3.889,16.7-7.3a81.4,81.4,0,0,1,8.428-4.884,19.938,19.938,0,0,1,8.475-2.209,13.832,13.832,0,0,1,8.013,2.613,26.387,26.387,0,0,1,4.413-4.773,37.956,37.956,0,0,0,3.187-3.158,33.473,33.473,0,0,0,3.24-7.913A45.6,45.6,0,0,0,258,1200.8a126.309,126.309,0,0,0-.243-17.484c-.292-4.87-.593-9.907-.408-14.754a46.248,46.248,0,0,1,2.483-14.086,8.176,8.176,0,0,1-1.387-6.389,9.71,9.71,0,0,1,3.818-5.991c2.922-2.686,7.318-3.3,11.568-3.9a34.786,34.786,0,0,0,7.638-1.646,10.218,10.218,0,0,0,3.037-1.782,8.113,8.113,0,0,0,2.137-2.94c-.068.124-.125.186-.166.186a.042.042,0,0,1-.032-.016.526.526,0,0,1-.027-.333.9.9,0,0,1,.07-.254l.131.106.129.107.055.045c-.071-.233-.142-.352-.214-.352-.035,0-.07.032-.1.092-17.534-14.488-31.152-27.058-42.857-39.56a277.3,277.3,0,0,1-18.885-22.335,219.171,219.171,0,0,1-16.115-24.526,5.486,5.486,0,0,1-3.879,1.608,6.185,6.185,0,0,1-4.152-1.66,6.834,6.834,0,0,1-2.178-4.377,163.879,163.879,0,0,1-25.886,6.665,157.751,157.751,0,0,1-26.578,2.28,147.929,147.929,0,0,1-36.6-4.545c.918,6.883,1.817,14.924,2.857,24.235l0,.032c1.545,13.834,3.3,29.514,5.627,45.827,2.7,18.9,5.656,34.937,9.037,49.035,1.987,8.284,4.152,15.989,6.436,22.9a172.284,172.284,0,0,0,8.054,20.319,96.149,96.149,0,0,0,9.928,16.609,52.627,52.627,0,0,0,12.057,11.77A98.854,98.854,0,0,1,177.479,1234.561ZM864.937,1024.15h0a229.886,229.886,0,0,1-64.19,23.579c-2.573,24.654-5.055,46.313-7.588,66.212-3.015,23.691-6.139,45.26-9.552,65.94,1.122.193,2.274.407,3.388.614l.112.021a74.037,74.037,0,0,0,13.237,1.652,25.385,25.385,0,0,0,7.345-.986,20.073,20.073,0,0,0,6.877-3.6c10.374-10.086,19.241-24.751,27.109-44.832,6.863-17.517,12.083-36.906,16.688-54.013l0-.017c2.123-7.89,4.129-15.343,6.189-22.268a96.2,96.2,0,0,0,3.138-16.222,37.332,37.332,0,0,0-.182-8.494,20.712,20.712,0,0,0-2.576-7.585ZM221.877,486.141c-4.129,17.509-7.659,36.143-11.11,58.64-1.992,12.407-3.714,25.289-5.118,38.287-1.338,12.388-2.432,25.289-3.25,38.345-1.51,24.1-2.151,49.227-1.961,76.824.353,51.267,3.607,103.451,6.752,153.917l0,.042c1.764,28.3,3.588,57.564,4.878,86.315,1.447,32.258,2.054,60.455,1.856,86.2a5.623,5.623,0,0,1,1.8,4.988,6.788,6.788,0,0,1-3.524,5.15c-.553,2.481-1.212,4.961-1.96,7.371,3.234,3.071,6.2,5.845,9.07,8.48a114.138,114.138,0,0,1,.732-20.963,156.181,156.181,0,0,1,4-20.426c3.515-13.48,8.559-26.926,13.438-39.929,3.642-9.708,7.408-19.745,10.5-29.7a63.3,63.3,0,0,0-7.689-5.52c-7.5-4.858-15.251-9.881-13.761-19.608,1.569-28.753,3.6-57.953,6.049-86.791v-.005c4.979-53.082,10.128-107.971,11-162.529.467-29.239-.313-55.81-2.387-81.231-1.124-13.782-2.657-27.372-4.556-40.393-1.994-13.67-4.459-27.182-7.328-40.162-.09-.479-.19-1.113-.3-1.784a57.068,57.068,0,0,0-2.058-9.29C225.666,488.6,223.955,486.5,221.877,486.141Zm644.99,536.96c-.07.042-.14.079-.208.115l-.008,0-.011.006-.122.066.156.132.624.528A8.477,8.477,0,0,1,866.867,1023.1ZM613.073,953.526a10.752,10.752,0,0,0-6.3,2.143,12.4,12.4,0,0,0-4.183,5.27,9.771,9.771,0,0,0,2.448,11.081,10.047,10.047,0,0,0,7.23,3.247,10.737,10.737,0,0,0,6.286-2.139,12.4,12.4,0,0,0,4.182-5.264,9.793,9.793,0,0,0-2.436-11.1A10.063,10.063,0,0,0,613.073,953.526Zm-7.538-109.607a6.265,6.265,0,0,0-4.363,1.811,9.61,9.61,0,0,0-2.514,4.335,10.45,10.45,0,0,0-.03,5.68,7.822,7.822,0,0,0,3.456,4.577,5.78,5.78,0,0,0,3.653,1.467,5.839,5.839,0,0,0,4.37-2.292,12.235,12.235,0,0,0,2.549-5.263,10.869,10.869,0,0,0-.11-5.539,6.356,6.356,0,0,0-3.382-3.964l-.022.03-.068.09A7.744,7.744,0,0,0,605.534,843.919Zm-12.62-143.385c-3.674,0-6.569,2.358-7.942,6.469a17.373,17.373,0,0,0,.379,7.979,19.257,19.257,0,0,0,3.761,7.079c.648,2.7,2,4.126,3.9,4.127,2.108,0,4.806-1.779,7.042-4.643a16.489,16.489,0,0,0,2.528-4.468,7.51,7.51,0,0,0,.435-4.266,11.146,11.146,0,0,0-2.729-8.793A10.163,10.163,0,0,0,592.914,700.534ZM569.457,581.5a8.488,8.488,0,0,0-4.844,1.448,8.217,8.217,0,0,0-3.181,4.534A8.488,8.488,0,0,0,562.9,594.9a9.942,9.942,0,0,0,7.677,3.595,7.934,7.934,0,0,0,5.4-1.963,8.553,8.553,0,0,0,2.527-6.267,8.278,8.278,0,0,0-2.377-6.053A9.411,9.411,0,0,0,569.457,581.5ZM551.309,463.529c-5.137,0-7.9,3.964-8.357,7.891a9.807,9.807,0,0,0,1.2,6.079,8.068,8.068,0,0,0,5.24,3.8,8.789,8.789,0,0,0,2.1.266,7.111,7.111,0,0,0,5.824-3.016,11.11,11.11,0,0,0,2.068-6.522,9.239,9.239,0,0,0-1.9-5.864,7.449,7.449,0,0,0-5.989-2.635ZM537.835,357.638a7.115,7.115,0,0,0-5.781,3.017,10.264,10.264,0,0,0-1.437,5.52,10.829,10.829,0,0,0,1.417,5.045c1.5,2.627,3.9,4.259,6.273,4.26a5.674,5.674,0,0,0,3.5-1.26,11.4,11.4,0,0,0,3.154-4.179,7.639,7.639,0,0,0,1.3-4.055,7.537,7.537,0,0,0-.937-3.723A8.838,8.838,0,0,0,537.835,357.638ZM510.013,239.6c-1.663,0-4,.638-5.711,3.675a7.256,7.256,0,0,0-.186,7.582,8.775,8.775,0,0,0,2.944,3.154,7.53,7.53,0,0,0,4.057,1.243,7.016,7.016,0,0,0,4.434-1.639,7.613,7.613,0,0,0,2.789-3.842,6.618,6.618,0,0,0-.139-4.02A9.3,9.3,0,0,0,510.013,239.6Z" transform="translate(320 -14.998)"></path></g><g transform="translate(225 0)"><g><g><path id="_Skin" data-name="âœ‹ Skin" d="M185.626,0C242.407,0,301.136,44.012,321.95,72.1c17.5,23.613,26.921,130.388,26.921,202.548,0,15.092,8.328,43.541,5.9,57.977-8.906,52.9-47.709,97.264-124.507,97.264S98.4,399.445,41.317,317.713c-27.7,0-41.12-21.24-41.315-54.759S26.737,217.24,26.737,217.24s-9.6-132.279,14.58-166.718S128.845,0,185.626,0Z" transform="translate(56.415 75.26)" fill="#d08b5b"></path><path id="_Ink" data-name="ðŸ– Ink" d="M240.7,460.988a134.978,134.978,0,0,1-24.924-2.26,109.827,109.827,0,0,1-23.624-7.177,89.12,89.12,0,0,1-20.9-12.692,81,81,0,0,1-16.743-18.8.491.491,0,0,1-.04-.516.622.622,0,0,1,.539-.3.592.592,0,0,1,.381.136,93.319,93.319,0,0,0,13.143,8.934,101.44,101.44,0,0,0,14.06,6.5,142.878,142.878,0,0,0,30.5,7.382,150.258,150.258,0,0,0,20.742,1.427,155.98,155.98,0,0,0,23.216-1.744,151.083,151.083,0,0,0,22.766-5.251,137.75,137.75,0,0,0,21.484-8.785A121.207,121.207,0,0,0,320.675,415.5a80.61,80.61,0,0,0,18.056-19.967,85.806,85.806,0,0,0,6.392-11.932,84.716,84.716,0,0,0,4.413-12.752,80.693,80.693,0,0,0,2.286-13.557,77.081,77.081,0,0,0-.107-13.752c-.615-6.2-2.7-11.917-4.713-17.443-1.007-2.762-2.047-5.617-2.907-8.526a7.836,7.836,0,0,1,1.86-7.671c.246-3.442.66-6.954,1.061-10.35.428-3.631.871-7.382,1.108-11.049.509-8.057.822-16.206.931-24.222.2-16.032-.438-32.935-1.9-50.239-1.552-18.383-4.7-36.8-7.745-54.61-2.017-11.8-4.1-24-5.7-36.071a5.039,5.039,0,0,1-3.39,1.354,5.315,5.315,0,0,1-2.469-.638l-.231-.127-1.22-.7a1.864,1.864,0,0,0-.221.019c-1.75.17-3.557.256-5.371.256a66.107,66.107,0,0,1-19.639-3.1A73.589,73.589,0,0,1,278.086,108.5a104.449,104.449,0,0,0-1.879,20.269,5.167,5.167,0,0,1-1.663,3.86,5.572,5.572,0,0,1-3.775,1.432,5.9,5.9,0,0,1-2.662-.641,339.2,339.2,0,0,1-45.42-27.79l-1.052,5.387-.011.056c-1.3,6.683-2.653,13.593-3.988,20.4a4.342,4.342,0,0,1-1.842,2.763,5.633,5.633,0,0,1-3.193.979,5.069,5.069,0,0,1-2.555-.661,96.072,96.072,0,0,1-27.67-24.241c-1.808,3.457-3.257,6.213-4.559,8.674l-2.3,4.325c-2.319,4.343-5.354,8.964-10.28,10.31a9.147,9.147,0,0,1-2.413.333,8.635,8.635,0,0,1-5.507-2.027,11.76,11.76,0,0,1-3.5-5.036c-.521-1.426-1.025-2.95-1.5-4.53a264.463,264.463,0,0,1-15.26,29.77c-7.81,13.024-17.252,25.02-26.383,36.621q-1.383,1.757-2.767,3.518a4.041,4.041,0,0,1-3.222,1.686c-2.606,0-5.361-2.607-5.669-5.365-.237-2.149-.446-4.38-.641-6.821-6.948,14.021-13,25.35-19.031,35.654l.975,3.817c1.973,7.931,3.741,16.036,5.45,23.874.721,3.306,1.467,6.725,2.221,10.1a9.167,9.167,0,0,1-1.369,6.879,5.891,5.891,0,0,1-4.031,2.632,42.868,42.868,0,0,0-4.546,1.006,27.473,27.473,0,0,1-6.8,1.171,11.571,11.571,0,0,1-3.818-.619c-4.457-1.53-6.138-4.912-7.917-8.492-.5-1.007-1.017-2.046-1.6-3.066a18.8,18.8,0,0,0-1.834-2.6l-.171.222a.539.539,0,0,1-.443.217.832.832,0,0,1-.658-.358.565.565,0,0,1-.069-.538l.293-.727a57.133,57.133,0,0,0-5.276-4.736c-.777-.642-1.581-1.3-2.351-1.971a27.959,27.959,0,0,0-4.629-.376,25.564,25.564,0,0,0-12.389,2.93,24.593,24.593,0,0,0-6.169,5.206,29.626,29.626,0,0,0-4.325,6.79,38.326,38.326,0,0,0-3.444,15.754,72.992,72.992,0,0,0,10.238,37,32.086,32.086,0,0,0,5.111,6.454,21.52,21.52,0,0,0,6.849,4.5,32.528,32.528,0,0,0,8.133,1.75,34.637,34.637,0,0,1,7.807,1.61,6.719,6.719,0,0,1,4.021,3.957,5.355,5.355,0,0,1-.521,4.653c-.094.162-.2.317-.3.466l0,.006c-.049.072-.1.145-.147.219l1.555,2.065c.982,1.312,2.132,2.879,3.226,4.555,1.658,1.907,3.4,3.8,5.081,5.634l0,.005c1.015,1.106,2.065,2.249,3.085,3.382,3.416,3.783,6.818,7.7,10.109,11.492l.011.012c1.53,1.762,3.112,3.584,4.679,5.374,4.057,4.633,8.71,9.466,14.641,15.21,2.024,1.966,4.3,3.83,6.5,5.634a75.092,75.092,0,0,1,8.67,7.888,14.162,14.162,0,0,1,2.893,5.149,10.659,10.659,0,0,1,.313,5.591,7.522,7.522,0,0,1-4.807,5.349,10.271,10.271,0,0,1-3.817.747c-5.684,0-10.819-4.816-14.946-8.686-.384-.36-.781-.732-1.166-1.089l-.22-.2a144.711,144.711,0,0,1-25.185-30.083,22.147,22.147,0,0,1-12.36,3.716,19.617,19.617,0,0,1-11.144-3.271,20.5,20.5,0,0,1-7.656-11.024,16.148,16.148,0,0,1-3.543.429l-.2,0c-.736.427-1.341.762-1.9,1.055a11.6,11.6,0,0,1-5.319,1.344,9.151,9.151,0,0,1-4.886-1.351,8.679,8.679,0,0,1-3.415-4.144,13.629,13.629,0,0,1-.522-7.962,46.493,46.493,0,0,1,2.49-7.824l.392-1.013a88.729,88.729,0,0,1,3.75-8.719,47.5,47.5,0,0,1-10.62-11.33A78.643,78.643,0,0,1,2.334,297.2,87.651,87.651,0,0,1,.176,282.943a72.411,72.411,0,0,1,.34-13.775A50.3,50.3,0,0,1,5.2,253.48a45.214,45.214,0,0,1,4.286-7.069,38.69,38.69,0,0,1,5.524-6.025l-.3-.78a117.831,117.831,0,0,1-5.719-17.779,183.6,183.6,0,0,1-3.05-21.93,209.935,209.935,0,0,1,.89-46.61,204.4,204.4,0,0,1,10.009-42.552A166.638,166.638,0,0,1,36.556,71.827,33.392,33.392,0,0,1,30.8,62.6a18.806,18.806,0,0,1-1.223-5.175,16.906,16.906,0,0,1,2.646-10.537,13.33,13.33,0,0,1,3.8-3.863A11.734,11.734,0,0,1,39,41.768a13.685,13.685,0,0,0,2.418-.94l.508-.28c.453-.264.418-.351.222-.834a8.826,8.826,0,0,1-.49-1.566c-.962-4.42-.861-8.206.3-11.254,1.353-3.552,4.129-5.983,8.25-7.226a14.8,14.8,0,0,1,4.273-.634A17.7,17.7,0,0,1,63.9,21.966a29.351,29.351,0,0,1,7.451,6.871A92.272,92.272,0,0,1,93,17.927c7.523-2.773,15.264-4.941,23.194-7.1a321.158,321.158,0,0,1,51.95-9.271A313.381,313.381,0,0,1,199.579,0a368.179,368.179,0,0,1,37.485,1.972c11.894,1.207,24.125,2.945,37.391,5.315a5.8,5.8,0,0,1,4.8,4.389c9.963.455,20.094,1.085,29.891,1.695,6.566.408,13.355.831,20.029,1.2a8.406,8.406,0,0,1,3.975,1.2,7.681,7.681,0,0,1,3.686,6.416,8.429,8.429,0,0,1-.961,4.05c-.567,1.1-1.152,2.165-1.7,3.149l.728-.24a27.208,27.208,0,0,1,8.268-1.49,14.756,14.756,0,0,1,7,1.641,13.837,13.837,0,0,1,6.469,7.232,17.06,17.06,0,0,1,.791,9.737,25.833,25.833,0,0,1-1.609,4.861c.5-.033.992-.049,1.463-.049a20.1,20.1,0,0,1,2.627.17,15.732,15.732,0,0,1,5.032,1.537,14.431,14.431,0,0,1,7.968,12.362c.263,5.226-1.138,10.752-4.163,16.423a55.876,55.876,0,0,1-10.936,14.045,14.054,14.054,0,0,1,1.189,8.531,13.671,13.671,0,0,1-3.729,7.3,21.86,21.86,0,0,1-6.787,4.574,54.851,54.851,0,0,1,2.538,21.022,5.235,5.235,0,0,1-1.5,3.162,6.083,6.083,0,0,1-3.023,1.723,249.956,249.956,0,0,1,9.725,35.192c2.165,10.518,4,21.951,5.772,35.983a435.124,435.124,0,0,1,3.339,51.17c.063,7.739-.067,15.539-.388,23.184l-.131,2.9c-.084,1.752-.152,3.544-.218,5.277a144.229,144.229,0,0,1-1.7,20.1c4.315,7.34,6.948,16.918,8.05,29.279a90.1,90.1,0,0,1-4.441,36.032,99.551,99.551,0,0,1-15.776,29.494,117.141,117.141,0,0,1-23.955,23.088,139.524,139.524,0,0,1-29.432,16.282,149.18,149.18,0,0,1-32.207,9.076A152.047,152.047,0,0,1,240.7,460.988ZM57.439,291.214a6.935,6.935,0,0,1-3.882-1.248c-4.194-2.811-7.032-7.168-9.777-11.381-.266-.407-.566-.869-.858-1.312l-.314-.476c-.272-.408-.542-.828-.8-1.234l-.006-.009a21.367,21.367,0,0,0-3.672-4.687l-.409-.358a5.747,5.747,0,0,0-2.092-1.242,4.027,4.027,0,0,0-1.09-.138,5.68,5.68,0,0,0-2.38.53,3.054,3.054,0,0,0-1.63,1.629l-.06.189a.792.792,0,0,1-.792.6.837.837,0,0,1-.868-.824,9.078,9.078,0,0,1,2.654-6.616,10.772,10.772,0,0,1,7.636-3.073,11.439,11.439,0,0,1,1.97.171c4.156.723,7.585,3.209,10.741,5.693l1.567,1.24.831.65.026.021c3.618,2.826,7.719,6.029,9.884,10.065a7.984,7.984,0,0,1-.369,7.911,8.524,8.524,0,0,1-2.688,2.8A6.744,6.744,0,0,1,57.439,291.214Z" transform="translate(50 55)"></path></g></g><g transform="translate(159 186)"><g><path d="M140.63 0.473197L139.193 0.179116C137.503 -0.15929 135.804 -0.0161244 134.311 0.591153C132.847 1.18684 131.572 2.2242 130.68 3.72083C129.495 5.71373 129.337 7.38618 129.887 9.59525C130.311 11.3022 131.242 12.5864 132.46 13.5139C133.744 14.4911 135.37 15.0612 137.06 15.2595C144.854 16.175 152.53 17.8896 159.992 20.3235C163.488 21.4643 166.788 23.0096 170.058 24.6132L172.877 26.002C175.477 27.2735 178.163 28.499 181.557 29.3885C181.824 29.4584 182.087 29.5243 182.349 29.5865C183.29 29.2909 183.45 28.9329 183.649 28.6733L183.73 28.5721C183.972 28.2679 184.271 27.8025 183.988 25.6306C176.583 10.2711 156.267 3.74181 140.63 0.473197ZM43.5878 4.83023L45.4652 4.50163C51.273 3.49719 58.4944 2.53203 62.6028 7.20123C64.7819 9.67723 65.5318 14.2792 62.6028 16.6492C58.7671 19.7539 54.6298 19.6513 50.2182 19.5419C48.7043 19.5044 47.1582 19.466 45.5808 19.5562C40.4928 19.8482 35.6028 20.6902 30.7018 22.0912C19.9498 25.1642 11.1888 30.7742 2.00585 36.9342C0.800849 37.7422 -0.429151 36.2012 0.145849 35.0742C5.44685 24.6912 15.7198 16.1622 26.0098 10.9632C31.5019 8.18823 37.5118 5.88623 43.5878 4.83023ZM29.9632 50.1461C30.7976 39.7899 46.5702 37.4381 48.1392 47.6861C49.5442 56.8661 47.8902 65.2991 43.7552 73.5641C39.8042 81.4601 29.8737 77.7763 29.1227 70.5863C28.3809 63.4843 28.9069 59.2482 29.4428 54.933C29.6341 53.3921 29.8267 51.8412 29.9632 50.1461ZM159.205 41.8262C155.401 40.7152 152.226 42.6812 150.027 45.5612C149.773 45.8932 149.566 46.2222 149.38 46.5482C142.515 52.8562 145.101 65.6452 150.501 72.0492C153.814 75.9762 161.145 74.8452 163.413 70.3852C167.587 62.1722 171.09 45.2992 159.205 41.8262ZM128.748 119.039C136.872 107.66 125.366 96.9569 117.814 92.3669C115.836 90.9469 117.406 86.2431 121.634 86.9701C160.031 93.5671 140.136 159.708 91.112 123.413C85.2754 118.704 92.3434 108.334 98.6342 112.366C98.9532 112.611 99.2876 112.869 99.6364 113.139C106.704 118.603 119.636 128.601 128.748 119.039ZM93.5865 188.926C86.8642 186.184 80.8663 181.61 76.4812 175.766C74.9566 173.735 74.5614 171.589 74.8812 169.627C75.2408 167.421 76.546 165.422 78.326 164.08C80.1115 162.735 82.345 162.072 84.5043 162.41C86.3806 162.704 88.2484 163.731 89.7265 165.862L90.0354 166.288C92.6424 169.815 96.0396 172.708 99.9104 174.574C103.641 176.372 107.814 177.211 112.132 176.723C120.356 175.794 126.024 171.346 132.049 165.306C132.796 164.544 133.543 163.757 134.294 162.958C134.768 162.234 135.426 161.768 136.157 161.524C136.968 161.253 137.886 161.268 138.726 161.562C139.537 161.845 140.262 162.381 140.747 163.094C141.209 163.772 141.471 164.61 141.386 165.574C140.835 171.833 137.562 177.419 132.914 181.805C127.752 186.677 120.909 190.047 114.466 191.229C107.368 192.531 100.136 191.598 93.5865 188.926Z" transform="translate(53.00005 52.00027)" fill-rule="evenodd" stroke="none"></path></g></g><g transform="translate(123 338)"><g><path d="M149.685 60.9388C150.985 66.8788 151.865 72.8288 152.435 78.5488C153.945 93.6888 152.345 108.839 145.455 122.559C145.366 122.736 145.242 123.014 145.079 123.38C142.219 129.808 127.205 163.546 74.3045 163.269C35.0505 163.063 7.55152 133.474 3.22452 122.409C-1.10248 111.344 -0.405484 90.9688 1.44452 75.7188C4.10452 53.7988 12.0145 30.3988 29.1545 15.4888C43.6845 2.84882 64.1845 -4.20118 82.6445 2.70882C93.1645 0.408816 104.255 2.08882 114.015 6.85882C134.645 16.9288 144.935 38.8988 149.685 60.9388ZM124.445 47.8088C121.965 44.6988 119.335 41.6888 116.595 38.8788C105.815 27.8488 92.5845 26.8488 77.8945 27.6088C63.6945 28.3488 50.0445 29.7388 38.1945 38.2888C34.2645 41.1188 30.8045 44.5388 27.7745 48.2988C28.0145 51.7488 28.6245 55.1688 29.6045 58.4488C32.6945 68.7888 38.5745 77.9588 45.3845 86.2388C47.6745 89.0188 50.0145 91.7588 52.3945 94.4788C52.9645 93.9688 53.5145 93.4488 54.0445 92.9688C58.3245 89.1688 62.4245 84.9788 66.0745 80.5688C69.3945 76.5588 71.7745 71.5088 75.4945 67.8588C84.0545 59.4688 96.2945 64.2488 103.005 72.3388C106.375 76.4088 109.155 81.0188 114.135 83.3088C115.705 84.0288 117.315 84.4888 118.945 84.7188C121.705 77.6988 123.745 70.3888 124.665 62.9088C125.295 57.7488 125.135 52.7488 124.445 47.8088Z" transform="translate(121 27.00048)" fill-rule="evenodd" stroke="none"></path></g></g><g transform="translate(47 241)"></g></g></g></svg>