<?xml version="1.0" standalone="no"?>
<svg viewBox="-1300 -200 3350 3350" style="width: 487.5px; height: 487.5px; justify-content: center; align-self: center; transform: scale(1, 1);" xmlns="http://www.w3.org/2000/svg"><g transform="rotate(0 448.19671630859375 1427.189552307129)"><g transform="translate(-276 479)"><path id="_Skin" data-name="âœ‹ Skin" d="M179.964,2461.383h-.012a71.2,71.2,0,0,1-9.848-.7c-2.712-.263-8.128-.371-14.986-.508-14.458-.289-36.307-.726-55.179-3.063-10.363-1.284-18.763-3.018-24.968-5.155a36.808,36.808,0,0,1-8.591-4.062,12.685,12.685,0,0,1-4.763-5.273,8.678,8.678,0,0,1-.15-6.237,21.67,21.67,0,0,1,4.867-7.6,22.336,22.336,0,0,1-1.9-6.515,20.99,20.99,0,0,1,.171-6.311A31.178,31.178,0,0,1,69.9,2403.9c5.3-7.792,13.532-15.07,21.489-22.107l.009-.008c3.34-2.954,6.495-5.743,9.4-8.536a621.919,621.919,0,0,0,47.565-51.259c15.092-17.977,32.115-39.234,43.124-64.057,2.436-3.888,4.912-6.613,7.36-8.1l1.413-.857.88-1.4c6.31-10.088,11.967-20.581,17.438-30.728l0-.009c2.58-4.785,5.248-9.733,7.952-14.581-21.451-7.762-40.223-15.341-62.769-25.339,7.165-42.27,15.791-88.263,26.369-140.609,9.435-46.684,19.516-94,29.266-139.75,10.386-48.739,21.126-99.138,31.117-148.937,11.2-55.82,20.239-104.91,27.636-150.075,4.088-35.69,7.84-72.037,11.467-107.187,6.827-66.149,13.887-134.551,23.494-201.565,5.173-36.079,10.648-68.871,16.739-100.251,3.3-17,6.828-33.78,10.489-49.877,3.838-16.879,7.954-33.589,12.233-49.666l5.7.438,3.174-10.96c-4.854-.126-14.275-.443-18.839-.621l1.1,5.608c-17.162-1.991-34.257-6.388-50.79-10.641l-.113-.029c-3.855-.992-7.842-2.017-11.753-2.991a26.983,26.983,0,0,1-9.1-2.918,18.369,18.369,0,0,1-6.783-6.042,13.7,13.7,0,0,1-2.083-5.672,16.549,16.549,0,0,1,.667-6.928c.682-10.211,2.187-20.449,3.643-30.35l0-.017c1.147-7.806,2.333-15.877,3.114-23.906-6.4-4.374-13.218-9.492-20.277-15.209-5.765,2.723-11.843,7.378-18.277,12.306l0,0A160.727,160.727,0,0,1,215.4,1002.7a47.333,47.333,0,0,1-8.36,3.91,25.481,25.481,0,0,1-8.29,1.494,19.239,19.239,0,0,1-6.453-1.1c-15.037-20.22-30.611-43.636-47.612-71.589-14.983-24.634-29.059-49.423-42.672-73.4l0-.005c-9.114-16.05-17.722-31.21-26.231-45.677-11.059-18.005-20.252-33.728-28.1-48.067-8.837-16.139-16.1-30.73-22.2-44.6A344.557,344.557,0,0,1,9.822,681.284c-2.039-6.988-3.778-13.969-5.17-20.748-1.42-6.919-2.527-13.871-3.292-20.661-3.169-28.157-.81-55.917,7.213-84.866,8.23-29.7,22.517-61.06,43.676-95.887C65.2,438.46,78.218,415.857,92,391.927l.014-.024c16-27.782,32.537-56.511,50.412-84.65,9.667-15.217,18.766-28.763,27.818-41.411,10.083-14.089,20.211-27.156,30.1-38.837a426.4,426.4,0,0,1,32.792-34.787,310.967,310.967,0,0,1,35.888-29.263c6.327-4.38,12.8-8.45,19.232-12.1,6.622-3.755,13.4-7.175,20.159-10.165a212.255,212.255,0,0,1,21.136-8.047,204.045,204.045,0,0,1,22.164-5.744c4.743-.887,9.637-1.541,14.371-2.174,5.883-.786,11.967-1.6,17.891-2.874a78.9,78.9,0,0,0,17.4-5.7,31.022,31.022,0,0,1,1.374-7.217,21.691,21.691,0,0,1,2.525-5.35c1.861-2.791,4.2-4.485,6.247-4.531,2.461-.541,5.04-1.181,7.534-1.8l.043-.011c7.344-1.823,14.938-3.708,21.878-3.772a9.26,9.26,0,0,1,3.628-.655,28.229,28.229,0,0,1,5.657.784c.433.091.823.173,1.207.248,4.487-9.022,6.676-19.366,8.793-29.37l0-.006h0c1.159-5.478,2.358-11.143,3.917-16.472a67.505,67.505,0,0,1,6.206-15.088,36.08,36.08,0,0,1,1.5-10.152,21.5,21.5,0,0,1,6.051-9.408,28.99,28.99,0,0,1,5.715-4.027,46.023,46.023,0,0,1,8.033-3.364c6.508-2.079,14.783-3.459,24.6-4.1C527.273.94,540.3,0,553.6,0a184.467,184.467,0,0,1,29.034,1.994,98.123,98.123,0,0,1,13.054,2.942,59.981,59.981,0,0,1,11.281,4.636,33.128,33.128,0,0,1,9.113,12.121A60.086,60.086,0,0,1,620.6,37.463c1.474,9.374,1.583,20.615.322,33.408a74.473,74.473,0,0,0,.025,23.644,64.106,64.106,0,0,0,3.519,12.651,68.775,68.775,0,0,0,6.782,12.923,52.981,52.981,0,0,1,15.6-2.5,42.821,42.821,0,0,1,17.545,3.723,50.611,50.611,0,0,1,8.053,4.52A65.018,65.018,0,0,1,680.089,132c9.361,8.756,18.354,21.668,27.493,39.472,22.582,3.079,39.358,5.687,53.2,9.166a135.819,135.819,0,0,1,19.515,6.326,83.656,83.656,0,0,1,16.08,8.8c9.725,6.862,17.9,16.058,25.716,28.941,7.321,12.062,14.587,27.673,23.558,50.619,15.913,37.012,32.491,76.548,44.935,117.2a352.81,352.81,0,0,1,10.236,38.205c2.757,12.829,5.063,25.958,7.293,38.655l0,.026c2.157,12.282,4.388,24.983,7.03,37.435a368.039,368.039,0,0,0,9.7,37.1c10.671,26.745,21.358,51.121,31.693,74.694l0,.007c16.008,36.513,31.128,71,43.516,108.347a600.206,600.206,0,0,1,16.358,58.9c2.361,10.588,4.471,21.469,6.271,32.341,1.878,11.342,3.489,23.09,4.787,34.92,1.642,13.538,2.736,26.061,3.25,37.221a257.216,257.216,0,0,1-.032,27.367,103.93,103.93,0,0,1-2.542,18.353c-1.136,4.535-2.577,7.96-4.281,10.18-8.739-2.532-19.049-4.9-30.645-7.048-10.185-1.884-21.023-3.522-31.343-4.734l20.856,15.892c-2.143,9.732-3.419,22.1-4.017,38.91-.532,14.983-.459,31.547-.381,49.083.076,17.2.155,34.984-.333,52.72a504.879,504.879,0,0,1-3.734,51.927c-1.136,8.6-2.553,16.682-4.212,24.025a176.536,176.536,0,0,1-6.345,21.857,115.408,115.408,0,0,1-8.905,19.033,79.553,79.553,0,0,1-11.894,15.552,65.147,65.147,0,0,1-9.951,8.211,63.077,63.077,0,0,1-11.645,6.117,69.909,69.909,0,0,1-13.471,3.821,87.334,87.334,0,0,1-15.429,1.321h-.02a114.928,114.928,0,0,1-14.443-.96c-.94-2.291.178-12.629.995-20.177.259-2.394.482-4.461.622-6.064-2.121.149-5.525.307-8.717.307a48.878,48.878,0,0,1-5.749-.263c-3.109,8.988-7.018,17.688-10.8,26.1-4.232,9.418-8.608,19.157-11.9,29.371-3,11.485-6.82,23.17-10.794,35.129-10.785,36.388-20.66,73.228-29.351,109.5-8.647,36.084-16.378,72.67-22.977,108.74-6.561,35.858-12.2,72.28-16.764,108.254-4.531,35.719-8.135,72.068-10.712,108.038-2.556,35.679-4.177,72.047-4.82,108.093-.636,35.725-.329,72.2.912,108.417,1.228,35.85,3.409,72.527,6.482,109.01,3.038,36.066,7.039,73.033,11.892,109.875l-1.753.637-.71,1.265-1.065.4a8.38,8.38,0,0,1-5.108,3.283,35.08,35.08,0,0,1-7.7.545c-16.516.582-31.938,1.226-46.853,1.848l-.1,0c-19.475.812-37.869,1.579-55.434,2.069,2.952,14.8,1.548,30.382.19,45.449-.143,1.59-.306,3.391-.457,5.14,1.356-.1,2.734-.143,4.094-.143a71.586,71.586,0,0,1,23.937,4.453,170.283,170.283,0,0,1,23.014,10.554c36.587,17.993,66.244,33.732,93.331,49.532,5.54,3.552,11.833,7.08,17.919,10.493,19.389,10.874,39.436,22.116,42.99,37.6a22.756,22.756,0,0,1-.175,10.674,37.307,37.307,0,0,1-5.82,12.1l7.026,2.764a2.9,2.9,0,0,1,.476.23c.441,1.576-1.985,5.541-4.2,8.458-2.422,3.195-5.729,6.633-7.266,6.634h-.046c-5.679.265-11.453.4-17.162.4-21.471,0-43.521-1.838-69.393-5.785-23.468-3.58-47.326-8.427-74.952-14.039l-.019,0c-14.872-3.022-30.252-6.146-46.94-9.344-5.7-2.073-18.3-4.6-32.89-7.531l-.021,0-.012,0c-17.4-3.492-39.049-7.839-55.843-12.847-9.2-2.744-16.037-5.388-20.9-8.084a25.124,25.124,0,0,1-6.133-4.48,7.351,7.351,0,0,1-2.28-4.781,4.992,4.992,0,0,1,2.821-4.561,17,17,0,0,1,5.49-1.27c.756-.092,1.471-.179,2.153-.3a107.968,107.968,0,0,1-2.273-23.811,72.907,72.907,0,0,1,2.815-18.649c3.223-11.137,8.744-20.039,14.59-29.464,4.38-7.062,8.908-14.363,12.66-22.976a100.106,100.106,0,0,0,4.936-14.049,107.26,107.26,0,0,0,3.1-16.857,86.133,86.133,0,0,1-15.912,1.875,37.635,37.635,0,0,1-10.083-1.265c-1.469-23.921-2.316-50.195-2.59-80.322-.245-26.871-.022-54.3.194-80.835v-.026c.281-34.526.572-70.227-.157-105.355-.393-18.909-1.041-36.129-1.982-52.645-1.057-18.546-2.453-35.725-4.267-52.518l-13.589-1.506q-2.907,8.57-5.823,17.156l-1.151,3.39,0,.007c-21.495,63.314-43.722,128.783-64.58,194.1-11.241,35.2-21.145,67.389-30.279,98.4-10.267,34.863-19.289,67.309-27.582,99.192a1.726,1.726,0,0,1-1.745,1.582,8.022,8.022,0,0,1-3.9-1.731,488.654,488.654,0,0,1-70.87-7.119c-.575,14.11-1.187,28.666-1.727,41.508l3.593,1.932c2.318,3.234,1.34,18.392.922,24.865l-.057.9c-.4,6.26-.688,10.783-.128,15.094a13.487,13.487,0,0,1,1.344,5.907,26.13,26.13,0,0,1-.975,7.04,71.077,71.077,0,0,1-7.129,16.233c-6.461,11.365-15.367,23.028-22.522,32.4-.833,1.09-1.642,2.15-2.418,3.171-5.67,7.351-11.277,15.563-16.7,23.5-10.719,15.7-21.8,31.927-34.9,44.12a81.06,81.06,0,0,1-21.427,14.792,61.289,61.289,0,0,1-25.913,5.649Zm101.8-2064.117h0c-15.87,31.016-31.7,59.324-48.4,86.544-17.734,28.906-36.773,57.143-58.205,86.324-7.007,8.209-11.739,14.566-14.893,20-3.318,5.719-5.09,10.735-5.578,15.784a32.237,32.237,0,0,0,.2,7.646,50.838,50.838,0,0,0,1.922,8.195,195.655,195.655,0,0,0,8.2,20.174,947.206,947.206,0,0,0,56.612,110.232A1185.583,1185.583,0,0,0,293.077,858.39c-.64-28.9-1.274-58.332-1.887-86.8l-.022-1.012v-.047c-2.63-122.136-5.35-248.429-9.4-373.269Z" transform="translate(208.662 -60.004)" fill="#d08b5b"></path><path id="_Pants" data-name="ðŸ‘– Pants" d="M593.814,19.819S722.131,215.9,712,324.431c-.6,6.428-10.946,106.085-11,113-.349,44.759,18.415,4.837,5,41-10.954,29.529-85.846,204.726-112,460-14.709,143.565,5,505,5,505l-225,14-20-388c-2.934,4.722-139,419-139,419l-106-11-109-42s54.42-227.7,109-544c25.841-149.755,65.386-561.316,65.386-561.316C172.574,304.164,416,310.431,416,310.431s-83.144-264.543-23-301C431.112-13.671,593.814,19.819,593.814,19.819Z" transform="translate(374 677.569)" fill="#9ddadb"></path><path id="_Shoes" data-name="ðŸ‘Ÿ Shoes" d="M104.1,216.568c-22.674,0-47.591-2.6-80.792-8.428l-2.687-.475-3.248-.584L10.3,205.788,8.641,204.12c-4.755-4.784-7.579-10.013-8.394-15.54-.794-5.384.325-10.98,3.325-16.634a52.539,52.539,0,0,1,7.737-10.759,150.864,150.864,0,0,1,12.866-12.265l8.372-7.249c7.788-6.775,9.019-8.066,10.9-10.647l.785-1.093.37-.386c19.3-20.166,34.416-37.4,47.577-54.247a417.563,417.563,0,0,0,38.345-57.886l.867-1.6,1.307-2.423,2.563-1A80.443,80.443,0,0,1,164.534,6.85a78.316,78.316,0,0,1,17.919,2.069,75.571,75.571,0,0,1,16.974,6.2l.647.334.627.335.648.356a79.885,79.885,0,0,1,10.894,7.658l2.7,2.136,1.264.985c4.222,3.257,6.629,4.789,9.539,6.069a20.314,20.314,0,0,0,7.99,1.681c3.015,0,5.528-.768,6.722-2.053l.124-.14.108-.139,3.017-8.421,5.385,57.649-1.163,1.785c-1.556,2.4-2.885,4.535-4.182,6.7l-.78,1.314-2.636,3.938L238.619,97.9c-2.3,3.5-4.827,7.384-8.433,13l-9.515,14.839-3.985,6.169c-10.16,15.661-16.684,25.1-24.072,34.81l-1.964,2.562-1.023,1.28-1.018,1.254A186.89,186.89,0,0,1,174.8,187a138.464,138.464,0,0,1-14.463,12.4,107.845,107.845,0,0,1-15.223,9.454,91.461,91.461,0,0,1-16.092,6.353l-.737.208-.688.191-.713.058C119.3,216.271,111.846,216.568,104.1,216.568ZM769.529,151.15h0l-2.437-.176c-20.726-1.493-41.573-3.731-63.731-6.84-21.623-3.034-43.853-6.809-67.961-11.541l-4.631-.916c-34.1-6.795-67.646-14.5-119.66-27.481l-9.767-2.445-15.914-4.009-.413-.038a31.693,31.693,0,0,1-11.539-3.358,26.54,26.54,0,0,1-8.458-6.984c-4.565-5.723-6.974-13.5-6.967-22.486l.01-1.02,0-.851a82.016,82.016,0,0,1,4.957-26.985,197.072,197.072,0,0,1,10.212-23.4l.365-.726.372-.72,12.79-9.809c.389,1.219.041,3.836-.363,6.868a68.424,68.424,0,0,0-.7,7.121c-.06,2.607.272,4.428,1.014,5.567a6.107,6.107,0,0,0,3.948,2.339,26.353,26.353,0,0,0,6.005.533c1.406,0,2.83-.049,4.207-.1h.008c1.08-.037,2.1-.072,3.066-.083l1.23-.021,1.258-.035c1.91-.064,3.941-.179,6.791-.382l8.005-.588.67-.041c.248-.015.454-.026.65-.035l1.252-.06.789-.031.3-.022c6.674-.524,12.49-3.129,20.539-6.733,3.854-1.726,8.22-3.681,13.4-5.723l7.4-2.94c7.678-3.034,11.714-4.491,16.609-6l.725-.222.383-.075A40.223,40.223,0,0,1,591.617,0c6.281,0,13.294,1.285,21.441,3.928A197.188,197.188,0,0,1,639.813,15.3l1.52.764,1.633.832c3.7,1.895,7.768,4.051,12.424,6.59l7.037,3.878,3.654,2.022.063.035c3.813,2.111,7.755,4.293,9.367,5.175l2.033,1.105,1.851,1c4.7,2.515,8.346,4.354,11.477,5.786l1.054.476.251.136c28.122,15.263,53.163,29.918,76.553,44.8l1.864,1.19.629.345c6.935,3.854,12.344,8.347,16.077,13.353a27.232,27.232,0,0,1,5.751,15.346c.429,11.032-6.592,21.913-19.769,30.639l-.823.537-.859.544-2.072,1.294Z" transform="translate(272.294 2180.076)" fill="#fff"></path><path id="_Jacket" data-name="ðŸ§¥ Jacket" d="M346.951,985.678l-1.714-.051c-.016-.131-.032-.261-.049-.392l-1.409-.1c-3.212-.221-7.063-.394-11.325-.587-22.735-1.024-56.645-2.83-68.884-14.3q-.279-.262-.552-.539-.038-.367-.072-.736c-1.1-11.824.855-23.868,2.818-35.839,1-6.089,2-12.156,2.563-18.166q.162-1.708.283-3.428,1.382.984,2.826,1.958c35.356,23.84,64.8,19.993,95.1,16.133,20.594-2.624,41.585-5.263,65.01.194,6.536,1.543,13.495,4.345,20.623,7.225,15.841,6.4,32.647,13.5,47.324,6.008,3.64-2.962,5.857-5.719,6.882-8.336a8.489,8.489,0,0,0-.414-7.319c-3.758-7.231-15.512-12.526-24.575-16.282l-.966-.4-16.656-6.772c5.3.623,10.579,1.292,15.776,2.149,6.926,1.141,13.875,2.643,20.845,4.15,15.015,3.246,30.119,6.532,45.266,6.142a6.614,6.614,0,0,0,3.228-1.906,6.772,6.772,0,0,0,1.546-3.657c.556-4.083-1.228-9.014-3.311-12.133-5.593-8.549-14.2-13.843-23.52-16.988l.81-3.888a94.508,94.508,0,0,1,10.4,1.688c5.1,1.026,10.233,2.083,15.268,1.7,3.012-1.157,4.966-2.589,5.989-4.3a7.114,7.114,0,0,0,.307-6.075c-2.431-7.343-11.814-15.237-17.7-18.677-20.23-13.4-43.514-19.9-66.687-26.4-13.916-3.9-27.8-7.8-40.962-13.115q-1.405-.567-2.8-1.156a23.906,23.906,0,0,1,2.247-2.215c9.254-7.953,26.7-9.459,44.218-10.771,13.325-1,26.643-1.939,35.872-6.169,6.144-2.816,10.394-7.157,11.184-14.263a19.163,19.163,0,0,0-13-17c-10.8-4.253-25.8-3.007-37.595-1.814l-5.115.525-1.814.18a296.493,296.493,0,0,0-133.349,50.418c-.506.348-1.01.7-1.512,1.045l-1.17-1.422q-18.371-22.367-35.841-45.474c-.129-.17-.257-.34-.384-.517-.006-.21-.013-.42-.018-.63-1.459-50.581-2.231-101.384-3-152.223-1.506-99.021-3.012-198.175-9.6-296.072l1.931-3.966q2.051-4.224,3.751-7.732-.71,1.168-1.463,2.41l-2.813,4.667-4.046,6.768-.053-1.637-.071.137a2.658,2.658,0,0,0-.888.01,2.875,2.875,0,0,0-2.06,1.616,6.976,6.976,0,0,0-.54,4.208q.049.312.119.618l-.324.617q-.975,1.855-1.955,3.7c-25.276,41.013-51.661,81.265-79.85,120.187-4.239,7.177-10.794,15.119-17.675,23.439-14.078,17.021-29.905,35.679-28.149,52.657,35.717,105.1,99.765,199.458,168.584,285.847.31.39.622.78.917,1.176q-.418.608-.841,1.213a331.673,331.673,0,0,1-100.62,94.4c-1.43.78-2.873,1.706-4.366,2.662-4.048,2.591-8.443,5.3-12.471,5.752a9.54,9.54,0,0,1-9.189-4.078C127.787,817.876,71.623,723.352,23.2,625.287-18.771,548.265,1.249,459.744,43.143,387.3l3.651-6.6q4.246-7.679,8.5-15.392c57.223-103.7,116.46-210.97,205.764-289.91l1.547-1.233c23.382-18.551,49.644-35.49,79.447-40.723a166.1,166.1,0,0,1,17.758-1.61c9.937-.543,19.891-1.052,29.2-4.712q1.412-.555,2.773-1.188.032,1.619-.043,3.15c-.728,14.535-.341,26.627,2.809,5.692a81.91,81.91,0,0,1,1.647-13.636c1.408-5.8,3.591-9.41,6.825-12.009,3.56-2.862,8.5-4.467,15.486-6.244l7.17-1.787L430.007,0c16.31,143.695,51.892,284.225,87.474,424.778,43.5,171.841,87,343.717,95.42,521.436l.1.735c.659,5.344.727,11.575-1.462,16.2a12.451,12.451,0,0,1-10.206,7.282,221.751,221.751,0,0,1-25.417,4.081c-2.254.274-4.5.545-6.726.834l-4.491.59c-56.367,7.339-113.244,10.437-170.088,10.438Q370.765,986.38,346.951,985.678ZM737.6,962.368c-.553-.08-1.106-.16-1.658-.244q-.032-.838-.057-1.678c-.562-19.509,2.056-38.872,4.684-58.253,2.813-20.743,5.641-41.508,4.464-62.505l.084-15.43C746.4,573.3,743.108,316.587,669.1,74.876c-.206-9.657-27.643-32.78-28.28-33.494a102.464,102.464,0,0,1-8.669-11.147q-1.328-1.978-2.559-4.02c1.41.319,2.932.635,4.582.94a118.96,118.96,0,0,0,15.368,1.791c11.025.7,14,.669,28.607,19.408,15.7,23.462,34.169,37.885,33.476,36.725q2.013.223,4.044.467c27.454,3.286,51.959,8.486,71.563,21.02,16.149,10.325,29.016,25.6,37.459,48.9l4.339,10.145c27.655,64.768,54.644,130.55,67.021,200.166,6.684,56.015,22.613,109.48,48.382,159.573,43.361,95.156,80.431,198.108,74.445,304.1q-.544,8.722-1.54,17.405-.131,1.145-.273,2.289-1.107-.293-2.216-.581c-31.21-8.095-63.774-12.7-95.977-8.96-.672.077-1.345.159-2.011.238-.068-.671,4.4,42.017-43.738,114.35-1.174,2.341-8.68,9.739-8.827,10.122q-.611.067-1.223.131a520.131,520.131,0,0,1-54.987,2.937A493.7,493.7,0,0,1,737.6,962.368Z" transform="translate(213.309 34.9)" fill="#e86bbb"></path><path id="_Ink" data-name="ðŸ– Ink" d="M178.569,2436.486a590.879,590.879,0,0,1-84.1-6l-3.963-.647a66.239,66.239,0,0,1-13.931-3.529c-4.974-2.03-8.564-4.832-10.976-8.564a18.877,18.877,0,0,1-3.032-11.441,15.616,15.616,0,0,1,4.572-10.189,32.233,32.233,0,0,1-1.171-7.606,29.344,29.344,0,0,1,.652-7.052,36.359,36.359,0,0,1,5.651-12.685c5.325-7.908,13.2-14.775,20.821-21.416,4.064-3.542,7.9-6.888,11.248-10.291,14.992-14.476,29.316-29.719,42.572-45.3a600.144,600.144,0,0,0,37.787-49.357l1.346-3.193c4.574-10.8,9.7-21.747,17.623-26.558,5.773-9.176,11.006-18.87,16.066-28.244,1.608-2.978,3.429-6.352,5.206-9.586-17.23-6.332-35.637-13.862-56.271-23.019a7.24,7.24,0,0,1-3.731-4.283,11.344,11.344,0,0,1-.483-5.727l.047-.241c15.464-80.377,32.516-161.818,49.008-240.577,11.038-52.714,22.451-107.223,33.291-160.949,12.15-60.22,22.265-113.008,30.923-161.382,5.571-44.9,10.37-90.713,15.011-135.014l0-.021c6.651-63.486,13.529-129.134,22.8-193.309,4.99-34.541,10.254-65.907,16.1-95.893,3.164-16.245,6.543-32.266,10.043-47.618,3.671-16.106,7.6-32.036,11.685-47.347-18.2-1.894-36.538-6.609-54.27-11.169-3.449-.887-7.358-1.893-11.109-2.832-9.081-1.935-15.317-5.175-19.064-9.9a19.546,19.546,0,0,1-3.882-8.862,34.037,34.037,0,0,1,.335-12.023c.682-9.479,2.094-19.026,3.46-28.259.981-6.628,1.994-13.482,2.731-20.26-4.342-3.04-8.871-6.435-13.461-10.091-8.088,6.041-16.516,11.784-25.049,17.068a77.872,77.872,0,0,1-13.7,8.179,30.28,30.28,0,0,1-12.276,2.969,19.509,19.509,0,0,1-6.371-1.045,21.065,21.065,0,0,1-5.971-3.268,31.618,31.618,0,0,1-5.592-5.691,55.662,55.662,0,0,1-5.235-8.311c-18.95-29.966-37.163-59.561-54.131-87.961-18.087-30.273-35.465-60.365-51.65-89.439-5.415-10.061-11.154-20.292-16.7-30.186-13.264-23.647-26.979-48.1-38-73.154A329,329,0,0,1,9.126,646.892c-1.994-6.663-3.7-13.325-5.086-19.8-1.45-6.8-2.587-13.633-3.379-20.307A158.211,158.211,0,0,1,.214,584a211.757,211.757,0,0,1,2.67-24.174c1.345-8.084,3.189-16.608,5.48-25.336,2.209-8.416,4.9-17.253,7.984-26.267A552.105,552.105,0,0,1,38.6,453.817c8.165-17.454,17.781-36.084,28.579-55.375C85.409,365.872,107.1,331.106,133.5,292.154c22.507-33.212,44.5-63.631,62.165-88.074l3.942-5.454c11.119-13.442,21.166-24.827,30.716-34.805a363.215,363.215,0,0,1,34.417-31.949c6.234-5.028,12.547-9.688,18.764-13.851a218.223,218.223,0,0,1,19.891-11.874,186.453,186.453,0,0,1,21.086-9.475,167.118,167.118,0,0,1,22.347-6.655c5.185-.769,10.544-1.366,15.726-1.944,13.751-1.533,27.97-3.117,41.014-8.086a29.005,29.005,0,0,1,4.491-11.955,16.967,16.967,0,0,1,10.35-7c2.5-.554,5.073-1.191,7.561-1.807,7.449-1.844,15.152-3.751,22.48-3.933a18.871,18.871,0,0,1,5.08-.771,11.7,11.7,0,0,1,2.109.182c3.094-8.044,5.005-16.7,6.853-25.068,2.169-9.821,4.411-19.976,8.578-29.2A2.129,2.129,0,0,1,472.213,0a1.067,1.067,0,0,1,.844.424c1.152,1.393,1.175,6.1.07,14.394-.934,7.01-2.478,15.119-3.72,21.636l0,.014c-.985,5.17-1.763,9.254-1.768,10.429l-.2.992A71.873,71.873,0,0,1,462.9,62.716a38.028,38.028,0,0,1-3.847,6.75,26.177,26.177,0,0,1-5.283,5.481c3.844,31.475,8.607,62.324,14.159,91.691l3.379.444c7.47.991,15.075,2.054,22.429,3.083l.019,0c16.252,2.274,33.057,4.624,49.649,6.361a479.315,479.315,0,0,0,49.936,2.9c10.332,0,19.981-.432,29.5-1.322l.47,0a52.813,52.813,0,0,0,34.187-12.256c8.636-7.049,16.054-17.023,22.045-29.645-.753-2.759-1.494-5.465-2.271-8.239a112.714,112.714,0,0,1-12.613-9A115.67,115.67,0,0,1,653.229,108.2,105.628,105.628,0,0,1,635.52,82.475a82.715,82.715,0,0,1-8.226-29.394,69.716,69.716,0,0,1,4.412-30.772,2.3,2.3,0,0,1,2.224-1.519,2.5,2.5,0,0,1,1.6.559.341.341,0,0,1,.318.349l-.557,8.657c-.488,7.878-.926,17.025.053,25.9,1.051,9.534,3.614,17.581,7.835,24.6a56.09,56.09,0,0,1,12.443-1.451,49.174,49.174,0,0,1,11.053,1.249,50.509,50.509,0,0,1,10.106,3.519,66.018,66.018,0,0,1,17.59,12.481,113.48,113.48,0,0,1,14.453,17.457,202.106,202.106,0,0,1,11.747,19.695l11.4,1.686c10.386,1.544,21.419,3.252,32.109,5.644a156.848,156.848,0,0,1,29.749,9.449,101.472,101.472,0,0,1,13.434,7.2,86.681,86.681,0,0,1,12.177,9.412,84.966,84.966,0,0,1,10.7,12.042,96.384,96.384,0,0,1,9,15.094l2.948,6.277c8.369,17.868,15.574,33.741,22.026,48.525,7.642,17.51,14.3,33.645,20.36,49.328,14.016,36.278,24.527,69.5,32.134,101.552,3.02,13.45,5.374,27.275,7.65,40.645v.009l0,.014c1.974,11.591,4.014,23.577,6.479,35.26a304.344,304.344,0,0,0,9.234,34.652c9.761,25.847,21.259,51.509,32.378,76.326l.008.017c8.772,19.578,17.842,39.823,26,60.034,4.4,10.882,8.183,20.887,11.581,30.586,3.814,10.885,7.043,21.109,9.871,31.257,2.654,5.535,6.426,19.235,10.351,37.587,4.161,19.456,8.025,41.889,10.88,63.167,3.327,24.79,5.175,47.207,5.344,64.826.2,20.99-1.9,35.312-6.256,42.567a12.966,12.966,0,0,1-3.514,3.987,8.158,8.158,0,0,1-4.424,1.525,298.557,298.557,0,0,0-36.3-8.511,5.659,5.659,0,0,1,1.954,2.8,7.953,7.953,0,0,1,.266,3.593c-4.266,29.933-4.6,60-4.581,90.732.526,17.03.594,31.519.215,45.6a475.122,475.122,0,0,1-4.1,52.589c-1.292,9.23-2.9,18.011-4.765,26.1a208.928,208.928,0,0,1-7.159,24.47,137.978,137.978,0,0,1-9.99,21.712,91.163,91.163,0,0,1-13.26,17.829,69.925,69.925,0,0,1-9.845,8.463,63.1,63.1,0,0,1-11.314,6.358,64.233,64.233,0,0,1-12.88,4,74.418,74.418,0,0,1-14.546,1.39,101.185,101.185,0,0,1-22.5-2.723,6.1,6.1,0,0,1-3.121-2.416,8.835,8.835,0,0,1-1.268-3.814c-.365-2.906.1-6.516.556-10.006a55.614,55.614,0,0,0,.686-8.694c-.244.011-.492.017-.737.017-.372,0-.767-.013-1.174-.038-2.776,7.5-6.09,14.847-9.294,21.955-4.113,9.125-8.365,18.558-11.5,28.335-1.485,4.7-2.855,9.606-4.18,14.35l0,.016c-2.9,10.4-5.907,21.152-10.415,30.955-8.714,31.01-16.851,62.49-24.186,93.567-7.407,31.385-14.194,63.2-20.172,94.571-6.042,31.7-11.419,63.791-15.982,95.377-4.614,31.94-8.522,64.234-11.615,95.983-3.128,32.114-5.507,64.544-7.071,96.391-1.582,32.22-2.373,64.721-2.351,96.6.023,32.264.88,64.767,2.547,96.607,1.688,32.235,4.252,64.674,7.621,96.416,1.534,15.423,3.274,30.913,5.171,46.042-.082,2.939.886,8.542,2.008,15.03,1.328,7.686,2.832,16.391,3.129,23.562.344,8.326-1.035,12.836-4.217,13.787a5.52,5.52,0,0,1-2.59,1.941,14.218,14.218,0,0,1-7.663,4.169,42.806,42.806,0,0,1-9.065.692h-1.96a56.527,56.527,0,0,0-5.943.231c-33.6,1.5-61.109,2.585-86.559,3.429,1.551,11,.576,22.259-.367,33.152-.1,1.169-.216,2.494-.323,3.78,16.483.136,31.886,8.01,46.782,15.625,4.024,2.057,8.182,4.183,12.228,6.075,27.435,13.542,54.866,28.248,81.531,43.708a216.971,216.971,0,0,0,19.076,11.279l0,0c6.5,3.568,13.212,7.258,19.488,11.312a85.235,85.235,0,0,1,16.594,13.365,41.455,41.455,0,0,1,5.732,7.78,29.369,29.369,0,0,1,3.234,8.685,28.134,28.134,0,0,1,.145,9.721,38.851,38.851,0,0,1-3.536,10.887c3.886,1.578,5.525,4.7,4.738,9.017-.771,4.229-3.87,9.387-8.291,13.8s-9.15,7.081-12.676,7.169c-15.124-.076-30.547-.862-47.15-2.4-14.781-1.371-30.144-3.31-46.967-5.928-31.238-4.862-62.73-11.36-93.186-17.644-6.614-1.365-13.449-2.775-20.166-4.146-12.387-3.275-25.353-5.948-37.891-8.532-13.411-2.764-27.279-5.622-40.592-9.242-7.172-1.95-13.6-3.956-19.65-6.13a179.372,179.372,0,0,1-18.826-7.93,10.693,10.693,0,0,1-5.425-5.668,15.266,15.266,0,0,1-.987-8,14.706,14.706,0,0,1,2.986-7.179,10.391,10.391,0,0,1,6.577-3.841,121.4,121.4,0,0,1-1.154-23.307,72.683,72.683,0,0,1,3.022-17.448c3.127-10.158,8.188-17.831,13.546-25.953l.005-.006h0a159.336,159.336,0,0,0,11.109-18.733,101.346,101.346,0,0,0,8.411-25.991,37.7,37.7,0,0,1-6.058.464,56.216,56.216,0,0,1-11.113-1.2,3.256,3.256,0,0,1-2.111,1.041c-.878,0-1.685-.629-2.4-1.871a19.847,19.847,0,0,1-1.8-5.172,116.441,116.441,0,0,1-2.16-17.555c-.91-14.01-.913-31.266-.915-45.131v-.01c0-10.93,0-19.563-.473-22.022-.087-23.908.133-48.171.347-71.634v-.026c.321-35.4.653-72-.06-107.965-.384-19.371-1.031-37.011-1.979-53.929-1.064-18.993-2.476-36.606-4.317-53.846l-17.339,51.088c-18.3,53.989-39.486,116.823-59.241,179.338-21.057,66.635-38.292,125.95-52.691,181.334a8.559,8.559,0,0,1-8.621,6.795,10.989,10.989,0,0,1-5.928-1.765,477.843,477.843,0,0,1-62.071-5.891c-.4,9.726-.8,19.386-1.219,29.25,6.141,3.31,5.135,18.872,4.326,31.376-.366,5.659-.683,10.546-.336,13.665a19.1,19.1,0,0,1,1.511,7.355,32.482,32.482,0,0,1-1.064,8.37,77.974,77.974,0,0,1-7.922,18.615c-7.214,12.851-17.362,25.972-25.517,36.516l-.015.019c-3.617,4.676-6.74,8.714-9.033,11.986-3.361,4.7-6.653,9.578-10.139,14.744l0,.006c-9.992,14.806-20.324,30.117-32.983,42.078A82.554,82.554,0,0,1,219.868,2430a62.714,62.714,0,0,1-25.449,6.276l-1.341.032C188.269,2436.427,183.387,2436.486,178.569,2436.486Zm-83.232-26.547h0a49.347,49.347,0,0,0,5.2,2.188c2.366.325,4.509.6,6.549.831C103.034,2412.046,99.082,2411.029,95.337,2409.938ZM237.316,2213.61h0a72.223,72.223,0,0,0-13.03,1.249,101.853,101.853,0,0,0-15.139,4.108c-23.729,44.105-55.175,86.158-93.462,124.99-3.377,4.2-8.437,8.525-13.794,13.1-5.336,4.558-10.853,9.271-15.171,14.262a39.971,39.971,0,0,0-5.376,7.687,21.023,21.023,0,0,0-2.441,8.111,17.315,17.315,0,0,0,1.112,7.421,26,26,0,0,0,4.871,7.8l3.182.584c17.474,3.181,30.936,5.282,43.651,6.813a366.9,366.9,0,0,0,44.021,2.859c7.439,0,14.769-.288,21.786-.855a84.551,84.551,0,0,0,19.579-8.269,111.291,111.291,0,0,0,17.25-12.4c9.366-8.111,18.46-18.207,28.622-31.771,5.609-9.953,12.021-20.287,19.6-31.594,7.491-11.172,15.359-22.129,21.376-30.427a37.732,37.732,0,0,0,7.4-16.609,93.119,93.119,0,0,0,1.373-18.332c.295-8.17.573-15.484.849-22.359a25.708,25.708,0,0,1-8.89,1.656,27.068,27.068,0,0,1-12.713-3.434,102.575,102.575,0,0,1-12.205-7.956l0,0-.181-.13c-1.134-.814-2.306-1.656-3.491-2.489-9.641-6.778-21.383-14.01-38.773-14.012Zm311.051,11h0a76.551,76.551,0,0,0-9.722,25.146,81.289,81.289,0,0,0-.507,26.983l.02.857c.112,4.1.461,7.331,1.8,9.755a7.693,7.693,0,0,0,3.063,3.094,12.508,12.508,0,0,0,5.436,1.385l25.629,6.454c41.579,10.45,85.9,21.4,130.435,30.276,23.434,4.672,44.988,8.4,65.891,11.394,23.256,3.332,44.991,5.66,66.446,7.117,5.986-3.742,10.57-7.814,13.626-12.1a20.9,20.9,0,0,0,4.326-12.87A20.276,20.276,0,0,0,849.955,2310c-3.185-3.97-7.871-7.635-13.926-10.9l-6.459-3.963c-22.345-13.686-48.785-29.644-75.464-44.229A770.2,770.2,0,0,0,675.466,2213a35.085,35.085,0,0,0-12.131-2.113,48.3,48.3,0,0,0-14.346,2.358,92.545,92.545,0,0,0-13.672,5.617,162.494,162.494,0,0,1-26.736,8.883A138.975,138.975,0,0,1,576.675,2232a66.792,66.792,0,0,1-15.766-1.692,33.371,33.371,0,0,1-12.542-5.7Zm315.2,114.67h0l-.2.344-.067.116-.021.035c-.138.239-.28.486-.423.725a4.642,4.642,0,0,1,1.029.719A5.688,5.688,0,0,0,863.567,2339.279ZM241.181,2206.428c16.674,0,28.781,6.531,38.426,12.92,1.976,1.31,3.844,2.609,5.65,3.866a103.867,103.867,0,0,0,9.9,6.381c3.428,1.824,6.269,2.674,8.94,2.674a12.2,12.2,0,0,0,5.562-1.348l.592-.313v-.01c-1.644-3.76-2.025-8.462-1.162-14.373a105.117,105.117,0,0,1,3.615-14.7l.01-.034c.2-.676.393-1.314.579-1.945-13.739-2.488-27.955-5.766-42.252-9.741-13.385-3.721-27.279-8.175-41.3-13.238a29.341,29.341,0,0,1-1.342,9.409c-.9,3.167-2.144,6.34-3.237,9.139-.237.605-.489,1.25-.731,1.882-.411,1.075-.825,2.286-1.263,3.568l-.006.016,0,.006a64.154,64.154,0,0,1-3.689,9.2A77.006,77.006,0,0,1,241.181,2206.428Zm328.086-42.461a77.246,77.246,0,0,1,.516,14.834,110.219,110.219,0,0,1-2.192,16.6c-2.549,12.1-6.834,22.22-12.064,28.508l-.018.006-.007,0a.056.056,0,0,0-.026.01,85.658,85.658,0,0,0,12.8.951,100.914,100.914,0,0,0,18.6-1.793,145.258,145.258,0,0,0,18.19-4.7c11.983-3.867,23.742-9,35.114-13.972l.015-.006.448-.2c1.854-.81,3.772-1.647,5.643-2.458a95.893,95.893,0,0,1,4.31-20.136c2.136-6.8,4.832-13.62,7.191-19.483l-15.618.482c-21.478.653-46.452,1.349-71.046,1.349Zm-15.98,51.462c-.864,1.62-1.766,3.3-2.562,4.775l-.368.684a9.438,9.438,0,0,0,1.42,1.271C551.476,2219.852,552.324,2217.562,553.287,2215.429ZM362.948,1054.118c-7.294,36.152-14.113,73.567-20.268,111.207-5.934,36.291-11.433,73.9-16.343,111.784-4.714,36.372-9.032,74.139-12.836,112.251-3.632,36.389-6.912,74.276-9.749,112.609-4.014,35.667-8.937,71.949-15.048,110.919-5.444,34.714-11.714,70.782-19.169,110.265-13.846,73.333-29.783,147.583-45.2,219.389l0,.018v.007c-13.783,64.217-28.036,130.62-40.737,196.11,16.469,7.214,32.71,13.7,48.271,19.28,16.692,5.984,33.275,11.165,49.29,15.4a506.318,506.318,0,0,0,50.437,10.68,446.663,446.663,0,0,0,51.713,5.121c7.613-28.174,15.882-57.046,25.277-88.266,8.374-27.829,17.464-56.915,27.789-88.921,19.186-59.477,39.879-120.4,59.892-179.31,21.3-62.713,43.331-127.561,63.83-191.488,11.035-34.414,20.741-65.766,29.671-95.848,10.029-33.783,18.824-65.094,26.891-95.72,8.665-32.9,16.453-65.01,23.149-95.442,7.166-32.573,13.372-64.541,18.445-95.016,5.369-32.253,9.668-64.028,12.778-94.441,3.265-31.923,5.333-63.455,6.148-93.718a1.185,1.185,0,0,1,.877-.356,1.006,1.006,0,0,1,1.064.8c2.861,17.586,2.136,35.946,1.434,53.7l-.007.178c-.094,2.378-.191,4.837-.277,7.24-1.338,30.391-3.733,61.707-7.118,93.077-3.265,30.259-7.539,61.368-12.7,92.463-3.151,18.561-6.743,37.7-10.678,56.878-3.765,18.355-7.967,37.35-12.488,56.458-8.419,35.583-18.046,72.165-29.433,111.835-9.732,33.908-20.774,70.114-33.756,110.687-12.2,38.133-24.579,75.352-36.137,109.893-1.039,4.162-.414,8.673.19,13.036v.005a61.62,61.62,0,0,1,.732,7.52c1.972,21.577,3.652,43.621,5.137,67.392,1.323,21.189,2.459,43.266,3.473,67.493,1.883,45,3.046,90.783,4.171,135.062v.068c.551,21.7,1.121,44.138,1.769,66.215a109.244,109.244,0,0,0,.432,13.752v.009c.605,8.277,1.231,16.836-1.525,24.311,31.137-4.18,62.939-6.779,93.694-9.293l.035,0c5.893-.481,11.663-.953,17.453-1.437l.276-.181a6.845,6.845,0,0,1,3.377-1.206,2.49,2.49,0,0,1,2.026.938c29.935-2.358,60.728-4.6,94.139-6.842-5.554-39.817-9.972-80.256-13.133-120.192-3.18-40.173-5.167-80.855-5.908-120.917-.747-40.35-.247-81.094,1.484-121.1,1.746-40.346,4.79-80.967,9.046-120.736,17.594-164.4,56.343-322.008,115.17-468.454-2.328-2.136-3.839-5.273-4.618-9.59a75.313,75.313,0,0,1-.787-12.151v-.009a67.494,67.494,0,0,0-.643-10.572c-.955-23.591-1.079-42.658-.389-60.005a379.885,379.885,0,0,1,6.669-59.543l-1.984.118c-4.186.239-26.348,1.43-51.648,1.43-35.8,0-78.862-2.385-80.7-13.75a134.441,134.441,0,0,1-.341-29.1c.823-9.684,2.371-19.5,3.87-29v0c1.681-10.659,3.419-21.68,4.131-32.521,1.464-28.069,2.306-58.813,2.571-93.992.236-31.379,0-63.249-.222-94.07l-.015-2.086c-.035-4.808-.071-9.731-.1-14.581a120.731,120.731,0,0,1-16.144,1c-8.7,0-17.466-.752-25.947-1.479-6.35-.544-12.914-1.107-19.441-1.356-4.321-.038-8.882-.057-13.946-.057-6.38,0-12.864.029-19.135.058h-.338c-6.37.029-12.958.059-19.47.059-13.016,0-23.534-.128-33.1-.4,9.771,49.437,17.379,93.978,23.261,136.166,3.264,23.407,6.037,46.489,8.243,68.6,2.336,23.409,4.121,46.587,5.306,68.891l.043.912c.048.946.107,1.923.164,2.868v.023a73.407,73.407,0,0,1,.025,12.866,22.345,22.345,0,0,1-4.544,11.71c-6.031,7.546-15.249,8.935-24.164,10.278l-.1.015q-.885.134-1.766.269c-32.046,4.882-65.166,8.579-98.44,10.989-32.316,2.341-65.625,3.527-99,3.528C392.671,1054.8,377.751,1054.567,362.948,1054.118Zm-136.7,1121.2h0c-.483,2.1-1.067,4.342-1.839,7.049a34.733,34.733,0,0,1,3.21-5.894l.378-.526Zm341.34-11.34-1.71.019-.009.981a1.874,1.874,0,0,1-.032,2.149c-.062,3.214-.2,6.184-.419,9.08l.011-.065C566.074,2172.153,566.741,2168.028,567.587,2163.978Zm-21.729-1,.09,1.519c1.034-.038,2.1-.038,3.036-.038h.037c1.152,0,2.344,0,3.507-.06a29.584,29.584,0,0,0,3.519-.471,74.733,74.733,0,0,1-10.189-.949ZM911.612,1089.844a1.391,1.391,0,0,1,1.454,1.072c2.572,14.076,2.129,28.935-1.352,45.427-3.412,16.165-9.374,31.837-14.187,43.684-2.466,1.765-4.1,4.661-5,8.854a65.986,65.986,0,0,0-1.014,11.511v.009c-.066,2.242-.127,4.36-.326,6.185a88.44,88.44,0,0,0,12.687.962h.014a67.794,67.794,0,0,0,13.645-1.334,56.636,56.636,0,0,0,11.964-3.867,54.821,54.821,0,0,0,10.381-6.19,61.451,61.451,0,0,0,8.912-8.3,76.73,76.73,0,0,0,7.556-10.2,101.781,101.781,0,0,0,6.312-11.9,160.321,160.321,0,0,0,9.344-28.03c4.392-18.1,7.247-40.052,8.731-67.11,1.3-23.706,1.387-47.561,1.471-70.631v-.009c.062-16.894.121-32.852.676-46.962.621-15.8,1.783-27.186,3.657-35.844a5.366,5.366,0,0,1,3.9-4.049c-16.767-2.563-34-2.959-50.66-3.341l-1.03-.024-3.7-.087a7.689,7.689,0,0,1-3.461,2.431,194.455,194.455,0,0,1-1.153,21.517,161.44,161.44,0,0,1-3.742,21.064,139.791,139.791,0,0,1-6.734,20.339,129.173,129.173,0,0,1-10.129,19.34c-6.828,9.066-10.567,19.436-13.591,29.291a284.842,284.842,0,0,0-10.145,36.466,313.017,313.017,0,0,0-5.412,37.342,367.387,367.387,0,0,0,1.705,75.5c16.748-24.6,23.254-53.967,27.79-82.041A1.372,1.372,0,0,1,911.612,1089.844Zm-551.985-35.866h0c.161.815.285,1.57.38,2.308.232-.788.463-1.584.66-2.269l-.146-.005c-.268-.008-.58-.018-.894-.035Zm-76.939-80.54c-.606,4.811-1.331,9.681-2.033,14.39-1.26,8.462-2.563,17.213-3.216,25.888l-.131.765c-.962,5.742-1.2,10.2.737,13.308,1.8,2.882,5.464,4.625,12.244,5.828,16.235,4.909,33.342,6.389,49.41,7.259,23.292,1.233,46.948,1.859,70.311,1.859,28.283,0,56.918-.916,85.11-2.723,28.248-1.811,56.755-4.56,84.729-8.173,3.374-.907,8.139-1.3,13.184-1.712,5.967-.49,12.728-1.046,18.262-2.576,6.338-1.754,10.15-4.531,11.653-8.493-.614-22.217-1.854-45.172-3.687-68.226-1.747-21.97-4.09-44.757-6.964-67.729-5.305-42.4-12.465-86.308-21.889-134.248-7.854-39.953-17.464-83.494-29.38-133.112C550.4,571.5,538.965,526.62,527.9,483.214l0-.017c-17.175-67.4-34.935-137.1-50.069-206.011-8.146-37.094-14.9-71.007-20.655-103.677-3.116-17.7-5.965-35.235-8.466-52.124-2.624-17.716-4.956-35.332-6.933-52.357-.689-3.473-.541-6.468.429-8.661l-2.139.561c-1.985.512-3.826.968-5.606,1.408l-.013,0c-9.152,2.262-15.2,3.756-19.16,7.811a18.613,18.613,0,0,0-4.46,8.407,68.155,68.155,0,0,0-1.924,14.7,175.916,175.916,0,0,1-7.784,30.727c-3.4,9.988-7.481,19.94-11.424,29.565-5.94,14.5-12.082,29.5-16.039,44.889a37.588,37.588,0,0,0-1.026,14.065,33.954,33.954,0,0,0,1.562,7.208,22.054,22.054,0,0,0,3.137,6.131,13.939,13.939,0,0,0,4.514,3.982A12.825,12.825,0,0,0,388,231.318a17.455,17.455,0,0,0,3.338-.34,5.6,5.6,0,0,1,1.647-.254,5.425,5.425,0,0,1,3.306,1.148,6.643,6.643,0,0,1,2.1,2.793,6.04,6.04,0,0,1,.375,3.24,5.385,5.385,0,0,1-1.637,3.023c-10.529,9.971-20.957,20.353-31.041,30.393l-.024.024c-2.037,2.027-4.143,4.124-6.216,6.184,12.344,41.718,25.79,83.721,39.963,124.841,14.184,41.151,29.476,82.519,45.451,122.955,16,40.491,33.111,81.139,50.866,120.814,17.791,39.755,36.7,79.6,56.209,118.419a5.261,5.261,0,0,1-.176,5.289,6.128,6.128,0,0,1-4.994,2.892,4.52,4.52,0,0,1-4.139-2.732c-19.436-39.034-38.286-78.97-56.028-118.7-17.785-39.826-34.935-80.519-50.974-120.949-16.088-40.552-31.493-81.937-45.787-123-14.345-41.211-27.962-83.222-40.471-124.866l-1.522-5.081c-.644-1.787,1.221-5.063,5.7-10.016,3.9-4.314,9.276-9.331,14.016-13.757l.015-.014c5.285-4.934,9.849-9.2,11.659-11.721a35.309,35.309,0,0,1-10.394-7.392,28.7,28.7,0,0,1-6-9.575,37.073,37.073,0,0,1-2.249-11.4,62.271,62.271,0,0,1,.848-12.857c2.906-17.954,12.282-38.723,21.349-58.809l0,0c9.415-20.854,18.307-40.552,18.981-55.007a56.172,56.172,0,0,1-14.793,4.006c-5.063.727-10.312,1-15.389,1.269h-.008a153.285,153.285,0,0,0-17.221,1.554,122.291,122.291,0,0,0-21.911,6.074,158.007,158.007,0,0,0-20.6,9.616c-11.664,6.456-23.594,14.662-37.544,25.827C185.6,214,126.532,321.038,69.41,424.556c-3.982,7.216-8.1,14.676-12.158,22a354.037,354.037,0,0,0-26.5,56.458A275.859,275.859,0,0,0,16.089,562.9a225.792,225.792,0,0,0-1.713,30.425,201.809,201.809,0,0,0,2.661,30.319,186.175,186.175,0,0,0,20.328,59.034c11.766,23.831,24.44,48.34,37.669,72.846,12.592,23.326,26.1,47.413,40.148,71.591,25.892,44.564,54.034,90.264,86.034,139.713a7.7,7.7,0,0,0,6.35,3.377c4.035,0,8.511-2.881,12.459-5.424,1.638-1.054,3.183-2.049,4.6-2.784a325.43,325.43,0,0,0,54.935-41.654,332.782,332.782,0,0,0,45.075-52.176C308.38,848.2,292.841,827.953,278.449,808c-15.05-20.865-29.3-42.038-42.348-62.932-13.6-21.768-26.3-43.885-37.754-65.736-11.9-22.689-22.8-45.761-32.406-68.576l-.542-1.082a120.316,120.316,0,0,1-5.959-13.878,63.888,63.888,0,0,1-3.406-14.479,38.653,38.653,0,0,1,1.006-14.285,33.475,33.475,0,0,1,7.278-13.3c12.682-16.264,25.516-33.419,38.146-50.986,11.976-16.658,24.176-34.255,36.263-52.3,21.985-32.826,44.235-68.033,68.021-107.631a.615.615,0,0,1,.525-.321.682.682,0,0,1,.558.315.7.7,0,0,1,.048.677c-4.384,9.939-9.144,20.129-14.149,30.289,2.948,43.819,5.136,92,6.689,147.3,1.384,49.291,2.146,99.534,2.884,148.122v.078c.759,50.007,1.544,101.716,3.007,152.331,11.254,14.919,23.3,30.2,35.789,45.41a300.4,300.4,0,0,1,64.04-33.572,293.084,293.084,0,0,1,70.232-17.19l3.1-.31,1.074-.111h.009a204.223,204.223,0,0,1,21-1.414c9.792,0,17.255,1.377,22.815,4.209a21.251,21.251,0,0,1,7.914,6.7,23,23,0,0,1,3.838,11.034,19.516,19.516,0,0,1-1.686,6.319,17.433,17.433,0,0,1-3.455,4.912c-2.672,2.685-6.338,4.782-11.207,6.409-9.048,3.023-21.005,3.918-32.569,4.784-8.365.626-17.015,1.274-24.53,2.721a58.923,58.923,0,0,0-10.4,2.877,27.9,27.9,0,0,0-8.139,4.7c13.1,5.288,27.159,9.23,40.751,13.043l.007,0c11.5,3.227,23.4,6.564,34.723,10.711,6.1,2.232,11.546,4.514,16.655,6.976a131.8,131.8,0,0,1,15.774,8.911,57.084,57.084,0,0,1,12.659,10.435c3.211,3.569,6.95,8.842,6.53,13.694-.327,3.782-3.136,6.683-8.349,8.621-.826.071-1.686.106-2.557.106a70.051,70.051,0,0,1-13.548-1.821l-.018,0a92.9,92.9,0,0,0-10.156-1.652,54.737,54.737,0,0,1,13.724,6.754,39.634,39.634,0,0,1,10.7,10.836,23.769,23.769,0,0,1,3.328,7.628,14.71,14.71,0,0,1-.119,8.271,8.06,8.06,0,0,1-5.92,5.081c-.9.026-1.828.039-2.758.039-14.468,0-29.088-3.161-43.227-6.219-6.81-1.472-13.852-2.995-20.747-4.132l1.959.8a107.421,107.421,0,0,1,17.494,8.679,33.075,33.075,0,0,1,6.879,5.766,13.352,13.352,0,0,1,3.371,6.73,11.106,11.106,0,0,1-1.4,6.945,26.813,26.813,0,0,1-6.936,7.756,31.639,31.639,0,0,1-14.918,3.48c-11.174,0-22.9-4.739-34.248-9.323l-.012,0c-7.138-2.883-13.879-5.607-20.32-7.128a124.357,124.357,0,0,0-28.547-3.145c-12.3,0-24.024,1.494-35.367,2.939l-.367.046c-11.16,1.422-22.7,2.892-34.216,2.893a108.073,108.073,0,0,1-30-3.969,104.221,104.221,0,0,1-15.771-5.938,124.6,124.6,0,0,1-16.5-9.442h0Zm385.2-878.486c8.5,20.747,16.426,42.754,23.553,65.409,6.773,21.533,13.043,44.342,18.634,67.792,5.269,22.1,10.115,45.523,14.4,69.618,3.994,22.448,7.649,46.3,10.863,70.9,12.434,95.146,17.264,191.945,21.935,285.556l.213,4.262c1.823,55.906,2.766,101.077,2.97,142.156.256,51.7-.65,98.183-2.771,142.112-.828,8.194-2.124,16.564-3.377,24.659l0,.016c-1.3,8.381-2.639,17.048-3.477,25.591a151.114,151.114,0,0,0-.575,25.644,493.4,493.4,0,0,0,70.193,4.988h.008a519.951,519.951,0,0,0,54.77-2.927,100.824,100.824,0,0,1,4.195-9.532,156.492,156.492,0,0,0,19.064-29.34,150.66,150.66,0,0,0,11.288-30.766,170.488,170.488,0,0,0,4.663-31.817,217.706,217.706,0,0,0-.81-32.49c-1.9-19.612-6.291-41.035-13.433-65.493-6.24-21.369-13.734-42.307-21.507-63.663-4.253.18-8.819.267-13.956.267-5.907,0-11.9-.115-17.687-.227l-.09,0h-.029c-5.808-.111-11.814-.227-17.733-.227-1.723,0-3.4.01-4.986.03,4.086,12.667,5.991,26.082,7.832,39.056v.009c.684,4.814,1.39,9.792,2.2,14.656,1.929,12.159,4.414,24.625,7.6,38.11l.8,3.361q.14.582.286,1.171c1.076,4.366,2.189,8.881.694,13.108a6.855,6.855,0,0,1-6.356,4.705,6.288,6.288,0,0,1-4.426-1.856c-4.725-5.4-5.708-12.733-6.66-19.826v-.007c-.371-2.766-.754-5.626-1.358-8.275l-.393-2.94c-.289-2.136-.586-4.282-.916-6.666-3.417-24.677-6.951-50.193-.86-74.615a15.735,15.735,0,0,0-3.213-.26c-1.592,0-3.4.115-5.314.237l-.273.018c-2.184.139-4.147.255-6.051.255a18.714,18.714,0,0,1-7.031-1.007,4.955,4.955,0,0,1-3.381-4.273c.083-4.392-.832-10.4-1.8-16.752-1.1-7.215-2.344-15.39-2.266-22.384.09-8,1.9-13.337,5.527-16.3,4.562-3.486,11.256-3.966,17.811-3.966,1.163,0,2.351.015,3.306.027h.092c.954.012,2.035.025,3.059.025,1.09,0,1.974-.015,2.783-.047,8.84-.357,17.485-.676,26.066-.676.718,0,1.449,0,2.173.007-15.506-37.539-27.16-70.269-35.631-100.059-4.14-14.559-7.5-28.283-10.265-41.956-2.659-13.141-4.694-25.848-6.22-38.846-2.728-23.228-3.769-47.116-3.276-75.18.449-25.638,2.092-52.307,3.994-83.189,1.495-24.273,3.19-51.785,4.48-82.42l.229-5.56a.965.965,0,0,1,.28-.709,1.247,1.247,0,0,1,.877-.354.918.918,0,0,1,.963.773c1.508,9.737,2.6,19.691,3.341,30.433.659,9.572,1.021,19.553,1.106,30.511.158,20.369-.693,41.106-1.515,61.161v.022c-.692,16.888-1.408,34.351-1.519,51.51a496.266,496.266,0,0,0,2.04,51.431c.8,8.774,1.929,17.8,3.354,26.813,1.359,8.6,3.034,17.475,4.979,26.389,3.589,16.454,8.135,33.381,13.9,51.746,10.71,34.122,24.113,68.15,37.074,101.058l.005.013c12.6,31.993,25.631,65.075,36.168,98.2,5.673,17.832,10.192,34.255,13.816,50.208a441.18,441.18,0,0,1,8.692,51.535,204.763,204.763,0,0,1,23.542-1.331c22.406,0,46.339,3.383,73.168,10.341.656-5.72,1.171-11.538,1.53-17.29.729-12.9.828-26.182.3-39.474-.512-12.778-1.623-25.944-3.3-39.133-1.607-12.624-3.784-25.656-6.469-38.735-2.554-12.44-5.651-25.319-9.2-38.28-3.356-12.237-7.228-24.944-11.509-37.769-4-11.989-8.5-24.505-13.381-37.2-8.561-22.287-18.588-45.995-30.655-72.478-6.416-12.472-12.327-25.375-17.566-38.35-5.2-12.881-9.883-26.181-13.914-39.532-4-13.258-7.475-26.926-10.317-40.625-2.824-13.609-5.1-27.616-6.775-41.631-3.126-17.581-7.224-35.276-12.529-54.1-4.734-16.8-10.317-34.071-17.069-52.815-12.969-36-28.209-71.6-41.655-103.014a113.973,113.973,0,0,0-7.872-17.292,91.237,91.237,0,0,0-9.735-14.035,83.907,83.907,0,0,0-11.46-11.164,89.871,89.871,0,0,0-13.047-8.676,126.391,126.391,0,0,0-30.3-11.423,279.4,279.4,0,0,0-34.985-6.074c18.281,30.358,36.126,60.272,49.631,82.94,1.261,2.867.876,5.705-1.174,8.676-1.793,2.6-4.525,4.881-7.167,7.089a52.727,52.727,0,0,0-4.179,3.734,60.134,60.134,0,0,1,24.534,24.62,79.045,79.045,0,0,1,6.491,16.252,115.826,115.826,0,0,1,3.471,18.166c1.293,11.3,1.414,24.36.37,39.932-.921,13.752-2.609,27.684-4.24,41.156v.005c-2.321,19.168-4.514,37.273-4.185,52.3-1.394,16.3-2.536,32.91-3.642,48.97v.009c-1.229,17.863-2.5,36.334-4.123,54.474-1.818,20.333-3.893,38.074-6.345,54.237a2.59,2.59,0,0,1-2.7,2.261,3.346,3.346,0,0,1-3.468-3.091c.2-21.817,1.1-45.654,2.754-72.873,1.47-24.262,3.386-48.914,5.238-72.754l0-.027,0-.029c2.256-29.033,4.589-59.054,6.135-88.609l.5-5.7c.766-8.9,1.588-19.273,1.636-29.877.054-11.842-.874-21.8-2.837-30.431a72.336,72.336,0,0,0-4.486-13.679,50.252,50.252,0,0,0-7.272-11.722,42.514,42.514,0,0,0-10.614-9.068,49.4,49.4,0,0,0-14.512-5.716,5.813,5.813,0,0,1-4.79-5.061,7.165,7.165,0,0,1,3.149-7.519A72.537,72.537,0,0,0,763,231.359c-16.233-27.289-33.606-56.556-50.669-85.671l-.788-1.331c-1.757-2.987-3.516-6.08-5.216-9.071-5.052-8.885-10.276-18.072-16.41-26.312a94.55,94.55,0,0,0-10-11.539A66.017,66.017,0,0,0,667.9,88.1a101.138,101.138,0,0,0-11.133,1.271c-2.45.373-4.983.759-7.548,1.018,1.708,3.639,7.031,8.065,11.727,11.969l.007.006c2.52,2.1,4.9,4.075,6.542,5.77,1.84,1.9,2.512,3.19,2.115,4.065,1.287,1,2.66,2.012,4.081,3.01-1.918-6.75-3.838-13.432-5.8-20.254ZM419.065,974.889a148.584,148.584,0,0,1,18.752,1.141c8.98,1.814,17.809,5.313,26.347,8.7,5.985,2.372,12.171,4.824,18.356,6.674a72.565,72.565,0,0,0,18.956,3.309c4.857-1.107,7.371-2.581,7.469-4.381.081-1.487-1.458-3.167-4.576-4.993a52.346,52.346,0,0,0-8.563-3.816c-17.86-8.542-36.444-16.448-52.46-23.187l-14.1-5.923a6.4,6.4,0,0,1-3.972-7.263,5.818,5.818,0,0,1,1.769-3.181,5.371,5.371,0,0,1,3.656-1.34,7.584,7.584,0,0,1,1.74.213c14.868,3.51,29.582,6.777,40.739,9.231,6.438,1.316,13.034,2.749,19.414,4.136l.116.025c19.639,4.269,39.946,8.683,59.831,10.639a14.537,14.537,0,0,0-3.582-5.164,41.831,41.831,0,0,0-6.6-5.163,132.7,132.7,0,0,0-19.477-9.985c-14.852-6.389-32.11-12.059-44.711-16.2l0,0c-4.824-1.585-8.991-2.953-11.958-4.018a40.806,40.806,0,0,0-8.339-2.218c-5.91-1.189-12.608-2.536-15.032-6.211a6.167,6.167,0,0,1-.767-4.822,4.437,4.437,0,0,1,1.988-3.131,7.323,7.323,0,0,1,3.892-.9c4.289,0,10.106,2.022,15.237,3.806l.005,0a48.955,48.955,0,0,0,8.379,2.462c27.949,7.1,56.924,11.509,84.945,15.769l.994.151a95.611,95.611,0,0,0-17.672-13.932,131.427,131.427,0,0,0-19.98-10.007c-13.907-5.651-29.007-9.6-43.609-13.42l-.005,0h0c-12.441-3.254-25.307-6.619-37.163-10.989l-.865-.2c-5.138-1.186-11.214-3.02-12.609-6.7-.666-1.758-.18-3.8,1.444-6.077,11.124-16.429,40.179-19.309,63.526-21.623l.027,0c7.678-.761,14.931-1.481,20.6-2.607,6.3-1.252,10.026-2.877,11.714-5.114a5.1,5.1,0,0,0,.929-4.2,7.953,7.953,0,0,0-2.862-3.8,16.388,16.388,0,0,0-5.144-2.441,53.951,53.951,0,0,0-14.98-1.689c-12.181,0-26.272,2.119-35.6,3.522-2.617.394-4.878.734-6.527.938a296.616,296.616,0,0,0-34.958,8.856,288.684,288.684,0,0,0-33.969,13.25,264.154,264.154,0,0,0-31.878,17.58,231.728,231.728,0,0,0-28.686,21.845,5.925,5.925,0,0,1-3.979,1.6,6.248,6.248,0,0,1-2.87-.726,338.99,338.99,0,0,1-54.6,55.2c3.807,3,7.646,5.852,11.409,8.46a5.088,5.088,0,0,1,4.322,2.91,123.639,123.639,0,0,0,16.7,10.283,100.28,100.28,0,0,0,15.976,6.455,95.739,95.739,0,0,0,15.456,3.346,113.821,113.821,0,0,0,15.141.955c11.356,0,22.443-1.4,34.18-2.892l.961-.122h.008C393.1,976.489,405.746,974.889,419.065,974.889ZM284.057,392.819c-10.916,20.874-22.826,41.706-36.41,63.687-12.107,19.589-25.269,39.638-40.239,61.292-5.5,7.927-11.485,16.265-18.3,25.49l-1.151,1.475c-.979,1.246-1.966,2.48-2.92,3.674-5.689,7.119-11.063,13.844-13.661,21.205a26.683,26.683,0,0,0-1.508,11.648,33.883,33.883,0,0,0,4.5,13.378c7.56,18.395,15.96,36.993,24.967,55.279,8.778,17.821,18.371,35.828,28.513,53.523,9.872,17.225,20.534,34.626,31.692,51.72,10.85,16.622,22.459,33.4,34.506,49.87-.54-24.561-1.073-49.327-1.589-73.278l0-.083C290.064,620.612,287.591,505.744,284.057,392.819ZM854.978,694.558a234.2,234.2,0,0,1-33.918,4.477A91.485,91.485,0,0,0,810,700.211c-2.984.622-4.864,1.586-6.1,3.127-1.725,2.157-2.3,5.649-1.93,11.675.365,5.9,1.622,14.2,3.363,25.691.313,2.063.667,4.4,1.039,6.884,2.982.02,6.094.03,9.513.03,6.733,0,13.542-.04,20.127-.078h.241c6.491-.038,13.2-.076,19.8-.076,7.05,0,13.252.045,18.959.137-5.294-14.352-10.833-28.881-16.189-42.931q-1.927-5.055-3.851-10.109ZM597.3,722.837h0l0,.014c.03.16.061.316.1.476.174-.049.363-.089.546-.127h.008c.184-.038.363-.075.526-.121-.471-.085-.846-.162-1.181-.241Zm-253.7,93.026a6.293,6.293,0,0,1-5.4-2.955c-8.334-19.644-2.612-45.013,3.3-64.92A29.584,29.584,0,0,1,330.42,743.7a23.067,23.067,0,0,1-7.039-7.361,30.678,30.678,0,0,1-4.041-15.206,53.626,53.626,0,0,1,2.6-17.146l-.061-1.018c-.335-5.919-.291-12.039,2.281-16.7a11.9,11.9,0,0,1,5.6-3.664,22.741,22.741,0,0,1,7.006-.934,82.4,82.4,0,0,1,8.423.589h.006l.224.024.028,0a76.8,76.8,0,0,0,7.782.564c.587,0,1.152-.017,1.679-.051,9.494-.981,19.209-1.744,28.6-2.481h.016c19.486-1.529,39.636-3.111,59.08-6.73,2.612-.677,5.287-1.61,7.874-2.513,4.861-1.7,9.887-3.449,14.9-3.686,2.561-2.1,5.049-3.172,7.4-3.172a9.069,9.069,0,0,1,6.7,3.322c2.354,2.551,4.377,6.6,5.7,11.4a37.909,37.909,0,0,1,1.423,12.253c.205,2.828.42,5.738.61,8.3l0,.027c.481,6.5.979,13.225,1.409,19.838-.264,2.165.224,5.972.788,10.381v.006c1.06,8.277,2.378,18.577-.919,22.413a4.432,4.432,0,0,1-3.4,1.551c-21.285-1.083-42.868-1.54-63.74-1.983-23.979-.509-48.775-1.035-73.19-2.507-.018,2.743-.071,5.53-.123,8.226-.121,6.376-.247,12.969.084,19.464a95.42,95.42,0,0,0,1.074,13.924c.857,6.767,1.744,13.764.344,20.6a5.86,5.86,0,0,1-2.3,3.312A6.406,6.406,0,0,1,343.592,815.863ZM335.9,687.84a11.455,11.455,0,0,0-5.622,1.108,4.753,4.753,0,0,0-1.83,1.794,6.113,6.113,0,0,0-.709,2.986c.71,4.759-.076,9.8-.837,14.683a80.638,80.638,0,0,0-1.1,9.507,24.767,24.767,0,0,0,1.237,9.229,15.49,15.49,0,0,0,5.655,7.475,25.515,25.515,0,0,0,8.907,3.884c6.624,1.657,14.261,1.715,20.4,1.762,1.421.011,2.762.021,4,.05,21.244.481,40.723.956,59.55,1.45,6.3.166,12.709.388,18.911.6l.1,0c11.323.393,23.032.8,34.559.882-1.1-8.7-1.662-17.661-2.2-26.329-.25-3.993-.508-8.12-.815-12.139a88.994,88.994,0,0,1-.562-9.114c-.185-6.621-.377-13.468-3.539-19.047A139.294,139.294,0,0,1,453.66,681.6c-5.815,1.178-11.923,2.087-18.674,2.777-12.531,1.282-25.414,1.594-37.872,1.9H397.1l-.062,0c-5.776.14-11.749.284-17.6.525a1.881,1.881,0,0,1-.576,1.379c-1.18,1.191-4.144,1.771-9.062,1.771-4.433,0-9.833-.475-14.547-.921l-1-.095-.742-.071c-4.241-.406-7.9-.756-10.279-.756a11.724,11.724,0,0,0-1.688.1L339.2,688C338.293,687.924,337.1,687.84,335.9,687.84Z" transform="translate(201 -27.106)"></path></g><g transform="translate(225 0)"><g><g id="head_Bun" data-name="head/Bun"><path id="_Skin" data-name="âœ‹ Skin" d="M101.559.333C253.129-7.12,355.969,112.412,360.393,160.078c3.071,33.088.987,77.215.987,106.781,0,15.092,7.615,60.965-.987,82.962-19.147,48.959-40.778,87.308-100.715,87.308S108.369,406.064,76.994,366C71.265,358.681.081,305.131.081,263.038.081,173.233-6.593,5.652,101.559.333Z" transform="translate(47.928 63.534)" fill="#d08b5b"></path><path id="_Ink" data-name="ðŸ– Ink" d="M363.278,541.535a118.416,118.416,0,0,1-30.586-4.072l-1.274-.346a118.572,118.572,0,0,1-17.831-6.252,66.083,66.083,0,0,1-8.372-4.527,43.639,43.639,0,0,1-7.173-5.706A6.167,6.167,0,0,1,296.3,517a7.866,7.866,0,0,1,.566-3.981,6.216,6.216,0,0,1,5.573-4.191,6.017,6.017,0,0,1,2.222.446,104.262,104.262,0,0,1,9.835,4.735c2.9,1.522,5.889,3.095,8.975,4.385a109.278,109.278,0,0,0,41.377,8.218,104.077,104.077,0,0,0,14.143-.958,96.4,96.4,0,0,0,31.518-10.063,102.588,102.588,0,0,0,26.1-19.467,107.406,107.406,0,0,0,18.978-26.6,106.04,106.04,0,0,0,10.155-31.468c1.847-11.841,1.883-23.781,1.745-37.042l-.142-13.549c-.1-10.256-.167-22.187.266-34.007.5-13.872,1.466-28.157,2.94-43.671l.719-7.555c.778-8.061,1.752-17.42,3.471-26.466h-.008c-1.312,0-10.9-16.253-18-28.48a12.443,12.443,0,0,1-4.707-6.622,10.208,10.208,0,0,1-.269-1.742c-1.3-2.044-2.676-4.035-4.087-5.917l-.313-.14c-.24-.109-.426-.2-.539-.264a19.638,19.638,0,0,1-4.275-3.291,20.981,20.981,0,0,1-3.267-4.3,20.339,20.339,0,0,1-1.5-3.273,106.119,106.119,0,0,0-8.036-7.142c-.156-.125-.318-.247-.474-.364-.121-.091-.245-.185-.366-.279a20.186,20.186,0,0,1-9-6.239c-.946-.586-1.919-1.172-2.89-1.74a23.557,23.557,0,0,1-8.722-1.884,41.2,41.2,0,0,1-7.1-4.095,37.968,37.968,0,0,0-7.594-4.281,8.671,8.671,0,0,0-3.093-.535,23.473,23.473,0,0,0-6.245,1.2l-.07.02a23.813,23.813,0,0,1-6.446,1.218,10.509,10.509,0,0,1-1.494-.1,15.211,15.211,0,0,1-4.4-1.343,84.051,84.051,0,0,1-10.763,9.765c-5.732,4.282-11.542,6.186-18,8.066-3.293,3.125-6.939,6.077-11.274,6.511a229.578,229.578,0,0,1-32.438,21.317,11.213,11.213,0,0,1-5.4,1.5,45.854,45.854,0,0,1-11.629,5.179,9.57,9.57,0,0,1-2.665.372,10.589,10.589,0,0,1-1.277-.079l-3.586,2.921a12.766,12.766,0,0,1-7.7,3.066c-1.484,1.136-3.058,2.245-4.81,3.389a10.18,10.18,0,0,1-5.6,1.523c-.257,0-.518-.008-.777-.024a10.551,10.551,0,0,1-7.488,3.126,11.533,11.533,0,0,1-4.436-.9c-.587.343-1.12.625-1.675.886a18.65,18.65,0,0,1-2.567.988,18.957,18.957,0,0,1-13.844,6.061,18.481,18.481,0,0,1-1.846-.093,26.291,26.291,0,0,1-6.314,2.812,23.894,23.894,0,0,1-6.734.99c-.463,0-.93-.015-1.388-.043-.728,3.656-1.355,7.41-1.918,11.477l-.054,2.812c-.007.477-.007.819,0,1.045l0,.093c.247,6.251.44,12.608.627,18.756v.029c.182,5.969.369,12.141.606,18.211l.044.973c.045.882.1,1.818.166,2.808v.018c.492,7.851,1.166,18.6-3.816,23.908a9.757,9.757,0,0,1-3.505,2.388,13.35,13.35,0,0,1-4.979.872c-.164,0-.334,0-.5-.007a18.949,18.949,0,0,1-8.665-2.759,63.063,63.063,0,0,1-7.685-5.318l-.647-.5c-.36-.279-.722-.562-1.076-.841-1.219-.158-2.451-.369-3.642-.573a50.724,50.724,0,0,0-6.645-.836c-.544-.019-1.1-.029-1.655-.029A50.618,50.618,0,0,0,155,347.3c-8.518,1.979-15,5.724-19.28,11.13-.368.464-.743.988-1.18,1.65a8.708,8.708,0,0,1-1.69,3.13,32.019,32.019,0,0,0-2.035,16.846A46.942,46.942,0,0,0,147.4,410.316a48.294,48.294,0,0,0,15.891,8.626l.6.19c8.045,2.513,11.181,7.368,15.522,14.086l.138.214a143.221,143.221,0,0,0,13.99,18.08c3.083,3.432,6.621,6.741,10.043,9.94,7.606,7.111,15.47,14.464,19.417,24.029a3.054,3.054,0,0,1-.327,2.94,4.4,4.4,0,0,1-3.51,1.9,3.314,3.314,0,0,1-.894-.12,38.359,38.359,0,0,1-12.794-6.6,116.475,116.475,0,0,1-10.8-9.7l-.011-.01-.844-.823c-5.417-5.281-10.163-10.341-14.509-15.469a10.417,10.417,0,0,1-3.113.875,33.677,33.677,0,0,1-4.107.267,18.531,18.531,0,0,1-9.991-2.535c-.2.019-.412.028-.618.028a7.33,7.33,0,0,1-4.892-1.916,24.4,24.4,0,0,1-3.6-4.125c-.837.074-1.562.109-2.216.109a13.775,13.775,0,0,1-2.273-.172,5.75,5.75,0,0,1-1.985-.548,8.712,8.712,0,0,1-3.231-2.222,9.2,9.2,0,0,1-2.11-3.8,10.943,10.943,0,0,1-.314-4.354,10.334,10.334,0,0,1-1.189-.32,10.718,10.718,0,0,1-6.088-5.182,22.765,22.765,0,0,1-6.117-5.045,21.936,21.936,0,0,1-4.323-7.853,18.7,18.7,0,0,1-2.614-1.472,18.253,18.253,0,0,1-6.678-8.251,15.088,15.088,0,0,1-.406-10.493l.08-.221c.115-.306.334-.853.6-1.47l-.007-.095c-.036-.457-.073-.93-.1-1.4l-.083-1.5-1.2-.51a20.089,20.089,0,0,1-7.368-4.542,12.851,12.851,0,0,1-3.408-7.816,5.934,5.934,0,0,1,1.246-4.01l0-.374c-.421-.217-.787-.425-1.088-.616a11.088,11.088,0,0,1-3.839-4.184,10.566,10.566,0,0,1-1.217-5.521c.21-3.574,2.22-6.412,4.36-8.945l.627-.73.117-.132.057-.064-1.453-.457a13.814,13.814,0,0,1-2.428-.947,14.127,14.127,0,0,1-5.7-5.482l-.09-.141c-.151-.235-.306-.478-.447-.735a12.909,12.909,0,0,1-.787-9.933,9.847,9.847,0,0,1,.448-1.079,12.622,12.622,0,0,1-5.621-3.715,12.619,12.619,0,0,1-1.152-13.647,13.9,13.9,0,0,1-.138-4.107,11.143,11.143,0,0,1-3.3-5.4,10.013,10.013,0,0,1,.388-5.955,20.229,20.229,0,0,1,3.238-5.564,12.129,12.129,0,0,1,.093-8.822,15.039,15.039,0,0,1-.723-4.444,14.648,14.648,0,0,1,.708-4.7,15.085,15.085,0,0,1,2-3.958,12.1,12.1,0,0,1-2.469-4.926A9.209,9.209,0,0,1,85.153,269a45.392,45.392,0,0,1,3.457-7.1,14.458,14.458,0,0,1-1.093-5.594,13.283,13.283,0,0,1,.969-5.057,14.4,14.4,0,0,1,2.578-4.071,12,12,0,0,1,.647-6.816,9.179,9.179,0,0,1,4.44-4.957,34.963,34.963,0,0,1,5.931-2.1c.911-2.846,1.8-5.473,2.709-8.029,1.445-4.047,3.062-8.218,4.807-12.4a32.616,32.616,0,0,1-3.073,2.386,44.214,44.214,0,0,1-11.575,10.2,14.861,14.861,0,0,1-7.53,2.145,13.1,13.1,0,0,1-6.994-2.012,14.161,14.161,0,0,1-5.077-5.7,17.253,17.253,0,0,1-10.273,3.678,14.8,14.8,0,0,1-1.728-.1,13.573,13.573,0,0,1-6.825-2.77,11.165,11.165,0,0,1-4.007-6.12,10.348,10.348,0,0,1-.3-2.318,34.937,34.937,0,0,1-9.17,5,6.338,6.338,0,0,1-1.972.316,6.978,6.978,0,0,1-4.661-1.872,7.4,7.4,0,0,1-2.4-4.463,6.934,6.934,0,0,1,.733-4.274l-.41-.161c-.061-.026-.133-.057-.2-.09a9.258,9.258,0,0,1-4.722-5.1,9.5,9.5,0,0,1-3.439.649,8.693,8.693,0,0,1-5.1-1.6,8.465,8.465,0,0,1-3.2-4.6,36.521,36.521,0,0,1-.5-18.609,21.4,21.4,0,0,1-6.134-7.1,23.2,23.2,0,0,1-.124-22.043,7.787,7.787,0,0,1-4.482-4.587,9.934,9.934,0,0,1,.334-7.97A10.673,10.673,0,0,1,1.742,126.8a7.717,7.717,0,0,1-1.254-3.466,8.956,8.956,0,0,1,.594-4.144A18.5,18.5,0,0,1,4.3,113.858a27.748,27.748,0,0,1,4.689-4.335,31.145,31.145,0,0,1-3.3-8.391A7.761,7.761,0,0,1,.076,94.541,8.046,8.046,0,0,1,1.47,88.791a8.256,8.256,0,0,1,4.713-3.228,25.217,25.217,0,0,1,1.589-3.851,16.821,16.821,0,0,1-1.216-7.4A19.824,19.824,0,0,1,8.6,66.6a16.762,16.762,0,0,1,4.2-5.366,22.444,22.444,0,0,1,5.755-3.484c-1.08-3.7.36-7.4,3.95-10.14a52.75,52.75,0,0,1,14.279-7.744,16.4,16.4,0,0,1,1.609-8.617,11.4,11.4,0,0,1,6.41-5.674,14.362,14.362,0,0,1,4.846-.762h.084a17.3,17.3,0,0,1,5.922-6.728,8.262,8.262,0,0,1,4.86-1.41c3.858,0,7.528,1.982,8.925,4.819l.109.233c.069.156.143.306.213.45l.007.013c.045.092.09.184.134.278a11.844,11.844,0,0,1,3.193-5.988,13.043,13.043,0,0,1,3.932-2.8,9.811,9.811,0,0,1,3.995-.847,13.017,13.017,0,0,1,5.058,1.129,29.032,29.032,0,0,1,2.9-5.511,13.075,13.075,0,0,1,4.55-4.208,11.024,11.024,0,0,1,5.306-1.353,11.679,11.679,0,0,1,6.406,1.951A19.009,19.009,0,0,1,112.085.873a17.855,17.855,0,0,1,5.3-.873c5.052,0,9.235,2.644,12.787,8.082a6.029,6.029,0,0,1,1.166-.116,6.226,6.226,0,0,1,1.474.183c.266.065.937.325,1.213.434a6.3,6.3,0,0,1,.906.479l.168-.089A13.093,13.093,0,0,1,137.162,7.1a6.841,6.841,0,0,1,4-1.341,6.624,6.624,0,0,1,.971.073l.748-.275a18.97,18.97,0,0,1,6.243-1.1,14.926,14.926,0,0,1,6.238,1.306,13.881,13.881,0,0,1,5.18,4.106,17.355,17.355,0,0,1,2.1,3.5,13.176,13.176,0,0,1,3.571,1.8,13.209,13.209,0,0,1,2.353-.854,15.276,15.276,0,0,1,3.795-.478,16.3,16.3,0,0,1,9.722,3.3,14.87,14.87,0,0,1,4.293,5.181,11.832,11.832,0,0,1,3.465,1.455,19.363,19.363,0,0,1,2.893-1.216,30.338,30.338,0,0,1,8.918-1.319c.764,0,1.536.029,2.293.085a13.418,13.418,0,0,1,6.594,2.42,13.97,13.97,0,0,1,4.615,5.284,9.714,9.714,0,0,1-.72,10.042l-.167.239a29.044,29.044,0,0,0-1.832,2.945,23.517,23.517,0,0,1,5.514,3.376,21.3,21.3,0,0,1,4.958,5.8,23.593,23.593,0,0,1,2.586,6.8,40.408,40.408,0,0,1,.053,14.951l-.067.418h.02a7.536,7.536,0,0,1,5.926,3.962,5.546,5.546,0,0,1-.237,5.523l-.129.206c-2.215,3.421-4.272,7.134-6.261,10.724-1.225,2.211-2.492,4.5-3.792,6.711a159.412,159.412,0,0,0-27.145,12.687,124.383,124.383,0,0,0-14.911,15.139,86.657,86.657,0,0,0-6.175,8.679,4.512,4.512,0,0,0,1.965.462,4.361,4.361,0,0,0,2.986-1.234c13.116-12.154,29.6-21.648,48.99-28.218a4.408,4.408,0,0,0,2.629-2.253,197.927,197.927,0,0,1,24.381-5.3c1.136-1.083,2.317-2.158,3.46-3.2l.007,0h0c1.136-1.034,2.311-2.1,3.436-3.176a7.253,7.253,0,0,1,9.193-.981c1.289-.588,2.631-1.123,4.1-1.635l.863-.294c.156-.051.311-.106.46-.16.2-.07.4-.142.6-.2a40.41,40.41,0,0,1,11.988-1.779,63.532,63.532,0,0,1,15.993,2.348l1.216.317a21.035,21.035,0,0,0,5.469.8,24.13,24.13,0,0,0,6.032-.9l.482-.124a37.454,37.454,0,0,1,9.219-1.425,18.514,18.514,0,0,1,4.864.609c5.095,1.368,8.436,4.574,11.422,7.739l.332.354a4.547,4.547,0,0,0,4.03,1.8c.132,0,.276,0,.44,0l2.171-.064c1.17-.032,2.136-.047,3.038-.047a36.883,36.883,0,0,1,10.312,1.171,19.715,19.715,0,0,1,9.006,5.335,35.983,35.983,0,0,1,6.164,8.688l.212.452c.072.158.136.286.184.381a13.213,13.213,0,0,0,1.744-.486,11.784,11.784,0,0,1,1.158-.34,26.9,26.9,0,0,1,5.1-.512c6.7,0,12.425,2.855,17.014,8.486.648.8,1.482,2.01,2.289,3.184.757,1.1,1.539,2.239,2.173,3.042a15.737,15.737,0,0,1,1.3,1.246,12.853,12.853,0,0,0,5.381,1.443c.789.1,1.533.187,2.237.327a35.893,35.893,0,0,1,9.691,3.179,19.313,19.313,0,0,1,4.13,2.862,15.255,15.255,0,0,1,3.136,4.031,27.861,27.861,0,0,1,2.377,7.707l.009.046q.059.288.118.575a17.482,17.482,0,0,1,5.291,5.814,28.369,28.369,0,0,1,1.8,3.9,22.377,22.377,0,0,0,2.413,4.827,13.688,13.688,0,0,0,4.628,3.582l.017.009c.264.15.537.3.8.459l.76.446a34.176,34.176,0,0,1,7.708,5.878,19.88,19.88,0,0,1,4.742,8.4l.168.612c.046.153.107.343.178.564.341,1.06.855,2.66.594,3.018a.169.169,0,0,1-.144.072.414.414,0,0,1-.171-.046,8.057,8.057,0,0,0,2,.619c.374.083.726.16.994.249,4.669,1.546,7.882,3.959,9.822,7.378,1.5,2.638,1.886,5.367,2.3,8.255l0,.019q.065.455.132.915l.2,1.3c.054.33.117.7.176,1.034l.065.348.012.008c.74.32,1.475.671,2.183,1.041a11.048,11.048,0,0,1,5.706,9.467,8.472,8.472,0,0,1-1.493,4.815,14.371,14.371,0,0,1,1.688,3.525,18.957,18.957,0,0,1,.6,7.862,44.828,44.828,0,0,1-2.075,8.941c-.139.439-.244.936-.356,1.463a10.421,10.421,0,0,1-.7,2.393,6.067,6.067,0,0,1,1.424,4.412,10.582,10.582,0,0,1-.991,3.4,6.375,6.375,0,0,1-2.3,2.664,54.365,54.365,0,0,1-5.182,13.771,5.455,5.455,0,0,1-.85,1.21c.166,9.08-.15,18.342-.455,27.3-.227,6.655-.461,13.536-.5,20.281-.082,15.624.2,32.509.87,51.62.178,5.013.441,10.148.695,15.114v.013c.6,11.687,1.217,23.771.81,35.6a162.34,162.34,0,0,1-1.5,17.646,116.589,116.589,0,0,1-3.794,17.357,112.855,112.855,0,0,1-15.221,31.506,120.74,120.74,0,0,1-23.919,25.553,115.427,115.427,0,0,1-65.95,25.27C367.424,541.477,365.344,541.535,363.278,541.535Zm-177.4-144.686a5.308,5.308,0,0,1-2.556-.686c-2.351-1.28-4.057-3.437-5.708-5.522a37.936,37.936,0,0,0-2.821-3.3,45.324,45.324,0,0,0-9.519-7.15c-7-4.039-14.288-5.731-23.08-7.029a.642.642,0,0,1-.594-.582,1.033,1.033,0,0,1,.594-1.039,31.935,31.935,0,0,1,11.681-2.064,44,44,0,0,1,15.468,2.913l.614.238a58.561,58.561,0,0,1,12.67,6.856c4.8,3.542,7.563,7.212,8.206,10.905a5.7,5.7,0,0,1-1.219,4.666A4.9,4.9,0,0,1,185.877,396.849Z" transform="translate(-66 -34.001)"></path></g></g><g transform="translate(159 186)"><g><path d="M140.63 0.473197L139.193 0.179116C137.503 -0.15929 135.804 -0.0161244 134.311 0.591153C132.847 1.18684 131.572 2.2242 130.68 3.72083C129.495 5.71373 129.337 7.38618 129.887 9.59525C130.311 11.3022 131.242 12.5864 132.46 13.5139C133.744 14.4911 135.37 15.0612 137.06 15.2595C144.854 16.175 152.53 17.8896 159.992 20.3235C163.488 21.4643 166.788 23.0096 170.058 24.6132L172.877 26.002C175.477 27.2735 178.163 28.499 181.557 29.3885C181.824 29.4584 182.087 29.5243 182.349 29.5865C183.29 29.2909 183.45 28.9329 183.649 28.6733L183.73 28.5721C183.972 28.2679 184.271 27.8025 183.988 25.6306C176.583 10.2711 156.267 3.74181 140.63 0.473197ZM43.5878 4.83023L45.4652 4.50163C51.273 3.49719 58.4944 2.53203 62.6028 7.20123C64.7819 9.67723 65.5318 14.2792 62.6028 16.6492C58.7671 19.7539 54.6298 19.6513 50.2182 19.5419C48.7043 19.5044 47.1582 19.466 45.5808 19.5562C40.4928 19.8482 35.6028 20.6902 30.7018 22.0912C19.9498 25.1642 11.1888 30.7742 2.00585 36.9342C0.800849 37.7422 -0.429151 36.2012 0.145849 35.0742C5.44685 24.6912 15.7198 16.1622 26.0098 10.9632C31.5019 8.18823 37.5118 5.88623 43.5878 4.83023ZM29.9632 50.1461C30.7976 39.7899 46.5702 37.4381 48.1392 47.6861C49.5442 56.8661 47.8902 65.2991 43.7552 73.5641C39.8042 81.4601 29.8737 77.7763 29.1227 70.5863C28.3809 63.4843 28.9069 59.2482 29.4428 54.933C29.6341 53.3921 29.8267 51.8412 29.9632 50.1461ZM159.205 41.8262C155.401 40.7152 152.226 42.6812 150.027 45.5612C149.773 45.8932 149.566 46.2222 149.38 46.5482C142.515 52.8562 145.101 65.6452 150.501 72.0492C153.814 75.9762 161.145 74.8452 163.413 70.3852C167.587 62.1722 171.09 45.2992 159.205 41.8262ZM128.748 119.039C136.872 107.66 125.366 96.9569 117.814 92.3669C115.836 90.9469 117.406 86.2431 121.634 86.9701C160.031 93.5671 140.136 159.708 91.112 123.413C85.2754 118.704 92.3434 108.334 98.6342 112.366C98.9532 112.611 99.2876 112.869 99.6364 113.139C106.704 118.603 119.636 128.601 128.748 119.039ZM93.5865 188.926C86.8642 186.184 80.8663 181.61 76.4812 175.766C74.9566 173.735 74.5614 171.589 74.8812 169.627C75.2408 167.421 76.546 165.422 78.326 164.08C80.1115 162.735 82.345 162.072 84.5043 162.41C86.3806 162.704 88.2484 163.731 89.7265 165.862L90.0354 166.288C92.6424 169.815 96.0396 172.708 99.9104 174.574C103.641 176.372 107.814 177.211 112.132 176.723C120.356 175.794 126.024 171.346 132.049 165.306C132.796 164.544 133.543 163.757 134.294 162.958C134.768 162.234 135.426 161.768 136.157 161.524C136.968 161.253 137.886 161.268 138.726 161.562C139.537 161.845 140.262 162.381 140.747 163.094C141.209 163.772 141.471 164.61 141.386 165.574C140.835 171.833 137.562 177.419 132.914 181.805C127.752 186.677 120.909 190.047 114.466 191.229C107.368 192.531 100.136 191.598 93.5865 188.926Z" transform="translate(53.00005 52.00027)" fill-rule="evenodd" stroke="none"></path></g></g><g transform="translate(123 338)"></g><g transform="translate(47 241)"></g></g></g></svg>