<?xml version="1.0" standalone="no"?>
<svg viewBox="-350 -150 1500 1500" style="width: 487.5px; height: 487.5px; justify-content: center; align-self: center; transform: scale(1, 1);" xmlns="http://www.w3.org/2000/svg"><g transform="rotate(0 348.4116668701172 605.0002326965332)"><g id="body_Striped_Pocket_Tee" data-name="body/Striped Pocket Tee" transform="translate(0,459)"><path id="_Skin" data-name="âœ‹ Skin" d="M235.759,730.638c-6.837,0-13.518-.252-19.857-.75a57.4,57.4,0,0,1-16.852-4.5,75.059,75.059,0,0,1-14.692-8.6c-9.223-6.785-17.533-15.444-25.57-23.817l-.005-.005c-4.387-4.571-8.924-9.3-13.486-13.576-21.092-21.559-41.609-44.019-60.98-66.758-19.572-22.975-38.471-46.815-56.17-70.858l-.744-1.025c-1.867-2.552-3.873-5.159-5.812-7.681-4.918-6.4-10-13.006-13.945-20.031a62.6,62.6,0,0,1-4.918-10.9,44.5,44.5,0,0,1-2.3-11.76,9.853,9.853,0,0,1-.251-4.8,18.5,18.5,0,0,1,1.743-5.1,26.751,26.751,0,0,1,6.708-8.487l1.7-2.456c7.235-10.4,14.03-19.712,20.774-28.454,7.632-9.893,14.986-18.791,22.481-27.2,8.1-9.092,16.37-17.575,24.576-25.215a304.565,304.565,0,0,1,27.058-22.49,13.257,13.257,0,0,1,1.31-6.155,13.56,13.56,0,0,1,4.264-5.1L269.2,240.28c13.075-9,26.069-18.66,38.636-28C321.2,202.338,335.027,192.06,349,182.543a407.253,407.253,0,0,1,43.369-26.16,196.224,196.224,0,0,1,18.9-7.876c6.021-2.165,12.364-4.164,19.392-6.11,13.055-3.615,26.555-6.494,39.611-9.278,10.8-2.3,21.964-4.684,32.828-7.47a274.421,274.421,0,0,0,32.114-10.136c.44-5.866,6.178-9.518,10.915-11.549a43.325,43.325,0,0,1,14.9-3.44c1.056,0,1.719.125,1.868.351a.2.2,0,0,1,.012.2c13.846-8.357,25.128-17.852,33.533-28.222a84.436,84.436,0,0,0,9.705-14.809,67.02,67.02,0,0,0,5.467-14.646,107.549,107.549,0,0,0,2.161-14.245c.679-6.475,1.32-12.589,3.886-17.5C620.5,6.214,625.422,2.734,633.159.7,639.612.235,646.121,0,652.5,0A229.445,229.445,0,0,1,691.2,3.124a150.286,150.286,0,0,1,36.829,10.928,103.45,103.45,0,0,1,16.138,9.121,83.745,83.745,0,0,1,13.778,11.949,75.445,75.445,0,0,1,10.788,15.068,79.884,79.884,0,0,1,7.166,18.48,80.773,80.773,0,0,0,4.513,14.625,61.7,61.7,0,0,0,6.432,11.561c5.1,7.233,11.748,13.522,19.284,20.409a107.491,107.491,0,0,1,11.394,17.655A65.541,65.541,0,0,1,823.31,149.1a42.623,42.623,0,0,1-3.219,27.839c-3.672,7.529-9.741,14.432-18.038,20.516-7.868,5.769-17.685,10.771-29.178,14.865a201.37,201.37,0,0,1-36.982,9.045,275.517,275.517,0,0,1-41.451,3.054c-9.094,0-18.27-.425-27.273-1.263-9.146-.851-18.185-2.137-26.866-3.819a208.426,208.426,0,0,1-49.038-15.487c-15.354-7.233-27.8-16.064-36.991-26.247-9.966-11.043-16.021-23.613-18-37.363-18.99,6.917-39.151,11.195-58.647,15.332-19.744,4.19-40.161,8.522-59.4,15.6-21.137,7.809-40.156,20.18-57.56,32.386-42.026,29.849-84.4,60.686-125.378,90.507-30.674,22.322-62.392,45.4-93.757,67.922,20.869,9.61,55.543,39.138,63.648,67.385,3.148,10.972,2.005,20.712-3.4,28.95-4.144,5.285-9.932,9.251-15.529,13.085l-.019.013c-1.28.877-2.6,1.785-3.87,2.683l-3.541,2.528c-3.4,2.437-7.718,5.553-12.289,8.852-5.548,4-11.285,8.145-15.239,10.965L150,497.4c-.446.323-1,.725-1.614,1.161A1221.363,1221.363,0,0,0,325.73,703.868a9.814,9.814,0,0,1,2.857,5.245,12.61,12.61,0,0,1-.279,6.1,10.866,10.866,0,0,1-2.662,4.574,8.626,8.626,0,0,1-4.758,2.456l-9.745,1.43C286.931,727.2,261.168,730.638,235.759,730.638Zm798.749-.879h0c-30.206-.123-60.943-1.416-90.668-2.666-22.159-.932-45.07-1.895-67.6-2.367-4.357-1.081-7.557-2.905-9.511-5.421a11.023,11.023,0,0,1-2.1-8.4,24.364,24.364,0,0,1,4.469-10.565,47.133,47.133,0,0,1,9.76-10.093,53.7,53.7,0,0,1,13.285-7.565,41.577,41.577,0,0,1,15.045-2.979,31.636,31.636,0,0,1,15.792,4.077c5.031,1.882,8.846,5.742,12.536,9.475,3.623,3.665,7.368,7.455,12.216,9.265a7.281,7.281,0,0,0,1.5.186c1.929,0,2.443-1.291,3.375-3.636.116-.291.235-.591.367-.915l.205-.494c1.708-4.059,3.41-8.2,5.056-12.206l.007-.018c.783-1.906,1.671-4.067,2.551-6.2,19.82-48.809,41.024-98.006,61.53-145.584l1.464-3.4,3.763-8.732a18.2,18.2,0,0,0-.261-15.488c-1.968-4.149-5.492-8.2-10.473-12.034a90.382,90.382,0,0,0-8.87-5.757c-5.6-3.381-11.388-6.874-11.008-8.24.111-.4.758-.6,1.923-.6a52.148,52.148,0,0,1,9.549,1.484,47.293,47.293,0,0,1-3.875-18.261,58.016,58.016,0,0,1,2.79-17.874c3.137-10.068,8.881-20.7,17.559-32.493a107.686,107.686,0,0,1,10.506-13.543,63.586,63.586,0,0,1,10.384-9.159,40.571,40.571,0,0,1,10.207-5.191,31.694,31.694,0,0,1,9.974-1.638,33.865,33.865,0,0,1,11.976,2.281,49.577,49.577,0,0,1,11.436,6.312c6.914,5.007,13.927,12.251,20.845,21.53a218.305,218.305,0,0,1,17.465,28.1c4.677,8.828,9.142,18.349,13.27,28.3a108.266,108.266,0,0,1,5.591,24.412,133.2,133.2,0,0,1,.305,25.31,179.146,179.146,0,0,1-4.075,25.81,250.1,250.1,0,0,1-7.55,25.912,418.894,418.894,0,0,1-21.9,50.54c-8.2,16.29-17.082,32.16-24.916,46.161l-.01.017-.007.012c-1.9,3.4-3.7,6.608-5.473,9.8-2.731,3.7-5.68,8.384-8.8,13.339-5.221,8.287-11.14,17.68-17.712,25.151C1048.84,724.324,1041.677,728.915,1034.508,729.759ZM822.927,513.236a117.288,117.288,0,0,1-24.684-2.7,130.852,130.852,0,0,1-23.868-7.641,128.966,128.966,0,0,1-40.721-27.434c-14.463-19.81-9.043-43.37-3.8-66.155,1.887-8.2,3.837-16.68,4.729-24.658-2.268-5.785-3.5-12.231-4.7-18.465-.468-2.443-.909-4.751-1.412-7.038l-.221-.986L721.2,327.391a13.878,13.878,0,0,1,2.734-11.291,10.785,10.785,0,0,1,3.334-2.831,9.078,9.078,0,0,1,4.328-1.086,9.9,9.9,0,0,1,1.124.065,719.256,719.256,0,0,0,81.641,4.666c14.789,0,29.77-.466,44.528-1.384s29.706-2.317,44.388-4.153a6.6,6.6,0,0,1,.816-.05,11.167,11.167,0,0,1,6.8,2.78,10.421,10.421,0,0,1,3.883,6.037c6.1,38.725-.961,77.171-8.721,113.232l-1.48,6.836c-1.428,6.56-3,13.535-5.173,20.349a84.642,84.642,0,0,1-8.493,19.087,65.765,65.765,0,0,1-13.944,15.945,73.128,73.128,0,0,1-18.11,11A96.618,96.618,0,0,1,822.927,513.236Z" transform="translate(-224.003 -30)" fill="#d08b5b"></path><rect id="_Top" data-name="ðŸ‘• Top" width="199" height="200" transform="translate(493.997 283)" fill="#fdea6b"></rect><path id="_Ink" data-name="ðŸ– Ink" d="M1065.437,711a10.166,10.166,0,0,1-4.512-1.08,9.7,9.7,0,0,1-3.515-2.931,8.115,8.115,0,0,1-1.123-7.445c.214-.665.428-1.35.617-1.954a50.707,50.707,0,0,1,3.554-9.206c.972-1.818,2.042-3.629,3.078-5.38.532-.9,1.081-1.829,1.612-2.75,1.59-2.763,3.226-5.624,4.669-8.148l.009-.015c1.522-2.662,3.1-5.414,4.651-8.116,3.009-5.233,6.144-10.508,9.176-15.61,3.569-6.006,7.257-12.213,10.765-18.39,12.516-22.031,22.751-41.915,31.29-60.79l1.106-2.453c3.612-8.036,8.257-18.641,12.141-29.4a190.769,190.769,0,0,0,8.5-30.584,101.884,101.884,0,0,0,1.632-16.229,106.792,106.792,0,0,0-.9-15.87,138.08,138.08,0,0,0-8.107-31.111c-4.446-11.762-9.427-22.991-13.27-31.459l-.905-1.983q-.63-1.372-1.292-2.8c-4.081-8.834-8.3-17.969-10.422-27.666a.8.8,0,0,1,.157-.688.818.818,0,0,1,.63-.311.773.773,0,0,1,.543.23c7.83,7.546,13.926,16.852,19.821,25.851,1.6,2.442,3.254,4.968,4.918,7.417,1.532,2.256,3.115,4.528,4.647,6.725,5.833,8.368,11.865,17.021,16.214,26.5a101.489,101.489,0,0,1,9.37,34.619c.861,10.661.089,22.177-2.43,36.24a213.673,213.673,0,0,1-9.419,34.448c-4.544,12.712-9.978,24.94-13.671,33.032-8.663,18.982-19.1,39.122-31.922,61.572l-4.108,7.168c-4.79,8.342-9.933,17.213-15.5,25.891-1.114,1.737-2.231,3.512-3.31,5.228l-.011.017c-5.439,8.647-11.063,17.589-18.489,24.915A8.638,8.638,0,0,1,1065.437,711Zm-98.891-11.326a7.036,7.036,0,0,1-5.345-2.658,6.262,6.262,0,0,1-1.243-5.392,149.953,149.953,0,0,1,5.8-18.076c.994-2.7,2.021-5.494,2.941-8.223,1.01-2.99,2.031-6.032,3.018-8.975l.046-.138c1.889-5.631,3.84-11.449,5.806-17.158,5.1-14.78,10.65-29.183,16.86-45.131l5.775-14.837c5.124-13.144,11.126-28.422,17.525-43.409l.67-1.573c.455-1.072.92-2.177,1.37-3.245l.06-.141c2.982-7.081,6.064-14.4,9.751-21.321a78.824,78.824,0,0,1,13.32-18.81.89.89,0,0,1,.571-.261,37.277,37.277,0,0,1-7.84-5.62l-.114-.115c-1.03-1.09-4.79-5.91-5.976-8.695-1.466.523-3.036,1.065-4.8,1.66a7.8,7.8,0,0,1-2.488.432,6.2,6.2,0,0,1-4.242-1.661l-3.1,1.922c-3.121,1.905-6.767,3.947-10.555,4.048-.105,0-.211,0-.313,0a11.105,11.105,0,0,1-5.975-1.719,14.7,14.7,0,0,1-4.432-4.474c-.809-1.224-1.507-2.5-2.183-3.736a29.681,29.681,0,0,0-4.168-6.265,63.992,63.992,0,0,0-9.229-7.839l-3.852-2.8c-7.094-5.179-13.931-10.39-19.6-17.178-.467-.562-.952-1.131-1.465-1.734l-.028-.033c-2.572-3.019-5.486-6.44-6.936-9.883a6.8,6.8,0,0,1-.59-2.279c-.428,2.909-.867,5.816-1.16,7.75-3.041,20.222-5.382,38.1-7.158,54.641-2.107,19.627-3.455,37.6-4.121,54.949-.834,21.878-.893,38.643-.19,54.359.395,8.943,1.058,18.064,1.97,27.112.4,4.007.885,8.747,1.47,13.53l.127,1.042a19.286,19.286,0,0,1,.143,3.978,13.794,13.794,0,0,1,5.335,5.173,42.209,42.209,0,0,1,3.355,6.756,7.513,7.513,0,0,1,.382,4.724,9,9,0,0,1-2.242,4,37.894,37.894,0,0,1,6.81,8.269.547.547,0,0,1,.036.569.66.66,0,0,1-.575.315.652.652,0,0,1-.412-.143,47.316,47.316,0,0,0-10.14-6.179,10.02,10.02,0,0,1-3.56.676,8.363,8.363,0,0,1-2.23-.3,9.575,9.575,0,0,1-5.07-3.65,41.738,41.738,0,0,0-6.741-.554,39.892,39.892,0,0,0-11.811,1.777,40.568,40.568,0,0,0-11.169,5.476,39.481,39.481,0,0,0-5.23,4.429c-.246.248-.5.561-.755.864l-.1.127,1.985.762a16.628,16.628,0,0,0,1.754.608,46.409,46.409,0,0,0,5.253.694l2.637.216c1.257.1,2.56.2,3.71.291,4.355.332,8.857.675,13.2,1.393a50.969,50.969,0,0,1,12.742,3.677A2.042,2.042,0,0,1,935,683.808a2.583,2.583,0,0,1-1.764,2.325,48.166,48.166,0,0,1-12.89,1.547c-2.257,0-4.668-.1-7.817-.324l-1.5-.112c-1.494-.115-3.044-.2-4.543-.289h-.011c-5.116-.292-10.406-.595-15.3-1.981a7.788,7.788,0,0,1-.607,6.646,7.434,7.434,0,0,1-2.423,2.453,9.565,9.565,0,0,1-3.87,1.34,178.663,178.663,0,0,1-23.759,1.464c-11.52,0-22.952-.867-33.59-1.8-17.454-1.539-37.76-3.269-57.88-4.319-32.176-1.693-66.312-2.481-107.428-2.481-27.806,0-56.03.37-80.3.716l-35.366.512c-20.693.292-42.934.562-65.365.562-6.613,0-13.09-.024-19.25-.071l-13.2-.122c-5.047-.049-10.918-.115-16.735-.286l-3.343-.111c-1.1-.04-2.276-.046-3.382-.046h-1.719c-6.065,0-11.86-.239-16.1-3.127a10.185,10.185,0,0,1-4.336-6.4,10.637,10.637,0,0,1,1.387-7.565,21,21,0,0,1,3.16-3.811c2.371-20.258,3.754-40.95,5.091-60.96v-.007l.119-1.774c1.214-18.3,1.951-36.766,2.191-54.889.242-18.252-.014-36.672-.76-54.749-.751-18.2-2.02-36.576-3.773-54.61-1.764-18.156-4.069-36.483-6.849-54.473-14.368,4.39-29,9.412-44.737,15.353-13.784,5.2-28.119,11.006-43.823,17.737-16.771,7.187-31.978,14.027-46.489,20.91-3.759,1.784-7.6,3.725-11.3,5.6-10.222,5.171-20.792,10.518-31.745,13.679a5.584,5.584,0,0,1-3.63,1.448,4.361,4.361,0,0,1-1.322-.2l-.219-.076h-.01a6.159,6.159,0,0,1-1.4.162,6.8,6.8,0,0,1-3.529-1.031c-.3-.181-.654-.4-1.02-.626l-.51-.325c-6.4-4.033-11.079-8.093-14.3-12.41-3.836,3.557-7.979,6.914-11.985,10.161L187,457.5q-1.072.869-2.141,1.738c-5.818,4.744-10.9,8.931-15.521,12.8-.539.452-1.1.9-1.636,1.337a39.812,39.812,0,0,0-4.453,3.973l-.262.29c-.039.044-.081.092-.119.14,7.339,4.748,13.88,11.881,19.651,18.174l.109.119.961,1.047c6.655,7.239,13.15,14.8,19.177,21.9l6.082,7.171q2.683,3.168,5.369,6.345l.116.137c20.378,24.09,41.45,49,63.794,72,12.042,12.4,23.428,23.208,34.808,33.049a388.607,388.607,0,0,0,38.043,29.2,8.22,8.22,0,0,1,3.384,4.429,8.7,8.7,0,0,1-.057,5.073,9.551,9.551,0,0,1-2.776,4.365,6.936,6.936,0,0,1-4.593,1.822,7.507,7.507,0,0,1-4.288-1.449,492.586,492.586,0,0,1-47.22-37.351c-12.631-11.178-24.953-23.24-37.671-36.877-11.258-12.071-22.563-25.1-34.559-39.832-10.067-12.363-20.8-26.147-32.81-42.141l-3.624-4.823c-4.611-6.141-9.508-12.7-14.235-19.487l-.963-1.383c-4.164-6.008-8.369-12.477-10.927-19.066a10.394,10.394,0,0,1-3.78,2.5,4.158,4.158,0,0,1-1.517.28,5.994,5.994,0,0,1-5.454-4.24c-1.607-6.378,3.611-10.276,8.216-13.714l.624-.467c5.847-4.366,11.812-8.578,17.42-12.519l2.09-1.477,1.355-.962c6.787-4.82,13.805-9.8,21.285-13.651a4.734,4.734,0,0,1,.86-.879c.416-.329.775-.609,1.13-.88-4.856-7.875-9.9-15.508-15.006-22.683-5.347-7.521-10.934-14.795-16.6-21.618a382.959,382.959,0,0,0-27.9-30.159l-4.421-4.28a234.668,234.668,0,0,0-21.06-18.62l-2.323,2.634c-2.8,3.166-6.077,6.833-9.546,10.286-6.7,6.658-13.233,13.383-19.35,19.7-10.451,10.812-20.69,22.1-31.134,33.684L50.407,408.8c-2.819,3.128-5.736,6.29-8.558,9.348-7.906,8.569-16.081,17.43-23.212,26.732l-.484.639a31.808,31.808,0,0,0-4.961,9.006,17.223,17.223,0,0,0-.315,10.156c1.628,5.964,5.178,11.344,8.612,16.547l.009.013c.553.838,1.124,1.7,1.673,2.55l.386.6c16.378,25.51,33.564,49.687,51.08,71.86,20.179,25.546,39.451,47.23,58.916,66.291,10.9,10.674,22.012,20.64,33.026,29.622a404.319,404.319,0,0,0,35.768,26.117A6.212,6.212,0,0,1,205,681.631a6.547,6.547,0,0,1,0,3.868,7.337,7.337,0,0,1-2.165,3.418,5.5,5.5,0,0,1-3.64,1.433,5.985,5.985,0,0,1-3.29-1.056,452.636,452.636,0,0,1-41.744-31.016c-12.689-10.568-25.6-22.389-38.376-35.134-10.752-10.723-21.3-22.219-32.256-35.145-9.612-11.343-19.332-23.556-29.713-37.335-9.24-12.276-18.251-25.031-26.78-37.909-1.657-2.505-3.4-5.076-5.089-7.563l-.017-.025c-6.873-10.13-13.98-20.6-18.784-31.653A37.21,37.21,0,0,1,.133,462.26a27.783,27.783,0,0,1,1.283-11.547c2.462-7.325,7.44-13.331,11.913-18.385l.457-.515c10.41-11.694,21.554-23.892,34.069-37.29,10.736-11.49,22.479-23.2,35.9-35.79a255.725,255.725,0,0,1,30.531-24.52c-.983-.7-1.942-1.351-2.93-1.99a5.955,5.955,0,0,1-2.711-4.358,5.409,5.409,0,0,1,1.58-4.452,222.6,222.6,0,0,1,16.822-14.822c2.148-1.768,4.368-3.6,6.518-5.417,7.532-6.385,15.331-13.006,22.05-18.711,15.089-12.79,30.63-25.972,44.341-37.6l.539-.457c19.394-16.449,39.033-33.258,58.026-49.514l.05-.043c6.9-5.905,14.719-12.6,22.294-19.073,8.962-7.657,18.14-15.365,27.017-22.819l.02-.017q3.322-2.79,6.643-5.58l19.973-16.808,9.77-8.2A106.657,106.657,0,0,1,360.1,112.814c11.005-6.182,23.841-9.482,36.254-12.673l.024-.006c2.63-.676,5.349-1.375,7.97-2.083l.981-.267c18.114-4.957,34.443-9.075,49.92-12.59,16.6-3.765,33.573-7.261,50.46-10.391,13.77-2.558,30.027-5.224,46.2-5.6a20.8,20.8,0,0,1,7.2-1.363,13.7,13.7,0,0,1,5.24.953,18.582,18.582,0,0,1,4.64,2.8c2.186-.768,4.392-1.429,6.525-2.068,5.43-1.627,10.557-3.162,15.585-6.362a77.839,77.839,0,0,0,18.571-16.889A89.372,89.372,0,0,0,622.5,24.47,146.489,146.489,0,0,0,630.047.3a.424.424,0,0,1,.427-.3.361.361,0,0,1,.383.3,63.408,63.408,0,0,1,.487,14.086,75.38,75.38,0,0,1-2.42,13.994,90.66,90.66,0,0,1-11.646,25.731,89.237,89.237,0,0,1-20.42,22.24l-.626.473a59.313,59.313,0,0,1-10.627,6.48,28.861,28.861,0,0,1-11.9,2.912,19.185,19.185,0,0,1-7.011-1.295,6.583,6.583,0,0,1-.9-.419c1.01,1.561,1.968,3.224,2.9,4.833l.111.193.284.492c1.826,3.169,3.574,6.457,5.265,9.637,1.282,2.411,2.606,4.9,3.955,7.323a108.051,108.051,0,0,0,20.7,26.91,120.648,120.648,0,0,0,12.939,10.49,128.131,128.131,0,0,0,13.979,8.518,152.262,152.262,0,0,0,30.355,11.825,209.129,209.129,0,0,0,32.346,6.058,300.286,300.286,0,0,0,32.892,1.7c.977,0,1.98,0,2.983-.012l3.14-.03c1.4-.01,2.83-.014,4.215-.018,9.331-.027,19.908-.057,29.779-1.722,11.356-1.916,19.908-5.688,26.142-11.533a50.623,50.623,0,0,0,9.821-13.3,147.841,147.841,0,0,0,6.769-15.208c2.7-6.779,4.859-13.822,6.945-20.634l.008-.026c.967-3.158,1.966-6.423,3.008-9.619A74.859,74.859,0,0,1,796.2,83.2a72.032,72.032,0,0,1-6.746-11.116,67.778,67.778,0,0,1-4.564-12.174l-.332-1.256a66.665,66.665,0,0,1-2.047-11.1,22.522,22.522,0,0,1,1.359-10.818.949.949,0,0,1,.9-.529,1.054,1.054,0,0,1,.958.529,26.5,26.5,0,0,1,1.925,6.322c.239,1.11.486,2.257.8,3.368a80.085,80.085,0,0,0,3.91,11.091,79.984,79.984,0,0,0,12.15,19.26,79.539,79.539,0,0,0,13.52,12.83c1.85-3.195,5.417-4.954,10.043-4.954a20.181,20.181,0,0,1,5.587.824,226.145,226.145,0,0,1,22.82,8.225l1.489.616c1.811.752,3.638,1.472,5.572,2.234l.012,0c5.81,2.29,11.816,4.658,17.016,7.8,1.878.9,3.733,1.8,5.526,2.674l.017.008c2.246,1.094,4.366,2.128,6.447,3.107,16.256,7.637,33.484,16.213,55.863,27.807l3.957,2.053c8.594,4.475,15.681,8.326,22.14,13.721,6.816,5.691,12.043,13.353,17.1,20.762l.074.108c6.327,9.278,12.554,18.86,18.577,28.127l0,.007.01.016c4.852,7.465,9.868,15.185,14.908,22.7l.029.044c22.408,33.387,45.58,67.91,68.561,101.876,1.874,2.772,3.863,5.57,5.787,8.276l0,0c3.787,5.326,7.7,10.832,11,16.5a30.635,30.635,0,0,1,3.993,12.5,65.266,65.266,0,0,1-.282,13.211l-.174,1.677c-1.679,15.769-4.567,32.4-14.246,47.193a96.9,96.9,0,0,1-12.576,15.4,114.224,114.224,0,0,1-15.1,12.6,146.305,146.305,0,0,1-16.945,10.176,196.508,196.508,0,0,1-18.123,8.146c.538.4,1.077.812,1.6,1.209a37.4,37.4,0,0,0,7.832,4.993,55.069,55.069,0,0,0,17.38,4.069c1.305.1,2.616.118,3.727.118.488,0,.992,0,1.4-.006.427,0,.911-.005,1.383-.005a31.9,31.9,0,0,1,6.462.486,12.62,12.62,0,0,1,5.742,2.657,5,5,0,0,1,1.575,3.883,4.843,4.843,0,0,1-1.575,3.737c-2.425,1.979-5.4,2.9-9.377,2.9a56.959,56.959,0,0,1-6.579-.521l-.031,0c-.47-.056-.956-.113-1.43-.166l-.362-.04a63.47,63.47,0,0,1-16.411-3.721c-1.344-.528-2.636-1.1-3.839-1.71a.8.8,0,0,1,.04.381,118.484,118.484,0,0,1-4.912,19.987l-1.308,4.172c-2.177,6.974-5.066,16.177-8.1,25.52-5.1,15.7-10.585,31.125-16.715,48.218l-4.955,13.814c-4.887,13.606-10.144,28.077-15.94,42.258-2.812,6.869-5.682,13.852-8.458,20.6l-.008.02-.873,2.124-1.251,3.042c-1.087,2.645-2.135,5.4-3.148,8.068a148.981,148.981,0,0,1-7.452,17.372A5.533,5.533,0,0,1,966.546,699.674ZM802.719,456.047c-5.35,0-10.15,2.149-15.423,4.746,2.8,1.215,5.849,2.528,9.06,3.9l20.1,8.58c1.9.811,3.864,1.6,5.761,2.368a129.777,129.777,0,0,1,14.219,6.412,3.464,3.464,0,0,1,1.08.9c4.075-2.608,8.36-5.08,12.5-7.471,2.52-1.454,5.125-2.957,7.647-4.47,1.606-.961,3.255-1.942,4.58-2.73a47.441,47.441,0,0,1-15.253,2.811,33.276,33.276,0,0,1-9.387-1.322c-4.778-1.379-9.372-3.878-13.815-6.295a104.082,104.082,0,0,0-9.59-4.8,32.272,32.272,0,0,0-10.145-2.587C803.616,456.063,803.166,456.047,802.719,456.047Zm-.092-9.456a27.35,27.35,0,0,1,3.48.223c7.193.923,13.52,4.35,19.64,7.663,4.955,2.683,10.077,5.457,15.64,6.9a26.165,26.165,0,0,0,6.574.828c7.4,0,14.613-2.984,21.588-5.869,4.977-2.059,10.123-4.188,15.259-5.19a41.393,41.393,0,0,1,7.259-.784l.811-.006.36-.21c.781-.459,1.651-.907,2.571-1.382,2.678-1.382,5.713-2.947,7.329-5.237,1.77-2.5,2.324-6.3,2.812-9.646v-.007c.162-1.114.316-2.166.506-3.127.072-.353.157-.77.23-1.181h-.025a22.182,22.182,0,0,0-4.115.329,61.081,61.081,0,0,0-12.64,4.111c-1.771.751-3.56,1.539-5.29,2.3a128.4,128.4,0,0,1-18.2,6.929,67.428,67.428,0,0,1-17.4,2.484,50.278,50.278,0,0,1-7.171-.5,40.408,40.408,0,0,1-11.193-3.383,72.659,72.659,0,0,1-10.158-5.857l-1.077-.733-.7-.482c-4.268-2.938-9.1-6.268-14.128-6.268a10.97,10.97,0,0,0-5,1.212,35.209,35.209,0,0,0-4.954,3.269,40.03,40.03,0,0,1-4.386,2.971,41.065,41.065,0,0,1-10.61,4.1,46.8,46.8,0,0,1-10.51,1.176,45.309,45.309,0,0,1-9.169-.917l.1,8.88c5.289,2.182,10.475,4.394,14.85,6.27,3.114-1.065,6.066-2.312,9.539-3.858l2.191-.982C792.823,447.832,797.754,446.592,802.627,446.591Zm2.114-28.4a19.333,19.333,0,0,1,3.436.318c6.273,1.143,11.63,4.848,16.812,8.432.538.372,1.208.836,1.839,1.267l.941.633a47.406,47.406,0,0,0,10.12,5.22,33.655,33.655,0,0,0,11.239,2.008h.36a56.511,56.511,0,0,0,12.786-1.57,102.82,102.82,0,0,0,12.345-3.782c1.693-.621,3.377-1.271,5.006-1.9,6.162-2.378,12.533-4.837,19.363-5.7a34.975,34.975,0,0,1,4.326-.274,27.105,27.105,0,0,1,4.564.364c.41-2.285.784-4.47,1.14-6.68.753-4.625,1.436-9.457,2.029-14.36a22.976,22.976,0,0,0-5.969-.781c-7.958,0-15.713,3.954-23.212,7.778-4.754,2.424-9.667,4.929-14.489,6.323a46.061,46.061,0,0,1-12.769,1.78,47.315,47.315,0,0,1-12.711-1.73c-6.592-1.84-11.893-5.34-17.5-9.046-.816-.539-1.741-1.15-2.643-1.736l-1.2-.776c-2.8-1.789-5.816-3.536-9.083-3.536a8.71,8.71,0,0,0-1.635.154c-2.4.463-4.581,1.932-6.686,3.353-.966.652-1.877,1.267-2.814,1.8a48.776,48.776,0,0,1-10.5,4.371,54.158,54.158,0,0,1-11.22,1.949c-1.135.077-2.293.116-3.444.116a53.394,53.394,0,0,1-15.546-2.337l.21,19.661a30.153,30.153,0,0,0,6.97,1.4c.872.065,1.753.1,2.617.1a33.422,33.422,0,0,0,9.452-1.348,32.59,32.59,0,0,0,8.7-4.039l3.132-2.079C794.988,420.717,799.29,418.187,804.741,418.187Zm6.6-27.355a21.636,21.636,0,0,1,8.512,1.9,45.275,45.275,0,0,1,7.743,4.362l1.794,1.224c6.651,4.513,13.333,8.63,21.937,9.421,1.051.1,2.117.146,3.168.146,7.975,0,15.153-2.824,21.721-5.875l1.875-.867c7.809-3.587,16.108-6.906,23.895-6.906a20.7,20.7,0,0,1,9.7,2.223c.777-7.35,1.373-14.985,1.769-22.691a12.8,12.8,0,0,0-4.52-.91h-.089c-4.028,0-8.231,1.289-11.811,2.551-4.378,1.545-8.664,3.532-12.809,5.453l0,0c-3.551,1.646-7.223,3.348-10.937,4.764a50.934,50.934,0,0,1-18.155,3.605,38.315,38.315,0,0,1-6.065-.474,27.721,27.721,0,0,1-10.079-3.7,41.233,41.233,0,0,1-8.331-6.846l-.757-.8-.16-.171c-2.285-2.433-4.647-4.95-7.952-5.591a8.278,8.278,0,0,0-1.562-.147c-2.729,0-5.433,1.3-7.718,2.577-2.261,1.254-4.453,2.682-6.572,4.064-4.521,2.947-9.2,5.995-14.668,7.405a37.366,37.366,0,0,1-9.309,1.136c-6.977,0-14.574-1.721-22.582-5.116.041,6.114.092,12.348.14,18.21a46.477,46.477,0,0,0,5.93,1.79,43.644,43.644,0,0,0,21.86-.65,42.072,42.072,0,0,0,9.633-4.713c3.24-1.945,6.591-3.955,10.336-4.877A16.965,16.965,0,0,1,811.342,390.832Zm8.811-29.14a17.656,17.656,0,0,1,9,2.51,34.065,34.065,0,0,1,7.366,6.01l.558.581a30.387,30.387,0,0,0,8.443,6.551,22.188,22.188,0,0,0,10.073,2.254c.806,0,1.648-.035,2.5-.105,7.626-.623,14.857-3.676,21.85-6.628.94-.4,1.912-.807,2.869-1.2l.722-.3c6.073-2.494,13.133-5.154,20.081-5.154a24.966,24.966,0,0,1,3.519.243,24.124,24.124,0,0,1,6.58,1.89c.3-7.068.468-14.4.5-22.41a17.16,17.16,0,0,0-11.3-3.789,22.079,22.079,0,0,0-5.948.819c-5.083,1.442-9.714,4.235-14.193,6.935a80.833,80.833,0,0,1-10.437,5.616,33.681,33.681,0,0,1-12.931,2.756,27.937,27.937,0,0,1-10.1-1.887c-4.674-1.805-8.823-4.623-12.835-7.348a93.455,93.455,0,0,0-8.715-5.46c-4.355-2.3-7.867-3.368-11.05-3.368a12.685,12.685,0,0,0-1.67.108c-4.23.557-7.01,3.461-9.494,6.387l-1.388,1.651a55.448,55.448,0,0,1-7.148,7.3,26.991,26.991,0,0,1-9.01,4.909,27.852,27.852,0,0,1-8.357,1.276,30.731,30.731,0,0,1-13.533-3.246,65.038,65.038,0,0,1-6.5-3.879l-.431-.281.12,15.949a68.216,68.216,0,0,0,14.17,5.511,33.333,33.333,0,0,0,7.859.99,28.268,28.268,0,0,0,8.849-1.407,36.22,36.22,0,0,0,8.5-4.133l.837-.545c.7-.459,1.413-.937,2.043-1.359,5.385-3.6,10.953-7.327,17.53-7.716C819.443,361.7,819.8,361.692,820.153,361.692Zm-61.1-30.389c.049,2.86.048,5.747.047,8.538v.018c0,1.106,0,2.25,0,3.374,1.667.953,3.278,2,4.836,3.017q.608.4,1.2.782l.689.437c3.631,2.27,8.5,4.875,13.986,4.875a18.349,18.349,0,0,0,5.655-.913c5.2-1.689,8.312-5.423,11.607-9.375l0-.005c1.122-1.346,2.281-2.737,3.529-4.039a24.179,24.179,0,0,1,7.207-5.245,20.279,20.279,0,0,1,8.631-1.933c.282,0,.569.006.853.018,6.034.242,12.354,2.564,19.32,7.1,1.412.919,2.84,1.924,4.221,2.9l.007,0c4.3,3.029,8.756,6.16,13.842,7.58a19.2,19.2,0,0,0,5.138.7,26.706,26.706,0,0,0,10.414-2.4,96.768,96.768,0,0,0,10.088-5.272c5.417-3.1,11.014-6.312,16.73-7.308a23.571,23.571,0,0,1,4.049-.348,23.188,23.188,0,0,1,7.021,1.067,18.775,18.775,0,0,1,6.08,3.181c-.045-7.727-.208-16.2-.5-25.9-8.149.282-16.265,3.678-24.114,6.962a113.966,113.966,0,0,1-14.806,5.418,38.193,38.193,0,0,1-9.718,1.257,46.354,46.354,0,0,1-14.444-2.486,147.174,147.174,0,0,1-14.146-5.66l0,0-1.627-.717c-5.345-2.346-11.1-4.518-16.963-4.518a22.772,22.772,0,0,0-3.627.287c-6.445,1.052-12.2,4.425-17.771,7.686l-.092.054-1.317.77-1.152.663a83.933,83.933,0,0,1-14.98,6.9,50.081,50.081,0,0,1-16,2.7C761.667,331.466,760.355,331.411,759.057,331.3Zm-1.31-21.239a7.594,7.594,0,0,1-.49,1.39,87.582,87.582,0,0,1,1.419,10.9,44.238,44.238,0,0,0,4.741.258,40.793,40.793,0,0,0,8.289-.838c7.195-1.492,13.549-5.182,19.695-8.75,2.628-1.526,5.345-3.1,8.1-4.49-1.9.07-3.773.151-5.589.229h-.021c-7.31.317-14.1.655-20.76,1.031-1.341.072-2.743.237-4.228.411a55,55,0,0,1-6.31.5A16.251,16.251,0,0,1,757.747,310.064Zm104.74-3.1c-8.2.055-16.679.112-25.013.292l-3.037.071c-.062,0-.127,0-.179.005s-.118.005-.181.005c2.757,1.068,5.453,2.262,8.653,3.725l2.867,1.314c5.863,2.7,12.246,5.195,19.189,5.2.695,0,1.4-.025,2.082-.075,6.707-.486,13.154-2.853,19.39-5.141,1.306-.479,2.656-.975,4-1.449a55.638,55.638,0,0,1,18.319-3.508,35.09,35.09,0,0,1,5.012.349l0-.151c-.019-.66-.038-1.343-.066-2.029-16.956,1.167-34.275,1.284-51.025,1.4Z" transform="translate(-237 -7)"></path></g><g transform="translate(225 0)"><g><g><path id="_Skin" data-name="âœ‹ Skin" d="M333.415,93.222c-3.861-23.359,8.811-28.206,0-50.411C313.833,1.667,260.468,3.44,221.308.277,177.63-1.4,133.422,4.369,93.156,21.875A206.38,206.38,0,0,0,65.419,36.56C57.751,41.391,58.8,50.577,63.64,55.588,28.775,104.96,48.716,171.232,20.9,223.2c-5.139,9.29-11.936,17.62-16.4,27.286-6.79,14.693-7.225,35.746,8.173,45.5,21.687,11.64,33.789-11.407,44.445,22C110.33,434.483,217.329,441.044,318.9,380.31c8.788-4.888,17.757-10.413,24.393-18.093,15.063-16.951,13.289-40.789,13.622-61.958q.279-18.608.1-37.22C356.542,212.781,339.885,143.065,333.415,93.222Z" transform="translate(52 80)" fill="#d08b5b"></path><path id="_Ink" data-name="ðŸ– Ink" d="M213.5,501.49a63.664,63.664,0,0,1-17.335-2.192c-6.537-1.829-12.249-4.954-16.082-8.8a19.513,19.513,0,0,1-4.725-7.3,17.479,17.479,0,0,1-.574-9.23,4.344,4.344,0,0,1,1.759-2.785,5.29,5.29,0,0,1,3.038-.911,5.512,5.512,0,0,1,4.713,2.457l.508.813c2.374,3.767,5.311,7.974,10.133,10.236a33.106,33.106,0,0,0,8.577,2.587,57.572,57.572,0,0,0,8.952.734c.369,0,.741.006,1.106.006,16.041,0,32.663-3.965,48.314-8.026a276.5,276.5,0,0,0,44.1-15.351,195.281,195.281,0,0,0,40.089-23.819A69.1,69.1,0,0,0,359.6,426.193a50.238,50.238,0,0,0,4.841-8.2,45.524,45.524,0,0,0,3.143-9.2c2.949-13.064,1.28-27.06-.334-40.6-.352-2.949-.715-6-1.016-8.944-2.936-28.85-6.523-59.481-11.63-99.319l-.85-6.611q-.438-3.395-.879-6.79l-.006-.045c-3.235-24.948-6.581-50.746-8.215-76.255a7.821,7.821,0,0,1-1.44-3.42l-.279-1.81a15.037,15.037,0,0,1-.111-4.28c.01-5.17.154-10.087.439-15.031.05-.9.09-1.807.121-2.689-4.873,1.074-10.028,2.012-15.76,2.87a504.4,504.4,0,0,1-74.865,5.6c-12.419,0-24.993-.466-37.375-1.386-17.274-1.287-35.484-3.5-55.67-6.771-9.676-1.564-19.134-3.273-28.11-5.08-5.5-1.1-10.992-2.541-16.306-3.935l-.052-.014c-1.194-.313-2.428-.637-3.643-.951a56.872,56.872,0,0,0-7.754,16.365,52.828,52.828,0,0,0-2.076,17.925c.338,5.736,2.157,11.335,3.916,16.749a97.26,97.26,0,0,1,3.24,11.57,32.09,32.09,0,0,1,.244,11.95,20.649,20.649,0,0,1-9.133,13.951c-4.622,3.148-10.51,5.022-15.665,6.531l-4.73,1.367a13.665,13.665,0,0,0-4.588,1.989,6.517,6.517,0,0,0-2.353,4.472c-.8,5.286-.342,11.044.1,16.612.189,2.4.367,4.66.453,6.9.108,2.743.226,5.511.341,8.188.262,6.094.532,12.4.679,18.6.029,1.231.064,2.484.1,3.7v.026c.092,3.332.188,6.776.182,10.158a13.924,13.924,0,0,1-1.77,7.639A28.637,28.637,0,0,1,75.427,312a.449.449,0,0,1-.008.454A.507.507,0,0,1,75,312.7a.424.424,0,0,1-.307-.136,26.169,26.169,0,0,0-3.151-2.791,25.933,25.933,0,0,1-1.971,2.141l-.059-.08a6.343,6.343,0,0,1-4.5,1.876,7.079,7.079,0,0,1-4.616-1.8l-.774-.671c-2.029-1.778-3.629-3.392-4.244-6.6v-.007c-.03-.158-.06-.317-.079-.473-.34-.012-.694-.018-1.053-.018a31,31,0,0,0-14.958,3.857,37.011,37.011,0,0,0-16.6,18.121,20.976,20.976,0,0,0,4.588,4.019.228.228,0,0,1,.1.264.242.242,0,0,1-.226.174.259.259,0,0,1-.112-.027,21.963,21.963,0,0,1-4.88-3.13,44.185,44.185,0,0,0-2.49,9.63,42.66,42.66,0,0,0,1.39,18.747,30.47,30.47,0,0,0,4.117,8.41,23.932,23.932,0,0,0,6.753,6.453,29.573,29.573,0,0,0,15.67,4.6h.079a30.777,30.777,0,0,0,7.632-1.1c.417-.1.841-.218,1.251-.329l.011,0a16.04,16.04,0,0,1,4.178-.748,8.711,8.711,0,0,1,4.451,1.2l-.38.033a2.164,2.164,0,0,0-.58.084,5.731,5.731,0,0,0,1.12.041,5.216,5.216,0,0,1,4.4,2.6,5.345,5.345,0,0,1,.051,5.167l-.241.545-.063.136-.064.138-.145.936-.017.1,0,.023c-.008.049-.016.1-.025.149l-.056.19a.9.9,0,0,1-.034.091l6,9.148c7.074,10.763,14.711,22.143,23.431,32.562a268.2,268.2,0,0,0,19.08,20.71c3.92,3.8,8.252,6.264,12.838,8.876,2.4,1.366,4.88,2.779,7.281,4.395a7.594,7.594,0,0,1,3.364,5.5,6.531,6.531,0,0,1-1.963,5.344,14.811,14.811,0,0,1-10.742,4.522,23.8,23.8,0,0,1-11.228-3.233,43.659,43.659,0,0,1-9.55-7.16c-6.686-6.589-13.137-14.891-19.72-25.38A181.729,181.729,0,0,1,74.8,415.06a137.226,137.226,0,0,1-4.859-13.04,119.357,119.357,0,0,1-3.41-13.543,14.724,14.724,0,0,1-5.17,2.811,40.866,40.866,0,0,1-11.84,1.98c-.455.015-.918.023-1.376.023A48.386,48.386,0,0,1,27.5,388.418a40.771,40.771,0,0,1-15.064-12.308,48.085,48.085,0,0,1-8.188-17.34A58.628,58.628,0,0,1,3.4,334.405a53.91,53.91,0,0,1,9.218-22.317,132.842,132.842,0,0,1-4.009-15.624c-.326-1.528-.634-2.968-.952-4.376l-.633-2.748c-2.043-8.925-3.506-16.317-4.6-23.263a188.3,188.3,0,0,1-2.345-23.51c-.555-17.373,1.952-32.521,7.662-46.31a88.888,88.888,0,0,1,5.53-11.281c.555-.944,1.226-1.89,1.937-2.892,1.463-2.061,2.975-4.191,3.522-6.428,1.208-4.879-3.438-9.969-7.538-14.459a38.791,38.791,0,0,1-5.012-6.221,21.567,21.567,0,0,1-2.955-10.693A16.186,16.186,0,0,1,9.177,131.9a28.516,28.516,0,0,1-3.61-14.515,25.378,25.378,0,0,1,4.94-14.425,28.389,28.389,0,0,1,17.86-11.09,29.484,29.484,0,0,1,5-.408A34.993,34.993,0,0,1,42.7,92.738,343.283,343.283,0,0,1,84.508,59.549a322.178,322.178,0,0,1,46.559-26.042A372.659,372.659,0,0,1,208.087,8.39a391.952,391.952,0,0,1,120.77-6.332,378.721,378.721,0,0,1,96.618,22.612l2.718,1.05,1.351.518c7.324,2.8,14.9,5.7,20.373,11.35a23.369,23.369,0,0,1,4.136,5.811,22.554,22.554,0,0,1,2.134,6.634,21.017,21.017,0,0,1-2.439,13.675,28.489,28.489,0,0,1-7.571,8.573,37.306,37.306,0,0,1-10.159,5.477,60.3,60.3,0,0,1,7.21,6.99,11.578,11.578,0,0,1,2.966,7.427,10.179,10.179,0,0,1-.7,3.873,10.72,10.72,0,0,1-2.266,3.509,61.572,61.572,0,0,1-13.418,10.561,62.193,62.193,0,0,1-15.772,6.519,30.756,30.756,0,0,1-2.09,18.59,26.209,26.209,0,0,1-6.735,9.146,32.116,32.116,0,0,1-9.5,5.62c-6.13,2.4-13.759,3.611-22.675,3.611-2.167,0-4.445-.072-6.77-.215l-.5-.031-.92,10.53a12.68,12.68,0,0,1-2.821,7.191,10.772,10.772,0,0,1-6.729,3.629c-.2.03-.4.05-.6.069,9.113,32.955,14.63,67.314,19.5,99.681,2.3,15.271,4.53,31.445,7.233,52.445l.747,5.835c.545,4.289,1.132,8.664,1.7,12.894l0,.013c1.935,14.428,3.935,29.347,4.738,44.033a94.548,94.548,0,0,1-.142,12.764,75.145,75.145,0,0,1-2.017,12.305,64.147,64.147,0,0,1-4.185,11.681,61.179,61.179,0,0,1-6.645,10.89c-8.7,11.377-20.99,21.056-36.54,28.77a383.268,383.268,0,0,1-48.664,20.246c-8.414,2.811-16.917,5.281-25.273,7.34-8.616,2.124-17.331,3.875-25.9,5.2l-2.332.359A156.011,156.011,0,0,1,213.5,501.49ZM74.4,353.773a6.4,6.4,0,0,1-3.9-1.335c-1.718-1.286-3.277-2.625-4.784-3.92-3.712-3.189-7.218-6.2-12.436-7.89a54.222,54.222,0,0,0-16.1-2.738,32.252,32.252,0,0,0-5.581.459.856.856,0,0,1-.144.012,1,1,0,0,1-.909-.625.7.7,0,0,1,.223-.8,36.136,36.136,0,0,1,9.929-6.413,28.833,28.833,0,0,1,11.393-2.271c.931,0,1.889.042,2.849.123a47.508,47.508,0,0,1,14.807,3.716,33.212,33.212,0,0,1,6.663,3.879,23.462,23.462,0,0,1,5.189,5.365,7.111,7.111,0,0,1,.2,7.535A8.838,8.838,0,0,1,74.4,353.773Z" transform="translate(38 0)"></path></g></g><g transform="translate(159 186)"><g><path d="M161.26 3.75829C151.862 0.105287 135.062 -2.96371 127.162 5.02229C122.951 9.28029 125.484 15.1363 130.37 17.1713C133.516 18.4822 136.949 18.183 140.337 17.8877C141.669 17.7716 142.993 17.6562 144.29 17.6393C148.84 17.5813 153.361 18.1643 157.793 19.1723C161.357 19.9847 164.836 21.1098 168.293 22.2873L170.595 23.0773C171.32 23.3264 172.054 23.61 172.797 23.8967C175.616 24.9851 178.553 26.1192 181.532 25.5913C182.229 25.4673 182.565 24.7623 182.634 24.1453C183.089 20.0982 179.892 16.2352 177.024 13.4278L176.386 12.8144L175.972 12.4263C171.724 8.48129 166.624 5.84429 161.26 3.75829ZM33.6232 10.8211L35.7926 10.2262L38.0047 9.62924L39.5005 9.23374C49.7753 6.54436 61.1082 4.17756 71.2972 5.33309C75.0132 5.75509 78.0292 7.84609 78.5552 11.7391C78.9982 15.0241 76.8752 19.2621 73.2622 19.8461C61.2952 21.7821 49.0442 21.1541 37.0222 23.1501C31.0352 24.1431 25.0942 25.3761 19.1302 26.4871C14.5952 27.3331 9.90917 27.6301 5.33517 28.3141L6.38617 28.4601C6.75417 28.5101 6.66217 29.1291 6.29917 29.1041C4.79154 28.9536 3.28162 28.9302 1.7694 29.0359L1.12117 29.0891C0.134167 29.2281 -0.447833 28.0501 0.432167 27.4521C6.00517 23.6711 10.7342 19.5731 16.9742 16.7861C22.3712 14.3761 27.9262 12.3891 33.6232 10.8211ZM166.634 45.6655C168.478 45.1131 169.779 45.3742 171.441 46.2403C172.719 46.9059 173.589 47.9568 174.088 49.1838C174.599 50.4395 174.707 51.8878 174.454 53.2296C173.406 58.8007 170.042 63.7442 165.503 66.9282C161.091 70.0227 155.589 71.452 150.049 70.2614C146.003 69.3919 140.008 65.5531 136.85 60.8711C135.504 58.8752 134.671 56.736 134.581 54.6232C134.495 52.6084 135.008 50.5771 137.676 47.8994C137.936 47.8184 138.208 47.7747 138.477 47.7747C139.138 47.7747 139.821 48.0516 140.274 48.4513C141.469 49.502 142.312 50.8319 143.178 52.2626L143.41 52.6451C143.799 53.2818 144.2 53.9109 144.69 54.476C146.449 56.5028 149.003 58.2218 151.683 58.6693C154.167 59.0845 156.407 58.3485 158.181 56.9599C160.257 55.3353 161.713 52.8432 162.253 50.1809C162.472 49.1021 163.036 48.1297 163.818 47.3478C164.607 46.5588 165.615 45.9718 166.634 45.6655ZM49.1162 69.4299C47.1005 71.4882 44.4385 72.6496 41.0316 71.9587C38.3694 71.4193 33.3005 68.7424 29.2512 64.6199C26.481 61.7996 24.1647 58.2755 23.535 54.193C23.3888 53.2449 22.8856 52.6371 22.225 52.2543C21.7033 51.952 21.0154 51.8002 20.2661 51.876C19.6299 51.9404 18.9544 52.1708 18.4324 52.4762C17.4395 53.0572 17.0334 53.8821 16.9509 54.498C16.1543 60.4416 18.4501 66.3391 22.0288 71.3116C26.8584 78.0223 33.951 82.9399 38.1196 84.0909C45.2534 86.0617 52.7703 84.4928 58.3124 79.5277C62.7443 75.5578 65.0159 70.3856 67.1236 65.0671L67.53 64.0361C68.0041 62.8293 68.4745 61.6313 68.9729 60.4461C69.9719 58.0711 69.652 56.0181 68.6834 54.418C67.6103 52.6454 65.6296 51.3976 63.4246 51.0143C61.3865 50.6601 59.2055 51.0476 57.4838 52.2925C56.0293 53.3441 54.8564 55.0104 54.4397 57.4743C53.762 61.4809 52.1899 66.0779 49.4178 69.111L49.1162 69.4299ZM129.748 108.039C137.872 96.6602 126.366 85.9571 118.814 81.367C116.836 79.9471 118.406 75.2433 122.634 75.9703C161.031 82.5673 141.136 148.708 92.1122 112.413C86.2756 107.704 93.3436 97.3338 99.6344 101.366C99.9534 101.611 100.288 101.869 100.637 102.139C107.704 107.603 120.636 117.601 129.748 108.039ZM138.581 156.822C135.281 161.137 129.306 164.442 122.614 166.022C116.238 167.528 109.191 167.466 103.109 165.149L102.587 164.941C98.0396 163.053 93.6748 159.239 92.0173 155.26C91.3584 153.678 91.1354 152.069 91.5864 150.569C91.9921 149.219 92.9432 147.976 94.5273 146.909C95.0247 146.574 95.6918 146.55 96.3274 146.662C97.116 146.801 97.8933 147.17 98.3623 147.668C100.964 150.435 104.739 153.132 109.207 153.086C112.655 153.051 115.47 151.69 118.2 150.151L120.119 149.053C121.97 147.996 123.847 147.004 125.971 146.551C129.773 145.739 134.384 147.222 137.194 149.67C138.419 150.737 139.309 151.991 139.551 153.343C139.755 154.477 139.469 155.661 138.581 156.822Z" transform="translate(51.99983 63.00011)" fill-rule="evenodd" stroke="none"></path></g></g><g transform="translate(123 338)"><g><path d="M212.043 152.834C212.043 152.834 167.653 159.357 147.783 150.138C127.973 140.949 108.703 132.057 90.7328 119.884C72.3228 107.413 56.7028 92.6033 45.5528 73.6462C35.1828 56.0075 26.5628 37.291 17.8828 18.7189C17.3755 17.6336 12.3928 6.84431 10.6328 3.22611C7.92276 -2.38401 0.00276151 -0.623038 0.00276151 8.08566C0.00276151 16.7944 -0.387239 82.7459 14.8328 108.689C28.5628 132.121 51.8328 148.493 74.9528 162.783C100.533 178.584 134.513 195.664 165.033 200.177C192.653 204.257 224.173 192.797 244.173 173.907C265.083 154.151 271.003 127.312 281.793 101.609C284.203 95.8646 275.659 92.3999 273.153 98.0498C268.433 108.689 212.043 152.834 212.043 152.834Z" transform="translate(-2.482762 -14.77045)" stroke="none"></path></g></g><g transform="translate(47 241)"></g></g></g></svg>