<?xml version="1.0" standalone="no"?>
<svg viewBox="-350 -150 1500 1500" style="width: 487.5px; height: 487.5px; justify-content: center; align-self: center; transform: scale(1, 1);" xmlns="http://www.w3.org/2000/svg"><g transform="rotate(0 408.5065425634384 590.2591400146484)"><g id="body_Hoodie" data-name="body/Hoodie" transform="translate(0 459)"><path id="_Skin" data-name="âœ‹ Skin" d="M778.244,749.543c19.326-.933,11.553-34.738,10.166-47.153-15.3-45.344-11.7-94.816-17.722-142.344-3.749-44.368-8.566-88.6-12.618-132.932-7.958-89.994-65.1-273.2-130.32-302.661-8.215-36.046-42.146-69.694-85.076-69.694C513.394,20.1,478.151-4.293,432.948.632c-18.68.85-36.8,20.662-54.695,24.488-10.022,1.382-98.962-2.175-116.778,8.406-12.41,6.372-23.613,18.147-19.964,33.138,5.822,18.162-12.271-1.49-50.014,17.895-76.963,46.223-30.973,108.06-28.935,109.976C114.534,261.358,72.555,315.57,53.132,397.247,40.544,457.886,41.961,520.485,31.414,581.435,27.69,602.569,21.977,622.98,15.8,643.5c-6.7,26.859-9.958,93.8-13.651,94.4-6.727,1.671,3.888,15.483,11.016,15.494,197.624,32.781,398.362,1.358,597.048-3.776C666.2,747.675,722.254,747.226,778.244,749.543Z" transform="translate(12.504 -34)" fill="#d08b5b"></path><path id="_Jacket" data-name="ðŸ§¥ Jacket" d="M378.5,64.457c0,21.032,73.03,99.184,98.234,94.028q25.2-5.156,76.16-67.249V64.457L545.558,35.3c41.56,1.465,74.161,34.409,82.191,69.643,64.563,29.169,121.219,209.019,130.067,299.934l.253,2.728c4.052,44.334,8.869,88.564,12.618,132.932,6.018,47.528,2.421,97,17.722,142.344l.091.77c1.6,12.984,8.683,45.469-10.257,46.383-55.99-2.317-112.043-1.868-168.036.079-198.686,5.134-399.424,36.557-597.048,3.776C6.032,733.882-4.583,720.07,2.144,718.4,5.837,717.8,9.1,650.857,15.8,624l1.272-4.245c5.689-19.1,10.88-38.147,14.347-57.823,10.547-60.95,9.13-123.549,21.718-184.188,19.423-81.677,61.4-135.889,109.43-202.712-2.038-1.916-48.028-63.752,28.935-109.976,37.743-19.385,55.836.267,50.014-17.9-3.649-14.991,7.554-26.766,19.964-33.138C279.291,3.44,368.231,7,378.253,5.615A53.6,53.6,0,0,0,392.27,0l-.814,2.71Q378.5,46.129,378.5,64.457Z" transform="translate(12.504 -14.495)" fill="#9fd8e5"></path><path id="_Ink" data-name="ðŸ– Ink" d="M489.923,756.62a2.312,2.312,0,0,1-2.344-2.262c-2.9-42.141-4.793-84.108-6.62-124.693l0-.039c-1.3-28.844-2.125-58.437-2.525-90.472-.544,0-1.1.009-1.633.014h-.079c-.79.007-1.608.015-2.412.018-21.611.094-43.954.192-65.926.192-18.81,0-35.54-.071-51.146-.218l.01.009a.977.977,0,0,1,.162.247c2.792,6.59,3.1,14.986,3.024,22.33a110.352,110.352,0,0,1-3.073,24.292,127.572,127.572,0,0,1-6.955,20.859,156.4,156.4,0,0,1-10.19,19.6,215.18,215.18,0,0,1-26.985,34.9l-.65.689c-.692.732-1.414,1.479-2.113,2.2l-.033.034c-4.11,4.253-8.361,8.65-10.81,14.018-2.341,5.129-3.468,10.961-4.559,16.6-.276,1.426-.56,2.9-.857,4.317l-.17.8-5.678,26.226c-.385,1.778-.708,3.712-1.05,5.759-1.253,7.5-2.673,16-7.86,20.73a10.5,10.5,0,0,1-7.1,2.936c-4.313,0-8.276-2.934-10.1-7.476-1.923-4.79-.6-9.924.684-14.889l0-.007c.218-.845.443-1.718.644-2.56l10.491-44.1c1.768-7.374,3.659-14.52,7.328-20.891,3.8-6.592,9.257-11.292,15.036-16.268l.063-.054a191.116,191.116,0,0,0,15.448-14.892,182.332,182.332,0,0,0,13.638-16.562,159.839,159.839,0,0,0,20.559-37.558,135.328,135.328,0,0,0,5.995-20.622c.652-3.2.992-6.515,1.32-9.716a92.537,92.537,0,0,1,1.463-10.373,1.28,1.28,0,0,1,.922-.9.564.564,0,0,1,.059-.49.51.51,0,0,1,.406-.226l31.918-2.051c27.254-1.758,56.425-3.683,85.089-5.852l5.009-.362c-.356-36.713-.137-76.214.668-120.758.25-13.856.411-27.947.566-41.573v-.057c.258-22.66.526-46.092,1.211-69.132.563-18.876,1.79-37.532,3.033-54.882,1.049-14.631,2.617-29.42,4.135-43.723.421-3.967.856-8.069,1.279-12.157a.7.7,0,0,1,1.406,0l1.395,13.469c1.544,14.958,3.294,32.344,4.517,49.395,1.482,20.683,2.472,41.5,2.941,61.869,1.724,74.713,2,150.6,2.13,215.867,9.478-.657,19.3-1.313,29.2-1.951,5.856-.378,12.154-.772,19.82-1.238l16.847-1.021,6.936-.426c.65-.04,1.326-.1,1.98-.156h.008c1.253-.109,2.548-.221,3.8-.221,2.368,0,5.361.348,7.5,3.059,1.545,1.956,1.817,4.068.747,5.794-2.635,4.251-6.555,4.391-11.093,4.553l-.054,0-.908.034c-4.6.186-9.267.371-13.872.548-8.77.341-19.16.729-29.729,1.026-10.465.294-20.961.532-31.2.706-.105,30.326-1.347,60.377-2.722,91.057l-.615,13.655c-1.857,41.238-3.587,75.855-5.993,110.761A2.313,2.313,0,0,1,489.923,756.62Zm-299.2-3.946a6.222,6.222,0,0,1-5.53-3.115l.7.462a1.127,1.127,0,0,0,.213.12c.013-.032-.709-.582-2.271-1.73l-1.683-2.177a13.62,13.62,0,0,1-2.317-5.83,33.884,33.884,0,0,1,.138-7.83c.084-.9.171-1.819.229-2.7l3.864-59.612c1.11-17.117,2.3-34.433,3.456-51.178,1.982-28.784,4.031-58.547,5.7-87.862,1.094-19.208,2.13-41.938,1.51-64.889-.352-13.043-.814-23.049-1.5-32.442-.864-11.865-2.078-22.413-3.71-32.247a2.022,2.022,0,0,1,.442-1.667,1.936,1.936,0,0,1,1.45-.693,1.805,1.805,0,0,1,1.536.915,139.638,139.638,0,0,1,8.924,16.412,148.043,148.043,0,0,1,6.59,17.1,186.683,186.683,0,0,1,7.392,36.247,296.546,296.546,0,0,1,1.623,33.354c-.029,12.042-.612,24.174-1.118,33.4-1.286,23.482-2.785,46.965-4.337,70.961l-2.349,36.263-5.9,90.909a27.791,27.791,0,0,1-1.807,9.024,12.44,12.44,0,0,1-5.69,6.414,13.383,13.383,0,0,1-2.309,1.583A6.928,6.928,0,0,1,190.724,752.674ZM15.274,751.2a9.532,9.532,0,0,1-5.922-2.065A11.114,11.114,0,0,1,5.7,743.866a106.971,106.971,0,0,1-4.75-23.005,204.335,204.335,0,0,1-.93-23.554C.156,683.232,1.74,668.36,5,650.506c3.8-20.789,9.094-41.623,14.215-61.771l0-.008.009-.033c2.363-9.3,4.806-18.908,7.069-28.388,3.14-13.156,5.81-26.551,7.935-39.812,2.119-13.223,3.771-26.781,4.911-40.3.584-6.92,1.119-13.962,1.636-20.773l0-.057c1.584-20.857,3.222-42.425,6.483-63.47a287.058,287.058,0,0,1,9.275-40.442A277.026,277.026,0,0,1,71.7,316.836c12.087-25.065,27.314-48.08,39.23-65.33,9.029-13.069,18.328-25.521,27.641-37.009,9.934-12.254,20.24-23.854,30.633-34.479a11.889,11.889,0,0,1-5.738-1.844,17.369,17.369,0,0,1-6.275-7.219,29.569,29.569,0,0,1-2.693-9.269,127,127,0,0,1-.942-22.069,105.4,105.4,0,0,1,3.261-21.826A81.276,81.276,0,0,1,172.75,86.531a70.167,70.167,0,0,1,12.766-11.956,64.411,64.411,0,0,1,15.644-8.314,56.982,56.982,0,0,1,18.222-3.055c.544-.014,1.123-.02,1.771-.02.956,0,1.916.014,2.844.028H224c.941.014,1.913.028,2.888.028a33.842,33.842,0,0,0,10.431-1.277c3.747-1.232,6.931-3.886,9.733-8.116A70.9,70.9,0,0,0,252.9,41.966c.233-.56.453-1.09.677-1.623l.156-.37a74.515,74.515,0,0,1,7.576-14.165,44.2,44.2,0,0,1,11.37-11.278C283.26,7.323,296.633,4.361,307.1,2.586l.754-.127A174.615,174.615,0,0,1,336.325,0C356.316,0,374,3.979,388.875,11.827a.22.22,0,0,1,.105.256.224.224,0,0,1-.213.18h-.011l-7.941-.317c-9.588-.376-17.63-.626-25.718-.626-9.124,0-17.2.335-24.683,1.024A172.62,172.62,0,0,0,305.9,16.285l-2.531.61a108.353,108.353,0,0,0-13.331,3.964A42.947,42.947,0,0,0,278.02,27.6a33.7,33.7,0,0,0-7.889,9.886,107.757,107.757,0,0,0-5.31,11.628l-.309.755-.437,1.054a62.661,62.661,0,0,1-5.916,11.251,33.445,33.445,0,0,1-8.883,9.035,32.164,32.164,0,0,1-12.269,4.823,97.534,97.534,0,0,1-13.18,1.273h-.01c-2.008.1-4.085.209-6.107.371a44.5,44.5,0,0,0-13.552,3.3,49.937,49.937,0,0,0-11.843,7.04,57.439,57.439,0,0,0-9.727,9.917,61.72,61.72,0,0,0-7.2,11.934c-4.256,9.278-6.639,20.33-7.082,32.848a103.729,103.729,0,0,0,.527,17.251,27.156,27.156,0,0,0,1.445,4.787c.5,1.288,1.453,3.447,2.128,3.447l.041,0a5.944,5.944,0,0,1,.814-.056,5.1,5.1,0,0,1,4.82,3.049c6.4-6.185,12.9-12.094,19.323-17.561a371.648,371.648,0,0,1,53.146-37.842c13.111-7.667,28.722-16.39,45.088-22.953l-.177,0a7.449,7.449,0,0,0-3.469.836.518.518,0,0,1-.731-.261.493.493,0,0,1,.107-.547A16.617,16.617,0,0,1,297,88.9a15.877,15.877,0,0,1,6.136-1.181,22.249,22.249,0,0,1,5.009.612c1.367-.435,2.616-.817,3.817-1.166a.607.607,0,0,1,.169-.025.521.521,0,0,1,.5.394.577.577,0,0,1-.233.66l-1.462.933c6.453,2.162,12.756,6.376,17.821,9.762l.094.063c13.155,8.792,25.075,19.535,36.6,29.923l.053.047c1.159,1.045,2.358,2.126,3.539,3.186l2.353,2.107c10.895,9.729,22.8,19.879,36,28.2a127.213,127.213,0,0,0,21.345,11.155c1.452.572,3.1,1.091,4.836,1.641,5.935,1.875,12.661,4,14.979,9.23A6.136,6.136,0,0,1,450,189.261a7.017,7.017,0,0,1-3.011,4.723c-1.851,2.037-4.546,3.07-8.011,3.07-4.5,0-9.412-1.65-14.047-3.433a149.034,149.034,0,0,1-21.866-10.5c-12.1-7.107-24.438-16.392-37.706-28.385-8.073-7.3-15.974-15.027-23.614-22.5-3.867-3.783-7.863-7.692-11.852-11.517-2.482-2.379-4.977-4.826-7.39-7.192-2.569-2.519-5.225-5.123-7.876-7.658l-2.579-2.442c-.392-.367-.807-.765-1.247-1.185a51.6,51.6,0,0,0-9.1-7.421c-2.885,1.721-5.823,3.436-8.664,5.094-4.595,2.682-9.342,5.453-13.941,8.292-9.319,5.753-19.274,12.432-30.435,20.419a465.837,465.837,0,0,0-54.1,45.461c-7.551,7.373-15.06,15.237-22.316,23.373-7,7.849-13.971,16.181-20.719,24.766a626.729,626.729,0,0,0-37.115,52.868l-1.745,2.777c-7.655,12.23-13.6,22.367-18.693,31.9A287.072,287.072,0,0,0,78.51,343.316a248.175,248.175,0,0,0-11.089,38.9,376.979,376.979,0,0,0-5.773,40.067c-1.161,12.282-1.981,24.795-2.775,36.9-.934,14.244-1.9,28.972-3.426,43.411-1.353,12.8-3.38,26.112-6.2,40.7-2.3,11.922-5.127,24.7-8.891,40.211l-1.547,6.339q-.464,1.891-.928,3.782l-.057.232,0,.008c-5.463,22.241-11.111,45.24-13.96,68.377A284.264,284.264,0,0,0,21.5,701.8c.18,10.858,1.636,21.722,3.044,32.229l.008.059c.312,2.326.634,4.732.938,7.1a7.991,7.991,0,0,1-2.466,6.586,11.483,11.483,0,0,1-6.272,3.313A10.029,10.029,0,0,1,15.274,751.2Zm786.81-13.4a11.4,11.4,0,0,1-7.438-2.652,10.743,10.743,0,0,1-3.64-7.939,544.545,544.545,0,0,0-5.659-56.154c-2.744-18.573-6.19-37.36-9.523-55.528l0-.016c-2.674-14.578-5.439-29.652-7.834-44.567-2.9-18.067-5.2-37.938-7.035-60.747-1.635-20.335-2.756-41.077-3.839-61.137v-.012c-1.385-25.637-2.817-52.148-5.338-78.074-1.356-13.952-2.911-26.628-4.753-38.754-2.067-13.608-4.44-26.175-7.253-38.42a405.144,405.144,0,0,0-15.774-52.45,352.635,352.635,0,0,0-23.22-49.58c-4.684-8.227-9.545-15.98-14.449-23.041A233.159,233.159,0,0,0,669.592,147.3c-8.481-9.588-19.908-21.97-33.1-32.7a7.152,7.152,0,0,1-5.125,2,9.377,9.377,0,0,1-5.036-1.507,8.411,8.411,0,0,1-3.4-4.231,28.3,28.3,0,0,1-1.2-7.172,40.085,40.085,0,0,0-.663-5.267,61.757,61.757,0,0,0-3.47-11.026A72.449,72.449,0,0,0,605.043,67.86a78.919,78.919,0,0,0-8.885-8.493,84.036,84.036,0,0,0-10.068-7.041c-4.458-2.66-9.269-4.185-13.922-5.66-2.819-.894-5.735-1.818-8.569-2.99a.307.307,0,0,1-.2-.288.276.276,0,0,1,.2-.254,24.569,24.569,0,0,1,8.043-1.232c6.269,0,12.989,1.833,18.143,3.43A61.1,61.1,0,0,1,602.478,51a78.362,78.362,0,0,1,11.315,8.109,72.837,72.837,0,0,1,10.055,10.522,71.943,71.943,0,0,1,7.75,12.32l.412.84a82.282,82.282,0,0,1,5.442,13.738c1.548,5.55,1.884,10.373,1,14.336-.057.254-.123.5-.2.73a186.541,186.541,0,0,1,23.133,13.467,159.012,159.012,0,0,1,20.77,16.958,228.6,228.6,0,0,1,20.919,23.4,259.671,259.671,0,0,1,17.715,25.917,290.361,290.361,0,0,1,14.493,27.453c4.194,9.076,8.085,18.692,11.564,28.581,3.3,9.368,6.331,19.29,9.021,29.49,2.523,9.568,4.832,19.722,6.862,30.18,3.6,18.524,6.471,38.658,8.791,61.552,2.151,21.235,3.568,42.195,4.779,61.681l1.263,20.677c1.532,24.864,2.979,45.747,5.062,66.843,2.431,24.619,5.463,46.333,9.271,66.381l.61,3.18c1.873,9.662,3.952,19.508,5.962,29.031l0,.016c3.8,18.012,7.733,36.637,10.514,55.091,1.5,9.94,2.55,19.023,3.215,27.769a268.448,268.448,0,0,1,.744,27.944,10.593,10.593,0,0,1-3.5,7.948A11.156,11.156,0,0,1,802.084,737.794Zm-123.566-8.3a8.133,8.133,0,0,1-6.106-2.665c-5.644-6.087-6.045-15.942-6.4-24.636v-.011c-.1-2.458-.194-4.779-.4-6.949-.771-8.238-1.659-16.577-2.638-24.786l-.5-4.125c-.188-1.52-.373-3.071-.552-4.571a219.291,219.291,0,0,0-3.7-23.611A39.732,39.732,0,0,0,646.809,618c-1.718-1.708-3.483-3.41-5.19-5.055l-.02-.019c-4.2-4.048-8.539-8.232-12.45-12.768A177.138,177.138,0,0,1,613.3,578.555a145.638,145.638,0,0,1-10.291-20.575l-.494-1.174c-.514-1.226-1.081-2.5-1.681-3.855-2.77-6.24-5.907-13.308-5.723-19.524a.428.428,0,0,1,.721-.3,29.183,29.183,0,0,1,4.968,6.824c.544.921,1.107,1.874,1.688,2.768,2.44,3.751,5,7.415,7.608,10.89,5.374,7.161,11.457,14.006,17.23,20.336a246.38,246.38,0,0,0,17.627,17.433c2.32,2.078,4.776,4.109,7.151,6.074a128.566,128.566,0,0,1,13.017,11.81c11.8,12.875,14.343,30.192,16.806,46.94l.006.04c.167,1.136.34,2.31.512,3.458l.292,1.921c1.571,10.194,3.048,20.853,4.391,31.679v.011c.589,4.753,1.258,10.141,1.792,15.444l.159,1.634a37.57,37.57,0,0,1,.106,7.533,15.676,15.676,0,0,1-2.418,7.055,10.109,10.109,0,0,1-3.619,3.3A9.766,9.766,0,0,1,678.517,729.494Zm61.184-3.555a10.812,10.812,0,0,1-8.752-5.007c-3.3-4.727-3.553-12.216-3.779-18.824-.08-2.357-.156-4.584-.361-6.576-.941-9.136-1.771-16.542-2.61-23.307-1.9-15.348-4.453-30.816-6.922-45.244-2.9-16.96-6.578-34.087-10.131-50.65-3-14-6.106-28.466-8.732-42.77-6.824-37.163-10.076-67.933-10.232-96.836-.119-22.344,1.477-45.026,3.02-66.962v-.006c.726-10.317,1.477-20.986,2.039-31.5,1.64-30.635,3.6-63.3,5.984-99.875a.75.75,0,0,1,.77-.724.707.707,0,0,1,.73.724c.167,7.691.33,15.445.522,24.721.315,15.171.516,30.605.711,45.531v.015c.329,25.2.669,51.26,1.563,76.873,1,28.723,2.61,53.817,4.916,76.716,1.482,14.712,3.6,29.922,6.479,46.5,2.408,13.867,5.4,28.933,9.144,46.059,1.667,7.621,3.4,15.333,5.067,22.791l.016.072c1.769,7.895,3.6,16.058,5.352,24.1.615,2.819,1.249,5.692,1.862,8.47l.071.323c2.689,12.18,5.47,24.774,7.6,37.23,2.337,13.646,4.872,29.753,5.96,45.75l.129,2c.085,1.407.23,2.932.384,4.546a82.836,82.836,0,0,1,.547,10.776c-.158,4.1-.953,7.248-2.43,9.626C746.468,723.949,743.216,725.938,739.7,725.938ZM486.637,172.392a27.284,27.284,0,0,1-11.867-2.885,64.852,64.852,0,0,1-10.6-6.7l-.773-.582c-7.848-5.941-14.886-11.612-21.518-17.338a338.668,338.668,0,0,1-39.751-39.919,276.8,276.8,0,0,1-16.889-22.287,146.822,146.822,0,0,1-13.53-24.432,1.158,1.158,0,0,1,.095-1.1.99.99,0,0,1,.814-.466,1.033,1.033,0,0,1,.711.313c3.755,3.573,7.284,7.287,10.242,10.45.039-2.172-.107-4.389-.247-6.534a56.109,56.109,0,0,1-.09-9.328c.2-1.924.321-3.95.44-5.909.285-4.664.579-9.486,1.87-13.83a11.832,11.832,0,0,1,11.225-8.475,11.287,11.287,0,0,1,2.989.4,12.412,12.412,0,0,1,7.408,6.287,9.772,9.772,0,0,1,.661,7.928c-1.751,4.652-4.5,8.875-7.168,12.959l0,.006c-.985,1.511-2,3.073-2.958,4.636a62.452,62.452,0,0,1-5.835,7.661,65.748,65.748,0,0,0-5.522,7.165l3.666,3.952c1.624,1.745,3.552,3.806,5.534,5.858l6.395,6.624c4.746,4.905,9.866,10.146,15.144,15.237,9.052,8.731,16.169,15.337,23.076,21.42,8.562,7.54,16.555,14.032,24.438,19.846,3.51,2.588,7.6,5.579,11.757,8.332l1.492.988c2.434,1.594,5.29,3.3,8.371,3.3.252,0,.506-.012.755-.034,6.872-.631,13.219-6.987,18.319-12.1.9-.9,1.741-1.743,2.56-2.532l.29-.277a310.9,310.9,0,0,0,37.546-42.689c2.376-3.286,4.726-6.685,7.182-10.39-4.343-5.073-4.337-14.085-4.332-21.326v-.014c0-1.718,0-3.341-.054-4.794-.2-5.023-.223-10.128-.248-15.065l-.005-.993-.014-1.08-.008-.388c-.067-3.347-.13-6.508,2.035-9.254a.387.387,0,0,1,.314-.133.566.566,0,0,1,.255.06c2.835,1.485,3.855,3.869,5.036,6.63l.044.1q.131.305.265.616l.137.315c1.243,2.827,2.464,5.721,3.646,8.52l0,.011.041.1q.495,1.172.99,2.344c1.407,3.321,2.732,6.734,4.012,10.035l.607,1.564c.629,1.616,1.292,3.394,2.027,5.436.383,1.116.787,2.253,1.236,3.475l.1.089A10.377,10.377,0,0,1,570.4,75.7a7.256,7.256,0,0,1,3.726,4.729c1.329,4.774-1.228,8.707-3.7,12.51l-.366.563a314.442,314.442,0,0,1-35.638,45.528c-6.512,6.865-13.483,13.545-20.719,19.855l-1.261,1.092a75.241,75.241,0,0,1-10.264,7.669,32.476,32.476,0,0,1-11.894,4.471A24.615,24.615,0,0,1,486.637,172.392Z" transform="translate(2 -21.143)"></path></g><g transform="translate(225 0)"><g><g id="head_Dreads_2" data-name="head/Dreads 2"><path id="_Skin" data-name="âœ‹ Skin" d="M185.625,0c56.781,0,115.511,44.012,136.324,72.1C346.015,104.572,365,260.469,356.094,313.368S302.949,423.924,226.15,423.924s-123.536-9.459-125.41-23.2-50.654-90.219-50.654-90.219S.2,296.473,0,262.954,26.736,217.24,26.736,217.24s-9.6-132.279,14.58-166.718S128.844,0,185.625,0Z" transform="translate(56.417 75.26)" fill="#d08b5b"></path><path id="_Ink" data-name="ðŸ– Ink" d="M318.621,519.105a165.932,165.932,0,0,1-28.257-2.44A87.867,87.867,0,0,1,279,513.925a73.405,73.405,0,0,1-11.027-4.444,49.661,49.661,0,0,1-18.057-14.736.969.969,0,0,1-.126-1.048,1.483,1.483,0,0,1,1.281-.731,1.223,1.223,0,0,1,.514.108,141.952,141.952,0,0,0,30.844,10.109,159.742,159.742,0,0,0,32.282,3.236,176.2,176.2,0,0,0,23.324-1.574,135.132,135.132,0,0,0,39.631-11.479c8-3.758,15.182-8.906,22.125-13.884,2.206-1.582,4.486-3.216,6.765-4.787a80.57,80.57,0,0,1,5.82-7.1l3.309-3.47c2.365-2.492,4.863-5.2,7.11-8.1a111.1,111.1,0,0,0,9.259-13.988,101.087,101.087,0,0,0,6.941-15.262c6.79-19.11,5.506-39.775,4.264-59.759l0-.025c-.083-1.339-.169-2.724-.251-4.081l-.111-1.876c-1.313-22.641-3.484-45.533-6.45-68.04-1.225-9.3-2.613-18.77-4.127-28.163a105.859,105.859,0,0,0-7.9-11.314,14.7,14.7,0,0,1,0,6.909,16.232,16.232,0,0,1-2.927,6.284,9.823,9.823,0,0,1-7.685,4.2,9.987,9.987,0,0,1-5.177-1.568,30.333,30.333,0,0,1-7.2-9.262,88.055,88.055,0,0,1-4.508-10.768c-2.2-5.977-4.479-12.156-8.779-17.527-2.33-3.6-7.978-8.18-16.787-13.613a306.017,306.017,0,0,0-28.767-15.287c-20.669-9.781-43.125-18.414-53.4-20.526a35.582,35.582,0,0,0,4.471,4.978c2.628,2.583,5.345,5.255,6.218,8.775a26.571,26.571,0,0,1,7.01,8.824,9.175,9.175,0,0,1,.5,6.947,8.312,8.312,0,0,1-4.077,4.349,15.219,15.219,0,0,1-7.032,1.565,24.258,24.258,0,0,1-13.57-4.483,29.459,29.459,0,0,1-6.339-5.992,35.946,35.946,0,0,1-5.063-8.835A158.42,158.42,0,0,0,275,229.7a51.288,51.288,0,0,1,2.473,13.7c.2,4.257-.077,10.058-2.506,13.519a6.212,6.212,0,0,1-5.33,2.81,13.316,13.316,0,0,1-5.64-1.53,11.534,11.534,0,0,1-3.195.468,10.263,10.263,0,0,1-4.561-1.064,12.156,12.156,0,0,1-3.694-2.851,16.883,16.883,0,0,1-3.992-9.016c-2.433,7.312-2.924,16.572-3.4,25.527a156.24,156.24,0,0,1-1.746,18.84,44.274,44.274,0,0,1-2.2,8.174,23.8,23.8,0,0,1-3.8,6.685,5.246,5.246,0,0,1-3.834,1.684,6.555,6.555,0,0,1-3.723-1.262,7.861,7.861,0,0,1-2.625-3.2,11.026,11.026,0,0,1-7.784-7.072c-1.337-3.329-1.721-7.292-2.093-11.125-.152-1.569-.3-3.051-.5-4.465-2.659,9.7-5.508,18.514-8.262,27.041-3.364,10.412-6.541,20.246-9.035,30.617a173.633,173.633,0,0,0-4.85,33.553,9.321,9.321,0,0,1,1.77,4.368,6.506,6.506,0,0,1-.706,3.726c-1.471,2.832-4.967,4.735-8.7,4.735a9.474,9.474,0,0,1-7.459-3.429,22.926,22.926,0,0,1-3.527-8.08,32.474,32.474,0,0,1-.691-8.786c.269-6.017,1.779-12.269,3.24-18.316.979-4.051,1.9-7.876,2.448-11.539a10.323,10.323,0,0,1-7.4-3.851c-1.066,4.179-.621,9.531-.229,14.253v.007q.064.771.124,1.516c-1.024,4-2.587,7.056-4.646,9.078a9.033,9.033,0,0,1-6.5,2.752,11.483,11.483,0,0,1-5.184-1.33,17.722,17.722,0,0,1-4.8-3.65,23.792,23.792,0,0,1-6.382-17.312c-.986,5.375-1.719,10.775-2.176,16.048a47.313,47.313,0,0,1,9.481,17.351,4.77,4.77,0,0,1-.676,4.372,6.493,6.493,0,0,1-5.094,2.407,5.957,5.957,0,0,1-1.093-.1,11.556,11.556,0,0,1-3.69,5.553,9.354,9.354,0,0,1-5.887,2.3,7.829,7.829,0,0,1-5.955-2.9,20.805,20.805,0,0,1-5.2-9.612,57.2,57.2,0,0,1-1.506-11.392,4.046,4.046,0,0,1-1.123-3.082,7.1,7.1,0,0,1,.818-3.02c-.106-1.85-.226-3.331-.378-4.66a51.355,51.355,0,0,0-2.256,14.621c-.118,4.928.244,9.971.6,14.848.238,3.314.485,6.739.576,10.087,7.393,4.163,15.855,5.917,24.039,7.614l1.216.252a3.283,3.283,0,0,1,2.416,2.537,3.433,3.433,0,0,1-.956,3.483,137.84,137.84,0,0,1,12.107,14.243l.017.022c.629.812,1.28,1.652,1.916,2.465,6.558,8.38,12.7,17.055,16.751,22.852l3.168,4.54.4.576c4.687,6.673,10,14.236,13.533,22.271,4.108,9.343,4.888,17.335,2.384,24.431a3.2,3.2,0,0,1-2.983,2.1,2.6,2.6,0,0,1-2.328-1.413,114.857,114.857,0,0,1-5.6-12.687c-1.476-3.748-3-7.623-4.861-11.282-3.779-7.424-8.529-14.427-13.123-21.2l-.408-.6-2.768-4.1c-4.162-6.186-9.011-13.5-13.411-20.838l-2.948-4.887a109.5,109.5,0,0,1-7.552-14.342,29.268,29.268,0,0,1-6.85.8,37.631,37.631,0,0,1-15-3.336l-.089.485-.177.871a7.567,7.567,0,0,1-7.12,5.395,5.571,5.571,0,0,1-3.352-1.079,31.249,31.249,0,0,1-9.654-12.12,45.982,45.982,0,0,1-3.726-15.078,59.366,59.366,0,0,1-4.524-9.436,18.343,18.343,0,0,1-2.665,8.75,8.961,8.961,0,0,1-7.854,3.925c-.117,0-.232,0-.351,0-4.642-.381-8.093-2.164-10.259-5.3-3.186-4.613-3.5-12.141-.9-21.2a14.4,14.4,0,0,1-4.176.679,9.2,9.2,0,0,1-4.67-1.2,10.073,10.073,0,0,1-3.323-3.222c-1.971-2.974-3.072-7.407-3.1-12.482a35.075,35.075,0,0,1,2.479-13.362,8.361,8.361,0,0,1-4.592-3.173l-.827,1.451c-3.012,5.215-6.476,10.426-11.388,13.22a10.556,10.556,0,0,1-5.214,1.35,11.6,11.6,0,0,1-8.289-3.5,9.558,9.558,0,0,1-2.659-7.247c1.043-9.942,7.606-18.177,13.953-26.142,2.526-3.169,4.911-6.163,6.979-9.268a11.736,11.736,0,0,1-1.634.113,12.979,12.979,0,0,1-2.381-.225,13.928,13.928,0,0,1-6.724,1.978,9.209,9.209,0,0,1-4.966-1.421,11.854,11.854,0,0,1-3.648-3.733,20.159,20.159,0,0,1-2.886-9.333,20.453,20.453,0,0,1,1.645-9.825c3.245-8.592,8.986-16.969,18.066-26.364l-2.163,1.292a39.422,39.422,0,0,1-5.14,2.638,14.4,14.4,0,0,1-5.39,1.183,9.824,9.824,0,0,1-2.016-.206c-5.72,3.758-11.13,5.745-15.644,5.745a10.782,10.782,0,0,1-6.809-2.114A8.243,8.243,0,0,1,3.449,247.9a11.4,11.4,0,0,1,.561-5.369,17.438,17.438,0,0,1,3.324-5.686c3.512-4.124,8.976-7.414,15.8-9.515l-.01-.145a10.533,10.533,0,0,1-2.075-12.694,17.807,17.807,0,0,1-5.914.972,19.614,19.614,0,0,1-8.643-1.993A12.049,12.049,0,0,1,.82,208.095c-1.145-2.4-1.664-6.31,2.365-11.274,7.459-7.024,15.254-11.887,23.168-14.452a26.912,26.912,0,0,1-.394-7l-.518.071c-.77.111-1.542.246-2.36.389a34.654,34.654,0,0,1-5.827.688c-3.533,0-5.9-1.257-7.444-3.955a9.112,9.112,0,0,1-1.049-5.342,7.059,7.059,0,0,1,2.347-4.846,100.356,100.356,0,0,1,15.5-10.613A66.514,66.514,0,0,1,43.841,145.1c.47-1.556.923-2.983,1.385-4.36a13.887,13.887,0,0,1-4.671-.949,17.68,17.68,0,0,1-4.328-2.4,15.159,15.159,0,0,1-5.56-7.534,8.517,8.517,0,0,1,.17-5.548,10.894,10.894,0,0,1,4.418-5.061,82.853,82.853,0,0,1,15.134-6.071,58.221,58.221,0,0,1,16.031-2.29c.5,0,1,.007,1.5.02a11.454,11.454,0,0,1-3.161-5.74,12.8,12.8,0,0,1,.27-6.317,12.37,12.37,0,0,1,9.188-8.8,12.954,12.954,0,0,1-1.367-5.9,9.365,9.365,0,0,1,1.477-4.778,14.01,14.01,0,0,1,6.52-5.135,23.832,23.832,0,0,1,9.077-1.776,22.606,22.606,0,0,1,4.04.355,14.679,14.679,0,0,1,1.882-8.252,10.38,10.38,0,0,1,6.54-5.085c-.795-4.656-.136-8.276,1.959-10.758a10.3,10.3,0,0,1,4.752-3.057,20.358,20.358,0,0,1,6.354-.9,45.914,45.914,0,0,1,14.619,2.79,11.279,11.279,0,0,1-.811-9.74,13.039,13.039,0,0,1,7.914-7.643,15.967,15.967,0,0,1,3.52-.391c3.786,0,7.828,1.3,12.358,3.983a96.9,96.9,0,0,1,11.241,8.226c1.4,1.13,2.719,2.2,4.009,3.187a12.418,12.418,0,0,1-.41-9.8,12.013,12.013,0,0,1,7.026-6.393,11.668,11.668,0,0,1,4.271-.79,19.328,19.328,0,0,1,8.069,2.073,70.344,70.344,0,0,1,7.477,4.243c.491.307.955.6,1.424.885a13.171,13.171,0,0,1,5.787-4.08,20.246,20.246,0,0,1,7.054-1.2c.394,0,.794.01,1.189.03a10.221,10.221,0,0,1,2.355-3.892,9.031,9.031,0,0,1,2.832-6.452A14.84,14.84,0,0,1,225.561,15.7a11.648,11.648,0,0,1,5.079,1.092A9.5,9.5,0,0,1,234.6,20.3,34.2,34.2,0,0,1,241.758,3.8,10.131,10.131,0,0,1,249.623,0a11.746,11.746,0,0,1,4.95,1.139,14.466,14.466,0,0,1,4.259,3.04,13.692,13.692,0,0,1,2.775,4.12,11.283,11.283,0,0,1,.951,4.834,12.041,12.041,0,0,1,4.639,2.609,12.11,12.11,0,0,1,3.393,4.774c.367-.024.735-.036,1.092-.036a15.225,15.225,0,0,1,7.659,2l.575-.708a61.664,61.664,0,0,1,11.565-11.252c4.556-3.233,9.017-4.872,13.259-4.872a18.062,18.062,0,0,1,10.017,3.189,9.938,9.938,0,0,1,3.76,4.45,10.208,10.208,0,0,1,.547,5.821l-.059.292.285-1.278a1.681,1.681,0,0,1,.095-.336,16.7,16.7,0,0,1-.4,2.066l-.021.059a9.238,9.238,0,0,1-.613,1.248c-.131.233-.254.452-.375.708a24.725,24.725,0,0,1,6.782-3.392,22.647,22.647,0,0,1,6.911-1.118,15.936,15.936,0,0,1,6.5,1.278,9.237,9.237,0,0,1,4.355,3.787c1.4,2.429,2.209,6.78-1.836,13.714L345,34.454a150.149,150.149,0,0,1,14.366-4.9A56.881,56.881,0,0,1,374.3,27.289a32.393,32.393,0,0,1,9.241,1.266,26.371,26.371,0,0,1,8.489,4.309,6.853,6.853,0,0,1,2.182,6.781,11.315,11.315,0,0,1-3.4,5.4,14.837,14.837,0,0,1-5.64,3.339l1.064-.178,1.577-.271c5.193-.9,12.3-2.122,19.008-2.122,5.163,0,9.374.746,12.514,2.216a13.2,13.2,0,0,1,4.5,3.329,12.27,12.27,0,0,1,2.6,5.306,8.812,8.812,0,0,1-1.328,7.18,14.437,14.437,0,0,1-5.8,4.687h.326A69.135,69.135,0,0,1,434.1,69.958a47.844,47.844,0,0,1,13.474,5.012,8.755,8.755,0,0,1,3.328,4.086,6.647,6.647,0,0,1,.058,4.319,9.172,9.172,0,0,1-3.587,4.643,11.042,11.042,0,0,1-6.225,1.937c-.179,0-.361,0-.54-.013a11.8,11.8,0,0,1,2.434,6.071,9.072,9.072,0,0,1-1.465,6.268,48.2,48.2,0,0,1,13.443,5.461l1.132.146c.525.065,1.066.131,1.588.193l.017,0a52.876,52.876,0,0,1,11.63,2.283,15.927,15.927,0,0,1,8.94,7.254c1.616,4.252,1.552,7.687-.188,10.21-1.977,2.866-6.123,4.445-11.673,4.445a31.975,31.975,0,0,1-15.422-3.962,10.338,10.338,0,0,1,1.306,3.2l3.3.928.413.115c12.3,3.421,26.25,7.3,34.188,17.674a8.876,8.876,0,0,1,1.209,5,11.355,11.355,0,0,1-1.45,5.073,9.759,9.759,0,0,1-2.95,3.3,7.249,7.249,0,0,1-4.145,1.309,7.758,7.758,0,0,1-1.8-.216,22.436,22.436,0,0,1,10.2,9.083,14.358,14.358,0,0,1,1.741,10.07,9.286,9.286,0,0,1-3,5.128,9,9,0,0,1-5.909,2.031,14.743,14.743,0,0,1-4.866-.9,25.9,25.9,0,0,1-5.7-2.935A7.509,7.509,0,0,1,470.26,189l4.3,2.332c5.694,3.117,11.554,6.61,15.844,11.025a22.841,22.841,0,0,1,5.034,7.5,17.19,17.19,0,0,1,.9,9.224,6.82,6.82,0,0,1-3.271,4.134,10.6,10.6,0,0,1-5.213,1.185,19.408,19.408,0,0,1-8.722-2.2,227.1,227.1,0,0,1,24.8,24.767l2.1,2.5a69.453,69.453,0,0,1,6.977,9.569,25.67,25.67,0,0,1,2.433,5.459,11.984,11.984,0,0,1,.463,5.311,9.462,9.462,0,0,1-4.826,6.559,11.978,11.978,0,0,1-5.421,1.421c-3.065,0-6.025-1.45-9.05-4.435a65.633,65.633,0,0,1-7.345-9.43c-2.283-3.318-4.438-6.451-6.7-8.539a12.274,12.274,0,0,1-5.224,16.228,12.09,12.09,0,0,1-5.753,1.5,10.773,10.773,0,0,1-5.883-1.736,13.464,13.464,0,0,1-4.726-5.636,11.969,11.969,0,0,1-2.061.18,11.838,11.838,0,0,1-1.574-.105c2.406,2.55,6.251,10.628,8.945,18.788a73.155,73.155,0,0,1,3.042,12.343c.581,4.146.423,7.3-.468,9.363a4.342,4.342,0,0,1-4.268,2.853,12.5,12.5,0,0,1-5.129-1.415,85.03,85.03,0,0,1-8.97-11.456c3.329,25.612,5.827,51.863,7.427,78.024l.567,9.447c.586,9.909,1.021,19.615-.083,29.407a95.853,95.853,0,0,1-3.366,16.571,106.52,106.52,0,0,1-6.125,15.769,128.552,128.552,0,0,1-17.169,26.39c-3.476,4.18-7.35,8.492-12.12,11.709-3.743,2.522-8.1,4.179-12.321,5.781a69.733,69.733,0,0,1-11.462,9.087,116.418,116.418,0,0,1-12.767,7.054,126.974,126.974,0,0,1-22.006,8.051,167.116,167.116,0,0,1-23.034,4.369A163.276,163.276,0,0,1,318.621,519.105ZM446.613,178.239h0l.189,1.035c.173.153.34.314.5.468l.2.191c.707.167,1.415.35,2.1.542-1.032-.836-2.093-1.6-2.994-2.237ZM459.253,153l-.222.308c-.034.045-.074.1-.117.148.688.261,1.292.5,1.846.719l.918.376.324.142C461.014,154.074,460.115,153.519,459.253,153ZM310.788,26.21v0c-.3.23-.685.486-.886.617l.25-.021c.193-.017.391-.034.589-.045.355-.265.729-.541,1.112-.821l-.552.137-.5.119-.051.012a.6.6,0,0,0-.109.031Z" transform="translate(-38 -13.959)"></path></g></g><g transform="translate(159 186)"><g><path d="M41.4494 4.01602L43.4942 3.23283C50.5004 0.586187 60.1193 -2.47302 65.8154 3.22402C69.3294 6.73702 69.9984 11.912 67.4904 16.199C64.4514 21.392 59.0004 21.52 53.7364 22.285C47.7494 23.155 41.6604 24.809 36.0864 27.167C29.8074 29.824 23.9804 33.136 18.2714 36.835C12.8454 40.35 7.43842 46.095 0.943418 47.178C0.678418 47.222 0.377418 47.108 0.308418 46.817C-1.16658 40.467 2.93242 34.218 6.59042 29.264C11.0164 23.266 16.3794 18.343 22.3734 13.929C28.1584 9.66802 34.7684 6.58902 41.4494 4.01602ZM169.341 26.4832L168.717 26.5926C162.076 27.8106 155.56 29.3316 148.826 30.0316C141.935 30.7466 135 31.2656 128.076 31.4636C126.406 31.5116 124.603 31.4546 122.749 31.396C117.994 31.2457 112.907 31.0848 108.891 32.6576C107.515 33.1966 106.852 34.8626 108.002 36.0266C111.201 39.2657 116.243 40.58 120.647 41.838L123.074 42.5416C128.35 44.0237 133.815 44.9635 139.231 45.7316C151.069 47.4096 164.116 47.7756 175.895 45.5596C179.384 44.9036 181.788 41.7226 182.863 38.5916C184.028 35.1976 183.086 31.8706 180.642 29.3036C177.44 25.9388 173.59 25.7759 169.341 26.4832ZM38.072 56.8927C42.707 49.9387 53.287 50.9627 55.84 59.2147C56.6948 61.9774 56.2916 64.5675 55.8824 67.197C55.6295 68.8218 55.3742 70.4617 55.412 72.1667C55.495 75.9377 55.248 80.1397 54.092 83.7917C51.456 92.1197 43.966 98.0017 35.105 97.7577C26.273 97.5147 18.494 91.9247 14.795 84.0517C11.083 76.1487 11.869 67.9697 14.579 59.9337C14.709 59.5477 15.215 59.3607 15.52 59.6857C18.7234 63.0899 21.0684 66.6836 23.4948 70.4959L25.9814 74.4029C27.8818 77.3449 30.6436 81.1033 34.192 80.8672L34.7244 80.8147C35.1533 80.7778 35.3671 80.7941 35.5343 80.7136C35.7515 80.609 35.8902 80.3412 36.32 79.5817C36.672 78.9597 36.608 77.8037 36.778 77.0697L36.837 76.8217L36.8049 76.6881C36.7298 76.3326 36.6553 75.6628 36.5948 74.5004L36.582 74.2437C36.5312 73.1692 36.4304 72.0342 36.3268 70.8665C35.9058 66.1255 35.437 60.846 38.072 56.8927ZM171.394 57.2342C167.237 50.6532 154.733 52.6282 155.564 61.5222C156.092 67.1692 159.584 70.7392 160.987 75.9872C162.075 80.0522 160.446 82.3812 156.182 81.8332C151.725 81.2602 148.784 77.5842 146.845 73.8122C144.965 70.1552 144.45 65.0352 141.288 62.2282C141.011 61.9822 140.607 62.0232 140.405 62.3422C137.059 67.6052 139.798 77.4572 142.553 82.5032C145.643 88.1582 151.505 91.8832 157.93 92.3772C164.658 92.8932 170.895 89.6352 173.763 83.4722C175.584 79.5592 175.389 75.1952 174.897 71.0002L174.673 69.0616C174.193 64.9772 173.562 60.6661 171.394 57.2342ZM128.749 115.04C136.872 103.66 125.366 92.9573 117.815 88.3673C115.836 86.9473 117.407 82.2435 121.634 82.9705C160.031 89.5675 140.136 155.708 91.1125 119.413C85.276 114.705 92.344 104.334 98.6347 108.366C98.9537 108.611 99.2882 108.869 99.6369 109.139C106.705 114.603 119.636 124.601 128.749 115.04ZM113.944 165.352C115.478 162.685 119.01 160.214 122.242 160.593C136.721 162.291 136.696 179.845 131.105 190.093C126.148 199.18 115.889 204.514 105.621 203.735C94.8343 202.916 85.6433 196.574 81.5983 186.483C78.9233 179.808 77.6873 167.485 84.8033 163C84.9353 162.916 85.1533 162.937 85.2583 163.058C88.6703 167.027 88.8043 172.986 91.7913 177.405C94.5693 181.515 98.8853 184.909 103.941 185.433C107.717 185.825 111.537 184.463 113.014 181.073C113.813 179.239 113.722 178.244 113.422 176.982L113.149 175.885C112.203 172.044 111.779 169.119 113.944 165.352Z" transform="translate(52.99948 55.99989)" fill-rule="evenodd" stroke="none"></path></g></g><g transform="translate(123 338)"></g><g transform="translate(47 241)"></g></g></g></svg>