<?xml version="1.0" standalone="no"?>
<svg viewBox="-350 -150 1500 1500" style="width: 487.5px; height: 487.5px; justify-content: center; align-self: center; transform: scale(1, 1);" xmlns="http://www.w3.org/2000/svg"><g transform="rotate(0 419.05737113952637 632.9460105895996)"><g id="body_Button_Shirt_2" data-name="body/Button Shirt 2" transform="translate(0 459)"><path id="_Skin" data-name="âœ‹ Skin" d="M385.52,772.9c-82.277,0-164.112-4.044-243.319-12.021l-.035-.157-4.206-.508c-11.969-1.492-24.205-2.668-36.038-3.8-31.215-3-63.495-6.1-93.6-15.316L3,739.467,2.479,740.8C1.7,740.394.874,739.973,0,739.569c4.737-77.363,12.639-153.295,19.775-217.582l.293-2.632-1.747-1.989C8.232,505.877,4.515,496.25,6.971,487.953,27.09,445.96,31.355,392.386,35.48,340.569c8.551-107.4,16.627-208.835,156.108-213.226l.223-.01,1.471-.1c29.087-1.993,59.164-4.055,86.032-17.428l3.131-1.557.186-3.492c.226-4.214,5.414-9.226,9.582-13.252,1.435-1.386,2.789-2.695,4.007-4.006l.255-.275.219-.3c6.288-8.738,13.673-13.953,19.755-13.953,8.858,0,13.15,11.117,14.92,17.744l2.791,10.447,7.387-7.9C358.9,74.705,367.209,54.3,366.277,32.544l.63-.2-.808-5.2c-1.525-9.021-.511-15.713,3.017-19.887C373.246,2.376,381.345,0,393.876,0c8.28,0,17.29,1.044,25.24,1.965,2.6.3,5.1.591,7.47.834C442.5,4.475,458.769,7.491,474.5,10.407l2.208.409-1.494,4.069,3.822,2.642c5.093,3.521,8.886,10.584,10.407,19.377l.068.4.122.386c2.262,7.17,3.12,15.177,4.029,23.654,1.528,14.263,3.107,29.01,11.645,41.706l5.13,7.627,4.918-7.766c2.4-3.789,5.616-5.632,9.834-5.632,11.378,0,25.274,12.582,27.743,22.334l.793,3.132,3.051,1.061c20.951,7.3,38.214,12.619,53.445,17.316,38.242,11.793,57.437,17.713,69.754,35.064,12.671,17.849,19.083,49,29.75,110.986C721.4,354.338,729.2,423.377,736.738,490.143,746.209,574,756,660.686,773.576,744.774a15.636,15.636,0,0,0-2.782,3.754c-7.758.686-15.648,1.307-23.323,1.911-12.774,1.006-25.983,2.046-38.89,3.4l-2.864.3-.635.988c-1.178.1-2.339.215-3.48.33-1.82.183-3.575.359-5.29.459l-.519-1.038-4.164.467A2752.65,2752.65,0,0,1,385.52,772.9" transform="translate(35.999 -32)" fill="#d08b5b"></path><path id="_Top" data-name="ðŸ‘• Top" d="M316.449,0c8.858,0,13.15,11.117,14.92,17.744l2.791,10.447,4.311-4.61-7.846,13.727L391.7,93.365l2.339,1.647q37.441,26.226,50.98,26.226,13.958,0,83.086-68.384L503.222,37.308l2.243-6.991,4.973,7.392,4.918-7.766c2.4-3.789,5.616-5.632,9.834-5.632,11.378,0,25.274,12.582,27.743,22.334l.793,3.132,5.547,1.927c16.527,5.712,30.736,10.2,43.475,14.142l16.292,5.035c32.451,10.087,49.6,16.375,60.935,32.338,12.418,17.492,18.824,47.762,29.115,107.3l.635,3.682C720.867,278.32,728.48,344.14,735.708,408.06l2.812,24.874c8.944,78.93,18.58,160.043,35.057,238.876a15.636,15.636,0,0,0-2.782,3.754c-5.172.457-10.4.886-15.589,1.3l-14.74,1.165c-10.561.841-21.323,1.738-31.884,2.845l-2.864.3-.635.988c-.785.066-1.563.14-2.332.215l-1.148.115c-1.82.183-3.575.359-5.29.459l-.519-1.038-4.164.467A2752.65,2752.65,0,0,1,385.52,699.937c-82.277,0-164.112-4.044-243.319-12.021l-.035-.157-4.206-.508c-9.575-1.194-19.321-2.185-28.9-3.116L95.218,682.8c-29.111-2.828-58.942-6.114-86.9-14.669L3,666.5l-.521,1.333C1.7,667.429.874,667.008,0,666.6l.324-5.213C5.092,585.834,12.8,511.864,19.775,449.022l.293-2.632L18.321,444.4C8.232,432.912,4.515,423.285,6.971,414.988,27.09,372.995,31.355,319.421,35.48,267.6l.514-6.436C44.321,157.26,54.683,60.672,187.443,54.539l4.368-.171,6.613-.457c27.472-1.92,55.6-4.487,80.89-17.073l3.131-1.557.186-3.492c.2-3.756,4.345-8.146,8.194-11.907l2.6-2.516c.989-.963,1.928-1.9,2.8-2.835l.255-.275.219-.3C302.982,5.215,310.367,0,316.449,0Z" transform="translate(35.999 40.965)" fill="#fff"></path><path id="_Ink" data-name="ðŸ– Ink" d="M153.962,768.892c-1.776,0-3.719-1.069-5.773-3.177a35.187,35.187,0,0,1-3.51-8.069,47.728,47.728,0,0,1-1.668-8.536,129.056,129.056,0,0,1-.27-17.752c.128-4.189.26-8.52.085-12.655.372-22.1,1.23-43.795,2.552-64.47,1.408-22.015,3.39-43.66,5.892-64.332,2.641-21.824,5.95-43.292,9.833-63.807,4.074-21.522,8.91-42.683,14.375-62.9l.928-2.873c2.511-7.721,4.609-13.754,6.295-18.6l0-.009c7.435-21.383,7.435-21.383,3.242-51.115-.508-3.6-1.083-7.684-1.719-12.326a40.485,40.485,0,0,0-.588-4.538c-.813-4.958-1.824-11.127,1.5-13.222,3.247,2.051,4.758,7.331,5.972,11.574.3,1.038.577,2.018.863,2.884l.1.3c2.193,6.4,4.181,12.966,6.028,19.145,1.683-4.545,3.3-9.245,4.874-13.79,4.418-12.8,8.986-26.035,15.571-37.9a.5.5,0,0,1,.451-.239.555.555,0,0,1,.414.17.409.409,0,0,1,.1.33c-2.067,13.721-5.968,27.4-9.74,40.637-2.5,8.768-5.085,17.835-7.108,26.818l.154.429a72.955,72.955,0,0,1,3.009,13.166c.573,4.384.829,10.21-1.2,13.073a3.992,3.992,0,0,1-3.425,1.757,10.038,10.038,0,0,1-4.4-1.292l-1.164,6.092c-5.272,27.715-9.623,52.2-13.3,74.849-4.363,26.87-7.844,51.482-10.642,75.242-6.468,54.935-9.132,104.539-8.143,151.647a47.838,47.838,0,0,1-1.222,11.123c-.772,3.429-2.2,8.049-4.638,10.58A5.135,5.135,0,0,1,153.962,768.892Zm303.2-9.4c-3.888,0-6.244-2.372-6.464-6.507a9.213,9.213,0,0,1-2.189-4.112,10.614,10.614,0,0,1-.07-4.641,10.064,10.064,0,0,1,1.765-3.974,8.477,8.477,0,0,1,3.436-2.737c0-.02.522-.238,1.258-.544l.019-.008.036-.015c.4-.168.786-.326.99-.416a9.451,9.451,0,0,1,2.679-.393,10.662,10.662,0,0,1,8.6,4.835,11.13,11.13,0,0,1,1.519,10.192,10.325,10.325,0,0,1-4.424,5.914A13.038,13.038,0,0,1,457.158,759.488Zm248.737-5.848a7.671,7.671,0,0,1-5.967-2.56c-1.818-2.125-2.443-5.394-1.808-9.455-12.156-52.64-21.386-99.332-28.216-142.743-3.893-24.741-7.089-49.024-9.5-72.177-2.578-24.742-4.36-49.15-5.3-72.545a505.64,505.64,0,0,1-3.381-54.714c-.257-18.4.143-37.139.53-55.258l0-.152c.139-6.5.282-13.225.392-19.8a348.874,348.874,0,0,1,3.116-42.324c.088-.3.235-.471.415-.471a.521.521,0,0,1,.394.256.908.908,0,0,1,.14.8c1.169,5.921.989,12.318.815,18.5-.1,3.551-.2,7.224-.049,10.758a33.918,33.918,0,0,1,4.687-7.909,1.766,1.766,0,0,1,1.391-.731,2.329,2.329,0,0,1,1.973,1.4,2.161,2.161,0,0,1-.314,2.384,28.759,28.759,0,0,0-4.962,8.635,43.041,43.041,0,0,0-2.266,9.636c1.628,34.544,4.077,69.387,7.278,103.561,3.229,34.476,7.31,69.184,12.128,103.16,4.864,34.3,10.61,68.771,17.077,102.449,6.533,34.021,13.977,68.146,22.125,101.428a15.279,15.279,0,0,1,1.073,7.066,11.75,11.75,0,0,1-2.011,5.509A12.255,12.255,0,0,1,705.895,753.64Zm-293.909-.9a8.374,8.374,0,0,1-6.048-2.845,12.365,12.365,0,0,1-2.64-4.5,16.136,16.136,0,0,1-.76-6.187c-.186-47.875.211-91.835,1.215-134.391,1.1-46.6,2.972-91.819,5.566-134.4,2.811-46.127,6.59-91.2,11.234-133.981,2.443-22.505,5.187-44.946,8.154-66.7,3.056-22.4,6.443-44.753,10.065-66.435-11.2,14.122-22.595,28.49-33.61,42.385l-.429.541c-15.042,18.975-30.6,38.6-45.93,57.909a3.707,3.707,0,0,1-3,1.445,5.51,5.51,0,0,1-4.369-2.371l-.1-.155.656,1.76a16.881,16.881,0,0,1-3.5-1.758c-.3-.181-.636-.385-.963-.574C337.905,278.861,330.6,254,323.535,229.962c-2.781-9.464-5.657-19.249-8.634-28.825-3.018-11.4-6.614-22.921-10.091-34.062l0-.007c-3.33-10.669-6.773-21.7-9.713-32.638a280.307,280.307,0,0,1-7.03-33.144l-.221-.092a109.849,109.849,0,0,1-20.7,7.965,90.348,90.348,0,0,1-21.888,3.179c-14.983,3.859-30.628,5.886-45.758,7.846-1.611.209-3.436.445-5.193.676a168.21,168.21,0,0,0-21.6,2.288,141.84,141.84,0,0,0-19.425,4.787,126.342,126.342,0,0,0-17.357,7.088,119.906,119.906,0,0,0-15.4,9.19,121.443,121.443,0,0,0-13.54,11.093A130.393,130.393,0,0,0,95.2,168.1a157.035,157.035,0,0,0-18.754,29.911A216.8,216.8,0,0,0,63.42,232.358a303.228,303.228,0,0,0-8.136,37.184c-3.623,23.085-5.3,48.833-5,76.529l-.211,4.762c-.116,2.724-.229,5.5-.338,8.183v.005c-.54,13.309-1.1,27.072-2.345,40.543a257.42,257.42,0,0,1-6.532,39.943c-.558,1.118-1.356,3.462-2.366,6.43l0,0A149.092,149.092,0,0,1,32.5,461.528a30.131,30.131,0,0,1-3.724,6.161c-1.382,1.649-2.732,2.485-4.014,2.485-1.325,0-2.617-.892-3.84-2.653-3.445,4.6-4.76,8.278-4.139,11.565a10.336,10.336,0,0,0,2.762,5.094,28.921,28.921,0,0,0,6.079,4.755A120.394,120.394,0,0,1,38.063,501.34a121.382,121.382,0,0,1,11.075,14.9,101.543,101.543,0,0,1,8.508,16.644,76.429,76.429,0,0,1,4.735,17.651,4.93,4.93,0,0,1-1.255,3.876,4.874,4.874,0,0,1-3.536,1.779,3.478,3.478,0,0,1-3.178-2.294l-1.122-2.447c-5.176-11.235-8.272-17.123-10.392-21a156.963,156.963,0,0,0-12.5-19.594,4.69,4.69,0,0,1-1.656,1.668c-1.865,48.9-5.37,98.545-8.76,146.552-.7,9.983-1.434,20.306-2.139,30.491-.56,2.122-.711,6.985-.9,13.141-.238,7.644-.533,17.156-1.79,24.681a32.221,32.221,0,0,1-2.72,9.384c-1.3,2.482-2.927,3.741-4.845,3.742a8.334,8.334,0,0,1-4.87-2.1l-.525-.423C-.978,731.29-.041,723.524.865,716.014c.214-1.771.415-3.445.567-5.117l2.4-28.276c1.268-14.1,2.5-28.406,3.686-42.24,3.689-42.937,7.5-87.335,12.927-130.823l-.563-.647c-4.969-5.758-8.424-11.078-10.563-16.266a31.577,31.577,0,0,1-2.345-9.169,24.039,24.039,0,0,1,1.015-9.493,18.467,18.467,0,0,1,3.447-6.627,53.294,53.294,0,0,1,5.1-5.365,55.644,55.644,0,0,0,5.107-5.353c2.581-13.613,4.676-29.288,6.4-47.92,1.545-16.649,2.672-34.2,3.763-51.178,1.879-29.247,3.821-59.486,7.994-87.877a370.466,370.466,0,0,1,8.222-41.17c1.782-6.727,3.765-13.2,5.9-19.245,2.238-6.348,4.716-12.44,7.364-18.105a163.107,163.107,0,0,1,9.04-16.78,139.056,139.056,0,0,1,10.924-15.269,126.053,126.053,0,0,1,13.017-13.573,123.408,123.408,0,0,1,15.318-11.692,131.5,131.5,0,0,1,17.827-9.626,151.694,151.694,0,0,1,20.544-7.374,186.605,186.605,0,0,1,23.47-4.937,240.035,240.035,0,0,1,26.6-2.315l8.156-.564c12-.852,25.943-1.967,39.475-4.436,14.527-2.651,26.829-6.548,37.61-11.913.157-2.927,1.444-5.954,3.934-9.251a72.2,72.2,0,0,1,7.472-8c1.373-1.326,2.67-2.579,3.778-3.771a48.338,48.338,0,0,1,12.158-12.213,27.486,27.486,0,0,1,6.293-3.162,19.176,19.176,0,0,1,6.173-1.075,15.855,15.855,0,0,1,6.39,1.326,18.4,18.4,0,0,1,5.754,4.06c3.727,3.808,6.611,9.464,8.573,16.81C365.884,53.646,372.278,27.608,362.8,0a9.128,9.128,0,0,1,5.431,2.582,21.631,21.631,0,0,1,4.187,5.609,53.056,53.056,0,0,1,4.764,13.232,64.206,64.206,0,0,1,.607,21.671,80.286,80.286,0,0,1-5.995,20.96,99.525,99.525,0,0,1-11.024,19.1,106.76,106.76,0,0,1-14.48,16.084,609.465,609.465,0,0,0,48.305,39.3,545.7,545.7,0,0,0,52.288,33.835,12.724,12.724,0,0,1,9.778-4.062,20.789,20.789,0,0,1,9.9,2.65c5.472-5.177,11.055-10.408,16.454-15.466,13.923-13.044,28.316-26.53,42.063-40.26a56.165,56.165,0,0,1-17.438-17.37,69.617,69.617,0,0,1-9.006-22.281c-4.06-18.043-2.105-36.686.249-49.149l.182-.95a1.785,1.785,0,0,1,1.834-1.626,2.624,2.624,0,0,1,2.586,2.225l.134,1.492c.234,2.693.444,5.456.647,8.127,1.369,18.052,2.785,36.718,12.656,52.228a18.158,18.158,0,0,1,6.709-6.455,17.142,17.142,0,0,1,8.2-1.966,27.129,27.129,0,0,1,10.664,2.411,43.17,43.17,0,0,1,10.13,6.257,45.316,45.316,0,0,1,8.122,8.638,29.474,29.474,0,0,1,4.642,9.554c20.849,7.259,38.057,12.565,53.24,17.247,19.153,5.907,34.281,10.572,45.955,16.028a79.029,79.029,0,0,1,15.31,9.13,57.159,57.159,0,0,1,11.615,12.167c6.552,9.229,11.609,21.666,16.4,40.326,4.544,17.705,8.711,40.216,14.373,73.115,5.208,30.6,10.145,64.181,15.093,102.656,4.41,34.3,8.422,69.236,12.3,103.024l0,.019c4.809,41.88,9.781,85.186,15.556,127.655,3.109,22.864,6.2,43.663,9.436,63.586,3.637,22.363,7.375,43.069,11.426,63.3.376,4.315-3.542,7.84-7.438,8.426a7.942,7.942,0,0,1-1.046.071,7.031,7.031,0,0,1-3.5-.928,10.2,10.2,0,0,1-2.9-2.579,28.014,28.014,0,0,1-4.3-8.874c-2.3-7.154-3.567-16.075-4.688-23.946a106.135,106.135,0,0,0-2.362-13.263c-6.485-37.133-12.09-77.352-17.639-126.573-4.287-36.7-7.807-74.174-11.211-110.418-4.117-43.836-8.375-89.164-14.025-133.523-3.041-23.878-6.232-45.575-9.754-66.329-3.953-23.3-8.219-44.813-13.042-65.781a97.111,97.111,0,0,0-5.425-15.238,56.092,56.092,0,0,0-8.672-13.593,70.449,70.449,0,0,0-12.81-10.933,92.811,92.811,0,0,0-14.516-7.866c-10.121-4.449-21.2-7.591-31.908-10.63l-.009,0c-9.731-2.761-19.793-5.615-29.153-9.449a104.437,104.437,0,0,1-13.566-6.648,76.489,76.489,0,0,1-12.331-8.95c2.665,8.2,3.546,17.888,2.776,30.472-1.623,24.623-2.974,49.676-4.28,73.9v.02c-1.551,28.761-3.154,58.5-5.224,87.717a6.309,6.309,0,0,1-2.019,4.317,5.981,5.981,0,0,1-4.025,1.55,6.219,6.219,0,0,1-5.142-2.838c-9.347-13.643-18.937-27.441-28.211-40.784l-.039-.056c-17.642-25.384-35.885-51.632-53.224-77.91a22.528,22.528,0,0,1-9.789,2.362,20.111,20.111,0,0,1-3.908-.387c-2.25,2.841-3.761,7.282-4.618,13.577a170.739,170.739,0,0,0-1.085,17.826c-.174,6.512-.339,12.661-1.224,17.354l-.938,10.258c-3.886,42.743-7.159,81.778-10,119.334-3.187,42.064-5.756,81.146-7.854,119.478-2.25,41.119-3.931,81.364-5,119.616-1.138,40.9-1.619,81.191-1.429,119.749l.029,5.154c0,1.656.04,3.364.081,5.016v.012c.081,3.25.164,6.61-.078,9.841a14.4,14.4,0,0,1-3.472,7.3A7.126,7.126,0,0,1,411.986,752.741ZM331.1,240.058h0c1.293,4.674,3,10.827,4.755,16.962,4.531,15.864,10.021,31.23,14.3,42.844-6.005-18.788-12.237-38.351-19.052-59.807ZM327.549,67.537h0a9.076,9.076,0,0,0-4.75,1.447,20.67,20.67,0,0,0-4.466,3.826,96.423,96.423,0,0,0-8.5,11.683l0,0h0c-3.039,4.624-6.182,9.405-9.5,12.809,1.521,10.878,3.564,21.871,6.244,33.607,2.387,10.453,5.229,21.259,8.689,33.036,6.427,21.875,14.064,43.851,21.449,65.1,7.017,20.193,14.273,41.074,20.472,61.814,15.685-20.048,31.862-40.705,46.135-58.931l.788-1.006c11-14.041,22.366-28.56,33.539-42.835.949-1.216,1.9-2.49,2.81-3.721l.008-.011c.627-.845,1.276-1.719,1.932-2.582-8.646-5-17-10.139-24.838-15.286-8.309-5.457-16.326-11.11-23.827-16.8-7.891-5.987-15.469-12.213-22.525-18.5-7.38-6.581-14.423-13.442-20.932-20.394a5.305,5.305,0,0,1-1.106.118,7.387,7.387,0,0,1-4.448-1.782,33.738,33.738,0,0,1-3.941-3.783,30.45,30.45,0,0,0-3.275-3.184l-.387-.319a16.334,16.334,0,0,1-4.3-5.343,7.376,7.376,0,0,1-.128-6.54.847.847,0,0,1-.018-.72,1.208,1.208,0,0,1,.755-.629c1.194-1.31,2.443-2.624,3.652-3.9,1.5-1.58,3.054-3.211,4.543-4.88-4.93-8.278-9.533-12.3-14.074-12.3ZM529.01,95.272h0a35.729,35.729,0,0,0-5.941.529c2.657,3.639,6.553,5.757,10.32,7.805,3.63,1.974,7.383,4.014,9.934,7.4a4.736,4.736,0,0,1,.22,4.472,5.634,5.634,0,0,1-4.1,3.18c-9.27,8.4-18.482,17.012-27.391,25.345-13,12.161-26.444,24.735-40.267,36.806,20.339,26.332,40.379,53.518,59.759,79.808l.006.009.038.051c5.266,7.144,10.712,14.531,16.082,21.791.895-23.766,2.158-47.906,3.381-71.251l0-.028c1.153-22.021,2.345-44.792,3.224-67.2a95.96,95.96,0,0,0-.659-22.655c-1.4-8.407-4.155-14.9-8.2-19.288a20.4,20.4,0,0,0-6.936-4.959,23.764,23.764,0,0,0-9.466-1.822Zm-78.395,575.65a6.575,6.575,0,0,1-5.039-2.5,5.753,5.753,0,0,1-1.084-5.008l-.019-1.072q-.01-.414-.022-.836l0-.06a29.394,29.394,0,0,1,.519-8.113,8.116,8.116,0,0,1,5.06-5.849,9.026,9.026,0,0,1,6.222-2.8,8.265,8.265,0,0,1,7.654,6.166,11.7,11.7,0,0,1-.629,8.237,21.471,21.471,0,0,1-7.936,8.9A5.247,5.247,0,0,1,450.615,670.922Zm-.973-120.2a4.577,4.577,0,0,1-3.716-1.9,10.062,10.062,0,0,1-1.846-4.723,14.1,14.1,0,0,1,.181-5.268,12.361,12.361,0,0,1-1.644-9.762,17.308,17.308,0,0,1,3.054-6.451A19.258,19.258,0,0,1,451.1,517.7a13.25,13.25,0,0,1,4.024-.7,7.1,7.1,0,0,1,5.424,2.247,11.1,11.1,0,0,1,2.562,5.681,28.666,28.666,0,0,1-1.807,14.749,24.286,24.286,0,0,1-3.583,6.384,11.894,11.894,0,0,1-4.942,3.828A7.135,7.135,0,0,1,449.642,550.726Zm7.368-110.843a3.925,3.925,0,0,1-2.9-1.322,16.6,16.6,0,0,1-4.3-8.427,15.4,15.4,0,0,1,.992-8.836c-.57-2.412-.779-5.883,1.466-8.72a8.811,8.811,0,0,1,6.893-3.231,8.629,8.629,0,0,1,6.143,2.482,10.712,10.712,0,0,1,2.849,7.718c.4,3.8-1.551,6.84-3.439,9.782a22.472,22.472,0,0,0-3.109,6.128A4.876,4.876,0,0,1,457.01,439.882Zm4.942-131.554a12.514,12.514,0,0,1-5.944-1.732,18.055,18.055,0,0,1-5.21-4.38c-2.275-2.838-3.193-5.906-2.584-8.639.475-3.8,1.841-6.68,4.061-8.555a9.914,9.914,0,0,1,6.407-2.271c2.938,0,5.146,1.171,5.365,2.264.159.8-.68,1.326-1.412,1.631-.129.138-.268.28-.426.434a6.637,6.637,0,0,1,4.808,2.46,11,11,0,0,1,1.925,6.231,34.477,34.477,0,0,1-.438,6.867,7.614,7.614,0,0,1-2.5,4.37A6.309,6.309,0,0,1,461.953,308.329Z" transform="translate(26 -17)"></path></g><g transform="translate(225 0)"><g><g id="head_Bun" data-name="head/Bun"><path id="_Skin" data-name="âœ‹ Skin" d="M101.559.333C253.129-7.12,355.969,112.412,360.393,160.078c3.071,33.088.987,77.215.987,106.781,0,15.092,7.615,60.965-.987,82.962-19.147,48.959-40.778,87.308-100.715,87.308S108.369,406.064,76.994,366C71.265,358.681.081,305.131.081,263.038.081,173.233-6.593,5.652,101.559.333Z" transform="translate(47.928 63.534)" fill="#d08b5b"></path><path id="_Ink" data-name="ðŸ– Ink" d="M363.278,541.535a118.416,118.416,0,0,1-30.586-4.072l-1.274-.346a118.572,118.572,0,0,1-17.831-6.252,66.083,66.083,0,0,1-8.372-4.527,43.639,43.639,0,0,1-7.173-5.706A6.167,6.167,0,0,1,296.3,517a7.866,7.866,0,0,1,.566-3.981,6.216,6.216,0,0,1,5.573-4.191,6.017,6.017,0,0,1,2.222.446,104.262,104.262,0,0,1,9.835,4.735c2.9,1.522,5.889,3.095,8.975,4.385a109.278,109.278,0,0,0,41.377,8.218,104.077,104.077,0,0,0,14.143-.958,96.4,96.4,0,0,0,31.518-10.063,102.588,102.588,0,0,0,26.1-19.467,107.406,107.406,0,0,0,18.978-26.6,106.04,106.04,0,0,0,10.155-31.468c1.847-11.841,1.883-23.781,1.745-37.042l-.142-13.549c-.1-10.256-.167-22.187.266-34.007.5-13.872,1.466-28.157,2.94-43.671l.719-7.555c.778-8.061,1.752-17.42,3.471-26.466h-.008c-1.312,0-10.9-16.253-18-28.48a12.443,12.443,0,0,1-4.707-6.622,10.208,10.208,0,0,1-.269-1.742c-1.3-2.044-2.676-4.035-4.087-5.917l-.313-.14c-.24-.109-.426-.2-.539-.264a19.638,19.638,0,0,1-4.275-3.291,20.981,20.981,0,0,1-3.267-4.3,20.339,20.339,0,0,1-1.5-3.273,106.119,106.119,0,0,0-8.036-7.142c-.156-.125-.318-.247-.474-.364-.121-.091-.245-.185-.366-.279a20.186,20.186,0,0,1-9-6.239c-.946-.586-1.919-1.172-2.89-1.74a23.557,23.557,0,0,1-8.722-1.884,41.2,41.2,0,0,1-7.1-4.095,37.968,37.968,0,0,0-7.594-4.281,8.671,8.671,0,0,0-3.093-.535,23.473,23.473,0,0,0-6.245,1.2l-.07.02a23.813,23.813,0,0,1-6.446,1.218,10.509,10.509,0,0,1-1.494-.1,15.211,15.211,0,0,1-4.4-1.343,84.051,84.051,0,0,1-10.763,9.765c-5.732,4.282-11.542,6.186-18,8.066-3.293,3.125-6.939,6.077-11.274,6.511a229.578,229.578,0,0,1-32.438,21.317,11.213,11.213,0,0,1-5.4,1.5,45.854,45.854,0,0,1-11.629,5.179,9.57,9.57,0,0,1-2.665.372,10.589,10.589,0,0,1-1.277-.079l-3.586,2.921a12.766,12.766,0,0,1-7.7,3.066c-1.484,1.136-3.058,2.245-4.81,3.389a10.18,10.18,0,0,1-5.6,1.523c-.257,0-.518-.008-.777-.024a10.551,10.551,0,0,1-7.488,3.126,11.533,11.533,0,0,1-4.436-.9c-.587.343-1.12.625-1.675.886a18.65,18.65,0,0,1-2.567.988,18.957,18.957,0,0,1-13.844,6.061,18.481,18.481,0,0,1-1.846-.093,26.291,26.291,0,0,1-6.314,2.812,23.894,23.894,0,0,1-6.734.99c-.463,0-.93-.015-1.388-.043-.728,3.656-1.355,7.41-1.918,11.477l-.054,2.812c-.007.477-.007.819,0,1.045l0,.093c.247,6.251.44,12.608.627,18.756v.029c.182,5.969.369,12.141.606,18.211l.044.973c.045.882.1,1.818.166,2.808v.018c.492,7.851,1.166,18.6-3.816,23.908a9.757,9.757,0,0,1-3.505,2.388,13.35,13.35,0,0,1-4.979.872c-.164,0-.334,0-.5-.007a18.949,18.949,0,0,1-8.665-2.759,63.063,63.063,0,0,1-7.685-5.318l-.647-.5c-.36-.279-.722-.562-1.076-.841-1.219-.158-2.451-.369-3.642-.573a50.724,50.724,0,0,0-6.645-.836c-.544-.019-1.1-.029-1.655-.029A50.618,50.618,0,0,0,155,347.3c-8.518,1.979-15,5.724-19.28,11.13-.368.464-.743.988-1.18,1.65a8.708,8.708,0,0,1-1.69,3.13,32.019,32.019,0,0,0-2.035,16.846A46.942,46.942,0,0,0,147.4,410.316a48.294,48.294,0,0,0,15.891,8.626l.6.19c8.045,2.513,11.181,7.368,15.522,14.086l.138.214a143.221,143.221,0,0,0,13.99,18.08c3.083,3.432,6.621,6.741,10.043,9.94,7.606,7.111,15.47,14.464,19.417,24.029a3.054,3.054,0,0,1-.327,2.94,4.4,4.4,0,0,1-3.51,1.9,3.314,3.314,0,0,1-.894-.12,38.359,38.359,0,0,1-12.794-6.6,116.475,116.475,0,0,1-10.8-9.7l-.011-.01-.844-.823c-5.417-5.281-10.163-10.341-14.509-15.469a10.417,10.417,0,0,1-3.113.875,33.677,33.677,0,0,1-4.107.267,18.531,18.531,0,0,1-9.991-2.535c-.2.019-.412.028-.618.028a7.33,7.33,0,0,1-4.892-1.916,24.4,24.4,0,0,1-3.6-4.125c-.837.074-1.562.109-2.216.109a13.775,13.775,0,0,1-2.273-.172,5.75,5.75,0,0,1-1.985-.548,8.712,8.712,0,0,1-3.231-2.222,9.2,9.2,0,0,1-2.11-3.8,10.943,10.943,0,0,1-.314-4.354,10.334,10.334,0,0,1-1.189-.32,10.718,10.718,0,0,1-6.088-5.182,22.765,22.765,0,0,1-6.117-5.045,21.936,21.936,0,0,1-4.323-7.853,18.7,18.7,0,0,1-2.614-1.472,18.253,18.253,0,0,1-6.678-8.251,15.088,15.088,0,0,1-.406-10.493l.08-.221c.115-.306.334-.853.6-1.47l-.007-.095c-.036-.457-.073-.93-.1-1.4l-.083-1.5-1.2-.51a20.089,20.089,0,0,1-7.368-4.542,12.851,12.851,0,0,1-3.408-7.816,5.934,5.934,0,0,1,1.246-4.01l0-.374c-.421-.217-.787-.425-1.088-.616a11.088,11.088,0,0,1-3.839-4.184,10.566,10.566,0,0,1-1.217-5.521c.21-3.574,2.22-6.412,4.36-8.945l.627-.73.117-.132.057-.064-1.453-.457a13.814,13.814,0,0,1-2.428-.947,14.127,14.127,0,0,1-5.7-5.482l-.09-.141c-.151-.235-.306-.478-.447-.735a12.909,12.909,0,0,1-.787-9.933,9.847,9.847,0,0,1,.448-1.079,12.622,12.622,0,0,1-5.621-3.715,12.619,12.619,0,0,1-1.152-13.647,13.9,13.9,0,0,1-.138-4.107,11.143,11.143,0,0,1-3.3-5.4,10.013,10.013,0,0,1,.388-5.955,20.229,20.229,0,0,1,3.238-5.564,12.129,12.129,0,0,1,.093-8.822,15.039,15.039,0,0,1-.723-4.444,14.648,14.648,0,0,1,.708-4.7,15.085,15.085,0,0,1,2-3.958,12.1,12.1,0,0,1-2.469-4.926A9.209,9.209,0,0,1,85.153,269a45.392,45.392,0,0,1,3.457-7.1,14.458,14.458,0,0,1-1.093-5.594,13.283,13.283,0,0,1,.969-5.057,14.4,14.4,0,0,1,2.578-4.071,12,12,0,0,1,.647-6.816,9.179,9.179,0,0,1,4.44-4.957,34.963,34.963,0,0,1,5.931-2.1c.911-2.846,1.8-5.473,2.709-8.029,1.445-4.047,3.062-8.218,4.807-12.4a32.616,32.616,0,0,1-3.073,2.386,44.214,44.214,0,0,1-11.575,10.2,14.861,14.861,0,0,1-7.53,2.145,13.1,13.1,0,0,1-6.994-2.012,14.161,14.161,0,0,1-5.077-5.7,17.253,17.253,0,0,1-10.273,3.678,14.8,14.8,0,0,1-1.728-.1,13.573,13.573,0,0,1-6.825-2.77,11.165,11.165,0,0,1-4.007-6.12,10.348,10.348,0,0,1-.3-2.318,34.937,34.937,0,0,1-9.17,5,6.338,6.338,0,0,1-1.972.316,6.978,6.978,0,0,1-4.661-1.872,7.4,7.4,0,0,1-2.4-4.463,6.934,6.934,0,0,1,.733-4.274l-.41-.161c-.061-.026-.133-.057-.2-.09a9.258,9.258,0,0,1-4.722-5.1,9.5,9.5,0,0,1-3.439.649,8.693,8.693,0,0,1-5.1-1.6,8.465,8.465,0,0,1-3.2-4.6,36.521,36.521,0,0,1-.5-18.609,21.4,21.4,0,0,1-6.134-7.1,23.2,23.2,0,0,1-.124-22.043,7.787,7.787,0,0,1-4.482-4.587,9.934,9.934,0,0,1,.334-7.97A10.673,10.673,0,0,1,1.742,126.8a7.717,7.717,0,0,1-1.254-3.466,8.956,8.956,0,0,1,.594-4.144A18.5,18.5,0,0,1,4.3,113.858a27.748,27.748,0,0,1,4.689-4.335,31.145,31.145,0,0,1-3.3-8.391A7.761,7.761,0,0,1,.076,94.541,8.046,8.046,0,0,1,1.47,88.791a8.256,8.256,0,0,1,4.713-3.228,25.217,25.217,0,0,1,1.589-3.851,16.821,16.821,0,0,1-1.216-7.4A19.824,19.824,0,0,1,8.6,66.6a16.762,16.762,0,0,1,4.2-5.366,22.444,22.444,0,0,1,5.755-3.484c-1.08-3.7.36-7.4,3.95-10.14a52.75,52.75,0,0,1,14.279-7.744,16.4,16.4,0,0,1,1.609-8.617,11.4,11.4,0,0,1,6.41-5.674,14.362,14.362,0,0,1,4.846-.762h.084a17.3,17.3,0,0,1,5.922-6.728,8.262,8.262,0,0,1,4.86-1.41c3.858,0,7.528,1.982,8.925,4.819l.109.233c.069.156.143.306.213.45l.007.013c.045.092.09.184.134.278a11.844,11.844,0,0,1,3.193-5.988,13.043,13.043,0,0,1,3.932-2.8,9.811,9.811,0,0,1,3.995-.847,13.017,13.017,0,0,1,5.058,1.129,29.032,29.032,0,0,1,2.9-5.511,13.075,13.075,0,0,1,4.55-4.208,11.024,11.024,0,0,1,5.306-1.353,11.679,11.679,0,0,1,6.406,1.951A19.009,19.009,0,0,1,112.085.873a17.855,17.855,0,0,1,5.3-.873c5.052,0,9.235,2.644,12.787,8.082a6.029,6.029,0,0,1,1.166-.116,6.226,6.226,0,0,1,1.474.183c.266.065.937.325,1.213.434a6.3,6.3,0,0,1,.906.479l.168-.089A13.093,13.093,0,0,1,137.162,7.1a6.841,6.841,0,0,1,4-1.341,6.624,6.624,0,0,1,.971.073l.748-.275a18.97,18.97,0,0,1,6.243-1.1,14.926,14.926,0,0,1,6.238,1.306,13.881,13.881,0,0,1,5.18,4.106,17.355,17.355,0,0,1,2.1,3.5,13.176,13.176,0,0,1,3.571,1.8,13.209,13.209,0,0,1,2.353-.854,15.276,15.276,0,0,1,3.795-.478,16.3,16.3,0,0,1,9.722,3.3,14.87,14.87,0,0,1,4.293,5.181,11.832,11.832,0,0,1,3.465,1.455,19.363,19.363,0,0,1,2.893-1.216,30.338,30.338,0,0,1,8.918-1.319c.764,0,1.536.029,2.293.085a13.418,13.418,0,0,1,6.594,2.42,13.97,13.97,0,0,1,4.615,5.284,9.714,9.714,0,0,1-.72,10.042l-.167.239a29.044,29.044,0,0,0-1.832,2.945,23.517,23.517,0,0,1,5.514,3.376,21.3,21.3,0,0,1,4.958,5.8,23.593,23.593,0,0,1,2.586,6.8,40.408,40.408,0,0,1,.053,14.951l-.067.418h.02a7.536,7.536,0,0,1,5.926,3.962,5.546,5.546,0,0,1-.237,5.523l-.129.206c-2.215,3.421-4.272,7.134-6.261,10.724-1.225,2.211-2.492,4.5-3.792,6.711a159.412,159.412,0,0,0-27.145,12.687,124.383,124.383,0,0,0-14.911,15.139,86.657,86.657,0,0,0-6.175,8.679,4.512,4.512,0,0,0,1.965.462,4.361,4.361,0,0,0,2.986-1.234c13.116-12.154,29.6-21.648,48.99-28.218a4.408,4.408,0,0,0,2.629-2.253,197.927,197.927,0,0,1,24.381-5.3c1.136-1.083,2.317-2.158,3.46-3.2l.007,0h0c1.136-1.034,2.311-2.1,3.436-3.176a7.253,7.253,0,0,1,9.193-.981c1.289-.588,2.631-1.123,4.1-1.635l.863-.294c.156-.051.311-.106.46-.16.2-.07.4-.142.6-.2a40.41,40.41,0,0,1,11.988-1.779,63.532,63.532,0,0,1,15.993,2.348l1.216.317a21.035,21.035,0,0,0,5.469.8,24.13,24.13,0,0,0,6.032-.9l.482-.124a37.454,37.454,0,0,1,9.219-1.425,18.514,18.514,0,0,1,4.864.609c5.095,1.368,8.436,4.574,11.422,7.739l.332.354a4.547,4.547,0,0,0,4.03,1.8c.132,0,.276,0,.44,0l2.171-.064c1.17-.032,2.136-.047,3.038-.047a36.883,36.883,0,0,1,10.312,1.171,19.715,19.715,0,0,1,9.006,5.335,35.983,35.983,0,0,1,6.164,8.688l.212.452c.072.158.136.286.184.381a13.213,13.213,0,0,0,1.744-.486,11.784,11.784,0,0,1,1.158-.34,26.9,26.9,0,0,1,5.1-.512c6.7,0,12.425,2.855,17.014,8.486.648.8,1.482,2.01,2.289,3.184.757,1.1,1.539,2.239,2.173,3.042a15.737,15.737,0,0,1,1.3,1.246,12.853,12.853,0,0,0,5.381,1.443c.789.1,1.533.187,2.237.327a35.893,35.893,0,0,1,9.691,3.179,19.313,19.313,0,0,1,4.13,2.862,15.255,15.255,0,0,1,3.136,4.031,27.861,27.861,0,0,1,2.377,7.707l.009.046q.059.288.118.575a17.482,17.482,0,0,1,5.291,5.814,28.369,28.369,0,0,1,1.8,3.9,22.377,22.377,0,0,0,2.413,4.827,13.688,13.688,0,0,0,4.628,3.582l.017.009c.264.15.537.3.8.459l.76.446a34.176,34.176,0,0,1,7.708,5.878,19.88,19.88,0,0,1,4.742,8.4l.168.612c.046.153.107.343.178.564.341,1.06.855,2.66.594,3.018a.169.169,0,0,1-.144.072.414.414,0,0,1-.171-.046,8.057,8.057,0,0,0,2,.619c.374.083.726.16.994.249,4.669,1.546,7.882,3.959,9.822,7.378,1.5,2.638,1.886,5.367,2.3,8.255l0,.019q.065.455.132.915l.2,1.3c.054.33.117.7.176,1.034l.065.348.012.008c.74.32,1.475.671,2.183,1.041a11.048,11.048,0,0,1,5.706,9.467,8.472,8.472,0,0,1-1.493,4.815,14.371,14.371,0,0,1,1.688,3.525,18.957,18.957,0,0,1,.6,7.862,44.828,44.828,0,0,1-2.075,8.941c-.139.439-.244.936-.356,1.463a10.421,10.421,0,0,1-.7,2.393,6.067,6.067,0,0,1,1.424,4.412,10.582,10.582,0,0,1-.991,3.4,6.375,6.375,0,0,1-2.3,2.664,54.365,54.365,0,0,1-5.182,13.771,5.455,5.455,0,0,1-.85,1.21c.166,9.08-.15,18.342-.455,27.3-.227,6.655-.461,13.536-.5,20.281-.082,15.624.2,32.509.87,51.62.178,5.013.441,10.148.695,15.114v.013c.6,11.687,1.217,23.771.81,35.6a162.34,162.34,0,0,1-1.5,17.646,116.589,116.589,0,0,1-3.794,17.357,112.855,112.855,0,0,1-15.221,31.506,120.74,120.74,0,0,1-23.919,25.553,115.427,115.427,0,0,1-65.95,25.27C367.424,541.477,365.344,541.535,363.278,541.535Zm-177.4-144.686a5.308,5.308,0,0,1-2.556-.686c-2.351-1.28-4.057-3.437-5.708-5.522a37.936,37.936,0,0,0-2.821-3.3,45.324,45.324,0,0,0-9.519-7.15c-7-4.039-14.288-5.731-23.08-7.029a.642.642,0,0,1-.594-.582,1.033,1.033,0,0,1,.594-1.039,31.935,31.935,0,0,1,11.681-2.064,44,44,0,0,1,15.468,2.913l.614.238a58.561,58.561,0,0,1,12.67,6.856c4.8,3.542,7.563,7.212,8.206,10.905a5.7,5.7,0,0,1-1.219,4.666A4.9,4.9,0,0,1,185.877,396.849Z" transform="translate(-66 -34.001)"></path></g></g><g transform="translate(159 186)"><g><path d="M140.63 0.473197L139.193 0.179116C137.503 -0.15929 135.804 -0.0161244 134.311 0.591153C132.847 1.18684 131.572 2.2242 130.68 3.72083C129.495 5.71373 129.337 7.38618 129.887 9.59525C130.311 11.3022 131.242 12.5864 132.46 13.5139C133.744 14.4911 135.37 15.0612 137.06 15.2595C144.854 16.175 152.53 17.8896 159.992 20.3235C163.488 21.4643 166.788 23.0096 170.058 24.6132L172.877 26.002C175.477 27.2735 178.163 28.499 181.557 29.3885C181.824 29.4584 182.087 29.5243 182.349 29.5865C183.29 29.2909 183.45 28.9329 183.649 28.6733L183.73 28.5721C183.972 28.2679 184.271 27.8025 183.988 25.6306C176.583 10.2711 156.267 3.74181 140.63 0.473197ZM43.5878 4.83023L45.4652 4.50163C51.273 3.49719 58.4944 2.53203 62.6028 7.20123C64.7819 9.67723 65.5318 14.2792 62.6028 16.6492C58.7671 19.7539 54.6298 19.6513 50.2182 19.5419C48.7043 19.5044 47.1582 19.466 45.5808 19.5562C40.4928 19.8482 35.6028 20.6902 30.7018 22.0912C19.9498 25.1642 11.1888 30.7742 2.00585 36.9342C0.800849 37.7422 -0.429151 36.2012 0.145849 35.0742C5.44685 24.6912 15.7198 16.1622 26.0098 10.9632C31.5019 8.18823 37.5118 5.88623 43.5878 4.83023ZM29.9632 50.1461C30.7976 39.7899 46.5702 37.4381 48.1392 47.6861C49.5442 56.8661 47.8902 65.2991 43.7552 73.5641C39.8042 81.4601 29.8737 77.7763 29.1227 70.5863C28.3809 63.4843 28.9069 59.2482 29.4428 54.933C29.6341 53.3921 29.8267 51.8412 29.9632 50.1461ZM159.205 41.8262C155.401 40.7152 152.226 42.6812 150.027 45.5612C149.773 45.8932 149.566 46.2222 149.38 46.5482C142.515 52.8562 145.101 65.6452 150.501 72.0492C153.814 75.9762 161.145 74.8452 163.413 70.3852C167.587 62.1722 171.09 45.2992 159.205 41.8262ZM128.748 119.039C136.872 107.66 125.366 96.9569 117.814 92.3669C115.836 90.9469 117.406 86.2431 121.634 86.9701C160.031 93.5671 140.136 159.708 91.112 123.413C85.2754 118.704 92.3434 108.334 98.6342 112.366C98.9532 112.611 99.2876 112.869 99.6364 113.139C106.704 118.603 119.636 128.601 128.748 119.039ZM93.5865 188.926C86.8642 186.184 80.8663 181.61 76.4812 175.766C74.9566 173.735 74.5614 171.589 74.8812 169.627C75.2408 167.421 76.546 165.422 78.326 164.08C80.1115 162.735 82.345 162.072 84.5043 162.41C86.3806 162.704 88.2484 163.731 89.7265 165.862L90.0354 166.288C92.6424 169.815 96.0396 172.708 99.9104 174.574C103.641 176.372 107.814 177.211 112.132 176.723C120.356 175.794 126.024 171.346 132.049 165.306C132.796 164.544 133.543 163.757 134.294 162.958C134.768 162.234 135.426 161.768 136.157 161.524C136.968 161.253 137.886 161.268 138.726 161.562C139.537 161.845 140.262 162.381 140.747 163.094C141.209 163.772 141.471 164.61 141.386 165.574C140.835 171.833 137.562 177.419 132.914 181.805C127.752 186.677 120.909 190.047 114.466 191.229C107.368 192.531 100.136 191.598 93.5865 188.926Z" transform="translate(53.00005 52.00027)" fill-rule="evenodd" stroke="none"></path></g></g><g transform="translate(123 338)"></g><g transform="translate(47 241)"></g></g></g></svg>