<?xml version="1.0" standalone="no"?>
<svg viewBox="-900 -300 2600 2600" style="width: 487.5px; height: 487.5px; justify-content: center; align-self: center; transform: scale(1, 1);" xmlns="http://www.w3.org/2000/svg"><g transform="rotate(0 580.4843826293945 990.9953530598432)"><g id="pose_sitting_one_leg_up-1" data-name="pose/sitting/one_leg_up-1" transform="translate(-172 456)"><path id="_Skin" data-name="âœ‹ Skin" d="M720.033,1597.493a253.986,253.986,0,0,1-52.2-5.425c-53.533-11.238-102.168-37.749-143.552-61.717-1.981-1.124-3.956-2.228-6.047-3.4l-.006,0-.406-.227-.021-.012c-16.2-9.062-36.351-20.339-48.981-34.091-13.862-15.094-16.247-30.134-7.507-47.333l1.383-2.721-1.445-2.691c-9.05-16.846-8.377-37.688,1.636-50.684l8.416-10.92-13.837,1.468c-13.935,1.479-27.981,3.482-41.564,5.419l-.018,0-.032,0h-.008c-15.078,2.151-30.669,4.376-46.054,5.867l-4.271.415-.983,4.115c-.546,2.291-1.22,3.682-5.962,3.682-4.109,0-9.628-1.2-15.472-2.475l-.011,0h-.007c-7.256-1.58-15.479-3.371-23.409-3.371a42.214,42.214,0,0,0-9.6,1.018l-1.727.4-1.229,1.259a5,5,0,0,1-3.491,1.3,4.34,4.34,0,0,1-2.633-.789l-1.939-1.515-2.459.27c-42.843,4.7-79.784,12.959-112.936,25.237l-.15.056-.719.31-.01,0c-11.982,5.171-24.372,10.519-35.657,10.519-8.25,0-14.951-2.807-21.087-8.834l-1.733-1.7-2.446-.024c-24.817-.229-36.158-29.168-37.726-48.565l-.2-2.443-1.892-1.588c-43.251-36.3-68.786-86.147-78.064-152.4-8.45-60.347-1.962-123.976,5.5-178.26C26.742,897.009,44.748,770.861,90.5,651.256l2.138-5.592-5.7-2.046c-19.763-7.1-34.867-15.575-46.176-25.9L39.987,617,39,616.593c-16.2-6.658-24.145-31.238-26.193-38.614l-.164-.6-.286-.547c-3.307-6.345-4.069-15.17-2.092-24.212l.211-.974-.122-.99c-1.068-8.585,2.476-17.561,6.229-27.064,1.715-4.342,3.486-8.828,4.783-13.3,4.4-12.63,8.8-25.47,13.043-37.887l.158-.461.04-.116,0-.01c9.638-28.169,19.6-57.3,30.218-85.631l1.454-3.881-3.2-2.675c-5.468-4.567-3.642-9.944,4.243-22.8a95.2,95.2,0,0,0,4.965-8.739c10.107-17.465,20.941-34.232,32.2-49.836l.232-.32.185-.346C162.7,189.665,265.2,130.226,393.544,130.226l2.616.005,1.445-.87C421.66,114.9,438.831,90.078,450.1,53.487l.36-1.166-.139-1.211a83.814,83.814,0,0,1-.664-12.084c.367-10.866,4.626-20.562,11.684-26.6C474.732.959,495.062,0,514.736,0l2.825,0c25.155.072,42.914,4.44,55.89,13.747,15.076,10.813,23.408,28.269,25.473,53.365.616,7.487.6,15.243.577,22.742v.069l0,2.1.253.833a148.445,148.445,0,0,0,6.294,17.035l2.436,5.493,5.54-2.477c3.585-1.6,8.129-2.425,13.89-2.516,1.637-.038,3.246-.057,4.918-.057,13.37,0,27.67,1.22,41.5,2.4l.045,0c10.428.891,21.207,1.811,31.662,2.22l.143.006h.073c1.206-.007,1.762-.009,2.016-.009,25.379,0,43.777,3.991,57.9,12.561,15.205,9.227,26.138,24.035,34.405,46.6C844.914,303.5,863.14,442.823,879.22,565.75c9.121,64.282,11.895,130.179,14.578,193.907v.016l0,.056c2.832,67.254,5.761,136.8,16.127,204.776l.819,5.376,5.506-.356c24.217-1.562,50.386-4.928,78.092-8.492l.014,0,.032,0c42.119-5.418,85.673-11.02,127.777-11.02,58.875,0,103.5,11.582,136.437,35.408,22.958,21.634,34.835,50.933,34.347,84.73-.689,47.762-25.952,100.567-64.36,134.526l-.145.133c-48.548,45.863-137.163,85.641-263.386,118.23-116.076,29.97-236.134,46.254-297.367,53.293l-15.156,1.743,12.3,8.894c4.959,3.586,9.5,6.756,13.889,9.691l2.817,1.883,3.086-1.415c8.8-4.035,14.39-4.883,17.53-4.883,2.787,0,6.149.605,6.334,3.489a4.877,4.877,0,0,1-4.06,5.047l-15.064,1.88,12.3,8.772c8.2,5.85,20.434,12.9,34.6,21.06l.071.041c46.44,26.757,116.619,67.193,104.549,102.7l-.792,2.333,1.122,2.2c3.243,6.358,3.519,12.259.844,18.04-5.729,12.39-23.655,21.8-38.878,25.625l-.261.066-.255.089A250.545,250.545,0,0,1,720.033,1597.493ZM735.246,509.631l-11.936.46c-3.214,55.987-6.328,112.855-9.34,167.85-1.2,21.831-2.588,47.243-3.987,72.575-4.764,61.167-3.118,110.675,5.179,155.8,2.239,23.359-2.34,45.672-13.243,64.527l-3.548,6.136,6.753,2.362c12.29,4.3,25.958,6.388,41.783,6.388,16.3,0,33.23-2.269,46.829-4.092l8.716-1.167-4.28-7.568c-3.44-6.078-4.078-13.442-4.753-21.239l0-.018-.013-.147V951.5c-.178-2.047-.361-4.164-.6-6.257C779.909,830,763.612,713.246,747.852,600.341l-.006-.045C743.927,572.237,739.487,540.435,735.246,509.631Z" transform="translate(107 -77.003)" fill="#d08b5b"></path><path id="_Shoes" data-name="ðŸ‘Ÿ Shoes" d="M625.387,357.049a76.521,76.521,0,0,1-15.242-1.306c-5.933-.9-30.466-8.334-51.447-14.989-25.094-7.96-45.942-15.023-50.7-17.177l-86.769-50.351-2.659-1.166-3-1.314-2.537-1.011a102.881,102.881,0,0,1-14.966-7.412,70.865,70.865,0,0,1-13.678-10.528,39.473,39.473,0,0,1-9.1-13.511,28.447,28.447,0,0,1-1.238-16.361,54.6,54.6,0,0,0,1.713-17.014,59.453,59.453,0,0,0-2.295-11.807c-1.4-5.186-2.731-10.084-1.7-16.882a124.523,124.523,0,0,1,5.078-20.895,128.14,128.14,0,0,1,9.022-20.59,73.042,73.042,0,0,0,20.253,16.389,44.592,44.592,0,0,0,20.828,5.5,37.1,37.1,0,0,0,12.083-2.012,40.483,40.483,0,0,0,11.249-6.059,52.57,52.57,0,0,0,10.023-10.14,75.151,75.151,0,0,0,8.4-14.254l.418-.812.411-.815c.728-1.453,1.432-2.914,2.178-4.461,2.663-5.525,5.417-11.239,9.087-16.154,4.171-5.586,8.886-9.192,14.417-11.024a24.585,24.585,0,0,1,13.5-4.438A15.716,15.716,0,0,1,519.456,90.4a9.6,9.6,0,0,0,1.119-2.66c1.481,2.107,14.2,13.793,34.86,31.3,13.585,11.511,40.818,34.164,70.566,56.54,16.569,12.463,33.839,23.756,50.54,34.677l.006,0c15.344,10.034,29.838,19.511,42.264,28.923a203.043,203.043,0,0,1,16.88,14.093,97.032,97.032,0,0,1,12.675,14.238,42.918,42.918,0,0,1,5.228,11.742,126.837,126.837,0,0,1,3.6,15.279c.865,4.911,1.509,9.957,1.813,14.208.3,4.134.25,7.163-.129,8.529-.783.994-3.438,2.869-7.889,5.573-3.561,2.163-8.274,4.859-14.009,8.013-9.719,5.345-19.23,10.27-19.323,10.319l-.084.023c-15.252,4.125-28.187,7.007-36.352,8.7-10.191,2.11-19.723,3.781-28.331,4.967A206.414,206.414,0,0,1,625.387,357.049ZM63.576,191.8a15.423,15.423,0,0,1-7.84-2.108,31.534,31.534,0,0,1-5.887-4.639q-.411-.389-.815-.776l-.047-.045c-3.189-3.048-6.2-5.926-10.289-5.926a9.136,9.136,0,0,0-.93.048c-3.858.4-6.1.557-7.738.557-2.973,0-4.132-.549-5.6-1.778-3.115-2.576-6.32-7.035-9.526-13.253a136.017,136.017,0,0,1-8.041-19.766,165.9,165.9,0,0,1-5.343-20.754c-1.237-6.689-1.732-12.3-1.431-16.217a67.7,67.7,0,0,1,3.3-13.913A72.066,72.066,0,0,1,9.422,80.4,94.23,94.23,0,0,1,28.646,57.868C43.352,45.025,63.423,33.849,88.3,24.652a351.271,351.271,0,0,1,36.2-11.085c12.035-3.017,24.7-5.6,37.635-7.67A458.22,458.22,0,0,1,233.25,0c9.308,0,18.039.355,25.951,1.056L260.964,5.1c8.548,19.557,26.666,60.13,33.981,76.4a64.609,64.609,0,0,0-5.52-8.531c-.793-1.033-1.369-1.536-1.762-1.536a.414.414,0,0,0-.321.152c-.78.887-.183,5.473.72,12.415,1.031,7.92,2.441,18.76,2.466,29.78A154.245,154.245,0,0,1,286.806,146c-1.964,8.853-4.167,15.014-4.992,15.214a.561.561,0,0,1-.13.013,28.953,28.953,0,0,1-5.07-1.554c-2.639-.922-6.248-2.182-10.441-3.428A131.5,131.5,0,0,0,252,152.817a92.286,92.286,0,0,0-16.3-1.557,67.044,67.044,0,0,0-10.494.8c-4.144.66-8.735,1.34-13.6,2.061H211.6c-20.63,3.058-46.306,6.864-72.187,13.93-12.166,3.321-24.178,7.675-35.8,11.886-13.123,4.757-25.518,9.249-36.1,11.444A19.515,19.515,0,0,1,63.576,191.8Z" transform="translate(188 1163.423)" fill="#fff"></path><path id="_Pants" data-name="ðŸ‘– Pants" d="M179.082,0l5.476,1.5L427.134,69.384c1.55,1.014,2.7,1.75,3.813,2.424l.789.473L436.327,75l-1.067,5.229c-2.4,11.764-2.758,23.864-1.668,40.759l.062.944.133,1.917.193,2.613.069.891,1.32,16.1.249,3.231c.194,2.611.337,4.795.463,7.077l.029.528.189,3.7.07,1.586c.656,16.108-.48,31.841-3.423,54.6L432.8,215.3l-.419,3.157-.29,2.762-1.217,11.291-.423,4.035c-2.752,26.613-4.114,47.5-3.763,66.974l.019.972c.536,25.546,4.459,42.857,10.979,48.812l.2.177.172.146.04,0c.642.034,1.692-.369,3.73-1.6l.853-.529c.527-.333,1.527-.964,1.992-1.251l.511-.31a22.331,22.331,0,0,1,2.632-1.372,13,13,0,0,1,4.052-1.062l.405-.026.059,0,.371-.327a33.747,33.747,0,0,0,3.457-3.6l.451-.557.39-.5,2.624-3.456,1.782-3.085a66.122,66.122,0,0,0,3.718-7.545l.411-1,.36-.915L481.456,286.2l-1.067,43.179c-.362,14.659,5.121,22.261,11.874,22.338,7.105.081,14.38-7.73,16.482-21.6l.07-.481,14.879,1.887c-.974,8.693,2.13,22.432,7.107,30.177,2.16,3.362,4.193,4.944,5.646,5.067,1.759.148,4.532-1.494,8.251-6.282l0,0-.076.1.159-.223c3.236-4.63,5.034-10.848,5.979-19.7l.066-.637.062-.631,5.211-54.791,9.64,54.187q1.418,7.972,3.189,16.016l.222,1,.164-.061a10.992,10.992,0,0,0,1.335-.65l.231-.133.215-.129a29.8,29.8,0,0,0,8.533-8.484l.144-.252,1.724-3.137,3.524-.632a4.591,4.591,0,0,0,1.74-.728l.168-.127,2.533-2.064,3.237.449c47.214,6.557,81.988,1.031,104.118-22.147l.667-.708,3.449-3.711,4.731,1.815c21.035,8.069,303.5-27.535,327.072-29.744l5.228-.482,4.369-.389c36.992-3.239,70.275-2.752,102.254-2.4l2.055.025,2.861.172,2.636.169c26.849,1.78,48.068,5.073,67.272,11.365,24.078,7.89,43.1,20.168,56.553,38.007l.6.8.652,1c17.663,27.269,22.986,60.168,16.85,94.6-5.558,31.19-20.4,62.246-41.164,87.231l-.665.8-1.2,1.5c-43.933,54.189-134.393,97.751-260.05,132.4l-3.819,1.047-3.919,1.063c-93.111,25.117-197.729,43.557-300.152,55.918l-3.2.384-6.33.749-21.138,2.477,13.454-13.7-.061-.021c-1.4-.46-23.031,4.037-23.031,4.037l-4.621-3.847c-2.654-2.222-4.647-3.933-6.536-5.632l-.89-.806-3.556-3.272.644-4a.929.929,0,0,0-.16-.416l-.063-.112s-15.642-18.3-16.854-19.36l-.2-.175-.294-.247-.122-.093c-2.825-2.109-32.3-1.093-32.3-1.093s-20.329-34.524-23.005-38.17l-.643-.879-6.658-.05,2.522-4.238A52.754,52.754,0,0,0,556.926,599l.093-.792.055-.514-.419.279c-2.824,1.916-4.473,3.821-5.02,5.621l-.06.215-.043.181-.041.189-.217.788c-3.068,10.789-9.585,19.261-19.14,25.99-6.752,4.755-103.82,38.6-127.844,44.72l-1.675.425-5.988,1.511-4.292-9.123q-9.907-21.182-25.671-56.591l-5.176-11.653-5.313-12.011-25.3-14.85-17.377.29q-5.515.1-10.135.188l-1.515.03-9.577.207-1.726.182a516.884,516.884,0,0,0-116.11,25.976l-1.879.664-1.959.7-1.045.34-1.859.613c-26.138,8.682-43.592,17.53-56.119,29.292-14.547,13.658-22.295,31.511-23.329,56.3l-.031.794-.61,17.076L75.451,694.033c-36.2-35.757-59.894-84.286-70-139.567a348.747,348.747,0,0,1,7.168-154.318l.206-.73.036-.494A248.185,248.185,0,0,1,20.3,355.83l.371-1.442.38-1.45c2.813-10.65,5.607-19.791,10.629-35l.557-1.684,6.664-19.99c34.529-99.41,80.079-196.181,135.568-288.6l1.685-2.8Z" transform="translate(102.501 595.264)" fill="#78e185"></path><path id="_Ink" data-name="ðŸ– Ink" d="M726.015,1579.988h0a260.172,260.172,0,0,1-53.46-5.555c-23.911-5.018-48.485-13.326-75.126-25.4-11.244-5.1-22.89-10.868-35.6-17.645-10.314-5.5-21.312-11.646-34.61-19.347-2.017-1.143-4.076-2.295-6.257-3.515l-.121-.068,0,0c-8.321-4.654-17.753-9.929-26.6-15.756-10.156-6.689-17.969-13.072-23.885-19.512a63.249,63.249,0,0,1-8.486-11.449,43.692,43.692,0,0,1-4.883-12.73,39.679,39.679,0,0,1-.3-14.125,52.526,52.526,0,0,1,5.249-15.634,60.242,60.242,0,0,1-7.047-28.99c.169-10.738,3.353-20.428,9.207-28.024-13.843,1.47-27.844,3.467-41.384,5.4h-.01c-15.158,2.162-30.831,4.4-46.336,5.9a9.891,9.891,0,0,1-4.226,6.466,13.937,13.937,0,0,1-7.578,1.772c-4.765,0-10.6-1.27-16.773-2.615l-1.423-.31c-7.107-1.541-14.038-2.925-20.7-2.925a36.285,36.285,0,0,0-8.229.862,10.924,10.924,0,0,1-7.815,3.115,10.338,10.338,0,0,1-6.366-2.072c-42.353,4.652-78.821,12.794-111.489,24.893l-.574.248c-6.195,2.673-12.6,5.436-19,7.52a61.966,61.966,0,0,1-19.079,3.5c-9.806,0-18.088-3.452-25.321-10.555a34.927,34.927,0,0,1-18.247-5.223A44.68,44.68,0,0,1,96.281,1385.2a68.352,68.352,0,0,1-8.418-17.4,80.8,80.8,0,0,1-3.728-18.371A217.217,217.217,0,0,1,66.9,1333.3a211.988,211.988,0,0,1-14.881-17.331,214.708,214.708,0,0,1-12.673-18.416c-3.8-6.189-7.371-12.71-10.611-19.382a254.813,254.813,0,0,1-15.615-41.185,321.786,321.786,0,0,1-9.1-43.622,425.684,425.684,0,0,1-3.753-45.108c-.461-14.328-.313-29.685.438-45.642.672-14.273,1.807-29.067,3.47-45.225,1.376-13.371,3.123-27.717,5.342-43.857,3.845-31.338,8.06-64.936,12.82-98.291,5.19-36.362,10.464-68.465,16.124-98.143,6.66-34.921,13.853-66.6,21.989-96.832,4.381-16.279,9.089-32.281,13.995-47.561,5.137-16,10.662-31.743,16.422-46.8-20.528-7.375-36.295-16.245-48.2-27.118a34.258,34.258,0,0,1-10.724-7.23,56.035,56.035,0,0,1-8.458-10.709A86.114,86.114,0,0,1,17.2,568.49a105.438,105.438,0,0,1-4.2-12.2,35.308,35.308,0,0,1-3.728-13.947,50.854,50.854,0,0,1,1.108-14.2c-1.254-10.061,2.735-20.16,6.592-29.926,1.685-4.265,3.426-8.672,4.648-12.924,4.455-12.779,8.909-25.8,13.216-38.383l.021-.062c9.665-28.246,19.659-57.455,30.323-85.915a14.086,14.086,0,0,1-4.77-6.96,14.905,14.905,0,0,1,.053-7.654c1.261-5.242,4.537-10.582,7.7-15.746a88.321,88.321,0,0,0,4.762-8.392,599.61,599.61,0,0,1,32.65-50.543,350.045,350.045,0,0,1,24.634-39.521,321.888,321.888,0,0,1,28.669-34.425,306.618,306.618,0,0,1,32.416-29.276,303.194,303.194,0,0,1,35.876-24.073,311.018,311.018,0,0,1,39.048-18.817,329.581,329.581,0,0,1,41.933-13.507,358.557,358.557,0,0,1,44.529-8.143,397.787,397.787,0,0,1,46.838-2.726h.938a88.926,88.926,0,0,0,12.237-8.872,96.573,96.573,0,0,0,10.435-10.546A112.053,112.053,0,0,0,431.932,69.8a135.8,135.8,0,0,0,7.347-13,188.137,188.137,0,0,0,11.007-28.038c2.68-8.68,5.048-18.089,7.238-28.765a91.218,91.218,0,0,1,2.751,18.8,105.438,105.438,0,0,1-1,19.479,116.159,116.159,0,0,1-4.532,19.407A119.747,119.747,0,0,1,446.9,76.275a115.542,115.542,0,0,1-10.921,17.016,105.96,105.96,0,0,1-13.781,14.7,95.3,95.3,0,0,1-16.417,11.628,87.96,87.96,0,0,1-18.829,7.81c4.843,6.937,9.074,14.469,13.166,21.753l.005.009c2.358,4.2,4.8,8.536,7.319,12.7,12.437,19.869,31.386,36.558,54.8,48.263A164.216,164.216,0,0,0,497.744,223a162.445,162.445,0,0,0,37.428,4.431,146.812,146.812,0,0,0,28.165-2.678,128.584,128.584,0,0,0,26.628-8.234c16.059-8.508,27.719-22.756,34.656-42.349a127.8,127.8,0,0,0,6.2-27.513,182.429,182.429,0,0,0,1.048-27.824c-2.451,2.612-4.988,3.936-7.539,3.937-2.945,0-5.96-1.754-8.963-5.214a53.523,53.523,0,0,1-7.46-12.175,127.333,127.333,0,0,1-8.349-24.412,88.979,88.979,0,0,1-1.762-23.588,74.948,74.948,0,0,1,5.093-23.064,1,1,0,0,1,.934-.679.983.983,0,0,1,.975.926,198.463,198.463,0,0,0,4.455,25.38,148.225,148.225,0,0,0,8.265,24.413c4.344-1.942,9.667-2.938,16.27-3.045,1.617-.038,3.3-.057,5-.057,13.642,0,28.087,1.233,42.056,2.425h.007c10.366.885,21.084,1.8,31.393,2.2.664-.005,1.334-.008,1.994-.008a163.788,163.788,0,0,1,33.854,3.066,85.66,85.66,0,0,1,27.194,10.369,72.272,72.272,0,0,1,11.3,8.472,79.107,79.107,0,0,1,9.866,10.957,100.286,100.286,0,0,1,8.515,13.661,140.506,140.506,0,0,1,7.243,16.584c5.284,15.407,10.38,31.493,15.149,47.809,4.549,15.567,8.947,31.848,13.072,48.393,7.636,30.633,14.521,62.723,21.047,98.1,11.789,63.907,20.412,127.687,29.67,198.458,2.2,15.5,4.084,31.349,5.762,48.453,1.494,15.235,2.788,31.126,3.957,48.581,2.17,32.43,3.561,65.444,4.905,97.37v.034c1.413,33.542,2.874,68.226,5.241,102.264,1.274,18.327,2.7,35.013,4.366,51.011,1.867,17.958,3.98,34.591,6.46,50.851,24.031-1.551,50.117-4.905,77.735-8.457l.012,0c20.847-2.681,42.4-5.454,64.014-7.55,24.416-2.368,45.529-3.519,64.545-3.519,13.586,0,26.521.6,38.446,1.779a275.353,275.353,0,0,1,36.694,6.029,203.6,203.6,0,0,1,34.2,11.319,171.783,171.783,0,0,1,15.933,7.969,160.115,160.115,0,0,1,15.031,9.681,112.437,112.437,0,0,1,28.281,41.556,126.107,126.107,0,0,1,8.2,47.744c-.351,24.728-7.033,51.09-19.323,76.236a211.8,211.8,0,0,1-20.871,34.109,191.707,191.707,0,0,1-26.158,28.51,251.44,251.44,0,0,1-23.15,19.24c-8.213,6.069-17.294,12.106-26.99,17.941-9.383,5.647-19.6,11.259-30.353,16.68-10.393,5.237-21.576,10.437-33.239,15.456-22.077,9.5-46.715,18.717-73.23,27.393-24.441,8-51.039,15.719-79.055,22.951-48.724,12.578-102.667,23.946-160.329,33.788-24.042,4.1-48.82,7.953-73.646,11.441-21.48,3.018-43.085,5.78-64.216,8.209,4.9,3.541,9.382,6.67,13.71,9.565,7.865-3.606,14.615-5.435,20.063-5.435a18.017,18.017,0,0,1,5.41.754,10.994,10.994,0,0,1,3.777,2.01,8.7,8.7,0,0,1,3.138,6.28,10.931,10.931,0,0,1-2.293,7.253,10.443,10.443,0,0,1-7,4.011c7.982,5.692,20.123,12.686,34.182,20.786,24.447,14.084,54.872,31.611,77.21,50.468a155.17,155.17,0,0,1,15.068,14.388,82.893,82.893,0,0,1,10.86,14.77,44.38,44.38,0,0,1,5.4,14.99,31.757,31.757,0,0,1-1.327,15.047c4.023,7.881,4.368,15.608,1.027,22.966a35.423,35.423,0,0,1-7.3,10.217,59.482,59.482,0,0,1-10.708,8.362,89.851,89.851,0,0,1-24.929,10.5,255.99,255.99,0,0,1-41.759,10.678A260.039,260.039,0,0,1,726.015,1579.988Zm-259.55-153.073a35.467,35.467,0,0,0-.173,9.788,34.348,34.348,0,0,0,2.348,8.835,41.144,41.144,0,0,0,4.421,7.954,56.081,56.081,0,0,0,6.045,7.143c8.864,8.935,20.886,15.982,31.458,21.885,18.427,11.522,35.221,21.31,51.342,29.922,9.161,4.894,18.239,9.471,26.98,13.6,9.374,4.432,18.688,8.507,27.684,12.114,9.552,3.83,19.061,7.257,28.261,10.186,9.7,3.088,19.36,5.718,28.711,7.819a288.541,288.541,0,0,0,29.035,5.013,248.853,248.853,0,0,0,29.231,1.769h.012c7.377,0,14.754-.357,21.926-1.062a212.968,212.968,0,0,0,21.923-3.311,208.287,208.287,0,0,0,21.857-5.744,211.376,211.376,0,0,0,21.738-8.361l.222-.094a65.666,65.666,0,0,0,11.01-5.511c3.925-2.639,6.414-5.642,7.608-9.18a254.331,254.331,0,0,1-48.624,14.42,269.816,269.816,0,0,1-50.753,4.807,267.055,267.055,0,0,1-50.734-4.837c-2.22-.565-4.709-1.034-7.343-1.531-5.191-.978-11.074-2.087-15.914-4.212-5.543-2.434-8.909-5.846-10.292-10.431-15.669-6.978-31.585-14-46.978-20.794l-.014-.006c-24.929-11-50.707-22.376-75.958-33.79C506.991,1462.126,481.785,1449.33,466.465,1426.915Zm9.82-66.254a62.939,62.939,0,0,0-4.7,10.768,48.394,48.394,0,0,0-2.155,10.173,42.328,42.328,0,0,0,2.354,18.611,51.949,51.949,0,0,0,5.869,11.38,72.894,72.894,0,0,0,8.612,10.373,126.729,126.729,0,0,0,22.984,17.839,244.427,244.427,0,0,0,26.552,14.157c9.452,4.389,18.424,8.028,25.185,10.708,21.882,9.593,45.472,19.982,68.285,30.028l.033.015.089.039c11.17,4.919,22.72,10.006,33.653,14.815l1.605.728c4.749,2.156,9.655,4.383,14.6,6.226a76.775,76.775,0,0,0,15.309,4.147,216.787,216.787,0,0,0,43.986,4.369,272.092,272.092,0,0,0,48.5-4.555c9.054-1.645,18.219-3.733,28.019-6.384,1.055-.286,2.227-.554,3.468-.837l.01,0a60.3,60.3,0,0,0,7.684-2.121,13.526,13.526,0,0,0,6.06-3.943,17.15,17.15,0,0,0-.517-10.094,38.854,38.854,0,0,0-6.17-10.984A94.466,94.466,0,0,0,814.8,1474.5c-4.056-3.766-8.9-7.8-14.384-11.988-9.409-7.183-20.994-15.054-35.418-24.062-12.6-7.869-25.781-15.617-37.412-22.454-19.142-11.252-35.674-20.969-43.647-27.608-2,.467-3.657.877-5.2,1.291a221.061,221.061,0,0,0-32.71,11.878,1,1,0,0,1-.412.093.805.805,0,0,1-.735-.458.852.852,0,0,1,.137-.915,113.253,113.253,0,0,1,24.74-22.154,264.886,264.886,0,0,1-27.63-23.936,133.066,133.066,0,0,0-17.076,5.688c-5.114,2.076-10.486,4.572-16.424,7.631-1.089,0-1.649-.335-1.666-.991-.026-1.015,1.216-2.781,3.692-5.249a98.777,98.777,0,0,1,8.426-7.291c6.266-4.919,12.873-9.294,14.137-9.361-6.025-6.688-11.023-14.223-15.856-21.51l-.017-.025c-2.057-3.1-4.184-6.308-6.367-9.415a9.6,9.6,0,0,1-1.12,2.66,15.716,15.716,0,0,0-10.731-3.945,24.586,24.586,0,0,0-13.5,4.438c-5.53,1.832-10.246,5.438-14.417,11.024-3.669,4.914-6.423,10.628-9.086,16.154-1.025,2.128-1.994,4.137-3.006,6.086a75.15,75.15,0,0,1-8.405,14.253,52.569,52.569,0,0,1-10.023,10.14,40.494,40.494,0,0,1-11.249,6.06,37.111,37.111,0,0,1-12.082,2.013,44.575,44.575,0,0,1-20.827-5.5,73.05,73.05,0,0,1-20.253-16.391ZM313.828,1248.73a403.176,403.176,0,0,0-61.123,4.443c-22.145,3.414-42.008,8.746-59.037,15.85a160.115,160.115,0,0,0-25.639,13.384,118.018,118.018,0,0,0-21.4,17.654,97.058,97.058,0,0,0-15.925,22.4,98.534,98.534,0,0,0-9.209,27.613,68.753,68.753,0,0,0,.181,12.468,62.877,62.877,0,0,0,2.593,12.5,50.279,50.279,0,0,0,5.291,11.516,39.847,39.847,0,0,0,8.276,9.5,23.938,23.938,0,0,0,15.936,5.784c8.6,0,17.551-3.817,26.2-7.508a132.159,132.159,0,0,1,13.132-5.081c12.23-4.261,24.917-8.055,37.708-11.277,12.533-3.157,25.49-5.845,38.512-7.991-.218-9.052-.465-19.313-1.226-29.349a192.53,192.53,0,0,0-4.165-28.935c.947-1.873,2.033-2.823,3.227-2.823a4.37,4.37,0,0,1,2.951,1.645c4.936,5.146,10.1,21.048,12.745,30.069,1.677,5.728,3.263,11.82,4.464,17.155a58.973,58.973,0,0,1,1.653,9.431c3.614-.449,7.218-.857,10.711-1.213-.4-11.954-.486-21.112-.281-29.693a257.818,257.818,0,0,1,2.261-29.576.762.762,0,0,1,.756-.7.714.714,0,0,1,.684.509,261.265,261.265,0,0,1,9.61,30.251,43.433,43.433,0,0,1,2.234,9.483,41.441,41.441,0,0,0,2.37,9.8,13.877,13.877,0,0,0,2.562,4.013,12.55,12.55,0,0,0,4.214,2.955c6.464,2.7,13.465,4.008,20.236,5.276h0c4.158.778,8.458,1.583,12.609,2.7a33.453,33.453,0,0,0,6.279-.857,2.739,2.739,0,0,0,2.216-2.861,3.2,3.2,0,0,0-2.547-3.1,18.286,18.286,0,0,0,.651-2.128c.26-.018.526-.034.786-.049l.075,0,.053,0c.268-.016.544-.032.817-.051a25.1,25.1,0,0,1-.331-9.263,82.289,82.289,0,0,1,1.979-9.362v-.006c1.472-5.841,2.994-11.88,1.97-17.9a49.263,49.263,0,0,0-4.627-19.24,54.575,54.575,0,0,0-11.281-15.842,61.43,61.43,0,0,0-16.124-11.378A62.655,62.655,0,0,0,317.7,1273.1a1.232,1.232,0,0,1-.972-1.262,1.286,1.286,0,0,1,.972-1.329,39.049,39.049,0,0,1,8.111-.839c8.209,0,16.945,2.483,25.265,7.18a67.042,67.042,0,0,1,10.916,7.71,63.839,63.839,0,0,1,8.839,9.333,64.645,64.645,0,0,1,5.521,8.531c-8.305-18.466-15.818-35.466-22.97-51.97C340.465,1249.311,327.156,1248.73,313.828,1248.73Zm25.486-31.126a13.663,13.663,0,0,1-7.912,4.315,50.094,50.094,0,0,1-9.583.693c-1.936.018-3.76.034-5.514.173a502.5,502.5,0,0,0-64.9,8.432c-4.693,1.149-9.484,2.293-14.117,3.4-21.057,5.028-42.83,10.227-63.463,17.661a223,223,0,0,0-29.87,13.086c-4.867,2.6-9.532,5.392-13.866,8.285a143.457,143.457,0,0,0-12.924,9.705,53.86,53.86,0,0,0-9.838,13.9,76.21,76.21,0,0,0-5.866,16.453,118.159,118.159,0,0,0-2.556,34.5,67.77,67.77,0,0,0,6.179,24.013,79.227,79.227,0,0,0,13.8,20.341,120.166,120.166,0,0,1-7.631-24.453,88.017,88.017,0,0,1-1.483-22.181,76.07,76.07,0,0,1,4.014-19.966,79.839,79.839,0,0,1,8.859-17.808c7.991-12.1,19.668-23.115,34.707-32.751,13.687-8.77,30.08-16.362,48.725-22.566a335.708,335.708,0,0,1,55.093-13.049c9.131-1.395,18.4-2.46,27.545-3.165,8.919-.688,17.757-1.036,26.268-1.036a254.9,254.9,0,0,1,32.841,1.969l-.341-.791C344.957,1230.872,342.092,1224.187,339.313,1217.6Zm214.181,58.905a92.487,92.487,0,0,1-15.665,12.126,149.152,149.152,0,0,1-18.363,9.629c-12.881,5.752-26.742,10.322-40.148,14.742-8.413,2.774-16.355,5.392-23.854,8.222,2.407,2.543,4.81,5.114,7.134,7.6l.09.1c9.629,10.3,18.725,20.036,27.464,27.229a67.008,67.008,0,0,0,12.833,8.607,27.865,27.865,0,0,0,12.329,3.213,20.714,20.714,0,0,0,9.3-2.223,31.474,31.474,0,0,0,9.073-7.158,68.323,68.323,0,0,0,8.881-12.822,152.911,152.911,0,0,0,8.724-19.213,63.363,63.363,0,0,1,7.927-11.281,51.733,51.733,0,0,1,10.364-9.071,132.815,132.815,0,0,1-16.09-29.7Zm-169.05,53.035h0a72.54,72.54,0,0,1-1.259,22.4,7.379,7.379,0,0,1,3.951,3.107,8.055,8.055,0,0,1,1.229,4.9c1.955-.221,4.9-.557,7.859-.936,8.845-1.1,17.8-2.4,26.454-3.651h.008c14.5-2.1,29.5-4.267,44.329-5.587-6.82-8.813-12.325-18.52-16.81-26.853-12.783,4.033-25.656,7.814-38.26,11.239-5.868,2.131-10.718,3.167-14.826,3.167C390.708,1337.33,386.444,1334.711,384.445,1329.545Zm282.06,5.19h0c4.687,0,8.108,1.46,10.459,4.462a5.472,5.472,0,0,1-.89,7.171c21.333-2.5,43.082-5.323,64.642-8.393,25.76-3.668,51.377-7.708,76.139-12.009,60.984-10.592,117.447-22.853,167.821-36.441,29.4-7.931,57.06-16.416,82.209-25.219a751.671,751.671,0,0,0,74.761-30.41c11.745-5.6,22.883-11.415,33.107-17.274,10.6-6.078,20.519-12.376,29.468-18.719a261.644,261.644,0,0,0,25.238-20.214,224.858,224.858,0,0,0,34.246-40.514,191.074,191.074,0,0,0,11.595-20.693,183.932,183.932,0,0,0,8.929-22.1,167.766,167.766,0,0,0,5.831-22.97,137,137,0,0,0,.647-46.433,111.578,111.578,0,0,0-16.913-43.55,88.558,88.558,0,0,0-11.532-12.734,97.034,97.034,0,0,0-13.419-10.178,116.112,116.112,0,0,0-14.93-7.925,146.634,146.634,0,0,0-16.066-5.977,216.3,216.3,0,0,0-34.035-7.325c-9.984-1.4-20.81-2.412-34.068-3.182-3.555-.047-7.181-.071-10.777-.071-17.174,0-34.694.518-53.561,1.583-16.8.948-34.289,2.312-53.467,4.17-35.622,3.451-71.741,8.122-106.672,12.639-23.132,2.991-47.052,6.085-70.553,8.787-9.451,1.431-19.284,3.251-28.794,5.01-23.155,4.284-47.095,8.712-70.52,8.713-18.382,0-34.425-2.726-49.047-8.335a77.5,77.5,0,0,1-16.4,13.375,88.537,88.537,0,0,1-18.806,8.548,116.248,116.248,0,0,1-20.419,4.533A161.489,161.489,0,0,1,629.5,994.4a249.648,249.648,0,0,1-34.454-2.611,12.031,12.031,0,0,1-5.322,2.423c-2.564,4.666-11.2,13.75-17.891,13.751-2.789,0-4.918-1.58-6.328-4.7-1.41-6.244-2.679-12.521-3.771-18.657-.73,7.675-2.269,17.45-7.728,24.98-4.735,6.1-9.437,9.189-13.974,9.19-3.344,0-6.536-1.673-9.488-4.973-3.67-4.1-6.828-10.638-8.893-18.4a69.223,69.223,0,0,1-1.962-10.677,46.322,46.322,0,0,1-.064-9.537c-1.247,8.807-4.4,16.188-9.1,21.344-4.228,4.63-9.475,7.181-14.775,7.182a15.888,15.888,0,0,1-6.3-1.291,17.4,17.4,0,0,1-5.594-3.891,24.827,24.827,0,0,1-5.669-9.832,45.246,45.246,0,0,1-1.908-15.011,75.62,75.62,0,0,1-4.99,10.511c10.846,26.459,23.089,52.877,34.93,78.425,10.38,22.4,21.114,45.557,30.866,68.657,5.249,12.434,9.8,23.858,13.92,34.927,4.623,12.426,8.582,24.086,12.1,35.645,13.905-3.512,29.667-7.491,43.75-14.972,24.271-13.151,48.621-27.184,72.17-40.754,20.108-11.588,40.9-23.57,61.574-34.963,23.184-12.778,43.75-23.441,62.874-32.6,5.332-2.768,16.506-7.853,29.163-13.272,11.108-4.755,28.538-11.989,48.5-19.453,30.777-11.509,72.121-25.228,94.3-25.228a28.867,28.867,0,0,1,9.8,1.379,8.357,8.357,0,0,1,5.16,4.435,10.374,10.374,0,0,1-1.378,8.081,8.206,8.206,0,0,1-5.52,3.878c-11.521,1.769-23.293,4.056-34.987,6.8-11.147,2.613-22.6,5.727-34.028,9.254a649.356,649.356,0,0,0-65.727,24.477c-19.277,8.3-40.062,18.146-63.542,30.1-20.936,10.656-42.04,21.968-62.45,32.907l-.01.005c-25.117,13.463-51.09,27.384-76.991,40.213-13.94,6.9-26.746,12.949-39.149,18.48-13.921,6.207-26.981,11.613-39.926,16.525a93.185,93.185,0,0,1,1.2,26.123,65.936,65.936,0,0,1-2.626,12.729,57.38,57.38,0,0,1-5.384,12.064c5.6,7.737,11.627,15.264,17.455,22.543l.009.011c2.5,3.122,5.085,6.351,7.606,9.558.349.01.718.016,1.1.016a87.084,87.084,0,0,0,9.115-.667l.07-.008a88.052,88.052,0,0,1,9.348-.675,27.859,27.859,0,0,1,7.2.834,17.887,17.887,0,0,1,6.537,3.209,56.182,56.182,0,0,1,7.64,8.226l.006.007c.8.991,1.636,2.015,2.465,2.985a32.2,32.2,0,0,0,4.2,4.858c3.3,3.36,6.71,6.831,5.987,11.317,3.145,2.9,6.418,5.642,9.5,8.2,1.4-.32,2.93-.74,4.551-1.186C657.029,1336.093,661.974,1334.735,666.5,1334.735Zm-480.55-681.5c-13.821,22.914-27.2,46.4-39.759,69.817-12.647,23.573-24.8,47.7-36.134,71.7-11.416,24.188-22.295,48.9-32.335,73.439C67.6,892.942,58.062,918.184,49.365,943.223c-1.173,3.544-2.384,7.163-3.453,10.356-4.933,14.74-10.034,29.982-14.082,45.213-2.18,8.2-3.885,15.732-5.211,23.015a209.646,209.646,0,0,0-2.984,23.416,327.677,327.677,0,0,0-8.187,36.638,345.679,345.679,0,0,0-3.92,77.065,328.384,328.384,0,0,0,4.684,38.692,283.1,283.1,0,0,0,23.7,73.363A226.977,226.977,0,0,0,84.105,1333.2a117.572,117.572,0,0,1,2.288-19.685,88.012,88.012,0,0,1,5.2-16.7,76.3,76.3,0,0,1,7.884-14.084,79.126,79.126,0,0,1,10.353-11.823c7.274-6.83,16.184-12.816,27.239-18.3a251.328,251.328,0,0,1,34.489-13.573,523.884,523.884,0,0,1,123.61-27.916c4.341-.105,8.934-.664,13.375-1.2a129.491,129.491,0,0,1,15.378-1.255,40.228,40.228,0,0,1,12.327,1.7c-23.968-57.5-42.919-105.242-59.642-150.261-20.333-54.735-37.119-104.837-51.318-153.171-3.29-.805-6.628-1.671-9.856-2.507-6.953-1.8-14.143-3.666-21.276-5.045a113.433,113.433,0,0,0-21.55-2.3,76.039,76.039,0,0,0-13.128,1.1,1.027,1.027,0,0,1-.162.013,1.043,1.043,0,0,1-.99-.766.779.779,0,0,1,.442-.9c10.256-5.492,22.342-8.162,36.949-8.162a180.357,180.357,0,0,1,25.132,2.026c-8.006-30.338-15.369-60.485-23.96-96.416.117-.545.293-.821.522-.821.5,0,1.157,1.4,1.278,2.121.223-1.072.574-1.615,1.044-1.615.749,0,1.816,1.369,3.172,4.068a97.762,97.762,0,0,1,3.851,9.149c2.566,6.851,4.795,14.01,5.133,15.221,11.417,34.486,23.22,68.982,35.081,102.532,12.107,34.246,24.628,68.5,37.214,101.818,12.836,33.976,26.111,67.956,39.457,101,13.6,33.665,27.664,67.332,41.808,100.066,14.656,33.6,26.96,60.877,38.72,85.837,13.153-3.319,26.5-7.071,40.8-11.471,12.7-3.907,25.863-8.239,40.247-13.244,3.9-1.494,7.987-2.877,12.31-4.342h0c10.538-3.57,21.435-7.261,30.579-12.909a48.682,48.682,0,0,0,12.029-10.133,37.121,37.121,0,0,0,7.447-14.321A63.711,63.711,0,0,0,548.92,1235a96.116,96.116,0,0,0-.654-13.038,175.871,175.871,0,0,0-6.039-28.559c-5.715-19.843-14.159-40.656-22.325-60.783-7.369-18.163-14.328-35.315-18.388-49.7-4.843-15.531-11.281-30.745-17.508-45.457-6.293-14.87-12.8-30.244-17.652-45.934a40.242,40.242,0,0,1-8.861,8.57,2.169,2.169,0,0,0-1.526-.587c-1.428,0-3.189,1.117-5.229,2.41-.337.214-.684.434-1.039.655-2.558,1.591-5.324,3.064-8.218,3.064a8.4,8.4,0,0,1-3.678-.853,23.8,23.8,0,0,1-7.257-9.029,60.545,60.545,0,0,1-4.673-13.989c-2.137-9.708-3.263-22.307-3.347-37.447-.151-27.372,3.074-57.113,5-74.882v-.01c.3-2.8.565-5.215.783-7.333,1.205-9,2.544-19.629,3.337-30.273a234.931,234.931,0,0,0,.464-30.435c-.323-6.832-.908-13.81-1.473-20.557-.793-9.47-1.614-19.262-1.734-28.88a134.506,134.506,0,0,1,2.388-28.717c-2.3-1.364-4.576-2.866-6.776-4.318-1.251-.826-2.544-1.679-3.813-2.488-6.218-.377-12.42-2.2-18.417-3.959l-.006,0c-3.371-.99-6.857-2.013-10.278-2.756-47.629-12.624-95.908-26-142.6-38.94l-.018-.005C228.6,665,207.107,659.048,185.954,653.237Zm194.5,658.36h0a71.126,71.126,0,0,1,3.791,16.154,8.235,8.235,0,0,1,1.166-3.56l.009-.018c.132-.261.257-.508.375-.757l-2.024-4.479-.479-1.06ZM529.178,886.913h0a7.543,7.543,0,0,1,5.362,2.162A5.521,5.521,0,0,1,536.1,893.2c-.551,14.84-1.171,29.836-1.77,44.338l-.014.343c-.3,7.329-.616,14.908-.916,22.361-.088,2.156-.256,4.479-.433,6.938v.005c-.944,13.087-2.118,29.373,7.563,38.319,8.076-7.681,8.534-19.276,8.977-30.49a108.476,108.476,0,0,1,1-12.881q1.054-12.036,2.108-24.076l.534-6.1q1.544-17.636,3.089-35.276a6.408,6.408,0,0,1,2.409-4.589,7.358,7.358,0,0,1,4.56-1.542,6.261,6.261,0,0,1,4.558,1.8,5.684,5.684,0,0,1,1.442,4.332c-.577,16.327-.485,30.84.282,44.369a266.032,266.032,0,0,0,5.637,43.053c.393,2.085.81,4.154,1.13,5.723.252-.3.522-.63.78-.976a10.523,10.523,0,0,1-1.631-4.64,6.683,6.683,0,0,0,5.028-2.679c2.147-2.6,3.158-6.415,3.628-9.156a31.416,31.416,0,0,0,.215-9.647c.5-6.264.675-12.68.842-18.885.082-3.043.166-6.19.289-9.258.553-13.9.835-25.321.89-35.933.067-13.032-.215-24.794-.862-35.958-1.529-26.389-5.153-49.583-11.078-70.909a236.232,236.232,0,0,0-8.272-25.3,210.177,210.177,0,0,0-10.37-22.459,214.357,214.357,0,0,0-26.529-38.456c-4.867-5.682-10.07-11.254-15.908-17.033-5.307-5.256-11.032-10.575-17.5-16.262C483.292,661.3,469.529,650.31,456.5,640c-14.432-12.081-29.42-24.141-45.82-36.868C396.083,591.8,380.7,580.2,363.65,567.674c-31.663-23.265-64.3-46.2-95.855-68.389-15.174-10.666-30.864-21.7-46.22-32.6a7.412,7.412,0,0,1-1.483.155,5.931,5.931,0,0,1-4.555-2.059,7.469,7.469,0,0,1-1.611-5.987c2.022-9.51,10.48-18.371,18.66-26.941,4.46-4.673,8.672-9.086,11.8-13.514a13.013,13.013,0,0,1-2.939.335c-5.338,0-10.291-3.149-15.08-6.194l0,0c-1.528-.972-2.972-1.889-4.416-2.7-6.456-3.624-13.1-7.184-19.76-10.58-8.8-4.6-18.066-9.092-27.535-13.364-9.012-4.066-18.5-8.06-28.207-11.871-17.892-7.027-36.814-13.587-57.849-20.056-12.694,32.686-24.287,66.349-35.5,98.9-4.981,14.465-10.132,29.423-15.332,44.153-1.219,3.226-2.309,6.631-3.363,9.924-2.7,8.431-5.489,17.148-10.8,24.228-2.05,19.7,9.815,37.078,20.129,48.188,9.166,9.345,20.793,17.034,35.545,23.505,13.541,5.94,28.184,10.176,40.847,13.68,62.191,16.945,134.464,36.668,205.2,56.315,9.087,2.584,18.366,5.071,27.34,7.476l.045.012c16.453,4.409,33.466,8.967,49.945,14.3,2.442.779,5.078,1.447,7.628,2.093,9.631,2.441,19.59,4.965,24.272,14.19.061-.165.171-.479.323-.914l.013-.037,0-.01c.685-1.957,2.29-6.54,4.026-10.546,2.163-4.99,3.836-7.52,4.974-7.52.575,0,1.016.658,1.311,1.955-3.371,9.059-5.048,19.2-5.124,30.987-.059,9.05.787,18.775,2.744,31.533.387,2.526.789,5.1,1.177,7.583l.043.276c2.448,15.667,4.979,31.867,5.82,47.963-.552,19.467-2.272,39.238-3.935,58.357v.01c-1.639,18.847-3.334,38.335-3.91,57.525-.31,10.332-.281,19.756.09,28.81.416,10.161,1.249,19.6,2.546,28.86a37.448,37.448,0,0,0,9.328-9.621,51,51,0,0,0,5.835-11.883c2.98-8.482,4.4-17.925,5.776-27.057a191.382,191.382,0,0,1,3.481-18.944c2.342-11.852,5.053-24.435,8.53-39.6a6.438,6.438,0,0,1,2.685-3.989,7.9,7.9,0,0,1,4.447-1.281,8.341,8.341,0,0,1,6.061,2.453,6.177,6.177,0,0,1,1.617,4.788c-1.309,17.773-1.712,35.865-2.1,53.362-.06,2.7-.128,5.752-.2,8.675.324,3.263,0,8.478-.375,14.517-.808,13.018-1.814,29.216,3.615,32.923a7,7,0,0,0,2.936.713,6.521,6.521,0,0,0,5.086-2.867,24.627,24.627,0,0,0,3.6-7.182c1.986-5.754,3.234-12.988,4.237-18.8a77,77,0,0,1,1.852-9.009c4.375-20.334,8.493-40.994,12.24-61.408C523.928,888.118,526.748,886.913,529.178,886.913ZM736.275,493.1h0c-3.2,55.846-6.316,112.643-9.325,167.57l-.007.134c-1.238,22.6-2.641,48.223-4,72.733a762.119,762.119,0,0,0-2.478,77.5c.314,13.264,1.077,26.261,2.269,38.63,1.267,13.148,3.067,26.084,5.348,38.451a120.559,120.559,0,0,1-1.6,35.2A107.641,107.641,0,0,1,714.1,956.372c11.631,4.068,24.642,6.047,39.775,6.047,6.943,0,14.515-.413,23.154-1.263,7.519-.74,14.807-1.694,22.872-2.775-4.069-7.193-4.793-15.551-5.493-23.634v-.009c-.178-2.052-.362-4.174-.6-6.234-5.781-51.668-12.745-108.1-21.291-172.508-7.62-57.438-15.767-115.786-23.645-172.212-4.146-29.7-8.433-60.4-12.6-90.686Zm107.9-130.587a305.278,305.278,0,0,0-53.584,14.47,271.743,271.743,0,0,0-49.677,24.428c-.494,15.371-1.25,31.967-2.38,52.228,6.451,28.881,11.987,57.362,17.56,86.427,10.574,56.528,20.459,115.986,30.221,181.773,8.043,54.205,15.942,112.219,24.859,182.572.357,5.982,1.33,12.124,2.271,18.063v.005c.874,5.518,1.778,11.223,2.193,16.818a65.237,65.237,0,0,1-.655,16.671c23.374-4.309,54.237-9.7,85.671-13.229-2.466-16.347-4.528-33.065-6.306-51.106-1.584-16.076-2.9-32.852-4.037-51.286-2.1-34.236-3.217-69.131-4.293-102.877v-.006c-1.1-34.405-2.233-69.982-4.418-104.9-1.176-18.8-2.554-35.912-4.212-52.316-1.861-18.415-4.025-35.472-6.615-52.146-3.073-24.916-7.052-52.058-12.164-82.977C854.05,417.541,849.03,389.567,844.175,362.514ZM620.044,89.6c1.19,2.314,2.395,4.514,3.58,6.541.947,1.615,2.105,3.254,3.225,4.838l0,.005a44.238,44.238,0,0,1,4.851,7.981c-.024-2.144-.082-4.313-.138-6.41-.1-3.955-.214-8.043-.1-12.04a88.573,88.573,0,0,0-11.259-.91Z" transform="translate(100 -53.998)"></path></g><g transform="translate(225 0)"><g><g><path id="_Skin" data-name="âœ‹ Skin" d="M333.415,93.222c-3.861-23.359,8.811-28.206,0-50.411C313.833,1.667,260.468,3.44,221.308.277,177.63-1.4,133.422,4.369,93.156,21.875A206.38,206.38,0,0,0,65.419,36.56C57.751,41.391,58.8,50.577,63.64,55.588,28.775,104.96,48.716,171.232,20.9,223.2c-5.139,9.29-11.936,17.62-16.4,27.286-6.79,14.693-7.225,35.746,8.173,45.5,21.687,11.64,33.789-11.407,44.445,22C110.33,434.483,217.329,441.044,318.9,380.31c8.788-4.888,17.757-10.413,24.393-18.093,15.063-16.951,13.289-40.789,13.622-61.958q.279-18.608.1-37.22C356.542,212.781,339.885,143.065,333.415,93.222Z" transform="translate(52 80)" fill="#d08b5b"></path><path id="_Ink" data-name="ðŸ– Ink" d="M213.5,501.49a63.664,63.664,0,0,1-17.335-2.192c-6.537-1.829-12.249-4.954-16.082-8.8a19.513,19.513,0,0,1-4.725-7.3,17.479,17.479,0,0,1-.574-9.23,4.344,4.344,0,0,1,1.759-2.785,5.29,5.29,0,0,1,3.038-.911,5.512,5.512,0,0,1,4.713,2.457l.508.813c2.374,3.767,5.311,7.974,10.133,10.236a33.106,33.106,0,0,0,8.577,2.587,57.572,57.572,0,0,0,8.952.734c.369,0,.741.006,1.106.006,16.041,0,32.663-3.965,48.314-8.026a276.5,276.5,0,0,0,44.1-15.351,195.281,195.281,0,0,0,40.089-23.819A69.1,69.1,0,0,0,359.6,426.193a50.238,50.238,0,0,0,4.841-8.2,45.524,45.524,0,0,0,3.143-9.2c2.949-13.064,1.28-27.06-.334-40.6-.352-2.949-.715-6-1.016-8.944-2.936-28.85-6.523-59.481-11.63-99.319l-.85-6.611q-.438-3.395-.879-6.79l-.006-.045c-3.235-24.948-6.581-50.746-8.215-76.255a7.821,7.821,0,0,1-1.44-3.42l-.279-1.81a15.037,15.037,0,0,1-.111-4.28c.01-5.17.154-10.087.439-15.031.05-.9.09-1.807.121-2.689-4.873,1.074-10.028,2.012-15.76,2.87a504.4,504.4,0,0,1-74.865,5.6c-12.419,0-24.993-.466-37.375-1.386-17.274-1.287-35.484-3.5-55.67-6.771-9.676-1.564-19.134-3.273-28.11-5.08-5.5-1.1-10.992-2.541-16.306-3.935l-.052-.014c-1.194-.313-2.428-.637-3.643-.951a56.872,56.872,0,0,0-7.754,16.365,52.828,52.828,0,0,0-2.076,17.925c.338,5.736,2.157,11.335,3.916,16.749a97.26,97.26,0,0,1,3.24,11.57,32.09,32.09,0,0,1,.244,11.95,20.649,20.649,0,0,1-9.133,13.951c-4.622,3.148-10.51,5.022-15.665,6.531l-4.73,1.367a13.665,13.665,0,0,0-4.588,1.989,6.517,6.517,0,0,0-2.353,4.472c-.8,5.286-.342,11.044.1,16.612.189,2.4.367,4.66.453,6.9.108,2.743.226,5.511.341,8.188.262,6.094.532,12.4.679,18.6.029,1.231.064,2.484.1,3.7v.026c.092,3.332.188,6.776.182,10.158a13.924,13.924,0,0,1-1.77,7.639A28.637,28.637,0,0,1,75.427,312a.449.449,0,0,1-.008.454A.507.507,0,0,1,75,312.7a.424.424,0,0,1-.307-.136,26.169,26.169,0,0,0-3.151-2.791,25.933,25.933,0,0,1-1.971,2.141l-.059-.08a6.343,6.343,0,0,1-4.5,1.876,7.079,7.079,0,0,1-4.616-1.8l-.774-.671c-2.029-1.778-3.629-3.392-4.244-6.6v-.007c-.03-.158-.06-.317-.079-.473-.34-.012-.694-.018-1.053-.018a31,31,0,0,0-14.958,3.857,37.011,37.011,0,0,0-16.6,18.121,20.976,20.976,0,0,0,4.588,4.019.228.228,0,0,1,.1.264.242.242,0,0,1-.226.174.259.259,0,0,1-.112-.027,21.963,21.963,0,0,1-4.88-3.13,44.185,44.185,0,0,0-2.49,9.63,42.66,42.66,0,0,0,1.39,18.747,30.47,30.47,0,0,0,4.117,8.41,23.932,23.932,0,0,0,6.753,6.453,29.573,29.573,0,0,0,15.67,4.6h.079a30.777,30.777,0,0,0,7.632-1.1c.417-.1.841-.218,1.251-.329l.011,0a16.04,16.04,0,0,1,4.178-.748,8.711,8.711,0,0,1,4.451,1.2l-.38.033a2.164,2.164,0,0,0-.58.084,5.731,5.731,0,0,0,1.12.041,5.216,5.216,0,0,1,4.4,2.6,5.345,5.345,0,0,1,.051,5.167l-.241.545-.063.136-.064.138-.145.936-.017.1,0,.023c-.008.049-.016.1-.025.149l-.056.19a.9.9,0,0,1-.034.091l6,9.148c7.074,10.763,14.711,22.143,23.431,32.562a268.2,268.2,0,0,0,19.08,20.71c3.92,3.8,8.252,6.264,12.838,8.876,2.4,1.366,4.88,2.779,7.281,4.395a7.594,7.594,0,0,1,3.364,5.5,6.531,6.531,0,0,1-1.963,5.344,14.811,14.811,0,0,1-10.742,4.522,23.8,23.8,0,0,1-11.228-3.233,43.659,43.659,0,0,1-9.55-7.16c-6.686-6.589-13.137-14.891-19.72-25.38A181.729,181.729,0,0,1,74.8,415.06a137.226,137.226,0,0,1-4.859-13.04,119.357,119.357,0,0,1-3.41-13.543,14.724,14.724,0,0,1-5.17,2.811,40.866,40.866,0,0,1-11.84,1.98c-.455.015-.918.023-1.376.023A48.386,48.386,0,0,1,27.5,388.418a40.771,40.771,0,0,1-15.064-12.308,48.085,48.085,0,0,1-8.188-17.34A58.628,58.628,0,0,1,3.4,334.405a53.91,53.91,0,0,1,9.218-22.317,132.842,132.842,0,0,1-4.009-15.624c-.326-1.528-.634-2.968-.952-4.376l-.633-2.748c-2.043-8.925-3.506-16.317-4.6-23.263a188.3,188.3,0,0,1-2.345-23.51c-.555-17.373,1.952-32.521,7.662-46.31a88.888,88.888,0,0,1,5.53-11.281c.555-.944,1.226-1.89,1.937-2.892,1.463-2.061,2.975-4.191,3.522-6.428,1.208-4.879-3.438-9.969-7.538-14.459a38.791,38.791,0,0,1-5.012-6.221,21.567,21.567,0,0,1-2.955-10.693A16.186,16.186,0,0,1,9.177,131.9a28.516,28.516,0,0,1-3.61-14.515,25.378,25.378,0,0,1,4.94-14.425,28.389,28.389,0,0,1,17.86-11.09,29.484,29.484,0,0,1,5-.408A34.993,34.993,0,0,1,42.7,92.738,343.283,343.283,0,0,1,84.508,59.549a322.178,322.178,0,0,1,46.559-26.042A372.659,372.659,0,0,1,208.087,8.39a391.952,391.952,0,0,1,120.77-6.332,378.721,378.721,0,0,1,96.618,22.612l2.718,1.05,1.351.518c7.324,2.8,14.9,5.7,20.373,11.35a23.369,23.369,0,0,1,4.136,5.811,22.554,22.554,0,0,1,2.134,6.634,21.017,21.017,0,0,1-2.439,13.675,28.489,28.489,0,0,1-7.571,8.573,37.306,37.306,0,0,1-10.159,5.477,60.3,60.3,0,0,1,7.21,6.99,11.578,11.578,0,0,1,2.966,7.427,10.179,10.179,0,0,1-.7,3.873,10.72,10.72,0,0,1-2.266,3.509,61.572,61.572,0,0,1-13.418,10.561,62.193,62.193,0,0,1-15.772,6.519,30.756,30.756,0,0,1-2.09,18.59,26.209,26.209,0,0,1-6.735,9.146,32.116,32.116,0,0,1-9.5,5.62c-6.13,2.4-13.759,3.611-22.675,3.611-2.167,0-4.445-.072-6.77-.215l-.5-.031-.92,10.53a12.68,12.68,0,0,1-2.821,7.191,10.772,10.772,0,0,1-6.729,3.629c-.2.03-.4.05-.6.069,9.113,32.955,14.63,67.314,19.5,99.681,2.3,15.271,4.53,31.445,7.233,52.445l.747,5.835c.545,4.289,1.132,8.664,1.7,12.894l0,.013c1.935,14.428,3.935,29.347,4.738,44.033a94.548,94.548,0,0,1-.142,12.764,75.145,75.145,0,0,1-2.017,12.305,64.147,64.147,0,0,1-4.185,11.681,61.179,61.179,0,0,1-6.645,10.89c-8.7,11.377-20.99,21.056-36.54,28.77a383.268,383.268,0,0,1-48.664,20.246c-8.414,2.811-16.917,5.281-25.273,7.34-8.616,2.124-17.331,3.875-25.9,5.2l-2.332.359A156.011,156.011,0,0,1,213.5,501.49ZM74.4,353.773a6.4,6.4,0,0,1-3.9-1.335c-1.718-1.286-3.277-2.625-4.784-3.92-3.712-3.189-7.218-6.2-12.436-7.89a54.222,54.222,0,0,0-16.1-2.738,32.252,32.252,0,0,0-5.581.459.856.856,0,0,1-.144.012,1,1,0,0,1-.909-.625.7.7,0,0,1,.223-.8,36.136,36.136,0,0,1,9.929-6.413,28.833,28.833,0,0,1,11.393-2.271c.931,0,1.889.042,2.849.123a47.508,47.508,0,0,1,14.807,3.716,33.212,33.212,0,0,1,6.663,3.879,23.462,23.462,0,0,1,5.189,5.365,7.111,7.111,0,0,1,.2,7.535A8.838,8.838,0,0,1,74.4,353.773Z" transform="translate(38 0)"></path></g></g><g transform="translate(159 186)"><g><path d="M161.26 3.75829C151.862 0.105287 135.062 -2.96371 127.162 5.02229C122.951 9.28029 125.484 15.1363 130.37 17.1713C133.516 18.4822 136.949 18.183 140.337 17.8877C141.669 17.7716 142.993 17.6562 144.29 17.6393C148.84 17.5813 153.361 18.1643 157.793 19.1723C161.357 19.9847 164.836 21.1098 168.293 22.2873L170.595 23.0773C171.32 23.3264 172.054 23.61 172.797 23.8967C175.616 24.9851 178.553 26.1192 181.532 25.5913C182.229 25.4673 182.565 24.7623 182.634 24.1453C183.089 20.0982 179.892 16.2352 177.024 13.4278L176.386 12.8144L175.972 12.4263C171.724 8.48129 166.624 5.84429 161.26 3.75829ZM33.6232 10.8211L35.7926 10.2262L38.0047 9.62924L39.5005 9.23374C49.7753 6.54436 61.1082 4.17756 71.2972 5.33309C75.0132 5.75509 78.0292 7.84609 78.5552 11.7391C78.9982 15.0241 76.8752 19.2621 73.2622 19.8461C61.2952 21.7821 49.0442 21.1541 37.0222 23.1501C31.0352 24.1431 25.0942 25.3761 19.1302 26.4871C14.5952 27.3331 9.90917 27.6301 5.33517 28.3141L6.38617 28.4601C6.75417 28.5101 6.66217 29.1291 6.29917 29.1041C4.79154 28.9536 3.28162 28.9302 1.7694 29.0359L1.12117 29.0891C0.134167 29.2281 -0.447833 28.0501 0.432167 27.4521C6.00517 23.6711 10.7342 19.5731 16.9742 16.7861C22.3712 14.3761 27.9262 12.3891 33.6232 10.8211ZM166.634 45.6655C168.478 45.1131 169.779 45.3742 171.441 46.2403C172.719 46.9059 173.589 47.9568 174.088 49.1838C174.599 50.4395 174.707 51.8878 174.454 53.2296C173.406 58.8007 170.042 63.7442 165.503 66.9282C161.091 70.0227 155.589 71.452 150.049 70.2614C146.003 69.3919 140.008 65.5531 136.85 60.8711C135.504 58.8752 134.671 56.736 134.581 54.6232C134.495 52.6084 135.008 50.5771 137.676 47.8994C137.936 47.8184 138.208 47.7747 138.477 47.7747C139.138 47.7747 139.821 48.0516 140.274 48.4513C141.469 49.502 142.312 50.8319 143.178 52.2626L143.41 52.6451C143.799 53.2818 144.2 53.9109 144.69 54.476C146.449 56.5028 149.003 58.2218 151.683 58.6693C154.167 59.0845 156.407 58.3485 158.181 56.9599C160.257 55.3353 161.713 52.8432 162.253 50.1809C162.472 49.1021 163.036 48.1297 163.818 47.3478C164.607 46.5588 165.615 45.9718 166.634 45.6655ZM49.1162 69.4299C47.1005 71.4882 44.4385 72.6496 41.0316 71.9587C38.3694 71.4193 33.3005 68.7424 29.2512 64.6199C26.481 61.7996 24.1647 58.2755 23.535 54.193C23.3888 53.2449 22.8856 52.6371 22.225 52.2543C21.7033 51.952 21.0154 51.8002 20.2661 51.876C19.6299 51.9404 18.9544 52.1708 18.4324 52.4762C17.4395 53.0572 17.0334 53.8821 16.9509 54.498C16.1543 60.4416 18.4501 66.3391 22.0288 71.3116C26.8584 78.0223 33.951 82.9399 38.1196 84.0909C45.2534 86.0617 52.7703 84.4928 58.3124 79.5277C62.7443 75.5578 65.0159 70.3856 67.1236 65.0671L67.53 64.0361C68.0041 62.8293 68.4745 61.6313 68.9729 60.4461C69.9719 58.0711 69.652 56.0181 68.6834 54.418C67.6103 52.6454 65.6296 51.3976 63.4246 51.0143C61.3865 50.6601 59.2055 51.0476 57.4838 52.2925C56.0293 53.3441 54.8564 55.0104 54.4397 57.4743C53.762 61.4809 52.1899 66.0779 49.4178 69.111L49.1162 69.4299ZM129.748 108.039C137.872 96.6602 126.366 85.9571 118.814 81.367C116.836 79.9471 118.406 75.2433 122.634 75.9703C161.031 82.5673 141.136 148.708 92.1122 112.413C86.2756 107.704 93.3436 97.3338 99.6344 101.366C99.9534 101.611 100.288 101.869 100.637 102.139C107.704 107.603 120.636 117.601 129.748 108.039ZM138.581 156.822C135.281 161.137 129.306 164.442 122.614 166.022C116.238 167.528 109.191 167.466 103.109 165.149L102.587 164.941C98.0396 163.053 93.6748 159.239 92.0173 155.26C91.3584 153.678 91.1354 152.069 91.5864 150.569C91.9921 149.219 92.9432 147.976 94.5273 146.909C95.0247 146.574 95.6918 146.55 96.3274 146.662C97.116 146.801 97.8933 147.17 98.3623 147.668C100.964 150.435 104.739 153.132 109.207 153.086C112.655 153.051 115.47 151.69 118.2 150.151L120.119 149.053C121.97 147.996 123.847 147.004 125.971 146.551C129.773 145.739 134.384 147.222 137.194 149.67C138.419 150.737 139.309 151.991 139.551 153.343C139.755 154.477 139.469 155.661 138.581 156.822Z" transform="translate(51.99983 63.00011)" fill-rule="evenodd" stroke="none"></path></g></g><g transform="translate(123 338)"><g><path d="M212.043 152.834C212.043 152.834 167.653 159.357 147.783 150.138C127.973 140.949 108.703 132.057 90.7328 119.884C72.3228 107.413 56.7028 92.6033 45.5528 73.6462C35.1828 56.0075 26.5628 37.291 17.8828 18.7189C17.3755 17.6336 12.3928 6.84431 10.6328 3.22611C7.92276 -2.38401 0.00276151 -0.623038 0.00276151 8.08566C0.00276151 16.7944 -0.387239 82.7459 14.8328 108.689C28.5628 132.121 51.8328 148.493 74.9528 162.783C100.533 178.584 134.513 195.664 165.033 200.177C192.653 204.257 224.173 192.797 244.173 173.907C265.083 154.151 271.003 127.312 281.793 101.609C284.203 95.8646 275.659 92.3999 273.153 98.0498C268.433 108.689 212.043 152.834 212.043 152.834Z" transform="translate(-2.482762 -14.77045)" stroke="none"></path></g></g><g transform="translate(47 241)"></g></g></g></svg>