<?xml version="1.0" standalone="no"?>
<svg viewBox="-1300 -200 3350 3350" style="width: 487.5px; height: 487.5px; justify-content: center; align-self: center; transform: scale(1, 1);" xmlns="http://www.w3.org/2000/svg"><g transform="rotate(0 450.8275451660156 1442.5872650146484)"><g transform="translate(-276 479)"><path id="_Skin" data-name="âœ‹ Skin" d="M795.908,786.084c-10.417-94.386-26.176-191.2-65.972-278.626C716.261,394.4,739.3,232.489,634.6,156.253c1.339-13.535-22.91-25.2-34.152-32.425-18.26-11.967-42.958-35.478-64.573-22.307-6.819-2.082-23.634,6.44-31.375-12.042-7.929-18.931-6.777-56.89-13.1-60.355,2.79-27.355-120.133-45.658-152.216-6.992-15.234,29.658,2.264,39.1-32.086,78.084-15.169.932-29.638,4.779-43.628,10.054-11.551,1.6-23.041,3.542-34.479,5.565C83.105,129.342,72.076,237.337,59.146,353.31,48.075,509.094-.014,664.3,20.776,821.31,9.285,877.454,8.53,937.363,22.251,992.973c-44.988,65.73-12.378,102.1,15.682,164.6,4.749,11.243,8.882,22.823,10.983,34.818a118.538,118.538,0,0,0,1.14,27.823c4.762,21.019,39.788,18.08,41.348-3.158,2.739-13.947,1.89-28.417,4.015-42.434-.123.73-.339,2.131-.339,2.24,5.137-35.272,13.417-48.945,36.288-75.86,29.366-42.469,11.308-95.836,18.01-143.367,1.837-15.883,4.266-31.554,5.892-47.466a130.615,130.615,0,0,0,31.912,13.724c-7.086,54.7,5.24,109.649,18.943,162.556,37.089,136.291,86.261,276.241,64.9,419.264.01-.069-23.288,116.892-41.689,174.625-22.249,73.215-40.163,146.557-71.639,216.76-16.859,50.531-52.526,98.468-51.141,152.868-12.314,18.215,9.858,40.1,29.4,40.047,0,24.664-13.02,71.135-13.02,71.135-2.045,17.229-10.855,39.168,2.464,53.8-18.107,46.126-24.469,96.039-29.439,144.856-1.9,23.156-4.075,51.068,20.711,64.2,23.093,9.991,49.977,5.6,74.636,8.576,23.857.033,48.545,6.29,72.008.888,26.949-7.676,32.374-36.869,27.3-60.216-3.273-24.31-7.2-48.542-11.488-72.7-12.734-52.61-16.3-110.988-32.61-161.6,9.138-1.711,18.309-6.317,24.509-13.033,15.752-.518,27.366-12.243,31.224-26.106,2.786-8.936,14.778-10.772,22.856-13.615,1.51,7.715,5.924,14.2,9.518,21.222-3.069,14.9,7.175,32.322,24.088,32.667,2.444,2.348,4.713,4.746,7.208,6.985-19.233,28.308-33.494,60.272-37.108,93.986-4.353,25.86-8.907,67.3,25.32,74.954,12.922,1.7,26.828,5.012,39.49.306,14.117,6.335,29.127,9.373,44.326,12.085,65.144,10.995,127.973,10.071,193.66,17.454,17.33,2.412,86.767,9.539,98.325,0,14.1,2.884,5.573-7.63,11.5-17.454,4.724-7.379,17.338-21.508,9.2-25.6-17.084-7.373-32.228-21.877-47.859-30.111-73.049-41.578-230.608-112.386-229.514-114.38-.216,1.411.955-34.185,6.8-43.63,8.215-8.144,24.588-6.713,33.164-14.5,5.442.255,46.272-11.492,42.777-31.167-4.479-15.705,10.152-34.953,0-48.212,33.612-307.048,111.828-604.843,154.993-910.254.955-.839,1.9-1.687,2.854-2.526,22.258,3.723,39.549-18.631,46.308-36.238a120.058,120.058,0,0,0,9.261-10.4c18.137-23.587,18.462-54.309,20.525-82.373a18.634,18.634,0,0,0,7.619-14.474q1.077-27.058,2.238-54.106c.01,0,.01,0,.01-.01,5.586-8.968,6.345-19.062,4.754-29.342C805.148,847.821,810.27,816.674,795.908,786.084Z" transform="translate(318 -20.662)" fill="#d08b5b"></path><path id="_Shoes" data-name="ðŸ‘Ÿ Shoes" d="M113.061,155.421a265.294,265.294,0,0,1-45.684-3.763C36.213,146.1,10.686,131.286,8.54,129.2A27.313,27.313,0,0,1,1.375,117.63,35.76,35.76,0,0,1,.349,102.6l.073-.563,1.3-9.563,8.946,3.619A291.089,291.089,0,0,0,41.02,106.417a328.371,328.371,0,0,0,32.188,7.269c10.912,1.9,22.317,3.349,33.9,4.3,11.457.937,23.4,1.412,35.486,1.412,14.509,0,29.662-.684,45.037-2.034l2-.179,11.994-1.1-4.308,11.246a32.009,32.009,0,0,1-7.532,11.5,40.237,40.237,0,0,1-12.17,7.976l-.774.331-.244.084C161.679,152.356,137.927,155.421,113.061,155.421ZM561.247,69.39c-26.425,0-52.605-.7-77.814-2.087-25.475-1.4-50.765-3.541-75.167-6.364l-2.633-.308-3.015-.36c-20.267-2.372-59.57-9.5-89.594-15.376-16.781-3.285-32.45-6.525-44.121-9.123-12.573-2.8-19.926-4.715-21.266-5.542-7.577-4.682-12.312-11.13-14.072-19.164l-.105-.5L231.323,0l10.651,1.672c36.77,5.771,70.9,10.453,110.657,15.179,37.489,4.457,81.668,9.165,147.724,15.742l60.3,6c32.476,3.259,53.336,5.434,76.966,8.025l5.627.618,1.925,3.1a3.116,3.116,0,0,0,.76.829l.194.137-4.45,13.754-.569.364a19.423,19.423,0,0,1-2.64,1.494l-.308.136L636.9,67.6l-1.372.063C610.313,68.808,585.322,69.39,561.247,69.39Z" transform="translate(417.495 2247.419)" fill="#fff"></path><path id="_Top" data-name="ðŸ‘• Top" d="M797.343,791.376c-10.727,7.036-150.24,71.246-304.412,75.132C385.373,869.218,197.835,821,143.835,817c-18.916-1.4-2.808,55.54.464,58.652-1.265,12.02-9.492,32.149-8.595,44.315C120.28,915.974,71.835,908,8.835,876c-9.02-4.582-14.292-253.042.1-376.493,19.9-170.78,30.232-326.87,44.9-335.507.172,4.344-11.882-116.721,90-136,18.5-3.5,126-28,126-28,44,56,114.018,103,154,103,71,0,111.161-103.239,118-102,149,27,136.083,205.326,172,403C745.2,576.623,794.527,745.1,797.343,791.376Z" transform="translate(334.165 83)" fill="#fff"></path><path id="_Pants" data-name="ðŸ‘– Pants" d="M614.123,2.939,625.068,0l-2.394,17.054-7.5,52.04c-1.466,10.262-82.484,466.181-82.484,466.181S449.618,1050.87,445.7,1117.443c-.182,3.1-5.12,46.276-10.678,49.913l-.4.258-.4.248c-1.782,1.1-15.228,10.623-71.279,19.72-31.726,5.149-136.728,14.863-136.728,14.863l.325-9.3c.29-7.921.863-21.288,1.23-30.707l.1-2.576.154-4.312-.178-.036c-2.25-.425-4.439.535-8.283,4.412-6.5,6.552-14.648,19.606-24.9,40.661l-2.938,6.061S38.888,1167.069,5.682,1147.1l-1.026-.62L0,1143.653l1.7-7.217C9.583,1103.26,114.846,789.174,127.235,747.4l1.151-3.9.656-2.234c16.986-57.988,47.883-318.678,25.907-396.692-40-142-74.529-300.347-79.4-316.458l-.716-2.349-.725-2.344L70.264,11.1l12.613,2.772c174.189,38.275,356.135,35.167,526.1-9.566Z" transform="translate(425.05 893.418)" fill="#e86bbb"></path><path id="_Ink" data-name="ðŸ– Ink" d="M218.684,2424.133a293.583,293.583,0,0,1-39.619-2.63,209.948,209.948,0,0,1-38.033-8.57c-12.434-4.166-22.893-9.39-31.084-15.525a63.191,63.191,0,0,1-11.261-10.689,48.13,48.13,0,0,1-7.512-12.809,162.456,162.456,0,0,1-1.524-23.876,229.759,229.759,0,0,1,1.475-23.926c1.758-15.952,4.883-32.105,7.9-47.727,2.025-10.466,4.119-21.286,5.755-31.845l1.138-5.954c1.008-5.3,2.037-10.763,2.945-15.584,3.29-17.468,6.691-35.531,10.427-53.219,4.189-19.838,8.362-37.077,12.756-52.7,1.352-5.694,3.1-11.8,5.494-19.2a80.046,80.046,0,0,0,.221-11.1,105.7,105.7,0,0,0-2.2-14.373c-.131-.634-.251-1.4-.353-2.06-10.7-4.936-19.189-9.9-25.237-14.744a43.008,43.008,0,0,1-7.884-7.964,19.931,19.931,0,0,1-3.751-8.311c-1.722-9.383,1.1-18.829,3.821-27.964l.011-.038c.374-1.253.761-2.55,1.124-3.811l.172-.6c8.6-30.206,19.052-62.833,31.956-99.748,11.5-32.891,23.8-65.97,35.694-97.96l.006-.016c14.038-37.751,28.555-76.788,41.655-115.294,7.051-20.723,13.152-39.677,18.653-57.944,6.172-20.494,11.439-39.618,16.1-58.464,5.006-20.225,9.289-40.152,12.731-59.227,3.68-20.4,6.552-40.663,8.535-60.234,2.1-20.689,3.28-41.376,3.517-61.487.248-21.088-.534-42.278-2.326-62.983-.943-14.574-2.616-29.31-5.113-45.051-2.225-14.023-5.059-28.532-8.664-44.354-6.7-29.4-15.111-58.959-23.248-87.55l0-.013c-7.836-27.536-15.938-56.009-22.5-84.292-3.532-15.228-6.348-29.187-8.609-42.676-2.537-15.14-4.316-29.3-5.437-43.3-2.445-10.586-5.23-23.11-7.354-35.737a271.079,271.079,0,0,1-3.849-36.288c-1.118-.263-2.242-.519-3.329-.767-2.241-.511-4.557-1.039-6.816-1.625-1.624,8.693-4.066,20.06-8.554,30.879a230.309,230.309,0,0,0,2.821,58.441,9.255,9.255,0,0,1-.855,5.993,8.025,8.025,0,0,1-4.184,3.728c3.435,10.707,7.216,27,5.724,43.807a67.811,67.811,0,0,1-5.172,21.109,54.227,54.227,0,0,1-12.7,18.067l-1.879,1.245a126.554,126.554,0,0,0-11.777,8.542,34.166,34.166,0,0,0-7.054,7.84c-3.451,5.466-5.1,12.09-7.5,24.872l-15.077,61.744c-1.867,7.547-4.147,15.417-9.6,21.427a22.807,22.807,0,0,1-17.181,7.893,26,26,0,0,1-8.462-1.464,31.479,31.479,0,0,1-7.862-4.052,33.857,33.857,0,0,1-11.417-13.816c-3.931-10.044-5.6-20.854-7.217-31.308a202.139,202.139,0,0,0-4.5-23.12,82.451,82.451,0,0,0-3.981-13.4,113.594,113.594,0,0,0-5.856-12.616c-4.487-8.385-9.959-16.56-14.786-23.773l0-.005a110.459,110.459,0,0,1-13.3-28.869A112.616,112.616,0,0,1,0,1045.638a104.3,104.3,0,0,1,4.506-31.282,93.742,93.742,0,0,1,14.3-28.456c.731-1.866,1.47-3.8,2.123-5.5,1.461-3.814,2.971-7.757,4.606-11.621-6.147-7.212-5.356-17.287-4.591-27.031a83.355,83.355,0,0,0,.372-12.875c-.016-10.125-.191-20.537-.535-31.832-.8-26.551-2.446-53.453-4.036-79.469v-.008c-2.164-35.389-4.4-71.983-4.536-108.1-.438-14.731-.152-29.689.873-45.731.913-14.295,2.4-29.126,4.537-45.34,3.974-30.124,9.671-60.578,15.18-90.029,4.163-22.254,8.467-45.263,12-67.981,4.254-31.411,6.829-63.589,9.32-94.706v-.011c2-24.953,4.062-50.755,6.981-76.012,1.571-13.594,3.257-25.953,5.154-37.783,2.129-13.274,4.469-25.543,7.151-37.511a169.338,169.338,0,0,1,10.516-33.144,132.6,132.6,0,0,1,15.259-26.184,124.029,124.029,0,0,1,19.125-20.182,139.068,139.068,0,0,1,22.114-15.14,179.814,179.814,0,0,1,24.226-11.059,255.87,255.87,0,0,1,25.46-7.937c17.187-4.464,34.43-7.454,51.105-10.346h.009c40.257-6.982,75.024-13.011,87.161-36.717a94.667,94.667,0,0,0,6.3-12.109,111.076,111.076,0,0,0,4.586-12.736A156.632,156.632,0,0,0,344.45,2.192,2.3,2.3,0,0,1,346.743,0a2.351,2.351,0,0,1,2.346,2.191A103.564,103.564,0,0,1,341.532,55c-7.742,17.728-20.251,31.137-36.173,38.777,9.449,8.347,18,17.887,26.265,27.113l0,0c7.019,7.832,14.276,15.931,22.034,23.24a150.974,150.974,0,0,0,12.186,10.393,112.833,112.833,0,0,0,13.6,8.929A104.692,104.692,0,0,0,407.9,176.424a109.577,109.577,0,0,0,30.062,4.152,116.972,116.972,0,0,0,19.261-1.614,121.057,121.057,0,0,0,18.721-4.708,122.2,122.2,0,0,0,17.714-7.6,119.684,119.684,0,0,0,16.24-10.29,110.512,110.512,0,0,0,26.192-27.842,101.042,101.042,0,0,0,14.7-36.179c-3.326-.763-7.263-1.353-11.432-1.978l-.018,0c-7.782-1.166-16.6-2.489-23.85-5.333-8.34-3.272-13.216-8.028-14.908-14.539-1.054-1.081-1.983-6.119-2.616-14.188-.553-7.041-.839-15.9-.765-23.7-.13-2.506-.216-5.038-.3-7.487l-.031-.9a58.564,58.564,0,0,1-.288-6.868,3.635,3.635,0,0,1,1.2-2.8,3.957,3.957,0,0,1,2.613-.927,3.911,3.911,0,0,1,4.066,3.726c.134,2.073.225,4.241.3,6.111.039.388.089.781.137,1.162v.008q.029.226.057.452c.653,2.374,1.179,4.816,1.689,7.178.3,1.409.59,2.739.9,4.059.55,2.324.991,4.11,1.429,5.792a50.749,50.749,0,0,0,4.24,14.729,42.374,42.374,0,0,0,14.232,16.3,41.86,41.86,0,0,0,9.906,5.084,33.083,33.083,0,0,0,10.658,1.936h.247c1.374,0,2.762-.091,4.1-.18h.036c1.335-.087,2.716-.178,4.079-.178.245,0,.493,0,.738.009,4.728.121,8.659,1.9,12.821,3.794l.748.339c4.671,2.111,8.277,3.052,11.692,3.052h.025a206.264,206.264,0,0,1,22.429,9.079A185.211,185.211,0,0,1,624.863,107.1,173.561,173.561,0,0,1,657.9,134.46a183.568,183.568,0,0,1,13.433,16.016,201.913,201.913,0,0,1,11.6,17.375c3.5,5.864,6.833,12.116,9.922,18.583,2.97,6.219,5.8,12.828,8.413,19.641A352.436,352.436,0,0,1,714.22,247.93c3.357,13.569,6.266,28.054,8.894,44.285,4.868,30.07,7.915,61.07,10.862,91.049v.012c3.225,32.8,6.27,63.784,11.449,92.326,4.218,22.652,9.6,47.286,16.466,75.31,6.124,25.009,12.822,50.316,19.3,74.789l0,.01c10.7,40.417,21.758,82.209,30.506,123.682,4.709,22.325,8.392,42.782,11.26,62.541,3.218,22.174,5.334,42.907,6.469,63.383a14.848,14.848,0,0,1-.591,7.5,16.638,16.638,0,0,1-3.733,5.868c-3.283,3.476-7.891,6.184-12.348,8.8-2.3,1.35-4.468,2.625-6.441,3.988-1.061,14.609.86,29.531,2.717,43.961,1.339,10.4,2.724,21.162,2.976,31.7a119.177,119.177,0,0,1-.593,15.777,88.575,88.575,0,0,1-3.089,15.7c-4.531,13.582-15.315,35.644-29.19,54.315-11.6,15.609-29.409,34.215-48.379,34.218a28.376,28.376,0,0,1-8.024-1.157c-3.96,30.1-8.48,60.6-13.817,93.255-4.754,29.09-10.056,59.247-16.207,92.194-11.418,61.156-24.082,122.741-36.33,182.3l-.01.05c-9.507,46.23-19.338,94.033-28.479,141.136-10.242,52.773-18.526,99.128-25.326,141.714-8.156,51.073-14.411,97.968-19.123,143.363-2.552,24.588-4.666,49.026-6.282,72.636-1.695,24.761-2.9,49.473-3.587,73.451a32.114,32.114,0,0,1,1.717,14.229A30.853,30.853,0,0,1,571,2062.7c-3.649,6.092-9.5,11.6-16.921,15.926a65.793,65.793,0,0,1-11.135,5.142,66.566,66.566,0,0,1-11.722,3l-3.383,1.949c-10.44,5.992-22.645,12.732-35.38,16.866l-.161.094-.017.01c-.246.143-.5.292-.756.43a5.784,5.784,0,0,1-1.91.627c.607,7.259,2.732,14.77,6.688,23.637a232.724,232.724,0,0,1,24.433,7.117c7.543,2.627,15.294,5.692,23.7,9.369,15.606,6.83,31.121,14.782,46.124,22.472l.009,0c16.542,8.478,33.646,17.245,50.862,24.5,9.453,5.816,24.417,12.259,41.744,19.719,19.365,8.338,41.313,17.789,58.807,27.992,20.131,11.741,31.009,22.54,33.255,33.013l.193,1.025a33.5,33.5,0,0,1-5.734,25.877,22.913,22.913,0,0,1-16.706,9.332,10.7,10.7,0,0,1,3.842,5.054,11.281,11.281,0,0,1,.376,5.883,15.367,15.367,0,0,1-3.737,7.295,14.876,14.876,0,0,1-7.169,4.456c-7.759,2.065-16.068,2.191-24.1,2.312-4.136.062-8.413.127-12.543.458-14.817.465-29.816.7-44.58.7-101.9,0-201.585-11.044-296.272-32.826a120.5,120.5,0,0,1-14.038-4,54.2,54.2,0,0,1-12.936-6.569,53.563,53.563,0,0,1-11.168-11.918,51.89,51.89,0,0,1-6.583-13.83,65.823,65.823,0,0,1-2.691-15.367,97.469,97.469,0,0,1,.509-16.53c1.12-10.128,3.687-21.593,7.848-35.051,3.672-11.877,8.077-23.74,12.337-35.212,5.5-14.813,10.7-28.8,13.6-40.938a99.985,99.985,0,0,1-12.769-2.87l-.937-.281c-3.844-1.164-8.216-2.652-11.444-5.589-.079-.072-.153-.152-.218-.222-.041-.044-.093-.1-.144-.151-3.036-.043-5.321-1.1-6.791-3.142-5.386-7.488.778-26.772,5.279-40.853,1.762-5.511,3.283-10.271,3.719-13.131-2.77,5.9-5.416,12.041-7.975,17.98l0,.01c-5.1,11.83-10.368,24.063-16.959,35.221a11.441,11.441,0,0,1-5.117,4.364,16.135,16.135,0,0,1-6.5,1.178,59.411,59.411,0,0,1-11.784-1.681h-.007a66.333,66.333,0,0,0-8.431-1.417c.8,14.769,2.261,29.729,4.454,45.734,1.966,14.35,4.474,29.157,7.668,45.267,5.912,29.823,13.254,59.386,20.889,89.569.882,3.566,1.83,7.261,2.747,10.835l.025.1c4.013,15.642,8.162,31.812,9.54,46.973a89.019,89.019,0,0,1-.38,21.769,56.624,56.624,0,0,1-2.436,9.929,46.365,46.365,0,0,1-4.3,9.091,44.224,44.224,0,0,1-6.422,8.089,50.48,50.48,0,0,1-8.824,6.955,67.237,67.237,0,0,1-11.5,5.672,98.418,98.418,0,0,1-14.444,4.239,168.975,168.975,0,0,1-24.285,4.238A276.443,276.443,0,0,1,218.684,2424.133ZM113.3,2354.458a27.873,27.873,0,0,0,.841,12.847,19.968,19.968,0,0,0,5.816,8.626c5.235,4.682,12.955,7.591,21.128,10.671l.211.08.946.357a233.921,233.921,0,0,0,38.079,10.422,219.2,219.2,0,0,0,39.572,3.68h.009a183.075,183.075,0,0,0,59.7-9.592,33.545,33.545,0,0,0,9.964-6.263,24.639,24.639,0,0,0,6.192-9.217c-16.225,1.482-32.23,2.233-47.569,2.233-11.743,0-23.363-.44-34.538-1.308-11.7-.909-23.219-2.312-34.251-4.169a338.342,338.342,0,0,1-33.579-7.391A298.55,298.55,0,0,1,113.3,2354.458ZM346.255,2260.5c1.525,7.538,6.41,13.091,14.934,16.978,7.387,3.368,16.349,4.977,24.257,6.4,1.891.339,3.677.66,5.4,1,19.7,4.123,39.488,7.828,58.819,11.011,19.855,3.27,39.8,6.083,59.269,8.362,25.505,3.077,52,5.4,78.759,6.9,25.6,1.437,52.194,2.165,79.046,2.165h.018c23.941,0,48.8-.58,73.873-1.722a13.385,13.385,0,0,0,1.939-1.1,7.145,7.145,0,0,1,4.109-1.529h.007l.322.009c.092,0,.182.006.261.01h.024l.148.007a10.749,10.749,0,0,1-3.2-3.271c-40.133-4.413-81.01-8.466-120.54-12.386h-.011c-45.587-4.521-92.727-9.2-139-14.448C432.8,2272.986,387.513,2266.975,346.255,2260.5Zm33.14-159.066a177.093,177.093,0,0,1-5.87,31.7c-2.82,10.457-6.328,20.951-9.72,31.1l0,.008-.026.08c-1.657,4.957-3.37,10.082-4.966,15.1a53.22,53.22,0,0,0,13.582,1.8h.006a54.452,54.452,0,0,0,14.977-2.145,77.288,77.288,0,0,0,14.129-5.659c9.2-4.685,18.18-11.047,26.866-17.2,6.948-4.921,14.13-10.01,21.411-14.234a103.61,103.61,0,0,1,11.1-5.65,69.5,69.5,0,0,1,11.564-3.881,63.706,63.706,0,0,1-.951-17.785,48.278,48.278,0,0,1,4.463-16.652c-11.117,1.93-21.181,3.348-30.766,4.335a300.2,300.2,0,0,1-30.974,1.678A226.354,226.354,0,0,1,379.394,2101.433Zm-231.866-23.788a1.155,1.155,0,0,1,.142.676c-.074,14.885-.82,30.08-2.28,46.452-1.292,14.5-3.121,29.615-5.592,46.211a90.734,90.734,0,0,1,16.293-13.819,99.921,99.921,0,0,1,18.876-9.779,111.3,111.3,0,0,1,20.6-5.812,120.169,120.169,0,0,1,21.462-1.921,122.706,122.706,0,0,1,18.9,1.467,118.663,118.663,0,0,1,18.318,4.366l-.17-1.981c-.125-1.408-.26-2.838-.39-4.221-.923-9.8-1.877-19.926-.273-29.676l-1.785-.5c-3.868-1.068-8.711-2.335-14.319-3.8-11.929-3.12-26.775-7-42.564-11.655C176.085,2088.157,160.64,2082.92,147.528,2077.646ZM194.505,918.372c4.316,13.843,8.2,28.155,11.541,42.54,3.271,14.077,6.116,28.617,8.455,43.215,1.582,11.849,3.626,23.844,6.249,36.671,2.336,11.426,5.083,23.257,8.4,36.169,6.154,23.983,13.383,48.145,20.374,71.512l0,.006c7.183,24.01,14.611,48.838,20.886,73.511,5.448,21.916,9.688,42.285,12.962,62.272,3.354,20.471,5.617,40.066,6.92,59.9,1.312,19.981,1.616,39.688.929,60.249-.681,20.389-2.32,41.1-5.011,63.308l-.326,2.657c-1.675,14.08-3.79,28.591-6.288,43.128-2.38,13.857-5.187,28.2-8.344,42.64-5.824,26.64-12.916,54.146-21.681,84.088-7.3,24.954-15.931,52.088-26.374,82.954-9.306,27.506-19.164,55.369-28.7,82.315l-.018.05-.009.026c-13.321,37.654-27.1,76.591-39.566,115.113-6.714,20.743-12.526,39.716-17.768,58-5.884,20.529-10.906,39.677-15.351,58.539,5.961,3.62,12.314,7.126,18.879,10.419,6.244,3.131,12.88,6.17,19.723,9.03a424.444,424.444,0,0,0,41.336,14.653c28.183,8.508,57.445,14.854,85.744,20.992l.073.016c4.357.945,8.862,1.922,13.258,2.885C310.608,2075,319.833,2055,328.22,2035.8c8.916-20.418,17.231-40.733,24.714-60.38,7.881-20.693,15.122-41.389,21.522-61.514,6.693-21.045,12.7-42.186,17.843-62.836,13.692-47.866,28.37-95.9,42.565-142.343,16.087-52.64,32.722-107.072,47.684-160.563,8.045-28.761,15-55.039,21.261-80.335,7.019-28.356,13-54.775,18.276-80.767,5.663-27.88,10.489-55.3,14.344-81.5,4.12-28,7.3-55.762,9.463-82.521,2.28-28.269,3.5-56.477,3.633-83.843.136-28.676-.922-57.429-3.144-85.461a7.3,7.3,0,0,1-3.2-6.839,16.683,16.683,0,0,1,2.575-7.689c-1.092-23.46-2.485-42.734-4.384-60.654a.485.485,0,0,1,.119-.384.681.681,0,0,1,.5-.2.566.566,0,0,1,.586.427c.8,3.927,1.625,7.892,2.419,11.726,2.716,13.115,5.524,26.676,7.923,40.092a197.5,197.5,0,0,0,17.617-20.918c5.415-7.3,10.571-14.977,15.558-22.4l.006-.009c6.572-9.781,13.367-19.894,20.835-29.275a25.68,25.68,0,0,1-.723,8.778,96.018,96.018,0,0,1-3.709,12.258,253.348,253.348,0,0,1-13.571,29.877,284.487,284.487,0,0,1-17.1,28.551c-6.006,8.663-11.2,14.563-15.011,17.062,2.117,13.009,3.931,26.264,5.392,39.4,1.432,12.868,2.566,25.994,3.372,39.013,1.558,25.147,1.96,51.064,1.2,77.031-.724,24.636-2.524,50.19-5.351,75.952-2.653,24.175-6.313,49.466-10.88,75.17-4.276,24.069-9.31,48.5-15.389,74.685-5.465,23.542-11.64,47.911-18.878,74.5-13.487,49.543-28.576,99.046-44.143,149.626-13.389,46.419-26.879,93.664-39.924,139.353l-.085.3,0,.009c-27.456,96.16-55.846,195.593-84.918,293.019.561,0,1.087.016,1.561.032a.576.576,0,0,1-.007-.6c1.3-2.189,18.026-2.214,32.784-2.237h.009c11.253-.017,21.882-.034,23.739-1.021a560.023,560.023,0,0,0,59.772-9.3c20.323-4.171,40.843-9.185,58.948-13.61l4.8-1.242c4.989-1.311,10.188-2.871,14.407-5.388,4.872-2.906,7.624-6.6,8.412-11.286l.025-1.314a3.241,3.241,0,0,1,.061-.726l-.281-1.174a2.62,2.62,0,0,1-.094-.544l-.389-.579-.1-.151-.067-.1,0,0a4.179,4.179,0,0,1-.391-.6c.021,0,.1.076.264.255a12.8,12.8,0,0,1-3.384-9.13,11.063,11.063,0,0,1,1.009-4.132,11.262,11.262,0,0,1,2.687-3.62c.685-25.167,1.938-51.111,3.724-77.114,1.7-24.78,3.947-50.444,6.672-76.279,5.029-47.678,11.739-96.935,20.513-150.586,7.314-44.726,16.239-93.413,27.285-148.844,9.853-49.449,20.457-99.633,30.712-148.166,14.34-67.867,29.169-138.045,42.279-207.759,7.056-37.519,13.06-71.887,18.354-105.068,5.942-37.241,10.842-72.027,14.979-106.344,2.72-21.485,5.884-43.276,8.945-64.349l.01-.069.019-.133c1.6-11.029,3.258-22.434,4.831-33.659-23.345,6.269-47.274,11.837-71.12,16.55-23.705,4.686-47.945,8.65-72.047,11.781-23.977,3.115-48.424,5.485-72.665,7.044-24.149,1.554-48.7,2.341-72.977,2.341A1148.165,1148.165,0,0,1,194.505,918.372Zm-158,57h0A84.074,84.074,0,0,0,24.468,995.74a97.176,97.176,0,0,0-6.29,22.739,118.309,118.309,0,0,0,2.7,47.21,96.584,96.584,0,0,0,8.936,21.21c3.836,6.919,8.344,13.654,12.323,19.6a127.27,127.27,0,0,1,9.967,16.817,148.8,148.8,0,0,1,7.381,17.86,215.667,215.667,0,0,1,8.838,37.769l.109.488c.3,1.386.568,3.149.883,5.189,1.448,9.371,3.635,23.533,11.9,23.533a8.214,8.214,0,0,0,1.762-.2c2.621-1.687,4.063-8.208,5.116-12.969.168-.758.341-1.542.5-2.209l13.482-55.22c.566-2.318,1.084-4.631,1.632-7.079,1.6-7.126,3.246-14.491,5.978-21.271a50.193,50.193,0,0,1,5.037-9.619,36.481,36.481,0,0,1,7.425-8.084l1.634-1.043c5.181-3.333,11.088-7.407,15.614-12.344a31.068,31.068,0,0,0,8.473-17.514,53.769,53.769,0,0,0,.631-18.363,163.82,163.82,0,0,0-3.591-18.109l0-.009c-1.134-4.771-2.307-9.705-3.085-14.559-17.672-4.044-35.644-9.034-53.414-14.831C71.2,989.113,53.737,982.6,36.51,975.368Zm690.373,102.511a7.468,7.468,0,0,1,2.577.44,42.4,42.4,0,0,0,11.342-5.252,75.5,75.5,0,0,0,11.2-8.913,140.614,140.614,0,0,0,20.448-25.233,177.7,177.7,0,0,0,15.279-29.153c3.987-9.816,6.42-18.782,7.037-25.927.658-8.5.565-17.266.475-25.741-.1-9.035-.2-18.378.614-27.437a107.428,107.428,0,0,1,2.006-13.472,79.382,79.382,0,0,1,4.045-13.169l-1.206.6c-1.224.61-2.638,1.328-4.276,2.16l-.009,0c-6.757,3.431-16.968,8.617-27.1,12.859a143.213,143.213,0,0,1-14.858,5.4,47.053,47.053,0,0,1-12.6,2.215c-3.107,0-5.492-.651-7.088-1.936.121,24.414-.723,49.452-2.577,76.546-1.617,23.623-3.993,48.56-7.266,76.237A9.1,9.1,0,0,1,726.884,1077.878ZM36,706.956c8.025,0,13.639,7.9,16.934,14.534a74.419,74.419,0,0,1,6.854,23.329c.594,5.773-.164,13.663-2.026,21.106A68.354,68.354,0,0,1,53.875,777.3a43.559,43.559,0,0,1-5.85,9.737c-3.992,4.882-8.582,7.609-13.644,8.1l1.557,25.03c1.269,20.571,2.561,42.6,3.417,64.341.936,23.748,1.26,44.821.991,64.421a6.121,6.121,0,0,1,2.441,1.235,24.9,24.9,0,0,0,.45,3.713,2.447,2.447,0,0,0,1.921,2.067l.032.048a7.869,7.869,0,0,1-.534,2.537c17.224,7.212,35.028,13.916,52.916,19.924,17.745,5.96,36,11.378,54.258,16.1a204.265,204.265,0,0,1,.6-36.314c-4.432-4.215-6.1-12.311-5.089-24.751.871-10.753,3.579-22.985,5.968-33.777l0-.011c1.864-8.418,3.473-15.686,3.925-20.836,3.019-17.565,5.817-35.84,8.553-55.868,2.314-16.939,4.6-35.283,6.986-56.08-5.751-.492-10.774-3.526-14.928-9.018A53.324,53.324,0,0,1,150,741.533a86.513,86.513,0,0,1-4.786-18.484,56.685,56.685,0,0,1-.473-9.463,47.281,47.281,0,0,1,1.307-9.485,33.476,33.476,0,0,1,10.393-17.422c5.564-5.021,12.148-7.786,18.541-7.786a21.819,21.819,0,0,1,6.909,1.12l1-10.063c1.06-10.749,2.114-21.678,3.134-32.247,5.029-52.13,10.229-106.03,18.05-158.73a32.254,32.254,0,0,1-15.8,4.337,30.815,30.815,0,0,1-15.247-4.139,38.542,38.542,0,0,1-6.586-4.713,44.578,44.578,0,0,1-5.669-6.066,49.394,49.394,0,0,1-8.872-18.362,41.564,41.564,0,0,1-.14-20.138,46.626,46.626,0,0,1,7.021-17.5,41.653,41.653,0,0,1,13.671-13.072c5.011-2.88,13.743-6.243,21.86-6.243a19.935,19.935,0,0,1,8.48,1.661,12.666,12.666,0,0,1,6.007,5.757,13.643,13.643,0,0,1,7.932,4.007c3.872-20.052,7.511-36.408,11.451-51.474A437.534,437.534,0,0,1,244.289,302.9a56.215,56.215,0,0,1-13.807-12.183,54.068,54.068,0,0,1-8.579-14.9,50.885,50.885,0,0,1-1.614-31.869,41.238,41.238,0,0,1,14.841-21.87,43.032,43.032,0,0,1,12.964-6.58,55.7,55.7,0,0,1,16.63-2.422,58.458,58.458,0,0,1,21.016,5.571A43.756,43.756,0,0,1,300.1,229.875a46.1,46.1,0,0,1,10.2,31.634,51.57,51.57,0,0,1-3.583,16.842,47.687,47.687,0,0,1-9.02,14.589,42.566,42.566,0,0,1-14.081,10.269,45.4,45.4,0,0,1-18.763,3.883,61.4,61.4,0,0,1-16.744-2.472c-10.031,60.451-18.794,125.241-26.791,198.069-7.749,70.577-13.848,140.191-18.791,198.98A36.3,36.3,0,0,1,207,712.942a40.84,40.84,0,0,1,.776,12.314,35.257,35.257,0,0,1-9.706,21.962c-5.543,53.1-11.789,100.084-19.092,143.629,29.091,6.485,55.189,11.636,79.786,15.747,28.609,4.781,55.01,8.142,80.71,10.275a25.5,25.5,0,0,1,4.594-11.091,33.023,33.023,0,0,1,8.751-8.185,46.751,46.751,0,0,1,11.212-5.3,53.513,53.513,0,0,1,11.98-2.434,35.791,35.791,0,0,1,3.8-.2c6.536,0,13.279,1.591,19.8,3.131,2.818.665,5.479,1.294,8.1,1.792A44.882,44.882,0,0,1,423.7,905.347a47.562,47.562,0,0,1,10.266,15.959c2.169.013,4.411.02,6.663.02,23.968,0,48.319-.8,72.378-2.379,23.928-1.57,48.165-3.949,72.039-7.071a23.6,23.6,0,0,1,.571-11.631,30.117,30.117,0,0,1,5.66-10.268,45.047,45.047,0,0,1,8.444-7.839,59,59,0,0,1,10.451-6.008,56.79,56.79,0,0,1,22.6-5.2,35.741,35.741,0,0,1,6.154.508,48.923,48.923,0,0,1,13,3.4,39.942,39.942,0,0,1,11.323,7.1,19.057,19.057,0,0,1,8.989,4.884,18.565,18.565,0,0,1,5.306,8.938c4.469-1.063,9.016-2.074,13.414-3.051h.006c13.147-2.922,26.743-5.944,39.555-10.63a31.94,31.94,0,0,0,10.5-5.6,23.767,23.767,0,0,0,6.4-8.174,26.5,26.5,0,0,0,2.432-10.206,38.852,38.852,0,0,0-1.4-11.693,40.988,40.988,0,0,1-15.275,3.037,39.428,39.428,0,0,1-15.327-3.14,46.946,46.946,0,0,1-13.164-8.444,55.746,55.746,0,0,1-10.2-12.282,57.158,57.158,0,0,1-6.423-14.656,45.878,45.878,0,0,1,.121-26.522,37.838,37.838,0,0,1,6.429-11.935,42.463,42.463,0,0,1,11.359-9.806,22,22,0,0,1,5.707-2.936,20.715,20.715,0,0,1,6.686-1.217,11.136,11.136,0,0,1,5.3,1.182,7.868,7.868,0,0,1,3.6,4.02c.548.094,1.113.212,1.728.361-3.7-15.224-7.439-30.54-11.059-45.351l-.3-1.229a21.735,21.735,0,0,1-13.461-6.389,25.369,25.369,0,0,1-4.364-5.919,28.546,28.546,0,0,1-3.356-14.281,25.3,25.3,0,0,1,1.249-7.174,21.147,21.147,0,0,1,8.971-11.487c-6.865-28.727-12.663-54.056-17.725-77.435a32.674,32.674,0,0,1-6.577.677,34.188,34.188,0,0,1-16.943-4.633,43.861,43.861,0,0,1-7.342-5.247,51.511,51.511,0,0,1-6.355-6.715A57.208,57.208,0,0,1,641.465,558.6a44.144,44.144,0,0,1-.779-21.572l.2-.809A47.359,47.359,0,0,1,651.433,516a36.607,36.607,0,0,1,8.876-7.24,31.456,31.456,0,0,1,11.014-3.867c-4-23.128-7.274-44.691-10.017-65.919a18,18,0,0,1-4.369-16.741c.519-18.9-.93-38.4-2.33-57.266v-.02c-.873-11.756-1.775-23.912-2.2-35.873a308.368,308.368,0,0,1,.567-35.837,50.2,50.2,0,0,1-18.055,13.987,49.13,49.13,0,0,1-10.164,3.337,50.743,50.743,0,0,1-31.963-3.716,44.548,44.548,0,0,1-16.707-13.45,39.254,39.254,0,0,1-7.321-17.151,47.581,47.581,0,0,1,1.63-21.494,44.009,44.009,0,0,1,3.155-17.527,42.211,42.211,0,0,1,9.043-13.689,46.469,46.469,0,0,1,7.634-6.259A50.146,50.146,0,0,1,599,212.688a52.29,52.29,0,0,1,19.476-3.786,49.166,49.166,0,0,1,11.735,1.4A45.253,45.253,0,0,1,641.3,214.62a43.371,43.371,0,0,1,9.787,7.388,46.412,46.412,0,0,1,7.849,10.621c.715-2.627,1.5-5.281,2.259-7.847a160.488,160.488,0,0,0,4.779-18.993.879.879,0,0,1,.907-.7,1,1,0,0,1,1.042.842l0,.113c1.328,23.773,1.752,48,2.161,71.438.314,17.93.637,36.471,1.366,54.724.816,20.445,2.064,38.31,3.816,54.614a16.56,16.56,0,0,1,9.153,3.448,28.428,28.428,0,0,1,7.16,8.189,52.284,52.284,0,0,1,6.947,23.59,44.984,44.984,0,0,1-.475,9.685,29.7,29.7,0,0,1-2.619,8.439,18.412,18.412,0,0,1-4.943,6.284,15.74,15.74,0,0,1-7.449,3.217c4.626,31.211,10.56,63.841,18.143,99.754,6.17,29.216,13.43,60.632,22.847,98.866a18.413,18.413,0,0,1,4.568-.6,16.4,16.4,0,0,1,8.062,2.124,22.634,22.634,0,0,1,6.556,5.714,36.634,36.634,0,0,1,4.909,8.314,51.327,51.327,0,0,1,3.123,9.925,55.956,55.956,0,0,1,1.2,11.706,44.784,44.784,0,0,1-1.367,11.119c-1.961,7.5-5.838,12.7-11.21,15.061,6.48,25.695,13.386,53.193,19.986,80.178l.127-.058c1.861-3.2,5.614-4.817,11.156-4.817a38.381,38.381,0,0,1,7.131.741,15.809,15.809,0,0,1,9.242,8.8,23.008,23.008,0,0,1,1.239,12.967,24.77,24.77,0,0,1-6.105,12.57,16.75,16.75,0,0,1-12.391,5.525,18.107,18.107,0,0,1-1.828-.094c6.779,20.4,6.583,38.53-.568,52.445a45.926,45.926,0,0,1-12.62,15.168,64.091,64.091,0,0,1-20.76,10.485l.02,1.094a12.518,12.518,0,0,1,4.353-2.157A233.723,233.723,0,0,0,773.4,891.783a247.449,247.449,0,0,0,32.069-17.816c-1.176-19.321-3.213-38.938-6.23-59.969-2.687-18.728-6.094-38.15-10.414-59.376-8.026-39.426-18.057-79.162-27.758-117.59l-.029-.117c-4.531-17.95-9.216-36.512-13.625-54.759a26.23,26.23,0,0,1-8.869-3.114,29.166,29.166,0,0,1-7.158-5.793,39.155,39.155,0,0,1-8.711-16.853,44.52,44.52,0,0,1-1.329-10.361,40.132,40.132,0,0,1,1.182-10.2,29.276,29.276,0,0,1,10.477-16.515c-2.7-11.976-5.114-24.25-7.366-37.521-2.007-11.826-3.842-24.179-5.61-37.766-3.283-25.222-5.827-50.974-8.287-75.877l0-.053-.022-.218c-1.387-14.04-2.821-28.557-4.372-42.811a20.354,20.354,0,0,1-11.717-7.52,25.88,25.88,0,0,1-3.552-6.14,29.025,29.025,0,0,1-1.887-6.949,28.585,28.585,0,0,1-.144-7.021,24.938,24.938,0,0,1,1.629-6.694,19.822,19.822,0,0,1,8.933-10.22,279.824,279.824,0,0,0-14.059-57.778,240.814,240.814,0,0,0-11.474-26.5,222.259,222.259,0,0,0-14.521-24.584c-22.265-32.628-52.492-57.63-89.841-74.31a128.4,128.4,0,0,1-12.247,33.051,14.054,14.054,0,0,1,1.52.175,3.159,3.159,0,0,0,.5.679,36.085,36.085,0,0,1,8.582,14.272c.176,1.181.369,2.343.534,3.325a13.568,13.568,0,0,1-.637,1.342,30.662,30.662,0,0,1,.574,14.056,27.8,27.8,0,0,1-5.318,11.437,41.085,41.085,0,0,1-17.049,12.4,56.9,56.9,0,0,1-10.784,3.219,58.856,58.856,0,0,1-11.24,1.1,50.175,50.175,0,0,1-13-1.638A11.1,11.1,0,0,1,504,184.81a130,130,0,0,1-30.857,11.756,139.1,139.1,0,0,1-32.778,3.889,142.965,142.965,0,0,1-22.775-1.831,141.5,141.5,0,0,1-22.212-5.466,136.8,136.8,0,0,1-21.049-9.056,130.76,130.76,0,0,1-19.284-12.6,32.645,32.645,0,0,1-15.528,3.894,35.855,35.855,0,0,1-10.7-1.67,40.515,40.515,0,0,1-9.826-4.622,42.388,42.388,0,0,1-8.3-6.992,39.444,39.444,0,0,1-6.118-8.777,34.453,34.453,0,0,1-2.885-7.906,30.629,30.629,0,0,1-.746-8.376,31.153,31.153,0,0,1,6.255-16.976l-1.533-2.029c-5.627-7.406-10.384-13.131-15.314-17a28.316,28.316,0,0,0-7.748-4.438,25.292,25.292,0,0,0-8.869-1.515c-5.894,0-12.78,1.681-21.671,5.292a20.627,20.627,0,0,1,4,8.055,19.606,19.606,0,0,1-.048,9.418l-.108.416a55.479,55.479,0,0,1-8.33,18.465,61.408,61.408,0,0,1-13.958,14.38,63.392,63.392,0,0,1-37.482,12.659,55.831,55.831,0,0,1-14.34-1.851,53.82,53.82,0,0,1-13.737-5.791,19.4,19.4,0,0,1-4.882.625,20.018,20.018,0,0,1-13.279-5.093,18.011,18.011,0,0,1-6.123-12.76,96.007,96.007,0,0,0-21.571,17.364A110.438,110.438,0,0,0,106.481,178.2c-7.982,14.474-13.76,31.815-17.174,51.54a39.374,39.374,0,0,1,9.238-3.456,41.8,41.8,0,0,1,9.647-1.116,44.8,44.8,0,0,1,12.715,1.86,45.528,45.528,0,0,1,11.674,5.33,42.513,42.513,0,0,1,9.627,8.421,38.744,38.744,0,0,1,6.575,11.136,41.007,41.007,0,0,1,3.656,21.428,42.089,42.089,0,0,1-2.3,10.036,45.682,45.682,0,0,1-4.541,9.16,49.149,49.149,0,0,1-16.508,15.806,43.1,43.1,0,0,1-21.614,6.08,37.369,37.369,0,0,1-14.8-3.033,42.756,42.756,0,0,1-13.887-9.78c-2.059,19.724-3.839,39.822-5.56,59.258v.014c-2.192,24.752-4.459,50.347-7.325,75.446-3.215,28.149-6.859,52.671-11.143,74.968a30.424,30.424,0,0,1,11.635-10.959,32.225,32.225,0,0,1,15.182-3.814,30.383,30.383,0,0,1,10.88,1.98,28.926,28.926,0,0,1,9.676,6.106,49.465,49.465,0,0,1,16.581,28.992,57.553,57.553,0,0,1,.574,16.3,65.048,65.048,0,0,1-3.755,15.939,66.01,66.01,0,0,1-7.441,14.368,58.507,58.507,0,0,1-10.527,11.7c-8.364,7.029-18.008,10.746-27.888,10.747a42.425,42.425,0,0,1-14.655-2.685,57.543,57.543,0,0,1-15.25-8.641,581.964,581.964,0,0,0-7.029,58.137c-1.326,18.511-1.915,38.184-1.751,58.474A13.928,13.928,0,0,1,36,706.956ZM92.53,916.548a34.1,34.1,0,0,1-19.006-5.475c-7.6-4.6-13.178-12.225-16.132-22.054a58.386,58.386,0,0,1-.79-29.181,49.08,49.08,0,0,1,11.134-22.357,34.812,34.812,0,0,1,9.476-7.4,32.512,32.512,0,0,1,11.959-3.569,38.873,38.873,0,0,1,5.628-.421,32.99,32.99,0,0,1,12.891,2.551,34.046,34.046,0,0,1,10.387,6.919,42.636,42.636,0,0,1,7.71,10.187,53.083,53.083,0,0,1,4.859,12.357,56.21,56.21,0,0,1-.429,30.163c-3.164,10.283-9.347,18.213-17.88,22.934a37.924,37.924,0,0,1-9.5,3.981A39.655,39.655,0,0,1,92.53,916.548Zm165.894-28.934a45.726,45.726,0,0,1-23.684-6.795,49.961,49.961,0,0,1-17.091-17.291,45.926,45.926,0,0,1-4.3-9.681,41.8,41.8,0,0,1-1.845-10.412,39.48,39.48,0,0,1,.972-10.754,41.239,41.239,0,0,1,4.152-10.706A41.047,41.047,0,0,1,230,795.093a42.9,42.9,0,0,1,28.391-11.306h.236a46.406,46.406,0,0,1,17.764,3.343,40.875,40.875,0,0,1,13.444,9,46.745,46.745,0,0,1,9.1,13.116,57.117,57.117,0,0,1,4.734,15.686,63.425,63.425,0,0,1,.081,18.759,59.153,59.153,0,0,1-5.486,17.871,49.222,49.222,0,0,1-11.086,14.8,45.09,45.09,0,0,1-16.721,9.542A43.428,43.428,0,0,1,258.424,887.614Zm207.247-21.5a43.835,43.835,0,0,1-22.08-6.018,40.471,40.471,0,0,1-13.663-13.4,44.02,44.02,0,0,1-4.108-8.465,46.67,46.67,0,0,1-2.271-9.136,47.81,47.81,0,0,1,1.331-19.864,44.712,44.712,0,0,1,3.834-9.3,42.36,42.36,0,0,1,5.972-8.275c1.265-9.631,6.414-19.387,14.128-26.765a45.13,45.13,0,0,1,12.776-8.682,36.249,36.249,0,0,1,14.836-3.273,33.255,33.255,0,0,1,8.382,1.075,30.4,30.4,0,0,1,7.408,2.924,30.748,30.748,0,0,1,6.072,4.471,42.271,42.271,0,0,1,8.8,12.348,84.312,84.312,0,0,1,5.457,14.831c1.4,5.059,2.471,10.108,3.446,14.845a45.917,45.917,0,0,1,1.1,11.439,48.449,48.449,0,0,1-1.644,11.117,52.752,52.752,0,0,1-4.046,10.44,56.813,56.813,0,0,1-23.787,24.091,49.951,49.951,0,0,1-10.633,4.13A45.117,45.117,0,0,1,465.671,866.113ZM581.4,748.184a42.151,42.151,0,0,1-15.818-3.07,45.635,45.635,0,0,1-13.246-8.266A51.332,51.332,0,0,1,536.576,710.4a45.923,45.923,0,0,1-1.14-13.816,40.44,40.44,0,0,1,11.686-25.789,51.511,51.511,0,0,1,13.927-9.9,31.532,31.532,0,0,1,12.818-11.243,38.725,38.725,0,0,1,17.089-3.969,35.571,35.571,0,0,1,10.295,1.484,38.663,38.663,0,0,1,11.4,5.787,38.021,38.021,0,0,1,8.386,8.645,44.53,44.53,0,0,1,5.508,10.773,55,55,0,0,1,2.762,12.17,67.679,67.679,0,0,1-4.772,33.06,57.826,57.826,0,0,1-8.331,14.177,44.476,44.476,0,0,1-11.9,10.443A49.391,49.391,0,0,1,581.4,748.184Zm-227.8-6.036a45.1,45.1,0,0,1-17.3-3.561,63.656,63.656,0,0,1-17.9-11.574,34.99,34.99,0,0,1-16.429-29.033,54.915,54.915,0,0,1,.971-11.653,57.965,57.965,0,0,1,3.3-11.072,59.925,59.925,0,0,1,5.343-10.135,59.212,59.212,0,0,1,7.095-8.837,53.287,53.287,0,0,1,15.893-11.33,44.9,44.9,0,0,1,18.846-4.214,46.123,46.123,0,0,1,23.453,6.617,59.574,59.574,0,0,1,14.021,12.82,49.014,49.014,0,0,1,7.9,14.661,48.492,48.492,0,0,1,2.465,15.441,52.6,52.6,0,0,1-2.291,15.161,55.58,55.58,0,0,1-6.669,14.288A53.282,53.282,0,0,1,382.006,731.4a46.792,46.792,0,0,1-13.152,7.867A41.948,41.948,0,0,1,353.6,742.148ZM262.873,619.5a44.991,44.991,0,0,1-19.665-4.44,39.073,39.073,0,0,1-8.439-5.556A36.506,36.506,0,0,1,228,601.72a50.881,50.881,0,0,1-6.2-13.677,51.88,51.88,0,0,1-1.958-14.17,55.048,55.048,0,0,1,1.782-13.849,56.009,56.009,0,0,1,5.02-12.714,49.255,49.255,0,0,1,15.147-17.127,39.052,39.052,0,0,1,9.892-4.926,35.221,35.221,0,0,1,10.983-1.765A38.02,38.02,0,0,1,277.5,526.61a54.891,54.891,0,0,1,15.341,10.083,39.786,39.786,0,0,1,8.694,13.959,56.216,56.216,0,0,1,3.375,16.709,69.841,69.841,0,0,1-6.247,32.905,36.252,36.252,0,0,1-6.734,8.409,38.716,38.716,0,0,1-8.631,6.012A44.867,44.867,0,0,1,262.873,619.5Zm195.881-3.512c-.983,0-1.986-.031-2.982-.094a45.163,45.163,0,0,1-14.176-3.29,43.038,43.038,0,0,1-11.537-7.12,52.09,52.09,0,0,1-14.831-22.332,64.482,64.482,0,0,1-2.53-32.866,56.147,56.147,0,0,1,5.276-15.549,47.453,47.453,0,0,1,9.825-13.021,53.81,53.81,0,0,1,36.846-14.754,48.942,48.942,0,0,1,11.152,1.269,44.579,44.579,0,0,1,10.479,3.873,42.118,42.118,0,0,1,9.279,6.576,43.743,43.743,0,0,1,7.553,9.377c5.007,8.649,7.366,19.207,6.822,30.534a69.3,69.3,0,0,1-2.714,16.079,68.406,68.406,0,0,1-6.368,14.986,60.577,60.577,0,0,1-7.649,10.531,51.613,51.613,0,0,1-9.681,8.338,45.235,45.235,0,0,1-11.539,5.486A44.681,44.681,0,0,1,458.754,615.99ZM351.193,470.84a45.186,45.186,0,0,1-17.684-3.706,63.632,63.632,0,0,1-18.216-12.117,48.907,48.907,0,0,1-8.636-11.833,43.079,43.079,0,0,1-4.2-12.616,45.184,45.184,0,0,1,3.086-24.943,50.885,50.885,0,0,1,17.549-21.769,47.866,47.866,0,0,1,27.669-8.835,51.005,51.005,0,0,1,14.22,2.068,64.164,64.164,0,0,1,17.767,9.652,44.8,44.8,0,0,1,11.047,12.528,42.217,42.217,0,0,1,4.839,29.053,52.168,52.168,0,0,1-5.721,16.046,54.539,54.539,0,0,1-10.525,13.57,49.092,49.092,0,0,1-14.261,9.392A42.932,42.932,0,0,1,351.193,470.84Zm187.557-2.655a38.56,38.56,0,0,1-19.167-4.937,45.42,45.42,0,0,1-16.2-16.159,60.054,60.054,0,0,1-5.6-13.9,50.353,50.353,0,0,1-1.629-13.31,47.137,47.137,0,0,1,1.832-12.368,47.809,47.809,0,0,1,4.785-11.074,50.416,50.416,0,0,1,17.88-17.765,47.8,47.8,0,0,1,24.121-6.7,44.413,44.413,0,0,1,10.7,1.306,45.442,45.442,0,0,1,10.545,4.086,56.431,56.431,0,0,1,19.169,17.523,42.614,42.614,0,0,1,6.337,23.165,43.306,43.306,0,0,1-1.754,11.143,49.081,49.081,0,0,1-4.425,10.391,56.141,56.141,0,0,1-8.664,11.478,59.7,59.7,0,0,1-11.261,9.051,55.593,55.593,0,0,1-12.946,5.935A46.705,46.705,0,0,1,538.75,468.185ZM445.628,313.53a44.438,44.438,0,0,1-21.879-5.809c-7.562-4.222-14.45-10.672-20.471-19.171a59.834,59.834,0,0,1-5.927-14.3,53.478,53.478,0,0,1-1.814-14.087,51.344,51.344,0,0,1,6.907-25.386,50.084,50.084,0,0,1,17.434-17.787,47.543,47.543,0,0,1,24.605-6.819,51.692,51.692,0,0,1,13.447,1.818,61.549,61.549,0,0,1,13.956,5.757,68.736,68.736,0,0,1,14.652,13.4,50.358,50.358,0,0,1,8.243,14.594,45.238,45.238,0,0,1,2.617,14.978,48.1,48.1,0,0,1-2.225,14.546,56.374,56.374,0,0,1-18.891,27.112,53.473,53.473,0,0,1-14.429,8.169A46.414,46.414,0,0,1,445.628,313.53Z" transform="translate(312 -4)"></path></g><g transform="translate(225 0)"><g><g id="head_Long_Bangs" data-name="head/Long Bangs"><path id="_Skin" data-name="âœ‹ Skin" d="M343.866,57.179c-10.3-37.186-49.676-53.412-85.138-55.987C162.714-8.789,64.984,44.735,22.418,131.526c-34.073,65.9-35.14,135.133,38.1,172.762,4,2.2,8.177,4.562,12.443,6.7a94.173,94.173,0,0,0,11.689,9.537c39.883,26.226,88.834,37.569,136.272,35.109,70.041-1.412,95.045-48.939,110.346-109.888,16.138-60.679,25.163-126.521,12.6-188.569Z" transform="translate(62.001 145.999)" fill="#d08b5b"></path><path id="_Ink" data-name="ðŸ– Ink" d="M525.844,506.684c-3.27-9.89-7.37-19.48-11.2-29.17a106.524,106.524,0,0,1-1.489-14.61c-.531-17.54,2.75-35.23,6.429-52.31,7.48-34.71,15.41-69.06,19.39-104.41,7.11-63.23,2.88-128.98-25.88-186.7-24.92-50-67.15-90.89-121.7-106.21A234.136,234.136,0,0,0,341.96,5.246q-3.1-.493-6.191-.961C312.525.781,288.995-.965,265.5.546c-38.96,2.507-77.556,13.7-110,35.847-32.669,22.3-55.881,53.561-66.682,91.694-11.236,39.67-10.283,82.633-29.686,119.825-5.732,10.988-12.423,21.434-18.8,32.054C23.394,298.857,5.012,319.858.984,345.833c-4.97,32.1,13.5,59.231,30.98,84.281,15.8,22.62,37.24,53.86,20.98,81.71-7.67,13.14-19.96,22.97-29.19,34.95a116.3,116.3,0,0,0-20.9,41.98c-7.25,28.659-.58,58.53,18.81,80.93,10.1,11.66,23.07,19.37,37.11,25.38,14.37,6.14,28.41,11.97,40.29,22.42a153.269,153.269,0,0,1,15.1,15.48,118.209,118.209,0,0,0,15.23,19.11c6.33,6.45,18.73-2.38,12.92-9.97-.43-.56-.85-1.11-1.28-1.67-4.25-5.54-8.52-11.08-12.99-16.44-13.33-21.121-18.46-46.98-11.83-71.65a88.635,88.635,0,0,1,7.151-18.23c.639,1.67,1.339,3.32,2.079,4.95a97.466,97.466,0,0,0,12.06,20.21,53.5,53.5,0,0,0,2.14,13c7.92,26.41,34.4,39.44,58.28,49.58,2.34,1,4.65,1.96,6.92,2.91,6.24,2.609,12.84-6.28,8.95-11.641-1.02-1.409-2.01-2.849-2.95-4.309-11.2-17.34-16.53-38.08-13.51-58.74,3.18-21.85,16.06-39.93,28.85-57.28,12.56-17.06,26.05-34.47,31.67-55.28,6.22-22.99.56-45.91-9.04-67.07-8.79-19.363-20.5-37.21-30.318-56.04q5.043,5.029,10.4,9.724c4.019,3.518,8.148,7.544,12.911,10.024a3.532,3.532,0,0,0,4.261-5.522c-3.666-3.9-8.357-6.91-12.428-10.389-3.908-3.339-7.7-6.812-11.4-10.379-4.557-4.391-8.892-8.989-13.072-13.726a217.071,217.071,0,0,1-8.345-26.152c-3.05-12.02-5.87-24.81-5.65-37.27.22-12.78,6.86-21.73,15.7-30.31,3.744-3.633,7.524-7.223,11.3-10.82,8.036-5.9,15.616-12.489,22.979-19.061,13.12-11.711,25.81-24.09,37.929-36.831q4.877-5.127,9.659-10.37,16.688-17.124,31.736-35.668a149.9,149.9,0,0,0,28.45-14.05c-3.9,3.95-7.84,7.85-11.76,11.78-8.73,8.76-17.8,17.56-27.92,24.7a1.134,1.134,0,0,0,.871,2.061,110.241,110.241,0,0,0,36.149-13.67c11.43-6.94,21.5-16.37,30.9-25.83a116.21,116.21,0,0,0,15.14-8.53c.25-.16.5-.33.75-.491-4.62,14.641-11.4,31.221-25.85,36.441-.47.17-.44.95.12.92,12.174-.714,21.958-6.191,29.682-14.174a197.579,197.579,0,0,0,17.8-14.364,212.444,212.444,0,0,0,15.6-15.9c-6.89,13.649-14.608,27-22.22,40.19-.4.7.44,1.65,1.16,1.16,16.07-10.88,28.26-24.92,38.23-41.521,1.472-2.444,2.877-4.928,4.247-7.431q-1.551,5.875-3.372,11.681c-2.189,7.009-4.344,14.034-6.537,21.039a110.275,110.275,0,0,1-4.2,11.1c-1.132,2.6-2.614,5.187-2.844,8.034a.284.284,0,0,0,.356.272c6.408-1.6,12.375-8.91,16.941-13.437a74.855,74.855,0,0,0,7.116-8.206c.407,16.807.687,33.616.317,50.473-.689,30.96-2.689,61.91-5.25,92.769-2.26,27.281-3.93,55.911-19.15,79.621-11.78,18.35-30.88,31.049-51.63,37.2q-2.745.825-5.52,1.48c-30.04,7.13-59.96-.95-86.52-15.23-7.98-4.29-14.8,7.349-7.1,12.139,28.82,17.941,65.35,24.051,97.97,16.011-1.029,38.529,17.96,75.08,36.85,107.76,10.57,18.29,21.15,36.46,28.621,56.29a192.229,192.229,0,0,1,12.1,52.28c1.72,21.18.03,42.48-2.93,63.48-.16,1.139-.32,2.29-.49,3.429-.66,4.511,3.39,8.29,7.78,5.981,19.41-10.2,27.78-31.941,32.87-52.04a376.547,376.547,0,0,0,9.79-57.36,175.218,175.218,0,0,1,6.44,22.379c.231,1.091.45,2.181.67,3.271,1.26,6.37,10.9,5.92,12.44,0,.28-1.07.55-2.14.8-3.22a270.9,270.9,0,0,0-5.49-149.45" transform="translate(-74 47)"></path></g></g><g transform="translate(159 186)"><g><path d="M161.26 3.75829C151.862 0.105287 135.062 -2.96371 127.162 5.02229C122.951 9.28029 125.484 15.1363 130.37 17.1713C133.516 18.4822 136.949 18.183 140.337 17.8877C141.669 17.7716 142.993 17.6562 144.29 17.6393C148.84 17.5813 153.361 18.1643 157.793 19.1723C161.357 19.9847 164.836 21.1098 168.293 22.2873L170.595 23.0773C171.32 23.3264 172.054 23.61 172.797 23.8967C175.616 24.9851 178.553 26.1192 181.532 25.5913C182.229 25.4673 182.565 24.7623 182.634 24.1453C183.089 20.0982 179.892 16.2352 177.024 13.4278L176.386 12.8144L175.972 12.4263C171.724 8.48129 166.624 5.84429 161.26 3.75829ZM33.6232 10.8211L35.7926 10.2262L38.0047 9.62924L39.5005 9.23374C49.7753 6.54436 61.1082 4.17756 71.2972 5.33309C75.0132 5.75509 78.0292 7.84609 78.5552 11.7391C78.9982 15.0241 76.8752 19.2621 73.2622 19.8461C61.2952 21.7821 49.0442 21.1541 37.0222 23.1501C31.0352 24.1431 25.0942 25.3761 19.1302 26.4871C14.5952 27.3331 9.90917 27.6301 5.33517 28.3141L6.38617 28.4601C6.75417 28.5101 6.66217 29.1291 6.29917 29.1041C4.79154 28.9536 3.28162 28.9302 1.7694 29.0359L1.12117 29.0891C0.134167 29.2281 -0.447833 28.0501 0.432167 27.4521C6.00517 23.6711 10.7342 19.5731 16.9742 16.7861C22.3712 14.3761 27.9262 12.3891 33.6232 10.8211ZM166.634 45.6655C168.478 45.1131 169.779 45.3742 171.441 46.2403C172.719 46.9059 173.589 47.9568 174.088 49.1838C174.599 50.4395 174.707 51.8878 174.454 53.2296C173.406 58.8007 170.042 63.7442 165.503 66.9282C161.091 70.0227 155.589 71.452 150.049 70.2614C146.003 69.3919 140.008 65.5531 136.85 60.8711C135.504 58.8752 134.671 56.736 134.581 54.6232C134.495 52.6084 135.008 50.5771 137.676 47.8994C137.936 47.8184 138.208 47.7747 138.477 47.7747C139.138 47.7747 139.821 48.0516 140.274 48.4513C141.469 49.502 142.312 50.8319 143.178 52.2626L143.41 52.6451C143.799 53.2818 144.2 53.9109 144.69 54.476C146.449 56.5028 149.003 58.2218 151.683 58.6693C154.167 59.0845 156.407 58.3485 158.181 56.9599C160.257 55.3353 161.713 52.8432 162.253 50.1809C162.472 49.1021 163.036 48.1297 163.818 47.3478C164.607 46.5588 165.615 45.9718 166.634 45.6655ZM49.1162 69.4299C47.1005 71.4882 44.4385 72.6496 41.0316 71.9587C38.3694 71.4193 33.3005 68.7424 29.2512 64.6199C26.481 61.7996 24.1647 58.2755 23.535 54.193C23.3888 53.2449 22.8856 52.6371 22.225 52.2543C21.7033 51.952 21.0154 51.8002 20.2661 51.876C19.6299 51.9404 18.9544 52.1708 18.4324 52.4762C17.4395 53.0572 17.0334 53.8821 16.9509 54.498C16.1543 60.4416 18.4501 66.3391 22.0288 71.3116C26.8584 78.0223 33.951 82.9399 38.1196 84.0909C45.2534 86.0617 52.7703 84.4928 58.3124 79.5277C62.7443 75.5578 65.0159 70.3856 67.1236 65.0671L67.53 64.0361C68.0041 62.8293 68.4745 61.6313 68.9729 60.4461C69.9719 58.0711 69.652 56.0181 68.6834 54.418C67.6103 52.6454 65.6296 51.3976 63.4246 51.0143C61.3865 50.6601 59.2055 51.0476 57.4838 52.2925C56.0293 53.3441 54.8564 55.0104 54.4397 57.4743C53.762 61.4809 52.1899 66.0779 49.4178 69.111L49.1162 69.4299ZM129.748 108.039C137.872 96.6602 126.366 85.9571 118.814 81.367C116.836 79.9471 118.406 75.2433 122.634 75.9703C161.031 82.5673 141.136 148.708 92.1122 112.413C86.2756 107.704 93.3436 97.3338 99.6344 101.366C99.9534 101.611 100.288 101.869 100.637 102.139C107.704 107.603 120.636 117.601 129.748 108.039ZM138.581 156.822C135.281 161.137 129.306 164.442 122.614 166.022C116.238 167.528 109.191 167.466 103.109 165.149L102.587 164.941C98.0396 163.053 93.6748 159.239 92.0173 155.26C91.3584 153.678 91.1354 152.069 91.5864 150.569C91.9921 149.219 92.9432 147.976 94.5273 146.909C95.0247 146.574 95.6918 146.55 96.3274 146.662C97.116 146.801 97.8933 147.17 98.3623 147.668C100.964 150.435 104.739 153.132 109.207 153.086C112.655 153.051 115.47 151.69 118.2 150.151L120.119 149.053C121.97 147.996 123.847 147.004 125.971 146.551C129.773 145.739 134.384 147.222 137.194 149.67C138.419 150.737 139.309 151.991 139.551 153.343C139.755 154.477 139.469 155.661 138.581 156.822Z" transform="translate(51.99983 63.00011)" fill-rule="evenodd" stroke="none"></path></g></g><g transform="translate(123 338)"></g><g transform="translate(47 241)"></g></g></g></svg>