<svg width="382" height="457" viewBox="0 0 382 457" fill="none" xmlns="http://www.w3.org/2000/svg">
<path d="M281.073 440.846C236.658 458.323 209.239 451.512 190.073 440.846C126.873 484.446 59.4914 424.157 36.158 387.823C-2.24204 344.223 -1.59404 277.179 1.07263 249.846C3.40449 159.064 54.7109 131.687 80.0727 129.346C123.273 122.146 164.739 143.012 180.073 154.346H201.573C264.373 112.346 311.073 128.512 326.573 141.846C388.173 183.446 385.573 270.846 376.573 309.346C358.573 386.946 305.406 429.346 281.073 440.846Z" fill="#CC1414"/>
<path d="M265.086 31.3232C179.486 39.7232 186.753 117.157 201.086 154.823H179.586C168.786 125.223 170.42 95.1566 172.586 83.8232C180.586 27.0232 235.253 11.8232 261.586 11.3232C269.586 15.3232 267.253 26.3232 265.086 31.3232Z" fill="#5E9F47"/>
<path d="M61.9998 0.323258C56.3998 85.1233 132.666 112.323 171.5 115.323C180.167 134.323 192.6 154.323 173 82.3233C153.4 10.3233 90.8332 -2.34341 61.9998 0.323258Z" fill="#5E9F47"/>
</svg>
