<svg width="706" height="649" viewBox="0 0 706 649" fill="none" xmlns="http://www.w3.org/2000/svg">
<path d="M75.7887 612.553L506.213 648L704.871 115.131H685.394C665.139 113.884 655.92 60.3375 653.843 33.72L666.308 1L290.417 33.72L1 524.521C5.67429 558.799 52.8067 597.492 75.7887 612.553Z" fill="black" stroke="#524D4D"/>
<path d="M496.865 625.018L91.7593 599.309C49.379 578.743 23.5925 540.361 18.1392 523.742L432.593 543.607H455.965L655.012 30.2144C649.714 69.1668 676.046 100.848 690.069 111.625L496.865 625.018Z" fill="#D9D9D9" stroke="#524D4D"/>
<path d="M496.085 625.018C480.115 610.086 449.264 573.055 453.627 544.386" stroke="#524D4D"/>
<path d="M17.7495 523.742C19.3076 520.937 210.564 195.113 305.998 32.5513" stroke="#524D4D"/>
</svg>
