<svg width="474" height="453" viewBox="0 0 474 453" fill="none" xmlns="http://www.w3.org/2000/svg">
<path d="M13.2693 451.567L1 439.297C17.3591 399.708 125.057 298.472 176.861 252.803L421.839 18.8676C431.654 16.9045 453.33 33.5908 454.557 45.4514L209.17 282.659C147.66 351.04 52.9402 423.756 13.2693 451.567Z" fill="black" stroke="black"/>
<path d="M367.035 156.693C323.52 176.324 312.096 196.5 311.823 204.134C308.224 194.319 323.138 177.96 331.045 171.007C400.735 126.837 420.612 91.529 421.839 79.396L450.058 51.5854C447.441 57.1476 455.511 60.4466 459.874 61.4009C442.206 95.1007 390.62 138.97 367.035 156.693Z" fill="#202020" stroke="#202020"/>
<path d="M460.283 0.0543266L434.517 22.5481C439.425 24.5112 446.923 31.8183 450.058 35.2265L473.37 11.5057C475.333 1.36306 465.463 -0.354652 460.283 0.0543266Z" fill="#D9D9D9"/>
</svg>
