<svg width="409" height="409" viewBox="0 0 409 409" fill="none" xmlns="http://www.w3.org/2000/svg">
<path d="M25 2H384C396.703 2 407 12.2975 407 25V384C407 396.703 396.703 407 384 407H25C12.2974 407 2 396.703 2 384V25C2 12.2974 12.2975 2 25 2Z" fill="white" stroke="black" stroke-width="4"/>
<mask id="path-2-inside-1_52_31" fill="white">
<path d="M76 180H125.121V229.121H76V180Z"/>
</mask>
<path d="M76 180H125.121V229.121H76V180Z" fill="white"/>
<path d="M76 180V175H71V180H76ZM76 185H125.121V175H76V185ZM81 229.121V180H71V229.121H81Z" fill="black" mask="url(#path-2-inside-1_52_31)"/>
<rect x="176.621" y="231.557" width="44.1207" height="44.1207" fill="white" stroke="black" stroke-width="5"/>
<rect x="176.621" y="182.436" width="44.1207" height="44.1207" fill="white" stroke="black" stroke-width="5"/>
<mask id="path-6-inside-2_52_31" fill="white">
<path d="M125 229.057H174.121V278.177H125V229.057Z"/>
</mask>
<path d="M125 229.057H174.121V278.177H125V229.057Z" fill="white"/>
<path d="M174.121 278.177V283.177H179.121V278.177H174.121ZM169.121 229.057V278.177H179.121V229.057H169.121ZM174.121 273.177H125V283.177H174.121V273.177Z" fill="black" mask="url(#path-6-inside-2_52_31)"/>
<mask id="path-8-inside-3_52_31" fill="white">
<path d="M125 180H174.121V229.121H125V180Z"/>
</mask>
<path d="M125 180H174.121V229.121H125V180Z" fill="white"/>
<path d="M174.121 180H179.121V175H174.121V180ZM125 185H174.121V175H125V185ZM169.121 180V229.121H179.121V180H169.121Z" fill="black" mask="url(#path-8-inside-3_52_31)"/>
<mask id="path-10-inside-4_52_31" fill="white">
<path d="M75.8799 229.057H125.001V278.177H75.8799V229.057Z"/>
</mask>
<path d="M75.8799 229.057H125.001V278.177H75.8799V229.057Z" fill="white"/>
<path d="M75.8799 278.177H70.8799V283.177H75.8799V278.177ZM125.001 273.177H75.8799V283.177H125.001V273.177ZM80.8799 278.177V229.057H70.8799V278.177H80.8799Z" fill="black" mask="url(#path-10-inside-4_52_31)"/>
<mask id="path-12-inside-5_52_31" fill="white">
<path d="M75.8799 130.808H125.001V179.929H75.8799V130.808Z"/>
</mask>
<path d="M75.8799 130.808H125.001V179.929H75.8799V130.808Z" fill="white"/>
<path d="M75.8799 130.808V125.808H70.8799V130.808H75.8799ZM75.8799 179.929H70.8799V184.929H75.8799V179.929ZM75.8799 135.808H125.001V125.808H75.8799V135.808ZM125.001 174.929H75.8799V184.929H125.001V174.929ZM80.8799 179.929V130.808H70.8799V179.929H80.8799Z" fill="black" mask="url(#path-12-inside-5_52_31)"/>
<mask id="path-14-inside-6_52_31" fill="white">
<path d="M125.008 130.808H174.128V179.929H125.008V130.808Z"/>
</mask>
<path d="M125.008 130.808H174.128V179.929H125.008V130.808Z" fill="white"/>
<path d="M174.128 130.808H179.128V125.808H174.128V130.808ZM174.128 179.929V184.929H179.128V179.929H174.128ZM125.008 135.808H174.128V125.808H125.008V135.808ZM169.128 130.808V179.929H179.128V130.808H169.128ZM174.128 174.929H125.008V184.929H174.128V174.929Z" fill="black" mask="url(#path-14-inside-6_52_31)"/>
<mask id="path-16-inside-7_52_31" fill="white">
<path d="M174 131H223.121V180.121H174V131Z"/>
</mask>
<path d="M174 131H223.121V180.121H174V131Z" fill="white"/>
<path d="M174 131V126H169V131H174ZM223.121 131H228.121V126H223.121V131ZM223.121 180.121V185.121H228.121V180.121H223.121ZM174 180.121H169V185.121H174V180.121ZM174 136H223.121V126H174V136ZM218.121 131V180.121H228.121V131H218.121ZM223.121 175.121H174V185.121H223.121V175.121ZM179 180.121V131H169V180.121H179Z" fill="black" mask="url(#path-16-inside-7_52_31)"/>
<mask id="path-18-inside-8_52_31" fill="white">
<path d="M223.264 179.936H272.384V229.057H223.264V179.936Z"/>
</mask>
<path d="M223.264 179.936H272.384V229.057H223.264V179.936Z" fill="white"/>
<path d="M223.264 179.936V174.936H218.264V179.936H223.264ZM272.384 179.936H277.384V174.936H272.384V179.936ZM223.264 184.936H272.384V174.936H223.264V184.936ZM267.384 179.936V229.057H277.384V179.936H267.384ZM228.264 229.057V179.936H218.264V229.057H228.264Z" fill="black" mask="url(#path-18-inside-8_52_31)"/>
<rect x="274.892" y="182.436" width="44.1207" height="44.1207" fill="white" stroke="black" stroke-width="5"/>
<rect x="274.892" y="231.564" width="44.1207" height="44.1207" fill="white" stroke="black" stroke-width="5"/>
<rect x="274.892" y="182.436" width="44.1207" height="44.1207" fill="white" stroke="black" stroke-width="5"/>
<mask id="path-23-inside-9_52_31" fill="white">
<path d="M223.264 229.064H272.384V278.185H223.264V229.064Z"/>
</mask>
<path d="M223.264 229.064H272.384V278.185H223.264V229.064Z" fill="white"/>
<path d="M272.384 278.185V283.185H277.384V278.185H272.384ZM223.264 278.185H218.264V283.185H223.264V278.185ZM267.384 229.064V278.185H277.384V229.064H267.384ZM272.384 273.185H223.264V283.185H272.384V273.185ZM228.264 278.185V229.064H218.264V278.185H228.264Z" fill="black" mask="url(#path-23-inside-9_52_31)"/>
<rect x="176.636" y="84.3799" width="44.1207" height="44.1207" fill="white" stroke="black" stroke-width="5"/>
<rect x="176.5" y="280.5" width="44.1207" height="44.1207" fill="white" stroke="black" stroke-width="5"/>
<path d="M197.634 196.039C198.019 195.372 198.981 195.372 199.366 196.039L206.261 207.981C206.646 208.647 206.164 209.481 205.395 209.481H191.605C190.835 209.481 190.354 208.647 190.739 207.981L197.634 196.039Z" fill="black"/>
<path d="M190.368 163.88C190.197 163.88 190.048 163.816 189.92 163.688C189.792 163.571 189.728 163.427 189.728 163.256V150.344C189.728 150.163 189.792 150.013 189.92 149.896C190.048 149.779 190.197 149.72 190.368 149.72H192.576C192.757 149.72 192.901 149.773 193.008 149.88C193.115 149.987 193.168 150.12 193.168 150.28C193.168 150.44 193.115 150.579 193.008 150.696C192.901 150.803 192.757 150.856 192.576 150.856H191.184V162.744H192.576C192.757 162.744 192.901 162.797 193.008 162.904C193.115 163.021 193.168 163.16 193.168 163.32C193.168 163.48 193.115 163.613 193.008 163.72C192.901 163.827 192.757 163.88 192.576 163.88H190.368ZM195.284 161.112C195.049 161.112 194.868 161.048 194.74 160.92C194.612 160.781 194.548 160.589 194.548 160.344V150.472C194.548 150.227 194.612 150.04 194.74 149.912C194.878 149.784 195.065 149.72 195.299 149.72H199.108C200.324 149.72 201.257 150.019 201.908 150.616C202.569 151.213 202.9 152.051 202.9 153.128C202.9 154.216 202.569 155.059 201.908 155.656C201.257 156.253 200.324 156.552 199.108 156.552H196.036V160.344C196.036 160.589 195.972 160.781 195.844 160.92C195.726 161.048 195.54 161.112 195.284 161.112ZM196.036 155.352H198.916C199.748 155.352 200.372 155.165 200.788 154.792C201.214 154.408 201.428 153.853 201.428 153.128C201.428 152.403 201.214 151.859 200.788 151.496C200.372 151.123 199.748 150.936 198.916 150.936H196.036V155.352ZM203.827 163.88C203.656 163.88 203.517 163.827 203.411 163.72C203.304 163.613 203.251 163.48 203.251 163.32C203.251 163.16 203.304 163.021 203.411 162.904C203.517 162.797 203.656 162.744 203.827 162.744H205.219V150.856H203.827C203.656 150.856 203.517 150.803 203.411 150.696C203.304 150.579 203.251 150.44 203.251 150.28C203.251 150.12 203.304 149.987 203.411 149.88C203.517 149.773 203.656 149.72 203.827 149.72H206.035C206.216 149.72 206.365 149.779 206.483 149.896C206.611 150.013 206.675 150.163 206.675 150.344V163.256C206.675 163.427 206.611 163.571 206.483 163.688C206.365 163.816 206.216 163.88 206.035 163.88H203.827Z" fill="black"/>
<path d="M190.368 113.88C190.197 113.88 190.048 113.816 189.92 113.688C189.792 113.571 189.728 113.427 189.728 113.256V100.344C189.728 100.163 189.792 100.013 189.92 99.896C190.048 99.7787 190.197 99.72 190.368 99.72H192.576C192.757 99.72 192.901 99.7733 193.008 99.88C193.115 99.9867 193.168 100.12 193.168 100.28C193.168 100.44 193.115 100.579 193.008 100.696C192.901 100.803 192.757 100.856 192.576 100.856H191.184V112.744H192.576C192.757 112.744 192.901 112.797 193.008 112.904C193.115 113.021 193.168 113.16 193.168 113.32C193.168 113.48 193.115 113.613 193.008 113.72C192.901 113.827 192.757 113.88 192.576 113.88H190.368ZM195.348 111C195.092 111 194.894 110.931 194.756 110.792C194.617 110.653 194.548 110.456 194.548 110.2V100.52C194.548 100.264 194.617 100.067 194.756 99.928C194.894 99.7893 195.092 99.72 195.348 99.72H199.14C199.918 99.72 200.58 99.8373 201.124 100.072C201.678 100.307 202.1 100.643 202.388 101.08C202.676 101.517 202.82 102.045 202.82 102.664C202.82 103.357 202.617 103.939 202.212 104.408C201.806 104.877 201.252 105.192 200.548 105.352V105.112C201.337 105.208 201.956 105.501 202.404 105.992C202.862 106.472 203.092 107.101 203.092 107.88C203.092 108.883 202.761 109.656 202.1 110.2C201.449 110.733 200.526 111 199.332 111H195.348ZM195.988 109.832H199.172C200.004 109.832 200.622 109.672 201.028 109.352C201.433 109.021 201.635 108.52 201.635 107.848C201.635 107.176 201.433 106.68 201.028 106.36C200.622 106.04 200.004 105.88 199.172 105.88H195.988V109.832ZM195.988 104.696H198.916C199.726 104.696 200.334 104.536 200.74 104.216C201.156 103.885 201.364 103.411 201.364 102.792C201.364 102.173 201.156 101.704 200.74 101.384C200.334 101.053 199.726 100.888 198.916 100.888H195.988V104.696ZM204.655 113.88C204.484 113.88 204.346 113.827 204.239 113.72C204.132 113.613 204.079 113.48 204.079 113.32C204.079 113.16 204.132 113.021 204.239 112.904C204.346 112.797 204.484 112.744 204.655 112.744H206.047V100.856H204.655C204.484 100.856 204.346 100.803 204.239 100.696C204.132 100.579 204.079 100.44 204.079 100.28C204.079 100.12 204.132 99.9867 204.239 99.88C204.346 99.7733 204.484 99.72 204.655 99.72H206.863C207.044 99.72 207.194 99.7787 207.311 99.896C207.439 100.013 207.503 100.163 207.503 100.344V113.256C207.503 113.427 207.439 113.571 207.311 113.688C207.194 113.816 207.044 113.88 206.863 113.88H204.655Z" fill="black"/>
<path d="M92.368 163.88C92.1973 163.88 92.048 163.816 91.92 163.688C91.792 163.571 91.728 163.427 91.728 163.256V150.344C91.728 150.163 91.792 150.013 91.92 149.896C92.048 149.779 92.1973 149.72 92.368 149.72H94.576C94.7573 149.72 94.9013 149.773 95.008 149.88C95.1147 149.987 95.168 150.12 95.168 150.28C95.168 150.44 95.1147 150.579 95.008 150.696C94.9013 150.803 94.7573 150.856 94.576 150.856H93.184V162.744H94.576C94.7573 162.744 94.9013 162.797 95.008 162.904C95.1147 163.021 95.168 163.16 95.168 163.32C95.168 163.48 95.1147 163.613 95.008 163.72C94.9013 163.827 94.7573 163.88 94.576 163.88H92.368ZM97.3475 161C97.0915 161 96.8942 160.931 96.7555 160.792C96.6168 160.653 96.5475 160.456 96.5475 160.2V150.52C96.5475 150.264 96.6168 150.067 96.7555 149.928C96.8942 149.789 97.0915 149.72 97.3475 149.72H100.436C102.281 149.72 103.7 150.205 104.692 151.176C105.694 152.136 106.196 153.528 106.196 155.352C106.196 156.259 106.068 157.064 105.812 157.768C105.556 158.472 105.182 159.064 104.692 159.544C104.201 160.013 103.598 160.376 102.884 160.632C102.18 160.877 101.364 161 100.436 161H97.3475ZM98.0355 159.736H100.34C101.065 159.736 101.694 159.645 102.228 159.464C102.761 159.283 103.204 159.011 103.556 158.648C103.918 158.285 104.19 157.832 104.372 157.288C104.553 156.733 104.644 156.088 104.644 155.352C104.644 153.891 104.281 152.797 103.556 152.072C102.841 151.347 101.769 150.984 100.34 150.984H98.0355V159.736ZM107.608 163.88C107.437 163.88 107.299 163.827 107.192 163.72C107.085 163.613 107.032 163.48 107.032 163.32C107.032 163.16 107.085 163.021 107.192 162.904C107.299 162.797 107.437 162.744 107.608 162.744H109V150.856H107.608C107.437 150.856 107.299 150.803 107.192 150.696C107.085 150.579 107.032 150.44 107.032 150.28C107.032 150.12 107.085 149.987 107.192 149.88C107.299 149.773 107.437 149.72 107.608 149.72H109.816C109.997 149.72 110.147 149.779 110.264 149.896C110.392 150.013 110.456 150.163 110.456 150.344V163.256C110.456 163.427 110.392 163.571 110.264 163.688C110.147 163.816 109.997 163.88 109.816 163.88H107.608Z" fill="black"/>
<path d="M288.368 210.88C288.197 210.88 288.048 210.816 287.92 210.688C287.792 210.571 287.728 210.427 287.728 210.256V197.344C287.728 197.163 287.792 197.013 287.92 196.896C288.048 196.779 288.197 196.72 288.368 196.72H290.576C290.757 196.72 290.901 196.773 291.008 196.88C291.115 196.987 291.168 197.12 291.168 197.28C291.168 197.44 291.115 197.579 291.008 197.696C290.901 197.803 290.757 197.856 290.576 197.856H289.184V209.744H290.576C290.757 209.744 290.901 209.797 291.008 209.904C291.115 210.021 291.168 210.16 291.168 210.32C291.168 210.48 291.115 210.613 291.008 210.72C290.901 210.827 290.757 210.88 290.576 210.88H288.368ZM296.244 208.144C295.742 208.144 295.257 208.101 294.788 208.016C294.318 207.941 293.876 207.824 293.46 207.664C293.044 207.504 292.67 207.307 292.34 207.072C292.201 206.976 292.1 206.859 292.036 206.72C291.982 206.581 291.966 206.448 291.988 206.32C292.02 206.181 292.078 206.064 292.164 205.968C292.26 205.872 292.372 205.813 292.5 205.792C292.628 205.771 292.766 205.813 292.916 205.92C293.406 206.251 293.918 206.491 294.452 206.64C294.996 206.789 295.593 206.864 296.244 206.864C297.182 206.864 297.87 206.693 298.308 206.352C298.756 206.011 298.98 205.563 298.98 205.008C298.98 204.549 298.82 204.192 298.5 203.936C298.18 203.669 297.641 203.461 296.884 203.312L295.188 202.96C294.185 202.747 293.433 202.395 292.932 201.904C292.441 201.413 292.196 200.757 292.196 199.936C292.196 199.435 292.297 198.981 292.5 198.576C292.702 198.16 292.99 197.803 293.364 197.504C293.737 197.205 294.174 196.976 294.676 196.816C295.188 196.656 295.753 196.576 296.372 196.576C297.033 196.576 297.652 196.667 298.228 196.848C298.814 197.029 299.342 197.296 299.812 197.648C299.94 197.744 300.025 197.861 300.068 198C300.11 198.128 300.116 198.256 300.084 198.384C300.062 198.512 300.004 198.619 299.908 198.704C299.822 198.789 299.71 198.837 299.572 198.848C299.444 198.859 299.3 198.811 299.14 198.704C298.713 198.405 298.276 198.192 297.828 198.064C297.38 197.925 296.889 197.856 296.356 197.856C295.812 197.856 295.337 197.941 294.932 198.112C294.537 198.283 294.228 198.523 294.004 198.832C293.79 199.131 293.684 199.483 293.684 199.888C293.684 200.379 293.833 200.763 294.132 201.04C294.43 201.317 294.932 201.531 295.636 201.68L297.316 202.016C298.382 202.24 299.172 202.587 299.684 203.056C300.206 203.515 300.468 204.133 300.468 204.912C300.468 205.403 300.366 205.845 300.164 206.24C299.972 206.635 299.694 206.976 299.332 207.264C298.969 207.541 298.526 207.76 298.004 207.92C297.481 208.069 296.894 208.144 296.244 208.144ZM301.686 210.88C301.515 210.88 301.377 210.827 301.27 210.72C301.163 210.613 301.11 210.48 301.11 210.32C301.11 210.16 301.163 210.021 301.27 209.904C301.377 209.797 301.515 209.744 301.686 209.744H303.078V197.856H301.686C301.515 197.856 301.377 197.803 301.27 197.696C301.163 197.579 301.11 197.44 301.11 197.28C301.11 197.12 301.163 196.987 301.27 196.88C301.377 196.773 301.515 196.72 301.686 196.72H303.894C304.075 196.72 304.225 196.779 304.342 196.896C304.47 197.013 304.534 197.163 304.534 197.344V210.256C304.534 210.427 304.47 210.571 304.342 210.688C304.225 210.816 304.075 210.88 303.894 210.88H301.686Z" fill="black"/>
<path d="M289.368 261.88C289.197 261.88 289.048 261.816 288.92 261.688C288.792 261.571 288.728 261.427 288.728 261.256V248.344C288.728 248.163 288.792 248.013 288.92 247.896C289.048 247.779 289.197 247.72 289.368 247.72H291.576C291.757 247.72 291.901 247.773 292.008 247.88C292.115 247.987 292.168 248.12 292.168 248.28C292.168 248.44 292.115 248.579 292.008 248.696C291.901 248.803 291.757 248.856 291.576 248.856H290.184V260.744H291.576C291.757 260.744 291.901 260.797 292.008 260.904C292.115 261.021 292.168 261.16 292.168 261.32C292.168 261.48 292.115 261.613 292.008 261.72C291.901 261.827 291.757 261.88 291.576 261.88H289.368ZM297.244 259.144C296.742 259.144 296.257 259.101 295.788 259.016C295.318 258.941 294.876 258.824 294.46 258.664C294.044 258.504 293.67 258.307 293.34 258.072C293.201 257.976 293.1 257.859 293.036 257.72C292.982 257.581 292.966 257.448 292.988 257.32C293.02 257.181 293.078 257.064 293.164 256.968C293.26 256.872 293.372 256.813 293.5 256.792C293.628 256.771 293.766 256.813 293.916 256.92C294.406 257.251 294.918 257.491 295.452 257.64C295.996 257.789 296.593 257.864 297.244 257.864C298.182 257.864 298.87 257.693 299.308 257.352C299.756 257.011 299.98 256.563 299.98 256.008C299.98 255.549 299.82 255.192 299.5 254.936C299.18 254.669 298.641 254.461 297.884 254.312L296.188 253.96C295.185 253.747 294.433 253.395 293.932 252.904C293.441 252.413 293.196 251.757 293.196 250.936C293.196 250.435 293.297 249.981 293.5 249.576C293.702 249.16 293.99 248.803 294.364 248.504C294.737 248.205 295.174 247.976 295.676 247.816C296.188 247.656 296.753 247.576 297.372 247.576C298.033 247.576 298.652 247.667 299.228 247.848C299.814 248.029 300.342 248.296 300.812 248.648C300.94 248.744 301.025 248.861 301.068 249C301.11 249.128 301.116 249.256 301.084 249.384C301.062 249.512 301.004 249.619 300.908 249.704C300.822 249.789 300.71 249.837 300.572 249.848C300.444 249.859 300.3 249.811 300.14 249.704C299.713 249.405 299.276 249.192 298.828 249.064C298.38 248.925 297.889 248.856 297.356 248.856C296.812 248.856 296.337 248.941 295.932 249.112C295.537 249.283 295.228 249.523 295.004 249.832C294.79 250.131 294.684 250.483 294.684 250.888C294.684 251.379 294.833 251.763 295.132 252.04C295.43 252.317 295.932 252.531 296.636 252.68L298.316 253.016C299.382 253.24 300.172 253.587 300.684 254.056C301.206 254.515 301.468 255.133 301.468 255.912C301.468 256.403 301.366 256.845 301.164 257.24C300.972 257.635 300.694 257.976 300.332 258.264C299.969 258.541 299.526 258.76 299.004 258.92C298.481 259.069 297.894 259.144 297.244 259.144ZM302.686 261.88C302.515 261.88 302.377 261.827 302.27 261.72C302.163 261.613 302.11 261.48 302.11 261.32C302.11 261.16 302.163 261.021 302.27 260.904C302.377 260.797 302.515 260.744 302.686 260.744H304.078V248.856H302.686C302.515 248.856 302.377 248.803 302.27 248.696C302.163 248.579 302.11 248.44 302.11 248.28C302.11 248.12 302.163 247.987 302.27 247.88C302.377 247.773 302.515 247.72 302.686 247.72H304.894C305.075 247.72 305.225 247.779 305.342 247.896C305.47 248.013 305.534 248.163 305.534 248.344V261.256C305.534 261.427 305.47 261.571 305.342 261.688C305.225 261.816 305.075 261.88 304.894 261.88H302.686Z" fill="black"/>
<path d="M142.368 162.88C142.197 162.88 142.048 162.816 141.92 162.688C141.792 162.571 141.728 162.427 141.728 162.256V149.344C141.728 149.163 141.792 149.013 141.92 148.896C142.048 148.779 142.197 148.72 142.368 148.72H144.576C144.757 148.72 144.901 148.773 145.008 148.88C145.115 148.987 145.168 149.12 145.168 149.28C145.168 149.44 145.115 149.579 145.008 149.696C144.901 149.803 144.757 149.856 144.576 149.856H143.184V161.744H144.576C144.757 161.744 144.901 161.797 145.008 161.904C145.115 162.021 145.168 162.16 145.168 162.32C145.168 162.48 145.115 162.613 145.008 162.72C144.901 162.827 144.757 162.88 144.576 162.88H142.368ZM147.284 160.112C147.049 160.112 146.868 160.048 146.74 159.92C146.612 159.781 146.548 159.589 146.548 159.344V149.472C146.548 149.227 146.612 149.04 146.74 148.912C146.878 148.784 147.065 148.72 147.299 148.72H151.108C152.324 148.72 153.257 149.019 153.908 149.616C154.569 150.213 154.9 151.051 154.9 152.128C154.9 153.216 154.569 154.059 153.908 154.656C153.257 155.253 152.324 155.552 151.108 155.552H148.036V159.344C148.036 159.589 147.972 159.781 147.844 159.92C147.726 160.048 147.54 160.112 147.284 160.112ZM148.036 154.352H150.916C151.748 154.352 152.372 154.165 152.788 153.792C153.214 153.408 153.428 152.853 153.428 152.128C153.428 151.403 153.214 150.859 152.788 150.496C152.372 150.123 151.748 149.936 150.916 149.936H148.036V154.352ZM155.827 162.88C155.656 162.88 155.517 162.827 155.411 162.72C155.304 162.613 155.251 162.48 155.251 162.32C155.251 162.16 155.304 162.021 155.411 161.904C155.517 161.797 155.656 161.744 155.827 161.744H157.219V149.856H155.827C155.656 149.856 155.517 149.803 155.411 149.696C155.304 149.579 155.251 149.44 155.251 149.28C155.251 149.12 155.304 148.987 155.411 148.88C155.517 148.773 155.656 148.72 155.827 148.72H158.035C158.216 148.72 158.365 148.779 158.483 148.896C158.611 149.013 158.675 149.163 158.675 149.344V162.256C158.675 162.427 158.611 162.571 158.483 162.688C158.365 162.816 158.216 162.88 158.035 162.88H155.827Z" fill="black"/>
<path d="M239.368 211.88C239.197 211.88 239.048 211.816 238.92 211.688C238.792 211.571 238.728 211.427 238.728 211.256V198.344C238.728 198.163 238.792 198.013 238.92 197.896C239.048 197.779 239.197 197.72 239.368 197.72H241.576C241.757 197.72 241.901 197.773 242.008 197.88C242.115 197.987 242.168 198.12 242.168 198.28C242.168 198.44 242.115 198.579 242.008 198.696C241.901 198.803 241.757 198.856 241.576 198.856H240.184V210.744H241.576C241.757 210.744 241.901 210.797 242.008 210.904C242.115 211.021 242.168 211.16 242.168 211.32C242.168 211.48 242.115 211.613 242.008 211.72C241.901 211.827 241.757 211.88 241.576 211.88H239.368ZM247.244 209.144C246.742 209.144 246.257 209.101 245.788 209.016C245.318 208.941 244.876 208.824 244.46 208.664C244.044 208.504 243.67 208.307 243.34 208.072C243.201 207.976 243.1 207.859 243.036 207.72C242.982 207.581 242.966 207.448 242.988 207.32C243.02 207.181 243.078 207.064 243.164 206.968C243.26 206.872 243.372 206.813 243.5 206.792C243.628 206.771 243.766 206.813 243.916 206.92C244.406 207.251 244.918 207.491 245.452 207.64C245.996 207.789 246.593 207.864 247.244 207.864C248.182 207.864 248.87 207.693 249.308 207.352C249.756 207.011 249.98 206.563 249.98 206.008C249.98 205.549 249.82 205.192 249.5 204.936C249.18 204.669 248.641 204.461 247.884 204.312L246.188 203.96C245.185 203.747 244.433 203.395 243.932 202.904C243.441 202.413 243.196 201.757 243.196 200.936C243.196 200.435 243.297 199.981 243.5 199.576C243.702 199.16 243.99 198.803 244.364 198.504C244.737 198.205 245.174 197.976 245.676 197.816C246.188 197.656 246.753 197.576 247.372 197.576C248.033 197.576 248.652 197.667 249.228 197.848C249.814 198.029 250.342 198.296 250.812 198.648C250.94 198.744 251.025 198.861 251.068 199C251.11 199.128 251.116 199.256 251.084 199.384C251.062 199.512 251.004 199.619 250.908 199.704C250.822 199.789 250.71 199.837 250.572 199.848C250.444 199.859 250.3 199.811 250.14 199.704C249.713 199.405 249.276 199.192 248.828 199.064C248.38 198.925 247.889 198.856 247.356 198.856C246.812 198.856 246.337 198.941 245.932 199.112C245.537 199.283 245.228 199.523 245.004 199.832C244.79 200.131 244.684 200.483 244.684 200.888C244.684 201.379 244.833 201.763 245.132 202.04C245.43 202.317 245.932 202.531 246.636 202.68L248.316 203.016C249.382 203.24 250.172 203.587 250.684 204.056C251.206 204.515 251.468 205.133 251.468 205.912C251.468 206.403 251.366 206.845 251.164 207.24C250.972 207.635 250.694 207.976 250.332 208.264C249.969 208.541 249.526 208.76 249.004 208.92C248.481 209.069 247.894 209.144 247.244 209.144ZM252.686 211.88C252.515 211.88 252.377 211.827 252.27 211.72C252.163 211.613 252.11 211.48 252.11 211.32C252.11 211.16 252.163 211.021 252.27 210.904C252.377 210.797 252.515 210.744 252.686 210.744H254.078V198.856H252.686C252.515 198.856 252.377 198.803 252.27 198.696C252.163 198.579 252.11 198.44 252.11 198.28C252.11 198.12 252.163 197.987 252.27 197.88C252.377 197.773 252.515 197.72 252.686 197.72H254.894C255.075 197.72 255.225 197.779 255.342 197.896C255.47 198.013 255.534 198.163 255.534 198.344V211.256C255.534 211.427 255.47 211.571 255.342 211.688C255.225 211.816 255.075 211.88 254.894 211.88H252.686Z" fill="black"/>
<path d="M190.368 113.88C190.197 113.88 190.048 113.816 189.92 113.688C189.792 113.571 189.728 113.427 189.728 113.256V100.344C189.728 100.163 189.792 100.013 189.92 99.896C190.048 99.7787 190.197 99.72 190.368 99.72H192.576C192.757 99.72 192.901 99.7733 193.008 99.88C193.115 99.9867 193.168 100.12 193.168 100.28C193.168 100.44 193.115 100.579 193.008 100.696C192.901 100.803 192.757 100.856 192.576 100.856H191.184V112.744H192.576C192.757 112.744 192.901 112.797 193.008 112.904C193.115 113.021 193.168 113.16 193.168 113.32C193.168 113.48 193.115 113.613 193.008 113.72C192.901 113.827 192.757 113.88 192.576 113.88H190.368ZM195.348 111C195.092 111 194.894 110.931 194.756 110.792C194.617 110.653 194.548 110.456 194.548 110.2V100.52C194.548 100.264 194.617 100.067 194.756 99.928C194.894 99.7893 195.092 99.72 195.348 99.72H199.14C199.918 99.72 200.58 99.8373 201.124 100.072C201.678 100.307 202.1 100.643 202.388 101.08C202.676 101.517 202.82 102.045 202.82 102.664C202.82 103.357 202.617 103.939 202.212 104.408C201.806 104.877 201.252 105.192 200.548 105.352V105.112C201.337 105.208 201.956 105.501 202.404 105.992C202.862 106.472 203.092 107.101 203.092 107.88C203.092 108.883 202.761 109.656 202.1 110.2C201.449 110.733 200.526 111 199.332 111H195.348ZM195.988 109.832H199.172C200.004 109.832 200.622 109.672 201.028 109.352C201.433 109.021 201.635 108.52 201.635 107.848C201.635 107.176 201.433 106.68 201.028 106.36C200.622 106.04 200.004 105.88 199.172 105.88H195.988V109.832ZM195.988 104.696H198.916C199.726 104.696 200.334 104.536 200.74 104.216C201.156 103.885 201.364 103.411 201.364 102.792C201.364 102.173 201.156 101.704 200.74 101.384C200.334 101.053 199.726 100.888 198.916 100.888H195.988V104.696ZM204.655 113.88C204.484 113.88 204.346 113.827 204.239 113.72C204.132 113.613 204.079 113.48 204.079 113.32C204.079 113.16 204.132 113.021 204.239 112.904C204.346 112.797 204.484 112.744 204.655 112.744H206.047V100.856H204.655C204.484 100.856 204.346 100.803 204.239 100.696C204.132 100.579 204.079 100.44 204.079 100.28C204.079 100.12 204.132 99.9867 204.239 99.88C204.346 99.7733 204.484 99.72 204.655 99.72H206.863C207.044 99.72 207.194 99.7787 207.311 99.896C207.439 100.013 207.503 100.163 207.503 100.344V113.256C207.503 113.427 207.439 113.571 207.311 113.688C207.194 113.816 207.044 113.88 206.863 113.88H204.655Z" fill="black"/>
</svg>
